<?xml version="1.0" encoding="UTF-8"?>
<svg id="Calque_1" data-name="Calque 1" xmlns="http://www.w3.org/2000/svg" viewBox="0 0 500 500">
  <defs>
    <style>
      .cls-1 {
        fill: #6a6af4;
      }

      .cls-2 {
        fill: #000091;
      }
    </style>
  </defs>
  <path class="cls-2" d="m285.75,412h-133.65c-11.02,0-19.98-8.96-19.98-19.98v-219.6c0-2.76,2.24-5,5-5s5,2.24,5,5v219.6c0,5.51,4.48,9.99,9.99,9.99h133.65c5.51,0,9.99-4.48,9.99-9.99v-219.6c0-2.76,2.24-5,5-5s5,2.24,5,5v219.6c0,11.02-8.96,19.98-19.98,19.98Z"/>
  <path class="cls-2" d="m371.88,412h-86.12c-2.76,0-5-2.24-5-5s2.24-5,5-5h81.13V95.87c0-2.76,2.24-5,5-5s5,2.24,5,5v311.13c0,2.76-2.24,5-5,5Z"/>
  <path class="cls-1" d="m280.3,215.38h-117.22c-2.76,0-5-2.24-5-5s2.24-5,5-5h117.22c2.76,0,5,2.24,5,5s-2.24,5-5,5Z"/>
  <path class="cls-2" d="m263.69,333.24h-83.99c-11.02,0-19.98-8.96-19.98-19.98v-47.09c0-11.02,8.96-19.98,19.98-19.98h83.99c11.02,0,19.98,8.96,19.98,19.98v47.09c0,11.02-8.96,19.98-19.98,19.98Zm-83.99-77.06c-5.51,0-9.99,4.48-9.99,9.99v47.09c0,5.51,4.48,9.99,9.99,9.99h83.99c5.51,0,9.99-4.48,9.99-9.99v-47.09c0-5.51-4.48-9.99-9.99-9.99h-83.99Z"/>
  <path class="cls-2" d="m223.32,307.33c-1.13,0-2.26-.38-3.18-1.14l-55.22-45.62c-2.13-1.76-2.43-4.91-.67-7.03,1.76-2.13,4.9-2.43,7.03-.67l51.94,42.91,48.77-42.82c2.07-1.82,5.23-1.61,7.05.46,1.82,2.07,1.62,5.23-.46,7.05l-51.97,45.62c-.94.83-2.12,1.24-3.3,1.24Z"/>
  <g>
    <line class="cls-1" x1="168.1" y1="322.72" x2="206.43" y2="288.38"/>
    <path class="cls-2" d="m168.1,327.72c-1.37,0-2.74-.56-3.72-1.66-1.84-2.05-1.67-5.21.39-7.05l38.33-34.34c2.06-1.84,5.21-1.67,7.05.39,1.84,2.05,1.67,5.21-.39,7.05l-38.33,34.34c-.95.85-2.15,1.27-3.33,1.27Z"/>
  </g>
  <g>
    <line class="cls-1" x1="270.99" y1="322.72" x2="236.95" y2="292.22"/>
    <path class="cls-2" d="m270.99,327.72c-1.19,0-2.38-.42-3.33-1.27l-34.04-30.5c-2.05-1.84-2.23-5-.39-7.05,1.84-2.05,5-2.23,7.05-.39l34.04,30.5c2.05,1.84,2.23,5,.39,7.05-.99,1.1-2.35,1.66-3.72,1.66Z"/>
  </g>
  <g>
    <polygon class="cls-1" points="123.68 172.42 300.74 172.42 371.88 95.87 185.6 95.87 123.68 172.42"/>
    <path class="cls-1" d="m300.74,177.42H123.68c-1.92,0-3.68-1.11-4.51-2.84s-.59-3.8.62-5.29l61.92-76.55c.95-1.17,2.38-1.85,3.88-1.85h186.28c1.99,0,3.79,1.18,4.58,3s.43,3.94-.92,5.4l-71.14,76.55c-.95,1.02-2.27,1.59-3.66,1.59Zm-166.59-9.99h164.42l61.85-66.56h-172.43l-53.84,66.56Z"/>
  </g>
</svg>