<?xml version="1.0" encoding="UTF-8"?>
<svg id="Calque_1" data-name="Calque 1" xmlns="http://www.w3.org/2000/svg" viewBox="0 0 500 500">
  <defs>
    <style>
      .cls-1 {
        fill: #000091;
      }

      .cls-2 {
        fill: #6a6af4;
      }

      .cls-3 {
        fill: #e4794a;
      }
    </style>
  </defs>
  <g>
    <path class="cls-1" d="m413.83,437h-96.25c-1.26,0-2.28-1.02-2.28-2.28v-176.45c0-1.26,1.02-2.28,2.28-2.28h96.25c1.26,0,2.28,1.02,2.28,2.28v54.78c0,1.26-1.02,2.28-2.28,2.28s-2.28-1.02-2.28-2.28v-52.51h-91.7v171.9h91.7v-82.38c0-1.26,1.02-2.28,2.28-2.28s2.28,1.02,2.28,2.28v84.65c0,1.26-1.02,2.28-2.28,2.28Z"/>
    <path class="cls-1" d="m388.35,400.53h-43.63c-1.26,0-2.28-1.02-2.28-2.28s1.02-2.28,2.28-2.28h43.63c1.26,0,2.28,1.02,2.28,2.28s-1.02,2.28-2.28,2.28Z"/>
    <path class="cls-1" d="m382.64,437h-32.19c-1.26,0-2.28-1.02-2.28-2.28v-36.47c0-1.26,1.02-2.28,2.28-2.28h32.19c1.26,0,2.28,1.02,2.28,2.28v36.47c0,1.26-1.02,2.28-2.28,2.28Zm-29.92-4.55h27.64v-31.92h-27.64v31.92Z"/>
    <path class="cls-1" d="m358.05,307.08h-21.75c-1.26,0-2.28-1.02-2.28-2.28v-21.75c0-1.26,1.02-2.28,2.28-2.28h21.75c1.26,0,2.28,1.02,2.28,2.28v21.75c0,1.26-1.02,2.28-2.28,2.28Zm-19.47-4.55h17.2v-17.2h-17.2v17.2Z"/>
    <path class="cls-1" d="m374.85,303.51c-1.26,0-2.28-1.02-2.28-2.28v-18.19c0-1.26,1.02-2.28,2.28-2.28h21.75c1.26,0,2.28,1.02,2.28,2.28v17.14c0,1.26-1.02,2.28-2.28,2.28s-2.28-1.02-2.28-2.28v-14.87h-17.2v15.91c0,1.26-1.02,2.28-2.28,2.28Z"/>
    <path class="cls-1" d="m355.96,343.25h-19.49c-1.26,0-2.28-1.02-2.28-2.28v-21.75c0-1.26,1.02-2.28,2.28-2.28h19.65c1.26,0,2.28,1.02,2.28,2.28s-1.02,2.28-2.28,2.28h-17.37v17.2h17.21c1.26,0,2.28,1.02,2.28,2.28s-1.02,2.28-2.28,2.28Z"/>
    <path class="cls-1" d="m358.22,381.27h-21.75c-1.26,0-2.28-1.02-2.28-2.28v-21.75c0-1.26,1.02-2.28,2.28-2.28h21.75c1.26,0,2.28,1.02,2.28,2.28v21.75c0,1.26-1.02,2.28-2.28,2.28Zm-19.47-4.55h17.2v-17.2h-17.2v17.2Z"/>
    <path class="cls-1" d="m396.76,381.27h-21.75c-1.26,0-2.28-1.02-2.28-2.28v-18.29c0-1.26,1.02-2.28,2.28-2.28s2.28,1.02,2.28,2.28v16.02h17.2v-13.89c0-1.26,1.02-2.28,2.28-2.28s2.28,1.02,2.28,2.28v16.16c0,1.26-1.02,2.28-2.28,2.28Z"/>
    <path class="cls-2" d="m387.09,365.12c-6.79,0-13.43-2.02-19.18-5.92-7.58-5.14-12.71-12.93-14.44-21.93-1.73-9,.15-18.13,5.3-25.71,5.14-7.58,12.93-12.71,21.93-14.44,9-1.73,18.13.15,25.71,5.3,7.58,5.14,12.71,12.93,14.44,21.93,1.73,9-.15,18.13-5.3,25.71-5.14,7.58-12.93,12.71-21.93,14.44-2.18.42-4.36.62-6.53.62Zm.13-64.07c-1.88,0-3.78.18-5.67.54-7.8,1.5-14.56,5.94-19.02,12.52-4.46,6.58-6.09,14.5-4.59,22.3,1.5,7.8,5.94,14.56,12.52,19.02,6.58,4.46,14.5,6.09,22.3,4.59,7.8-1.5,14.56-5.94,19.02-12.52,4.46-6.58,6.09-14.5,4.59-22.3-1.5-7.8-5.94-14.56-12.52-19.02-4.98-3.38-10.74-5.14-16.63-5.14Z"/>
    <path class="cls-2" d="m416.88,342.74l42.8,29.02c2.84,1.93,3.59,5.83,1.67,8.68h0c-1.93,2.84-5.83,3.59-8.68,1.67l-42.62-28.9"/>
    <rect class="cls-2" x="369.58" y="313.22" width="35.18" height="35.18"/>
  </g>
  <g>
    <rect class="cls-3" x="162.02" y="117.8" width="16.74" height="19.11" transform="translate(340.77 254.7) rotate(-180)"/>
    <rect class="cls-3" x="162.02" y="150.04" width="16.74" height="19.11" transform="translate(340.77 319.19) rotate(-180)"/>
    <path class="cls-1" d="m82.23,218h-40.3c-1.07,0-1.93-.86-1.93-1.93v-112.95c0-1.07.86-1.93,1.93-1.93h37.2c1.07,0,1.93.86,1.93,1.93s-.86,1.93-1.93,1.93h-35.27v109.09h38.37c1.07,0,1.93.86,1.93,1.93s-.86,1.93-1.93,1.93Z"/>
    <rect class="cls-3" x="62.08" y="117.8" width="16.74" height="19.11"/>
    <rect class="cls-3" x="62.08" y="150.04" width="16.74" height="19.11"/>
    <path class="cls-1" d="m160.74,218h-81.61c-1.07,0-1.93-.86-1.93-1.93V66.45c0-1.07.86-1.93,1.93-1.93h81.61c1.07,0,1.93.86,1.93,1.93v149.63c0,1.07-.86,1.93-1.93,1.93Zm-79.68-3.86h77.76V68.37h-77.76v145.77Z"/>
    <path class="cls-1" d="m62.08,218c-1.07,0-1.93-.86-1.93-1.93v-30.92c0-1.07.86-1.93,1.93-1.93h16.74c1.07,0,1.93.86,1.93,1.93s-.86,1.93-1.93,1.93h-14.81v28.99c0,1.07-.86,1.93-1.93,1.93Z"/>
    <path class="cls-1" d="m198.9,218h-40.3c-1.07,0-1.93-.86-1.93-1.93s.86-1.93,1.93-1.93h38.37v-109.09h-35.27c-1.07,0-1.93-.86-1.93-1.93s.86-1.93,1.93-1.93h37.2c1.07,0,1.93.86,1.93,1.93v112.95c0,1.07-.86,1.93-1.93,1.93Z"/>
    <path class="cls-1" d="m178.75,218c-1.07,0-1.93-.86-1.93-1.93v-28.99h-14.81c-1.07,0-1.93-.86-1.93-1.93s.86-1.93,1.93-1.93h16.74c1.07,0,1.93.86,1.93,1.93v30.92c0,1.07-.86,1.93-1.93,1.93Z"/>
    <path class="cls-1" d="m139.14,187.08h-36.99c-1.07,0-1.93-.86-1.93-1.93s.86-1.93,1.93-1.93h36.99c1.07,0,1.93.86,1.93,1.93s-.86,1.93-1.93,1.93Z"/>
    <path class="cls-1" d="m134.29,218h-27.3c-1.07,0-1.93-.86-1.93-1.93v-30.92c0-1.07.86-1.93,1.93-1.93h27.3c1.07,0,1.93.86,1.93,1.93v30.92c0,1.07-.86,1.93-1.93,1.93Zm-25.37-3.86h23.44v-27.06h-23.44v27.06Z"/>
    <rect class="cls-3" x="95" y="87.46" width="18.44" height="18.44"/>
    <rect class="cls-3" x="127.68" y="87.46" width="18.44" height="18.44"/>
    <rect class="cls-3" x="95.14" y="118.13" width="18.44" height="18.44"/>
    <rect class="cls-3" x="127.82" y="118.13" width="18.44" height="18.44"/>
    <rect class="cls-3" x="95.14" y="150.37" width="18.44" height="18.44"/>
    <rect class="cls-3" x="127.82" y="150.37" width="18.44" height="18.44"/>
  </g>
  <path class="cls-1" d="m159.46,436.32c-.75,0-1.52-.17-2.24-.53-2.47-1.24-3.47-4.24-2.23-6.71L336.47,66.77c1.24-2.47,4.24-3.47,6.71-2.23,2.47,1.24,3.47,4.24,2.23,6.71l-181.48,362.31c-.88,1.75-2.64,2.76-4.47,2.76Z"/>
</svg>