<?xml version="1.0" encoding="UTF-8"?>
<svg id="Calque_1" data-name="Calque 1" xmlns="http://www.w3.org/2000/svg" viewBox="0 0 500 500">
  <defs>
    <style>
      .cls-1 {
        fill: #6a6af4;
      }

      .cls-2 {
        fill: #000091;
      }
    </style>
  </defs>
  <path class="cls-2" d="m350.11,412.24h-200.39c-7.66,0-13.89-6.23-13.89-13.89V131.75c0-7.66,6.23-13.89,13.89-13.89h59.23c1.92,0,3.47,1.55,3.47,3.47s-1.55,3.47-3.47,3.47h-59.23c-3.83,0-6.94,3.12-6.94,6.94v266.6c0,3.83,3.12,6.94,6.94,6.94h200.39c3.83,0,6.94-3.12,6.94-6.94V131.75c0-3.83-3.12-6.94-6.94-6.94h-56.96c-1.92,0-3.47-1.55-3.47-3.47s1.55-3.47,3.47-3.47h56.96c7.66,0,13.89,6.23,13.89,13.89v266.6c0,7.66-6.23,13.89-13.89,13.89Z"/>
  <g>
    <path class="cls-1" d="m280.09,106.69h-17.9c0-6.78-5.49-12.27-12.27-12.27s-12.27,5.49-12.27,12.27h-18.42c-5.73,0-10.42,4.69-10.42,10.42v3.35c0,5.73,4.69,10.42,10.42,10.42h60.87c5.73,0,10.42-4.69,10.42-10.42v-3.35c0-5.73-4.69-10.42-10.42-10.42Z"/>
    <path class="cls-1" d="m280.09,134.34h-60.87c-7.66,0-13.89-6.23-13.89-13.89v-3.35c0-7.66,6.23-13.89,13.89-13.89h15.33c1.59-7.02,7.87-12.27,15.36-12.27s13.77,5.26,15.36,12.27h14.82c7.66,0,13.89,6.23,13.89,13.89v3.35c0,7.66-6.23,13.89-13.89,13.89Zm-60.87-24.18c-3.83,0-6.94,3.12-6.94,6.94v3.35c0,3.83,3.12,6.94,6.94,6.94h60.87c3.83,0,6.94-3.12,6.94-6.94v-3.35c0-3.83-3.12-6.94-6.94-6.94h-17.9c-1.92,0-3.47-1.55-3.47-3.47,0-4.85-3.95-8.8-8.8-8.8s-8.8,3.95-8.8,8.8c0,1.92-1.55,3.47-3.47,3.47h-18.42Z"/>
  </g>
  <path class="cls-2" d="m330.74,170.34h-80.83c-1.92,0-3.47-1.55-3.47-3.47s1.55-3.47,3.47-3.47h80.83c1.92,0,3.47,1.55,3.47,3.47s-1.55,3.47-3.47,3.47Z"/>
  <path class="cls-2" d="m290.33,185.71h-40.41c-1.92,0-3.47-1.55-3.47-3.47s1.55-3.47,3.47-3.47h40.41c1.92,0,3.47,1.55,3.47,3.47s-1.55,3.47-3.47,3.47Z"/>
  <path class="cls-2" d="m330.92,230.31h-80.83c-1.92,0-3.47-1.55-3.47-3.47s1.55-3.47,3.47-3.47h80.83c1.92,0,3.47,1.55,3.47,3.47s-1.55,3.47-3.47,3.47Z"/>
  <path class="cls-2" d="m290.51,245.68h-40.41c-1.92,0-3.47-1.55-3.47-3.47s1.55-3.47,3.47-3.47h40.41c1.92,0,3.47,1.55,3.47,3.47s-1.55,3.47-3.47,3.47Z"/>
  <path class="cls-2" d="m331.1,290.28h-80.83c-1.92,0-3.47-1.55-3.47-3.47s1.55-3.47,3.47-3.47h80.83c1.92,0,3.47,1.55,3.47,3.47s-1.55,3.47-3.47,3.47Z"/>
  <path class="cls-2" d="m290.68,305.66h-40.41c-1.92,0-3.47-1.55-3.47-3.47s1.55-3.47,3.47-3.47h40.41c1.92,0,3.47,1.55,3.47,3.47s-1.55,3.47-3.47,3.47Z"/>
  <path class="cls-2" d="m331.27,350.25h-80.83c-1.92,0-3.47-1.55-3.47-3.47s1.55-3.47,3.47-3.47h80.83c1.92,0,3.47,1.55,3.47,3.47s-1.55,3.47-3.47,3.47Z"/>
  <path class="cls-2" d="m290.86,365.63h-40.41c-1.92,0-3.47-1.55-3.47-3.47s1.55-3.47,3.47-3.47h40.41c1.92,0,3.47,1.55,3.47,3.47s-1.55,3.47-3.47,3.47Z"/>
  <path class="cls-1" d="m185.66,189.09s-.08,0-.12,0c-.96-.03-1.87-.46-2.5-1.19l-10.42-11.95c-1.26-1.45-1.11-3.64.33-4.9,1.45-1.26,3.64-1.11,4.9.34l7.98,9.15,20.51-20.51c1.35-1.36,3.56-1.36,4.91,0,1.36,1.36,1.36,3.55,0,4.91l-23.14,23.14c-.65.65-1.54,1.02-2.46,1.02Z"/>
  <path class="cls-1" d="m185.66,249.48s-.08,0-.12,0c-.96-.03-1.87-.46-2.5-1.19l-10.42-11.95c-1.26-1.45-1.11-3.64.33-4.9,1.45-1.26,3.64-1.11,4.9.34l7.98,9.15,20.51-20.51c1.35-1.36,3.56-1.36,4.91,0,1.36,1.36,1.36,3.55,0,4.91l-23.14,23.14c-.65.65-1.54,1.02-2.46,1.02Z"/>
  <path class="cls-1" d="m185.66,309.88s-.08,0-.12,0c-.96-.03-1.87-.46-2.5-1.19l-10.42-11.95c-1.26-1.45-1.11-3.64.33-4.9,1.45-1.26,3.64-1.11,4.9.34l7.98,9.15,20.51-20.51c1.35-1.36,3.56-1.36,4.91,0,1.36,1.36,1.36,3.55,0,4.91l-23.14,23.14c-.65.65-1.54,1.02-2.46,1.02Z"/>
  <path class="cls-2" d="m202.95,372.18c-.89,0-1.78-.34-2.46-1.02l-26.91-26.91c-1.36-1.36-1.36-3.55,0-4.91,1.35-1.36,3.56-1.36,4.91,0l26.91,26.91c1.36,1.36,1.36,3.55,0,4.91-.68.68-1.57,1.02-2.46,1.02Z"/>
  <path class="cls-2" d="m175.61,372.18c-.89,0-1.78-.34-2.46-1.02-1.36-1.36-1.36-3.55,0-4.91l26.91-26.91c1.35-1.36,3.56-1.36,4.91,0,1.36,1.36,1.36,3.55,0,4.91l-26.91,26.91c-.68.68-1.57,1.02-2.46,1.02Z"/>
</svg>