<?xml version="1.0" encoding="UTF-8"?>
<svg id="Calque_1" data-name="Calque 1" xmlns="http://www.w3.org/2000/svg" viewBox="0 0 500 500">
  <defs>
    <style>
      .cls-1 {
        fill: #000091;
      }

      .cls-2 {
        fill: #6a6af4;
      }

      .cls-3 {
        fill: #e4794a;
      }
    </style>
  </defs>
  <path class="cls-1" d="m361.06,407.63h-223.3c-2.66,0-4.82-2.16-4.82-4.82v-171.09c0-2.66,2.16-4.82,4.82-4.82s4.82,2.16,4.82,4.82v166.26h213.66v-168.96c0-2.66,2.16-4.82,4.82-4.82s4.82,2.16,4.82,4.82v173.79c0,2.66-2.16,4.82-4.82,4.82Z"/>
  <path class="cls-1" d="m384.72,248.68c-4.38,0-8.78-1.48-12.39-4.5l-122.56-102.11-121.71,102.11c-8.15,6.84-20.35,5.77-27.18-2.38l-.61-.73c-6.84-8.15-5.77-20.34,2.38-27.18l143.49-120.38c1.78-1.5,4.38-1.51,6.18-.02l145.41,120.38c8.17,6.86,9.24,19.05,2.4,27.2l-.61.73c-3.81,4.54-9.29,6.89-14.8,6.89ZM249.26,103.48l-140.41,117.8c-4.07,3.42-4.61,9.52-1.19,13.59l.61.73c3.42,4.07,9.52,4.61,13.59,1.19l124.8-104.7c1.79-1.5,4.39-1.51,6.19-.01l125.67,104.7c4.09,3.43,10.18,2.9,13.6-1.18l.61-.73c1.65-1.96,2.43-4.46,2.2-7.04-.23-2.58-1.43-4.9-3.39-6.55l-142.29-117.8Z"/>
  <g>
    <path class="cls-2" d="m249.45,209.44s13.77-16.37,26.25-4.56c26.69,27.47-26.25,57.95-26.25,57.95h-.44s-52.94-30.48-26.25-57.95c12.48-11.8,26.25,4.56,26.25,4.56"/>
    <path class="cls-3" d="m249.45,267.66h-.44c-.84,0-1.67-.22-2.41-.64-1.34-.77-32.77-19.1-35.93-41.73-1.21-8.63,1.7-16.63,8.62-23.76.05-.05.1-.1.14-.14,4.16-3.94,9.1-5.87,14.28-5.57,6.58.37,12.13,4.13,15.51,7.07,3.39-2.94,8.93-6.69,15.51-7.07,5.17-.3,10.12,1.63,14.28,5.57.05.05.1.09.14.14,6.93,7.13,9.83,15.12,8.62,23.76-3.16,22.63-34.59,40.96-35.93,41.73-.73.42-1.56.64-2.41.64Zm-23.31-59.34c-4.76,4.93-6.69,10.04-5.92,15.62,1.9,13.7,19.91,27.65,29,33.39,9.09-5.74,27.1-19.7,29-33.39.78-5.58-1.16-10.69-5.92-15.62-2.22-2.08-4.53-3.02-7.03-2.88-5.28.3-10.67,5.36-12.15,7.11-1,1.19-2.47,1.77-3.91,1.71-1.43.06-2.91-.52-3.91-1.71-1.6-1.87-6.92-6.83-12.17-7.11-2.49-.13-4.78.81-7,2.88Z"/>
  </g>
  <path class="cls-1" d="m247.61,407.63c-2.66,0-4.82-2.16-4.82-4.82,0-29.3-12.05-44.16-35.81-44.16-29.6,0-35.81,24.01-35.81,44.16,0,2.66-2.16,4.82-4.82,4.82s-4.82-2.16-4.82-4.82c0-34.2,16.57-53.81,45.46-53.81s45.46,19.11,45.46,53.81c0,2.66-2.16,4.82-4.82,4.82Z"/>
  <path class="cls-1" d="m206.97,341.95c-12.17,0-22.08-9.9-22.08-22.08s9.9-22.08,22.08-22.08,22.08,9.91,22.08,22.08-9.91,22.08-22.08,22.08Zm0-34.51c-6.86,0-12.43,5.58-12.43,12.43s5.58,12.43,12.43,12.43,12.43-5.58,12.43-12.43-5.58-12.43-12.43-12.43Z"/>
  <path class="cls-1" d="m332.67,407.63c-2.66,0-4.82-2.16-4.82-4.82,0-29.3-12.05-44.16-35.81-44.16-29.6,0-35.81,24.01-35.81,44.16,0,2.66-2.16,4.82-4.82,4.82s-4.82-2.16-4.82-4.82c0-34.2,16.57-53.81,45.46-53.81s45.46,19.11,45.46,53.81c0,2.66-2.16,4.82-4.82,4.82Z"/>
  <path class="cls-1" d="m292.04,341.95c-12.17,0-22.08-9.9-22.08-22.08s9.9-22.08,22.08-22.08,22.08,9.91,22.08,22.08-9.91,22.08-22.08,22.08Zm0-34.51c-6.86,0-12.43,5.58-12.43,12.43s5.58,12.43,12.43,12.43,12.43-5.58,12.43-12.43-5.58-12.43-12.43-12.43Z"/>
</svg>