<?xml version="1.0" encoding="UTF-8"?><svg id="Calque_1" xmlns="http://www.w3.org/2000/svg" viewBox="0 0 500 500"><defs><style>.cls-1{fill:#000091;}.cls-2{fill:#6a6af4;}.cls-3{fill:#e4794a;}</style></defs><path class="cls-1" d="m218.38,325.88h-104.59c-2.21,0-4-1.79-4-4v-129.51c0-2.21,1.79-4,4-4h104.59c2.21,0,4,1.79,4,4v60.81c0,2.21-1.79,4-4,4s-4-1.79-4-4v-56.81h-96.59v121.51h96.59v-31.3c0-2.21,1.79-4,4-4s4,1.79,4,4v35.3c0,2.21-1.79,4-4,4Z"/><path class="cls-3" d="m253.27,423.03h-34.88c-2.21,0-4-1.79-4-4s1.79-4,4-4h33.21l29.09-29.61c1.55-1.58,4.08-1.6,5.66-.05,1.58,1.55,1.6,4.08.05,5.66l-30.26,30.81c-.75.77-1.78,1.2-2.85,1.2Z"/><path class="cls-1" d="m218.38,423.03h-104.59c-2.21,0-4-1.79-4-4v-97.16c0-2.21,1.79-4,4-4h104.59c2.21,0,4,1.79,4,4v33.4c0,2.21-1.79,4-4,4s-4-1.79-4-4v-29.4h-96.59v89.16h96.59v-25.72c0-2.21,1.79-4,4-4s4,1.79,4,4v29.72c0,2.21-1.79,4-4,4Z"/><path class="cls-1" d="m386.02,325.88h-167.64c-2.21,0-4-1.79-4-4s1.79-4,4-4h163.64v-169.95h-159.64v44.45c0,2.21-1.79,4-4,4s-4-1.79-4-4v-48.45c0-2.21,1.79-4,4-4h167.64c2.21,0,4,1.79,4,4v177.95c0,2.21-1.79,4-4,4Z"/><path class="cls-1" d="m336.17,423.03h-41.85c-2.21,0-4-1.79-4-4s1.79-4,4-4h37.85v-93.16c0-2.21,1.79-4,4-4s4,1.79,4,4v97.16c0,2.21-1.79,4-4,4Z"/><path class="cls-2" d="m386.02,108.95H113.79c-2.21,0-4-1.79-4-4s1.79-4,4-4h272.23c2.21,0,4,1.79,4,4s-1.79,4-4,4Z"/><polyline class="cls-2" points="113.79 105.58 129.38 121.17 129.38 88.74 113.79 104.32"/><path class="cls-2" d="m129.38,125.17c-1.04,0-2.06-.41-2.83-1.17l-15.59-15.59c-.94-.94-1.32-2.24-1.12-3.46-.19-1.22.18-2.52,1.12-3.46l15.59-15.59c1.14-1.14,2.86-1.49,4.36-.87,1.49.62,2.47,2.08,2.47,3.7v32.43c0,1.62-.97,3.08-2.47,3.7-.5.21-1.01.3-1.53.3Zm-10.56-20.22l6.56,6.56v-13.12l-6.56,6.56Z"/><polyline class="cls-2" points="386.02 104.32 370.43 88.74 370.43 121.17 386.02 105.58"/><path class="cls-2" d="m370.43,125.17c-.52,0-1.04-.1-1.53-.3-1.5-.62-2.47-2.08-2.47-3.7v-32.43c0-1.62.97-3.08,2.47-3.7,1.49-.62,3.21-.28,4.36.87l15.59,15.59c.94.94,1.32,2.24,1.12,3.46.19,1.22-.18,2.52-1.12,3.46l-15.59,15.59c-.76.77-1.79,1.17-2.83,1.17Zm4-26.78v13.12l6.56-6.56-6.56-6.56Z"/></svg>