<?xml version="1.0" encoding="UTF-8"?>
<svg id="Calque_1" data-name="Calque 1" xmlns="http://www.w3.org/2000/svg" viewBox="0 0 500 500">
  <defs>
    <style>
      .cls-1 {
        fill: #6a6af4;
      }

      .cls-2 {
        fill: #000091;
      }
    </style>
  </defs>
  <g>
    <path class="cls-1" d="m243.06,230.8c-6.88-13.58-20.97-22.9-37.24-22.9-23.05,0-41.74,18.69-41.74,41.74h60.43c0-10.31,8.28-18.67,18.54-18.84Z"/>
    <path class="cls-1" d="m224.52,254.14h-60.43c-2.49,0-4.51-2.02-4.51-4.51,0-25.5,20.75-46.24,46.24-46.24,17.52,0,33.33,9.72,41.26,25.37.7,1.39.64,3.04-.16,4.37-.8,1.33-2.23,2.15-3.79,2.18-7.78.13-14.11,6.55-14.11,14.33,0,2.49-2.02,4.51-4.51,4.51Zm-55.65-9.02h51.58c1.63-8.17,7.57-14.88,15.35-17.57-6.95-9.47-17.96-15.15-29.98-15.15-19,0-34.72,14.31-36.95,32.72Z"/>
  </g>
  <g>
    <path class="cls-1" d="m224.54,250.14c-15.99,5.84-27.41,21.19-27.41,39.21,0,23.05,18.69,41.74,41.74,41.74v-63.17c-8.07-1.98-14.1-9.15-14.33-17.78Z"/>
    <path class="cls-1" d="m238.87,335.6c-25.5,0-46.24-20.75-46.24-46.24,0-19.35,12.21-36.81,30.37-43.45,1.36-.5,2.88-.31,4.08.51,1.2.82,1.93,2.16,1.97,3.61.17,6.43,4.65,11.99,10.89,13.52,2.02.49,3.43,2.3,3.43,4.38v63.17c0,2.49-2.02,4.51-4.51,4.51Zm-17.77-78.97c-11.83,6.44-19.46,18.99-19.46,32.72,0,19,14.31,34.72,32.72,36.95v-55.14c-6.36-2.67-11.2-8.03-13.26-14.54Z"/>
  </g>
  <g>
    <path class="cls-1" d="m260.32,248.63c.02.34.05.67.05,1.01,0,10.24-8.17,18.55-18.34,18.83,7.06,13.04,20.86,21.9,36.73,21.9,23.05,0,41.74-18.69,41.74-41.74h-60.17Z"/>
    <path class="cls-1" d="m278.75,294.87c-17,0-32.59-9.3-40.7-24.26-.75-1.38-.72-3.05.06-4.4.78-1.36,2.22-2.21,3.78-2.25,7.82-.21,13.95-6.5,13.95-14.32,0-.13-.01-.26-.02-.39l-.02-.39c-.06-1.24.38-2.44,1.23-3.34.85-.9,2.03-1.41,3.27-1.41h60.17c2.49,0,4.51,2.02,4.51,4.51,0,25.5-20.75,46.24-46.24,46.24Zm-29.29-23.26c6.99,8.91,17.74,14.24,29.29,14.24,19,0,34.72-14.31,36.95-32.72h-51.09c-1.27,8.61-7.17,15.63-15.16,18.48Z"/>
  </g>
  <g>
    <path class="cls-1" d="m260.29,248.02c15.86-5.91,27.15-21.19,27.15-39.11,0-23.05-18.69-41.74-41.74-41.74v64.09c7.88,1.79,13.88,8.51,14.58,16.75Z"/>
    <path class="cls-1" d="m260.29,252.53c-.84,0-1.68-.24-2.41-.7-1.19-.75-1.96-2.02-2.08-3.43-.53-6.23-4.98-11.35-11.09-12.74-2.05-.47-3.51-2.29-3.51-4.4v-64.09c0-2.49,2.02-4.51,4.51-4.51,25.5,0,46.24,20.75,46.24,46.24,0,19.21-12.09,36.63-30.09,43.34-.51.19-1.04.28-1.58.28Zm-10.07-24.57c6.21,2.47,11,7.46,13.25,13.67,11.82-6.44,19.47-19.01,19.47-32.72,0-19-14.31-34.72-32.72-36.95v56.01Z"/>
  </g>
  <path class="cls-2" d="m103.19,254.14c-2.49,0-4.51-2.02-4.51-4.51,0-79.78,64.91-144.69,144.69-144.69,54.47,0,103.81,30.11,128.74,78.59,1.14,2.21.27,4.93-1.95,6.07-2.22,1.14-4.93.27-6.07-1.95-23.38-45.46-69.64-73.7-120.72-73.7-74.81,0-135.67,60.86-135.67,135.67,0,2.49-2.02,4.51-4.51,4.51Z"/>
  <path class="cls-2" d="m243.37,394.32c-27.64,0-54.51-7.82-77.71-22.62-22.58-14.4-40.7-34.71-52.42-58.73-1.09-2.24-.16-4.94,2.08-6.03,2.24-1.09,4.94-.16,6.03,2.08,10.99,22.53,27.99,41.58,49.16,55.08,21.74,13.87,46.94,21.2,72.86,21.2,74.81,0,135.67-60.86,135.67-135.67,0-2.49,2.02-4.51,4.51-4.51s4.51,2.02,4.51,4.51c0,79.78-64.91,144.69-144.69,144.69Z"/>
  <path class="cls-1" d="m94.65,282.03v-18.04s6.39-.45,12.89,3.11c6.49,3.56,6.6,3.98,10.05,3.98s9.42-4.92,15.39-5.76c5.97-.84,15.65-1.05,22.38,2.3,6.73,3.35,7.15,3.14,8.72,3.14v16.65s-6.81.21-13.72-3.35-10.89-4.19-15.81-1.15c-4.92,3.04-8.59,5.55-17.7,5.13-9.11-.42-12.88-4.61-15.92-5.45-3.04-.84-6.29-.57-6.29-.57Z"/>
  <path class="cls-1" d="m335.4,238.55l-2.01-17.92s6.3-1.16,13.15,1.65c6.85,2.81,7,3.22,10.43,2.83,3.43-.39,8.82-5.94,14.65-7.44,5.84-1.5,15.43-2.79,22.5-.21s7.46,2.32,9.02,2.15l1.86,16.55s-6.74.97-14.01-1.8c-7.27-2.77-11.29-2.95-15.84.62-4.55,3.57-7.91,6.47-17.01,7.08-9.1.6-13.31-3.14-16.43-3.63-3.11-.49-6.31.13-6.31.13Z"/>
  <g>
    <polyline class="cls-2" points="111.77 305.94 107.12 330.35 137.36 309.8 112.95 305.14"/>
    <path class="cls-2" d="m107.12,334.86c-.86,0-1.72-.25-2.48-.74-1.52-1-2.3-2.82-1.95-4.61l4.66-24.41c.28-1.47,1.25-2.64,2.51-3.24,1.02-.96,2.46-1.43,3.94-1.14l24.41,4.66c1.79.34,3.2,1.73,3.57,3.52.37,1.79-.37,3.62-1.88,4.64l-30.24,20.55c-.76.52-1.65.78-2.53.78Zm8.43-24.63l-1.96,10.27,12.23-8.31-10.27-1.96Z"/>
  </g>
  <g>
    <polyline class="cls-2" points="377.35 200.04 383.96 176.09 352.16 194.13 376.12 200.74"/>
    <path class="cls-2" d="m376.12,205.25c-.4,0-.8-.05-1.2-.16l-23.95-6.61c-1.76-.49-3.05-1.98-3.28-3.79s.66-3.58,2.25-4.48l31.8-18.04c1.59-.9,3.56-.76,5,.36,1.44,1.12,2.06,3,1.58,4.76l-6.61,23.95c-.4,1.45-1.46,2.53-2.76,3.02-.79.63-1.78.99-2.81.99Zm-12.26-12.57l10.08,2.78,2.78-10.08-12.86,7.3Z"/>
  </g>
</svg>