<?xml version="1.0" encoding="UTF-8"?>
<svg id="Calque_1" data-name="Calque 1" xmlns="http://www.w3.org/2000/svg" viewBox="0 0 500 500">
  <defs>
    <style>
      .cls-1 {
        fill: #6a6af4;
      }

      .cls-2 {
        fill: #000091;
      }
    </style>
  </defs>
  <path class="cls-2" d="m190.32,276.89c-.46,0-.94-.08-1.4-.25-2.07-.77-3.12-3.08-2.35-5.15l21.28-56.94c.77-2.07,3.08-3.12,5.15-2.35,2.07.77,3.12,3.08,2.35,5.15l-21.28,56.94c-.6,1.61-2.13,2.6-3.75,2.6Z"/>
  <path class="cls-2" d="m272.11,290.47c-1.62,0-3.15-.99-3.75-2.6l-25.91-69.34c-.77-2.07.28-4.37,2.35-5.15,2.07-.78,4.37.28,5.15,2.35l25.91,69.34c.77,2.07-.28,4.37-2.35,5.15-.46.17-.93.25-1.4.25Z"/>
  <path class="cls-2" d="m229.46,278.36c-2.21,0-4-1.79-4-4v-59.51c0-2.21,1.79-4,4-4s4,1.79,4,4v59.51c0,2.21-1.79,4-4,4Z"/>
  <path class="cls-2" d="m250.22,218.86h-41.52c-7.83,0-14.19-6.37-14.19-14.19s6.37-14.19,14.19-14.19h41.52c7.83,0,14.19,6.37,14.19,14.19s-6.37,14.19-14.19,14.19Zm-41.52-20.38c-3.41,0-6.19,2.78-6.19,6.19s2.78,6.19,6.19,6.19h41.52c3.41,0,6.19-2.78,6.19-6.19s-2.78-6.19-6.19-6.19h-41.52Z"/>
  <path class="cls-2" d="m246.58,196.2h-33.59c-1.23,0-2.39-.57-3.15-1.54-.76-.97-1.03-2.24-.73-3.43.05-.24,1.5-7.37-5.96-16.68-6.26-7.82-20.58-8.46-25.57-8.05-.11,0-.22.01-.33.01h-69.36c-2.21,0-4-1.79-4-4v-29.27c0-2.21,1.79-4,4-4h78.22c1.21,0,31.15-.21,46.54,20.26,18.71,24.89,17.96,42.21,17.92,42.94-.12,2.12-1.87,3.77-3.99,3.77Zm-29.39-8h25.08c-.88-5.85-4.13-18.11-16-33.9-12.97-17.26-39.8-17.06-40.08-17.06h-74.28v21.28h65.21c2.28-.16,22.49-1.21,32.29,11.04,6.01,7.51,7.55,14.3,7.79,18.65Z"/>
  <g>
    <path class="cls-1" d="m107.9,278.94s16.49,7.43,34.66,7.43,42.21-13.95,60.38-13.12,34.58.66,57.47,10.64c21.07,9.2,40.79-3.49,58.52-7.43,18.76-4.18,58.24-7.97,72.7,2.42v88.11c-14.46-10.39-49.81-10.7-72.7-2.42-14.64,5.3-35.11,16.11-58.52,7.43-23.41-8.67-38.13-11.98-56.31-12.8s-43.37,15.28-61.54,15.28-34.66-7.43-34.66-7.43"/>
    <path class="cls-1" d="m278.58,379.25c-6.23,0-12.78-.99-19.55-3.5-22.84-8.46-37.26-11.75-55.1-12.56-8.57-.4-19.56,3.59-30.19,7.44-10.65,3.86-21.65,7.84-31.17,7.84-18.82,0-35.6-7.47-36.31-7.79-2.01-.91-2.91-3.28-2-5.29.91-2.01,3.27-2.91,5.29-2,.15.07,15.97,7.08,33.02,7.08,8.12,0,18.45-3.74,28.45-7.36,11.37-4.12,23.12-8.37,33.28-7.91,18.76.85,33.81,4.27,57.51,13.05,18.82,6.97,35.79.32,49.42-5.02,2.22-.87,4.32-1.69,6.34-2.43,20.1-7.28,51.82-8.5,70.06-.59v-79.14c-13.8-7.7-48.04-5.12-67.83-.71-4.48,1-9.14,2.6-14.07,4.29-14.06,4.82-30,10.29-46.92,2.91-20.24-8.83-35.38-9.45-51.41-10.11-1.54-.06-3.08-.13-4.64-.2-8.67-.4-19.43,3.06-29.83,6.4-10.3,3.31-20.95,6.72-30.37,6.72-18.82,0-35.6-7.47-36.31-7.79-2.01-.91-2.91-3.28-2-5.29s3.27-2.91,5.29-2h0c.16.07,15.97,7.08,33.02,7.08,8.16,0,18.21-3.22,27.92-6.34,11.08-3.56,22.55-7.22,32.64-6.77,1.55.07,3.08.13,4.61.2,16.8.69,32.66,1.34,54.28,10.77,14.06,6.13,27.82,1.42,41.12-3.14,5.15-1.77,10.01-3.44,14.93-4.53,14.19-3.16,58.58-9.37,75.9,3.07,1.05.75,1.67,1.96,1.67,3.25v88.11c0,1.5-.84,2.87-2.17,3.56-1.33.68-2.94.56-4.16-.31-12.79-9.19-46.32-10.12-69-1.91-1.93.7-3.98,1.5-6.15,2.35-9.7,3.8-21.87,8.57-35.57,8.57Z"/>
  </g>
  <path class="cls-2" d="m107.86,397.12c-2.21,0-4-1.79-4-4V105.5c0-2.21,1.79-4,4-4s4,1.79,4,4v287.62c0,2.21-1.79,4-4,4Z"/>
</svg>