<?xml version="1.0" encoding="UTF-8"?>
<svg id="Calque_1" data-name="Calque 1" xmlns="http://www.w3.org/2000/svg" viewBox="0 0 500 500">
  <defs>
    <style>
      .cls-1 {
        fill: #6a6af4;
      }

      .cls-2 {
        fill: #000091;
      }
    </style>
  </defs>
  <path class="cls-2" d="m316.97,409.43h-169.21c-2.21,0-4-1.79-4-4V95.2c0-2.21,1.79-4,4-4h169.21c2.21,0,4,1.79,4,4v96.32c0,2.21-1.79,4-4,4s-4-1.79-4-4v-92.32h-161.21v302.23h161.21v-144.83c0-2.21,1.79-4,4-4s4,1.79,4,4v148.83c0,2.21-1.79,4-4,4Z"/>
  <path class="cls-2" d="m272.18,345.32h-76.7c-2.21,0-4-1.79-4-4s1.79-4,4-4h76.7c2.21,0,4,1.79,4,4s-1.79,4-4,4Z"/>
  <path class="cls-2" d="m262.12,409.43h-56.6c-2.21,0-4-1.79-4-4v-64.11c0-2.21,1.79-4,4-4h56.6c2.21,0,4,1.79,4,4v64.11c0,2.21-1.79,4-4,4Zm-52.6-8h48.6v-56.11h-48.6v56.11Z"/>
  <path class="cls-2" d="m218.9,181h-38.24c-2.21,0-4-1.79-4-4v-38.24c0-2.21,1.79-4,4-4h38.24c2.21,0,4,1.79,4,4v38.24c0,2.21-1.79,4-4,4Zm-34.24-8h30.24v-30.24h-30.24v30.24Z"/>
  <path class="cls-2" d="m248.43,174.74c-2.21,0-4-1.79-4-4v-31.97c0-2.21,1.79-4,4-4h38.24c2.21,0,4,1.79,4,4v30.14c0,2.21-1.79,4-4,4s-4-1.79-4-4v-26.14h-30.24v27.97c0,2.21-1.79,4-4,4Z"/>
  <path class="cls-2" d="m215.22,244.6h-34.26c-2.21,0-4-1.79-4-4v-38.24c0-2.21,1.79-4,4-4h34.55c2.21,0,4,1.79,4,4s-1.79,4-4,4h-30.55v30.24h30.26c2.21,0,4,1.79,4,4s-1.79,4-4,4Z"/>
  <path class="cls-2" d="m219.19,311.46h-38.24c-2.21,0-4-1.79-4-4v-38.24c0-2.21,1.79-4,4-4h38.24c2.21,0,4,1.79,4,4v38.24c0,2.21-1.79,4-4,4Zm-34.24-8h30.24v-30.24h-30.24v30.24Z"/>
  <path class="cls-2" d="m286.95,311.46h-38.24c-2.21,0-4-1.79-4-4v-32.16c0-2.21,1.79-4,4-4s4,1.79,4,4v28.16h30.24v-24.41c0-2.21,1.79-4,4-4s4,1.79,4,4v28.41c0,2.21-1.79,4-4,4Z"/>
  <path class="cls-1" d="m269.96,283.05c-11.95,0-23.61-3.56-33.72-10.41-13.33-9.04-22.35-22.73-25.38-38.55-3.04-15.82.27-31.88,9.31-45.21,9.04-13.33,22.73-22.35,38.55-25.38,15.82-3.04,31.88.27,45.21,9.31,13.33,9.04,22.35,22.73,25.38,38.55,3.04,15.82-.27,31.88-9.31,45.21-9.04,13.33-22.73,22.35-38.55,25.38-3.83.73-7.67,1.1-11.49,1.1Zm.24-112.65c-3.31,0-6.64.31-9.96.95-13.72,2.63-25.6,10.45-33.44,22.02-7.84,11.56-10.71,25.49-8.08,39.21,2.63,13.72,10.45,25.6,22.02,33.44,11.56,7.84,25.49,10.71,39.21,8.08,13.72-2.63,25.6-10.45,33.44-22.02,7.84-11.56,10.71-25.49,8.08-39.21-2.63-13.72-10.45-25.6-22.02-33.44-8.76-5.94-18.89-9.03-29.25-9.03Z"/>
  <path class="cls-1" d="m322.33,243.7l75.25,51.02c5,3.39,6.32,10.26,2.93,15.26h0c-3.39,5-10.26,6.32-15.26,2.93l-74.93-50.8"/>
  <rect class="cls-1" x="239.16" y="191.8" width="61.85" height="61.85"/>
</svg>