<?xml version="1.0" encoding="UTF-8"?>
<svg id="Calque_1" data-name="Calque 1" xmlns="http://www.w3.org/2000/svg" viewBox="0 0 500 500">
  <defs>
    <style>
      .cls-1 {
        fill: #6a6af4;
      }

      .cls-2 {
        fill: #000091;
      }
    </style>
  </defs>
  <path class="cls-2" d="m151.92,447.45c-11.75,0-21.31-9.56-21.31-21.31v-186.99c0-11.75,9.56-21.31,21.31-21.31s21.31,9.56,21.31,21.31v186.99c0,11.75-9.56,21.31-21.31,21.31Zm0-221.61c-7.34,0-13.31,5.97-13.31,13.31v186.99c0,7.34,5.97,13.31,13.31,13.31s13.31-5.97,13.31-13.31v-186.99c0-7.34-5.97-13.31-13.31-13.31Z"/>
  <path class="cls-2" d="m186.55,447.45c-11.75,0-21.31-9.56-21.31-21.31v-186.99c0-11.75,9.56-21.31,21.31-21.31s21.31,9.56,21.31,21.31v186.99c0,11.75-9.56,21.31-21.31,21.31Zm0-221.61c-7.34,0-13.31,5.97-13.31,13.31v186.99c0,7.34,5.97,13.31,13.31,13.31s13.31-5.97,13.31-13.31v-186.99c0-7.34-5.97-13.31-13.31-13.31Z"/>
  <path class="cls-2" d="m221.17,447.45c-11.75,0-21.31-9.56-21.31-21.31v-186.99c0-11.75,9.56-21.31,21.31-21.31s21.31,9.56,21.31,21.31v186.99c0,11.75-9.56,21.31-21.31,21.31Zm0-221.61c-7.34,0-13.31,5.97-13.31,13.31v186.99c0,7.34,5.97,13.31,13.31,13.31s13.31-5.97,13.31-13.31v-186.99c0-7.34-5.97-13.31-13.31-13.31Z"/>
  <path class="cls-2" d="m255.8,447.45c-11.75,0-21.31-9.56-21.31-21.31v-186.99c0-11.75,9.56-21.31,21.31-21.31s21.31,9.56,21.31,21.31v186.99c0,11.75-9.56,21.31-21.31,21.31Zm0-221.61c-7.34,0-13.31,5.97-13.31,13.31v186.99c0,7.34,5.97,13.31,13.31,13.31s13.31-5.97,13.31-13.31v-186.99c0-7.34-5.97-13.31-13.31-13.31Z"/>
  <path class="cls-2" d="m290.43,447.45c-11.75,0-21.31-9.56-21.31-21.31v-186.99c0-11.75,9.56-21.31,21.31-21.31s21.31,9.56,21.31,21.31v186.99c0,11.75-9.56,21.31-21.31,21.31Zm0-221.61c-7.34,0-13.31,5.97-13.31,13.31v186.99c0,7.34,5.97,13.31,13.31,13.31s13.31-5.97,13.31-13.31v-186.99c0-7.34-5.97-13.31-13.31-13.31Z"/>
  <path class="cls-2" d="m325.06,447.45c-11.75,0-21.31-9.56-21.31-21.31v-186.99c0-11.75,9.56-21.31,21.31-21.31s21.31,9.56,21.31,21.31v186.99c0,11.75-9.56,21.31-21.31,21.31Zm0-221.61c-7.34,0-13.31,5.97-13.31,13.31v186.99c0,7.34,5.97,13.31,13.31,13.31s13.31-5.97,13.31-13.31v-186.99c0-7.34-5.97-13.31-13.31-13.31Z"/>
  <path class="cls-2" d="m359.68,447.45c-11.75,0-21.31-9.56-21.31-21.31v-186.99c0-11.75,9.56-21.31,21.31-21.31s21.31,9.56,21.31,21.31v186.99c0,11.75-9.56,21.31-21.31,21.31Zm0-221.61c-7.34,0-13.31,5.97-13.31,13.31v186.99c0,7.34,5.97,13.31,13.31,13.31h0c7.34,0,13.31-5.97,13.31-13.31v-186.99c0-7.34-5.97-13.31-13.31-13.31Z"/>
  <path class="cls-2" d="m134.61,293.46h-24.73c-5.51,0-10-4.49-10-10v-33.12c0-5.51,4.49-10,10-10h22.31c2.21,0,4,1.79,4,4s-1.79,4-4,4h-22.31c-1.08,0-2,.92-2,2v33.12c0,1.08.92,2,2,2h24.73c2.21,0,4,1.79,4,4s-1.79,4-4,4Z"/>
  <path class="cls-2" d="m103.88,269.12h-16.45c-2.21,0-4-1.79-4-4s1.79-4,4-4h16.45c2.21,0,4,1.79,4,4s-1.79,4-4,4Z"/>
  <g>
    <path class="cls-2" d="m409,269.12h-32.01c-2.21,0-4-1.79-4-4s1.79-4,4-4h32.01c2.21,0,4,1.79,4,4s-1.79,4-4,4Z"/>
    <path class="cls-2" d="m409,269.12c-2.21,0-4-1.79-4-4v-62.32c0-2.21,1.79-4,4-4s4,1.79,4,4v62.32c0,2.21-1.79,4-4,4Z"/>
  </g>
  <path class="cls-1" d="m244.85,90.24v46.33c-7.23,3.73-12.15,10.99-12.15,19.34,0,12.15,10.39,22,23.21,22s23.21-9.85,23.21-22c0-8.35-4.91-15.62-12.15-19.34v-46.52"/>
  <path class="cls-2" d="m255.91,181.91c-15,0-27.21-12.21-27.21-27.21,0-9.17,4.6-17.64,12.15-22.66v-62.39c0-8.31,6.76-15.07,15.07-15.07s15.07,6.76,15.07,15.07v62.39c7.55,5.02,12.14,13.5,12.14,22.66,0,15-12.21,27.21-27.21,27.21Zm0-119.33c-3.9,0-7.07,3.17-7.07,7.07v64.64c0,1.47-.8,2.81-2.09,3.51-6.2,3.37-10.06,9.84-10.06,16.89,0,10.59,8.62,19.21,19.21,19.21s19.21-8.62,19.21-19.21c0-7.05-3.85-13.52-10.05-16.89-1.29-.7-2.09-2.05-2.09-3.51v-64.64c0-3.9-3.17-7.07-7.07-7.07Z"/>
  <path class="cls-2" d="m289.95,128.75c-.75,0-1.5-.24-2.14-.73-1.53-1.18-1.81-3.38-.62-4.91,4.35-5.61,2.92-10.38,2.11-12.18-.41-.91-.95-1.57-1.63-2.41-1.67-2.05-3.74-4.6-3.74-10.59,0-8.72,4.96-12.29,5.53-12.66l3.88,5.82.08-.05c-.1.08-2.49,1.93-2.49,6.89,0,3.51.82,4.51,2.17,6.18.8.98,1.79,2.2,2.57,3.93,2.79,6.14,1.69,13.38-2.95,19.36-.69.89-1.72,1.36-2.77,1.36Z"/>
  <path class="cls-2" d="m307.51,128.75c-.75,0-1.5-.24-2.14-.73-1.53-1.18-1.81-3.38-.62-4.91,4.35-5.61,2.92-10.39,2.11-12.18-.41-.91-.95-1.57-1.63-2.41-1.67-2.05-3.74-4.6-3.74-10.59,0-8.72,4.96-12.29,5.53-12.66l3.88,5.82.08-.05c-.1.08-2.49,1.93-2.49,6.89,0,3.51.82,4.51,2.17,6.18.79.98,1.79,2.2,2.57,3.93,2.79,6.14,1.69,13.38-2.95,19.36-.69.89-1.72,1.36-2.77,1.36Z"/>
  <path class="cls-2" d="m325.07,128.75c-.75,0-1.5-.24-2.14-.73-1.53-1.18-1.81-3.38-.62-4.91,4.35-5.61,2.92-10.38,2.11-12.18-.41-.91-.95-1.57-1.63-2.41-1.67-2.05-3.74-4.6-3.74-10.59,0-8.72,4.96-12.29,5.53-12.66l3.88,5.82.08-.05c-.1.08-2.49,1.93-2.49,6.89,0,3.51.82,4.51,2.17,6.18.8.98,1.79,2.2,2.57,3.93,2.79,6.14,1.69,13.38-2.95,19.36-.69.89-1.72,1.35-2.77,1.35Z"/>
  <path class="cls-2" d="m189.44,128.16c-.57-.38-5.53-3.94-5.53-12.66,0-5.99,2.07-8.54,3.74-10.59.68-.84,1.22-1.5,1.63-2.41.81-1.79,2.24-6.57-2.11-12.18-1.18-1.53-.91-3.73.62-4.91,1.53-1.19,3.73-.91,4.91.62,4.64,5.98,5.74,13.22,2.95,19.36-.79,1.73-1.78,2.95-2.57,3.93-1.35,1.67-2.17,2.68-2.17,6.18,0,4.96,2.39,6.82,2.49,6.89l-2.02,2.86-1.94,2.91Z"/>
  <path class="cls-2" d="m208.93,128.75c-.67,0-1.34-.19-1.94-.59-.57-.38-5.53-3.94-5.53-12.66,0-5.99,2.07-8.54,3.74-10.59.68-.84,1.22-1.5,1.63-2.41.82-1.79,2.24-6.57-2.11-12.18-1.18-1.53-.91-3.73.62-4.91,1.53-1.19,3.73-.91,4.91.62,4.64,5.98,5.74,13.22,2.95,19.36-.78,1.73-1.77,2.95-2.57,3.93-1.35,1.67-2.17,2.68-2.17,6.18,0,4.92,2.39,6.82,2.41,6.84,1.61,1.07,2.04,3.25.97,4.85-.67,1.01-1.78,1.56-2.92,1.56Z"/>
  <path class="cls-2" d="m224.55,128.16c-.57-.38-5.53-3.94-5.53-12.66,0-5.99,2.07-8.54,3.74-10.59.68-.84,1.22-1.5,1.63-2.41.81-1.79,2.24-6.57-2.11-12.18-1.18-1.53-.91-3.73.62-4.91,1.53-1.19,3.73-.91,4.91.62,4.64,5.98,5.74,13.22,2.95,19.36-.79,1.73-1.78,2.95-2.57,3.93-1.35,1.67-2.17,2.68-2.17,6.18,0,4.96,2.39,6.82,2.49,6.89l-2.02,2.86-1.94,2.91Z"/>
</svg>