<?xml version="1.0" encoding="UTF-8"?>
<svg id="Calque_1" data-name="Calque 1" xmlns="http://www.w3.org/2000/svg" viewBox="0 0 500 500">
  <defs>
    <style>
      .cls-1 {
        fill: #6a6af4;
      }

      .cls-2 {
        fill: #000091;
      }
    </style>
  </defs>
  <path class="cls-2" d="m318.17,419.04h-169.21c-2.21,0-4-1.79-4-4V104.82c0-2.21,1.79-4,4-4h169.21c2.21,0,4,1.79,4,4v94.87c0,2.21-1.79,4-4,4s-4-1.79-4-4v-90.87h-161.21v302.23h161.21v-145.89c0-2.21,1.79-4,4-4s4,1.79,4,4v149.89c0,2.21-1.79,4-4,4Z"/>
  <path class="cls-2" d="m273.38,354.93h-76.7c-2.21,0-4-1.79-4-4s1.79-4,4-4h76.7c2.21,0,4,1.79,4,4s-1.79,4-4,4Z"/>
  <path class="cls-2" d="m263.33,419.04h-56.6c-2.21,0-4-1.79-4-4v-64.11c0-2.21,1.79-4,4-4h56.6c2.21,0,4,1.79,4,4v64.11c0,2.21-1.79,4-4,4Zm-52.6-8h48.6v-56.11h-48.6v56.11Z"/>
  <path class="cls-2" d="m220.11,190.61h-38.24c-2.21,0-4-1.79-4-4v-38.24c0-2.21,1.79-4,4-4h38.24c2.21,0,4,1.79,4,4v38.24c0,2.21-1.79,4-4,4Zm-34.24-8h30.24v-30.24h-30.24v30.24Z"/>
  <path class="cls-2" d="m249.63,184.35c-2.21,0-4-1.79-4-4v-31.97c0-2.21,1.79-4,4-4h38.24c2.21,0,4,1.79,4,4v30.14c0,2.21-1.79,4-4,4s-4-1.79-4-4v-26.14h-30.24v27.97c0,2.21-1.79,4-4,4Z"/>
  <path class="cls-2" d="m217.03,254.21h-34.87c-2.21,0-4-1.79-4-4v-38.24c0-2.21,1.79-4,4-4h36.62c2.21,0,4,1.79,4,4s-1.79,4-4,4h-32.62v30.24h30.87c2.21,0,4,1.79,4,4s-1.79,4-4,4Z"/>
  <path class="cls-2" d="m220.4,321.07h-38.24c-2.21,0-4-1.79-4-4v-38.24c0-2.21,1.79-4,4-4h38.24c2.21,0,4,1.79,4,4v38.24c0,2.21-1.79,4-4,4Zm-34.24-8h30.24v-30.24h-30.24v30.24Z"/>
  <path class="cls-2" d="m288.16,321.07h-38.24c-2.21,0-4-1.79-4-4v-32.63c0-2.21,1.79-4,4-4s4,1.79,4,4v28.63h30.24v-26.01c0-2.21,1.79-4,4-4s4,1.79,4,4v30.01c0,2.21-1.79,4-4,4Z"/>
  <path class="cls-1" d="m271.16,292.66c-11.95,0-23.61-3.56-33.72-10.41-13.33-9.04-22.35-22.73-25.38-38.55-6.27-32.66,15.21-64.33,47.86-70.59,32.66-6.26,64.33,15.21,70.59,47.86,6.27,32.66-15.21,64.33-47.86,70.59-3.83.73-7.67,1.1-11.49,1.1Zm.24-112.65c-3.31,0-6.64.31-9.96.95-28.33,5.43-46.95,32.9-41.52,61.23,2.63,13.72,10.45,25.6,22.02,33.44,11.56,7.84,25.49,10.71,39.21,8.08,28.33-5.43,46.95-32.9,41.52-61.23-2.63-13.72-10.45-25.6-22.02-33.44-8.76-5.94-18.89-9.03-29.25-9.03Z"/>
  <path class="cls-1" d="m323.53,253.32l75.25,51.02c5,3.39,6.32,10.26,2.93,15.26h0c-3.39,5-10.26,6.32-15.26,2.93l-74.93-50.8"/>
  <g>
    <path class="cls-1" d="m271.29,265.76c35.56-20.52,27.87-56.07,27.87-56.07-22.4,0-27.87-10.77-27.87-10.77,0,0-5.47,10.77-27.87,10.77,0,0-7.69,35.56,27.87,56.07Z"/>
    <path class="cls-1" d="m271.29,269.76c-.69,0-1.38-.18-2-.54-19.63-11.33-26.7-27.1-29.18-38.33-2.68-12.17-.69-21.65-.6-22.05.4-1.84,2.03-3.15,3.91-3.15,19.4,0,24.26-8.5,24.3-8.58.68-1.34,2.06-2.19,3.57-2.19s2.88.85,3.57,2.19c.16.28,5.05,8.58,24.3,8.58,1.88,0,3.51,1.31,3.91,3.15.09.4,2.08,9.88-.6,22.05-2.47,11.24-9.54,27.01-29.18,38.33-.62.36-1.31.54-2,.54Zm-24.4-56.16c-.83,8.39-.61,31.89,24.4,47.49,25-15.6,25.22-39.09,24.39-47.49-8.51-.42-15.57-2.41-21.03-5.94-1.34-.87-2.45-1.75-3.36-2.58-.91.83-2.02,1.71-3.36,2.58-5.46,3.53-12.52,5.52-21.03,5.94Z"/>
  </g>
</svg>