<?xml version="1.0" encoding="UTF-8"?>
<svg id="Calque_1" data-name="Calque 1" xmlns="http://www.w3.org/2000/svg" viewBox="0 0 500 500">
  <defs>
    <style>
      .cls-1 {
        fill: #6a6af4;
      }

      .cls-2 {
        fill: #000091;
      }
    </style>
  </defs>
  <rect class="cls-1" x="122.3" y="100.83" width="27.97" height="55.29"/>
  <rect class="cls-1" x="194.73" y="100.83" width="27.97" height="55.29"/>
  <path class="cls-2" d="m225.51,270.49h-106.02c-11.06,0-20.06-9-20.06-20.06v-94.31c0-2.21,1.79-4,4-4h138.13c2.21,0,4,1.79,4,4v94.31c0,11.06-9,20.06-20.06,20.06Zm-118.08-110.37v90.31c0,6.65,5.41,12.06,12.06,12.06h106.02c6.65,0,12.06-5.41,12.06-12.06v-90.31H107.43Z"/>
  <path class="cls-2" d="m192.12,317.23h-34.74c-11.06,0-20.06-9-20.06-20.06v-24.71c0-2.21,1.79-4,4-4s4,1.79,4,4v24.71c0,6.65,5.41,12.06,12.06,12.06h34.74c6.65,0,12.06-5.41,12.06-12.06v-24.71c0-2.21,1.79-4,4-4s4,1.79,4,4v24.71c0,11.06-9,20.06-20.06,20.06Z"/>
  <g>
    <path class="cls-2" d="m400.04,402.41c-.15,0-.3,0-.45-.02-2.2-.24-3.78-2.22-3.53-4.42.21-1.91.32-3.86.32-5.79v-179.67c0-28.9-23.51-52.41-52.41-52.41s-52.41,23.51-52.41,52.41v125.13c0,2.21-1.79,4-4,4s-4-1.79-4-4v-125.13c0-33.31,27.1-60.41,60.41-60.41s60.41,27.1,60.41,60.41v179.67c0,2.22-.12,4.47-.37,6.67-.23,2.04-1.96,3.56-3.97,3.56Z"/>
    <path class="cls-2" d="m231.16,402.45c-33.31,0-60.41-27.1-60.41-60.41v-28.83c0-2.21,1.79-4,4-4s4,1.79,4,4v28.83c0,28.9,23.51,52.41,52.41,52.41s52.41-23.51,52.41-52.41v-129.53c0-2.21,1.79-4,4-4s4,1.79,4,4v129.53c0,33.31-27.1,60.41-60.41,60.41Z"/>
  </g>
</svg>