<?xml version="1.0" encoding="UTF-8"?>
<svg id="Calque_1" data-name="Calque 1" xmlns="http://www.w3.org/2000/svg" viewBox="0 0 500 500">
  <defs>
    <style>
      .cls-1 {
        fill: #6a6af4;
      }

      .cls-2 {
        fill: #000091;
      }
    </style>
  </defs>
  <path class="cls-1" d="m134.77,175.43c-1.48,0-2.86-.96-3.31-2.45-.56-1.83.47-3.77,2.3-4.33l30.3-9.26c1.83-.56,3.77.47,4.33,2.3.56,1.83-.47,3.77-2.3,4.33l-30.3,9.26c-.34.1-.68.15-1.01.15Z"/>
  <path class="cls-1" d="m364.18,175.45c-.34,0-.68-.05-1.01-.15l-32.03-9.79c-1.83-.56-2.86-2.5-2.3-4.33.56-1.83,2.49-2.86,4.33-2.3l32.03,9.79c1.83.56,2.86,2.5,2.3,4.33-.46,1.49-1.83,2.45-3.31,2.45Z"/>
  <path class="cls-1" d="m324.72,134.64c0,42.27-34.26,76.53-76.53,76.53s-76.53-34.26-76.53-76.53"/>
  <path class="cls-2" d="m354.2,363.97h-210.3c-1.91,0-3.47-1.55-3.47-3.47s1.55-3.47,3.47-3.47h210.3c1.91,0,3.47,1.55,3.47,3.47s-1.55,3.47-3.47,3.47Z"/>
  <path class="cls-2" d="m133.5,367.43c-1.91,0-3.47-1.55-3.47-3.47v-216.29c0-7.64,6.22-13.86,13.86-13.86h210.3c7.64,0,13.86,6.22,13.86,13.86v210.75c0,1.91-1.55,3.47-3.47,3.47s-3.47-1.55-3.47-3.47v-210.75c0-3.82-3.11-6.93-6.93-6.93h-210.3c-3.82,0-6.93,3.11-6.93,6.93v216.29c0,1.91-1.55,3.47-3.47,3.47Z"/>
  <path class="cls-2" d="m59.42,402.11c-.62,0-1.25-.17-1.8-.5-1.03-.63-1.67-1.75-1.67-2.96V101.76c0-1.21.63-2.34,1.67-2.96,1.04-.63,2.33-.67,3.4-.11l74.08,38.75c1.7.89,2.35,2.98,1.46,4.68-.89,1.7-2.98,2.35-4.68,1.46l-69.01-36.1v285.45l68.91-35.8c1.7-.88,3.79-.22,4.67,1.48.88,1.7.22,3.79-1.48,4.67l-73.97,38.42c-.5.26-1.05.39-1.6.39Z"/>
  <path class="cls-2" d="m114.87,242.63h-36.31c-1.91,0-3.47-1.55-3.47-3.47v-109.04c0-1.2.62-2.32,1.65-2.95,1.02-.63,2.3-.68,3.38-.15l36.31,18.26c1.17.59,1.91,1.79,1.91,3.1v90.78c0,1.91-1.55,3.47-3.47,3.47Zm-32.85-6.93h29.38v-85.18l-29.38-14.78v99.96Z"/>
  <path class="cls-2" d="m78.56,372.17c-.64,0-1.28-.18-1.84-.53-1.01-.63-1.63-1.74-1.63-2.94v-110.9c0-1.91,1.55-3.47,3.47-3.47h36.31c1.91,0,3.47,1.55,3.47,3.47v93.23c0,1.33-.76,2.54-1.95,3.12l-36.31,17.67c-.48.23-1,.35-1.52.35Zm3.47-110.9v101.89l29.38-14.29v-87.6h-29.38Z"/>
  <path class="cls-2" d="m440.53,402.11c-.53,0-1.07-.12-1.56-.37l-74.9-37.69c-1.71-.86-2.4-2.94-1.54-4.65s2.95-2.4,4.65-1.54l69.88,35.16V107.49l-69.01,36.1c-1.69.89-3.79.23-4.68-1.46-.89-1.7-.23-3.79,1.46-4.68l74.08-38.75c1.07-.56,2.36-.52,3.4.11,1.04.63,1.67,1.75,1.67,2.96v296.88c0,1.2-.62,2.32-1.65,2.95-.56.34-1.19.52-1.82.52Z"/>
  <path class="cls-2" d="m421.4,242.63h-36.31c-1.91,0-3.47-1.55-3.47-3.47v-90.78c0-1.31.74-2.51,1.91-3.1l36.31-18.26c1.07-.54,2.35-.49,3.37.15,1.02.63,1.65,1.75,1.65,2.95v109.04c0,1.91-1.55,3.47-3.47,3.47Zm-32.85-6.93h29.38v-99.96l-29.38,14.78v85.18Z"/>
  <path class="cls-2" d="m421.4,372.17c-.52,0-1.04-.12-1.52-.35l-36.31-17.67c-1.19-.58-1.95-1.79-1.95-3.12v-93.23c0-1.91,1.55-3.47,3.47-3.47h36.31c1.91,0,3.47,1.55,3.47,3.47v110.9c0,1.19-.62,2.3-1.63,2.94-.56.35-1.2.53-1.84.53Zm-32.85-23.3l29.38,14.29v-101.89h-29.38v87.6Z"/>
  <path class="cls-1" d="m248.32,261.27c-1.91,0-3.47-1.55-3.47-3.47v-33.49c0-1.91,1.55-3.47,3.47-3.47s3.47,1.55,3.47,3.47v33.49c0,1.91-1.55,3.47-3.47,3.47Z"/>
  <path class="cls-1" d="m210.57,255.21c-.36,0-.73-.06-1.09-.18-1.82-.6-2.8-2.56-2.21-4.38l10.49-31.81c.6-1.82,2.56-2.8,4.38-2.21,1.82.6,2.8,2.56,2.21,4.38l-10.49,31.81c-.48,1.46-1.84,2.38-3.29,2.38Z"/>
  <path class="cls-1" d="m176.62,237.63c-.72,0-1.44-.22-2.06-.68-1.54-1.14-1.86-3.31-.72-4.85l19.92-26.92c1.14-1.54,3.31-1.86,4.85-.72,1.54,1.14,1.86,3.31.72,4.85l-19.92,26.92c-.68.92-1.73,1.4-2.79,1.4Z"/>
  <path class="cls-1" d="m149.88,210.29c-1.09,0-2.16-.51-2.83-1.47-1.1-1.56-.73-3.73.83-4.83l27.35-19.33c1.56-1.1,3.73-.73,4.83.83,1.1,1.56.73,3.73-.83,4.83l-27.35,19.33c-.61.43-1.31.64-2,.64Z"/>
  <path class="cls-1" d="m286.65,254.69c-1.46,0-2.81-.92-3.29-2.38l-10.49-31.81c-.6-1.82.39-3.78,2.21-4.38,1.82-.6,3.78.39,4.38,2.21l10.49,31.81c.6,1.82-.39,3.78-2.21,4.38-.36.12-.73.18-1.09.18Z"/>
  <path class="cls-1" d="m320.61,237.11c-1.06,0-2.11-.49-2.79-1.4l-19.92-26.92c-1.14-1.54-.81-3.71.72-4.85,1.54-1.14,3.71-.81,4.85.72l19.92,26.92c1.14,1.54.81,3.71-.72,4.85-.62.46-1.34.68-2.06.68Z"/>
  <path class="cls-1" d="m347.34,209.78c-.69,0-1.39-.21-2-.64l-27.35-19.33c-1.56-1.1-1.93-3.27-.83-4.83,1.1-1.56,3.27-1.94,4.83-.83l27.35,19.33c1.56,1.1,1.93,3.27.83,4.83-.68.96-1.75,1.47-2.83,1.47Z"/>
  <path class="cls-2" d="m360.73,384.48h-223.76c-3.82,0-6.93-3.11-6.93-6.93v-13.58c0-3.82,3.11-6.93,6.93-6.93h223.76c3.82,0,6.93,3.11,6.93,6.93v13.58c0,3.82-3.11,6.93-6.93,6.93Zm0-6.93v3.47-3.47s0,0,0,0h0Zm-223.76-13.58v13.58h223.75v-13.58s-223.75,0-223.75,0Z"/>
</svg>