<?xml version="1.0" encoding="UTF-8"?>
<svg id="Calque_1" data-name="Calque 1" xmlns="http://www.w3.org/2000/svg" viewBox="0 0 500 500">
  <defs>
    <style>
      .cls-1 {
        fill: #6a6af4;
      }

      .cls-2 {
        fill: #000091;
      }
    </style>
  </defs>
  <path class="cls-2" d="m190.9,156.82c-2.21,0-4-1.79-4-4v-22.85c0-4.41-3.59-8-8-8h-68.07c-4.41,0-8,3.59-8,8v22.85c0,2.21-1.79,4-4,4s-4-1.79-4-4v-22.85c0-8.82,7.18-16,16-16h68.07c8.82,0,16,7.18,16,16v22.85c0,2.21-1.79,4-4,4Z"/>
  <path class="cls-2" d="m198.35,389.21h-105.81c-14.13,0-25.63-9.25-25.75-20.66l-15.27-181.71c-.18-2.2,1.45-4.14,3.65-4.32,2.21-.16,4.14,1.45,4.32,3.65l15.28,181.86c0,.11.01.22.01.33,0,6.96,8.13,12.84,17.75,12.84h105.81c9.62,0,17.75-5.88,17.75-12.84,0-.09,0-.17,0-.26l11.67-178.5c.14-2.21,2.05-3.87,4.25-3.73,2.2.14,3.88,2.05,3.73,4.25l-11.66,178.38c-.09,11.43-11.61,20.7-25.75,20.7Z"/>
  <g>
    <path class="cls-1" d="m245.8,186.5v-21.68c0-6.6-5.4-12-12-12H53.12c-6.6,0-12,5.4-12,12v21.68h204.67Z"/>
    <path class="cls-1" d="m245.8,190.5H41.12c-2.21,0-4-1.79-4-4v-21.68c0-8.82,7.18-16,16-16h180.67c8.82,0,16,7.18,16,16v21.68c0,2.21-1.79,4-4,4Zm-200.67-8h196.67v-17.68c0-4.41-3.59-8-8-8H53.12c-4.41,0-8,3.59-8,8v17.68Z"/>
  </g>
  <path class="cls-2" d="m100.59,333.27c-2.21,0-4-1.79-4-4v-113.66c0-2.21,1.79-4,4-4s4,1.79,4,4v113.66c0,2.21-1.79,4-4,4Z"/>
  <path class="cls-2" d="m144.66,333.27c-2.21,0-4-1.79-4-4v-113.66c0-2.21,1.79-4,4-4s4,1.79,4,4v113.66c0,2.21-1.79,4-4,4Z"/>
  <path class="cls-2" d="m188.73,333.27c-2.21,0-4-1.79-4-4v-113.66c0-2.21,1.79-4,4-4s4,1.79,4,4v113.66c0,2.21-1.79,4-4,4Z"/>
  <path class="cls-2" d="m457.02,388.66H198.35c-1.93,0-3.5-1.57-3.5-3.5s1.57-3.5,3.5-3.5h258.67c1.93,0,3.5,1.57,3.5,3.5s-1.57,3.5-3.5,3.5Z"/>
  <path class="cls-2" d="m234.52,388.66c-.53,0-1.07-.12-1.57-.37-1.73-.87-2.42-2.97-1.55-4.7l9.44-18.76c.33-.65.85-1.19,1.5-1.53l9.01-4.73,2.82-14.1c.33-1.64,1.76-2.81,3.43-2.81h12.24l10.53-10.05c.74-.71,1.75-1.06,2.77-.95,1.02.1,1.94.65,2.52,1.49l12.43,18.01,25.59,15.61c1.65,1.01,2.17,3.16,1.17,4.81-1.01,1.65-3.16,2.17-4.81,1.17l-26.23-16c-.42-.26-.78-.6-1.06-1l-10.52-15.25-8.57,8.18c-.65.62-1.52.97-2.42.97h-10.77l-2.58,12.92c-.21,1.04-.87,1.92-1.8,2.41l-9.5,4.99-8.94,17.76c-.62,1.22-1.85,1.93-3.13,1.93Z"/>
  <path class="cls-2" d="m438.31,388.66c-1.06,0-2.11-.48-2.79-1.39l-27.61-36.53-69.43,9.69-35.66,27.51c-1.53,1.18-3.73.9-4.91-.63-1.18-1.53-.9-3.73.63-4.91l36.4-28.07c.48-.37,1.05-.61,1.65-.7l72.39-10.1c1.26-.17,2.51.34,3.28,1.36l28.85,38.17c1.17,1.54.86,3.74-.68,4.9-.63.48-1.37.71-2.11.71Z"/>
  <path class="cls-2" d="m337.94,359.09c-.64,0-1.29-.17-1.87-.54-13.6-8.59-29.65-17.76-32.99-18.24-1.41-.19-4.96,2.59-7.62,8.18-.83,1.74-2.92,2.49-4.66,1.66-1.75-.83-2.49-2.91-1.67-4.66,1.05-2.23,6.71-13.29,14.94-12.12,6.49.93,30.91,16.2,35.74,19.25,1.63,1.03,2.12,3.19,1.09,4.83-.67,1.05-1.8,1.63-2.96,1.63Z"/>
  <path class="cls-2" d="m430.05,377.75c-.75,0-1.5-.24-2.14-.73-1.53-1.18-1.81-3.38-.62-4.91,9.84-12.69,1.35-25.29-.5-27.74-13.16-8.29-28.42-17.01-32.22-17.87-2.9,1.06-12.33,12.01-22.15,27.11-1.05,1.62-3.22,2.08-4.84,1.03-1.62-1.05-2.08-3.22-1.03-4.84.2-.31,4.95-7.59,10.53-14.9,10.89-14.24,15.18-15.81,18.21-15.37,6.49.93,30.91,16.2,35.74,19.25.31.2.59.45.83.73,5.27,6.38,12.25,22.31.96,36.89-.69.89-1.72,1.36-2.77,1.36Zm-35.32-51.3s0,0,0,0Z"/>
  <path class="cls-2" d="m306.88,338.78c-.51,0-1.03-.11-1.52-.35-1.74-.84-2.47-2.93-1.63-4.67l10.07-20.83c.63-1.31,2.01-2.09,3.46-1.96l12.75,1.14,8.46-9.38c.99-1.09,2.55-1.45,3.92-.9l10.24,4.17c.58.24,1.08.62,1.46,1.12l4.33,5.66c2.88-2.49,7.39-5.31,12.05-3.94,5.48,1.6,8.63,9.38,10.06,14.09h5.14c1.93,0,3.5,1.57,3.5,3.5s-1.57,3.5-3.5,3.5h-7.81c-1.62,0-3.03-1.11-3.4-2.68-1.22-5.05-4.03-11.12-5.96-11.69-2.01-.59-5.77,2.39-7.72,4.76-.67.81-1.66,1.28-2.71,1.28-.02,0-.04,0-.06,0-1.07-.02-2.07-.52-2.72-1.37l-6.19-8.09-7.08-2.88-7.99,8.85c-.74.82-1.81,1.23-2.91,1.14l-12.08-1.08-9.01,18.65c-.6,1.25-1.85,1.98-3.15,1.98Z"/>
  <path class="cls-1" d="m244.9,344.85c-.51-.41-4.98-4.21-4.98-12,0-4.63,1.29-7.6,2.32-9.99.54-1.23,1-2.3,1.24-3.49l.09-.42c.84-4.02,1.03-5.52-.87-7.61-1.49-1.63-1.37-4.16.27-5.65,1.64-1.49,4.16-1.36,5.65.27,4.74,5.21,3.65,10.43,2.78,14.62l-.09.42c-.41,1.99-1.11,3.62-1.74,5.05-.89,2.06-1.66,3.83-1.66,6.81,0,3.94,1.97,5.74,2.06,5.82l-2.57,3.06-2.5,3.12Z"/>
  <path class="cls-1" d="m266.3,324.75c-.51-.41-4.98-4.21-4.98-12,0-4.63,1.29-7.6,2.32-9.99.54-1.23,1-2.3,1.24-3.48l.09-.43c.83-4.02,1.03-5.52-.87-7.61-1.49-1.63-1.37-4.17.27-5.65,1.64-1.49,4.16-1.36,5.65.27,4.74,5.21,3.65,10.42,2.79,14.61l-.09.42c-.41,1.99-1.12,3.62-1.74,5.05-.89,2.06-1.66,3.83-1.66,6.81,0,3.94,1.97,5.74,2.06,5.82l-2.57,3.06-2.5,3.12Z"/>
  <path class="cls-1" d="m291.15,314.72c-.51-.41-4.98-4.21-4.98-12,0-4.63,1.29-7.6,2.32-9.99.54-1.23,1-2.3,1.24-3.49l.09-.42c.84-4.02,1.03-5.52-.87-7.61-1.49-1.63-1.37-4.16.27-5.65,1.64-1.49,4.16-1.36,5.65.27,4.74,5.21,3.65,10.43,2.78,14.62l-.09.42c-.41,1.99-1.11,3.62-1.74,5.05-.89,2.06-1.66,3.83-1.66,6.81,0,3.94,1.97,5.74,2.06,5.82l-2.57,3.06-2.5,3.12Z"/>
  <path class="cls-1" d="m372.77,299.64l-5-6.25-.08.06c.08-.07,2.06-1.88,2.06-5.82,0-2.97-.77-4.75-1.66-6.81-.62-1.43-1.33-3.06-1.74-5.05l-.09-.42c-.87-4.19-1.95-9.41,2.79-14.62,1.49-1.63,4.02-1.75,5.65-.27,1.63,1.49,1.76,4.02.27,5.65-1.9,2.09-1.71,3.59-.87,7.61l.09.43c.24,1.18.71,2.25,1.24,3.48,1.04,2.39,2.32,5.36,2.32,9.99,0,7.79-4.47,11.59-4.98,12Z"/>
  <path class="cls-1" d="m396.67,290.89l-5-6.25-.08.06c.08-.07,2.06-1.88,2.06-5.82,0-2.97-.77-4.75-1.66-6.81-.62-1.43-1.33-3.06-1.74-5.05l-.09-.42c-.87-4.19-1.95-9.41,2.79-14.62,1.49-1.63,4.02-1.75,5.65-.27,1.63,1.49,1.76,4.02.27,5.65-1.9,2.09-1.71,3.59-.87,7.61l.09.43c.24,1.18.71,2.25,1.24,3.48,1.04,2.39,2.32,5.36,2.32,9.99,0,7.79-4.47,11.59-4.98,12Z"/>
  <path class="cls-1" d="m423.76,299.64l-5-6.25-.08.06c.08-.07,2.06-1.88,2.06-5.82,0-2.97-.77-4.75-1.66-6.81-.62-1.43-1.33-3.06-1.74-5.05l-.09-.42c-.87-4.19-1.95-9.41,2.79-14.62,1.49-1.63,4.01-1.75,5.65-.27,1.63,1.49,1.76,4.02.27,5.65-1.9,2.09-1.71,3.59-.87,7.61l.09.43c.24,1.18.71,2.25,1.24,3.48,1.04,2.39,2.32,5.36,2.32,9.99,0,7.79-4.47,11.59-4.98,12Z"/>
  <path class="cls-2" d="m262.39,377.75c-.55,0-1.12-.13-1.64-.41-1.71-.91-2.36-3.03-1.45-4.73l7.18-13.5c.81-1.52,2.59-2.23,4.22-1.67l9.74,3.31c1.83.62,2.81,2.61,2.19,4.44-.62,1.83-2.61,2.81-4.44,2.19l-6.92-2.36-5.78,10.87c-.63,1.18-1.84,1.86-3.09,1.86Z"/>
  <path class="cls-2" d="m321.86,338.78c-1.07,0-2.12-.49-2.81-1.41-1.15-1.55-.83-3.74.72-4.9l10.32-7.68c1.18-.88,2.78-.92,4.01-.12l9.94,6.54c1.62,1.06,2.06,3.23,1,4.85-1.06,1.62-3.23,2.07-4.85,1l-7.9-5.19-8.35,6.22c-.63.47-1.36.69-2.09.69Z"/>
  <path class="cls-2" d="m364.59,341.9c-.85,0-1.7-.31-2.38-.93l-11.66-10.8c-1.42-1.31-1.5-3.53-.19-4.95,1.31-1.42,3.53-1.5,4.95-.19l11.66,10.8c1.42,1.31,1.5,3.53.19,4.95-.69.75-1.63,1.12-2.57,1.12Z"/>
  <path class="cls-2" d="m337.95,380.12c-.9,0-1.8-.35-2.49-1.04-1.36-1.38-1.35-3.59.03-4.95l9.23-9.12c1.05-1.04,2.63-1.31,3.96-.67l9.59,4.56c1.75.83,2.49,2.92,1.66,4.66s-2.92,2.49-4.66,1.66l-7.38-3.51-7.48,7.4c-.68.67-1.57,1.01-2.46,1.01Z"/>
  <path class="cls-2" d="m411.89,377.75c-1.07,0-2.13-.49-2.82-1.42l-7.96-10.81-24.3,7.47c-1.85.57-3.81-.47-4.37-2.32-.57-1.85.47-3.81,2.32-4.37l26.67-8.2c1.42-.44,2.96.07,3.85,1.27l9.43,12.81c1.15,1.56.81,3.75-.74,4.89-.62.46-1.35.68-2.07.68Z"/>
</svg>