<?xml version="1.0" encoding="UTF-8"?>
<svg id="Calque_1" data-name="Calque 1" xmlns="http://www.w3.org/2000/svg" viewBox="0 0 500 500">
  <defs>
    <style>
      .cls-1 {
        fill: #6a6af4;
      }

      .cls-2 {
        fill: #000091;
      }
    </style>
  </defs>
  <path class="cls-1" d="m137.22,437.96c-.75,0-1.52-.17-2.24-.53-2.47-1.24-3.47-4.24-2.23-6.71L314.24,68.41c1.24-2.47,4.24-3.47,6.71-2.23,2.47,1.24,3.47,4.24,2.23,6.71l-181.48,362.31c-.88,1.75-2.64,2.76-4.47,2.76Z"/>
  <path class="cls-2" d="m120.03,271.15c-.51,0-1.02-.1-1.5-.29-1.41-.57-34.47-14.64-34.47-73.73,0-.05,0-.1,0-.15.92-24.02,11.98-50.85,12.45-51.98.78-1.88,2.85-2.87,4.8-2.31l19.83,5.71c1.71.49,2.89,2.06,2.89,3.84v114.91c0,1.33-.66,2.57-1.76,3.32-.67.45-1.45.68-2.24.68Zm-27.98-73.95c.02,39.33,15.42,56.42,23.98,62.87v-104.82l-13.43-3.87c-2.92,7.8-9.85,28-10.55,45.82Z"/>
  <path class="cls-2" d="m120.03,271.15c-.79,0-1.57-.23-2.24-.68-1.1-.74-1.76-1.99-1.76-3.32v-114.91c0-1.78,1.18-3.35,2.89-3.84l19.83-5.71c1.95-.56,4.02.43,4.8,2.31.47,1.13,11.53,27.96,12.45,51.98,0,.05,0,.1,0,.15,0,59.09-33.07,73.16-34.47,73.73-.48.2-.99.29-1.5.29Zm4-115.9v104.82c8.55-6.46,23.96-23.54,23.98-62.87-.7-17.85-7.62-38.02-10.54-45.82l-13.43,3.87Z"/>
  <path class="cls-2" d="m95.52,163.6c-.75,0-1.52-.21-2.2-.66l-17.21-11.34c-.91-.6-1.54-1.55-1.73-2.62l-2.55-14-9.76-6.64c-1.83-1.24-2.3-3.73-1.06-5.56,1.24-1.83,3.73-2.3,5.56-1.06l11.14,7.59c.89.6,1.49,1.54,1.68,2.59l2.54,13.97,15.78,10.4c1.84,1.21,2.35,3.7,1.14,5.54-.77,1.17-2.04,1.8-3.34,1.8Z"/>
  <path class="cls-2" d="m54.84,222.92c-1.24,0-2.46-.57-3.24-1.65-1.3-1.79-.9-4.29.89-5.59l13.37-9.7,2.81-17.11c.32-1.93,1.99-3.35,3.95-3.35h15.44c2.21,0,4,1.79,4,4s-1.79,4-4,4h-12.04l-2.53,15.38c-.17,1.04-.75,1.97-1.6,2.59l-14.7,10.67c-.71.51-1.53.76-2.35.76Z"/>
  <path class="cls-2" d="m70.49,290.97c-1.31,0-2.58-.64-3.35-1.81-1.21-1.85-.69-4.33,1.16-5.54l9.84-6.44-6.75-23c-.48-1.64.13-3.41,1.53-4.4l20.29-14.3c1.81-1.27,4.3-.84,5.57.96s.84,4.3-.96,5.57l-17.95,12.65,6.78,23.1c.5,1.69-.17,3.51-1.65,4.47l-12.33,8.06c-.67.44-1.43.65-2.18.65Z"/>
  <path class="cls-2" d="m144.78,164.44c-1.3,0-2.58-.63-3.34-1.8-1.22-1.84-.71-4.33,1.14-5.54l15.78-10.4,2.54-13.97c.19-1.05.8-1.99,1.68-2.59l11.14-7.59c1.83-1.24,4.32-.77,5.56,1.06,1.24,1.83.77,4.31-1.06,5.56l-9.76,6.64-2.55,14c-.2,1.08-.82,2.02-1.73,2.62l-17.21,11.34c-.68.45-1.44.66-2.2.66Z"/>
  <path class="cls-2" d="m185.46,223.76c-.82,0-1.64-.25-2.35-.76l-14.7-10.67c-.85-.62-1.43-1.55-1.6-2.59l-2.53-15.38h-12.04c-2.21,0-4-1.79-4-4s1.79-4,4-4h15.44c1.96,0,3.63,1.42,3.95,3.35l2.82,17.11,13.37,9.7c1.79,1.3,2.19,3.8.89,5.59-.78,1.08-2,1.65-3.24,1.65Z"/>
  <path class="cls-2" d="m169.81,291.81c-.75,0-1.51-.21-2.18-.65l-12.33-8.06c-1.48-.96-2.15-2.78-1.65-4.47l6.78-23.1-17.95-12.65c-1.81-1.27-2.24-3.77-.96-5.57,1.27-1.81,3.77-2.24,5.57-.96l20.29,14.3c1.4.99,2.02,2.75,1.53,4.4l-6.75,23,9.84,6.44c1.85,1.21,2.37,3.69,1.16,5.54-.77,1.17-2.05,1.81-3.35,1.81Z"/>
  <path class="cls-2" d="m139.86,150.52c-2.03,0-3.77-1.54-3.98-3.6,0-.03-.5-4.52-2.84-8.83-2.85-5.25-6.97-7.81-12.6-7.81-14.37,0-16.2,15.97-16.27,16.65-.23,2.19-2.17,3.8-4.38,3.57-2.19-.22-3.79-2.17-3.58-4.36.8-8.25,6.89-23.86,24.23-23.86s22.58,15.6,23.4,23.85c.22,2.2-1.39,4.16-3.58,4.38-.13.01-.27.02-.4.02Z"/>
  <path class="cls-2" d="m33.81,176.07c-.06,0-.11,0-.17,0-2.21-.09-3.92-1.96-3.83-4.16.15-3.58,4.12-87.79,44.33-87.79s40.98,43.92,40.98,44.37c0,2.21-1.78,4.01-3.99,4.01h-.01c-2.2,0-3.99-1.78-4-3.99-.01-1.48-.64-36.39-32.98-36.39-27.04,0-35.4,57.84-36.34,80.13-.09,2.15-1.86,3.83-3.99,3.83Z"/>
  <path class="cls-2" d="m207.51,174.87c-2.13,0-3.9-1.68-3.99-3.83-.94-22.29-9.29-80.13-36.34-80.13-13.58,0-23.22,6.01-28.67,17.86-4.23,9.2-4.31,18.44-4.31,18.53,0,2.2-1.8,3.99-4,3.99h-.01c-2.21,0-3.99-1.81-3.99-4.01,0-.44.63-44.36,40.98-44.36s44.18,84.21,44.33,87.79c.09,2.21-1.62,4.07-3.83,4.16-.06,0-.11,0-.17,0Z"/>
  <path class="cls-2" d="m305.47,375.51c-.6,0-1.14-.01-1.63-.03-12.39-.58-53.41-4.68-61.16-33.3-6.6-24.37,4.63-40.62,8.31-45.11.17-4.17,1-16.4,5.1-30.61,6.67-23.11,18.91-40.33,35.4-49.77.07-.04.15-.08.22-.12,15.44-7.59,29.08-12.41,51.96.08,17.68,9.64,34.77,6.78,43.15,2.17-.26-1.25-.52-2.79-.62-4.44-.39-6,1.27-10.75,4.81-13.72,3.9-3.28,9.92-2.97,18.4.94,3.95,1.82,7.44,3.98,9.1,5.06,9.24.27,42.12,2.29,47.19,17.24.78,2.29,1.2,5.94-1.21,10.34-6.37,11.69-29.69,22-37.57,24.77-2.58,6.16-11.7,26.12-24.42,34.13v5.93c3.83.2,9.35,1.2,13.53,4.89,3.79,3.33,5.71,8.04,5.71,13.99,0,2.21-1.79,4-4,4h-27.39c-1.04,0-2.05-.41-2.79-1.14l-18.95-18.5c-1.58-1.54-1.61-4.08-.07-5.66,1.54-1.58,4.08-1.61,5.66-.07l17.78,17.37h21.24c-.48-1.63-1.3-2.95-2.48-3.99-4.2-3.7-11.67-2.86-11.74-2.85-1.14.14-2.29-.21-3.15-.96s-1.36-1.85-1.36-3v-12.34c0-1.51.86-2.9,2.21-3.58,10.98-5.49,20.66-25.6,23.47-32.89.47-1.22,1.5-2.13,2.76-2.45,1.6-.4,8.93-3.19,16.78-7.42,9.2-4.95,15.5-9.95,17.75-14.07,1.1-2.02.9-3.22.66-3.94-1.38-4.06-9-7.63-20.92-9.79-10.15-1.84-19.92-2.05-20.02-2.05-.79-.01-1.55-.26-2.2-.71-8.46-5.82-17.07-8.62-18.84-7.14-3.29,2.76-1.74,10.18-.93,12.56.56,1.65-.01,3.48-1.41,4.51-9.17,6.76-31.11,12.29-53.96-.17-19.55-10.66-30.33-6.93-44.49.02-35.48,20.45-36.41,74.42-36.41,74.96,0,1.02-.41,2.01-1.12,2.74-.56.59-13.86,14.95-7.42,38.7,6.34,23.39,42.79,26.88,53.81,27.4,6.86.33,20.64-1.47,33.72-7.46-14.08,3.19-31.82,5.38-45.5.95-27.33-8.84-36.86-24.62-34.7-32.5,3.02-11.02,10.62-19.93,10.94-20.3.75-.87,1.83-1.37,2.97-1.39l15.79-.25c1.64-.05,3.15.97,3.77,2.5.11.25,2.85,6.63,8.63,6.63h53.33c2.43-.43,4.9-1.64,5.1-2.32,0-.01.06-1.29-2.95-4.13-1.24-.52-5.71-2.1-13.32-1.99-1.16.04-2.27-.46-3.04-1.33-.77-.86-1.14-2.02-.99-3.17.09-.83,2.12-21.05-20.1-37.18-1.79-1.3-2.19-3.8-.89-5.59,1.3-1.79,3.8-2.18,5.59-.89,19.9,14.45,23.11,32.12,23.44,40.23,8.46.47,12.91,2.73,13.45,3.02.28.15.55.34.79.55,4.98,4.49,6.89,8.79,5.68,12.78-1.87,6.19-10.19,7.72-11.84,7.96-.19.03-.39.04-.59.04h-53.66c-7.98,0-12.64-5.66-14.72-9.09l-11.45.18c-2.01,2.65-6.3,8.86-8.21,15.84-.15.58.28,4.01,5.1,8.97,3.83,3.94,11.16,9.53,24.35,13.8,23.54,7.61,63.29-7.66,63.68-7.82,1.74-.67,3.71-.07,4.75,1.47,1.05,1.54.9,3.59-.36,4.96-17.91,19.47-46.61,23.53-57.5,23.53Z"/>
  <path class="cls-2" d="m356.13,309.24c-1.61,0-3.13-.98-3.74-2.58-.78-2.07.26-4.38,2.32-5.16l15.3-5.8c2.07-.78,4.38.26,5.16,2.32.78,2.07-.26,4.38-2.32,5.16l-15.3,5.8c-.47.18-.95.26-1.42.26Z"/>
  <path class="cls-2" d="m398.9,232.56c-3.02-.32-8.8-2.94-11.27-10.73-.67-2.11.5-4.35,2.6-5.02,2.1-.67,4.35.5,5.02,2.6,1.44,4.55,4.29,5.16,4.61,5.21h-.11s-.85,7.94-.85,7.94Z"/>
  <circle class="cls-2" cx="430.52" cy="226.98" r="5.59"/>
  <path class="cls-2" d="m371.43,303.44c-1.45,0-2.84-.79-3.55-2.16l-7.65-14.78c-1.02-1.96-.25-4.38,1.71-5.39,1.96-1.02,4.38-.25,5.39,1.71l7.65,14.78c1.02,1.96.25,4.38-1.71,5.39-.59.3-1.22.45-1.84.45Z"/>
</svg>