<svg xmlns="http://www.w3.org/2000/svg" width="56" height="47.589" viewBox="0 0 56 47.589">
  <g id="Picto-cuisine" transform="translate(-15.434 -19.701)">
    <path id="Tracé_468" data-name="Tracé 468" d="M70.652,37.947H54.367a.782.782,0,0,1,0-1.565H70.652a.782.782,0,0,1,0,1.565Z" fill="#000091"/>
    <path id="Tracé_469" data-name="Tracé 469" d="M57.817,67.29H18.3a2.872,2.872,0,0,1-2.869-2.869v-15.9A2.872,2.872,0,0,1,18.3,45.65H54.367a.782.782,0,1,1,0,1.565H18.3a1.3,1.3,0,0,0-1.3,1.3v15.9a1.3,1.3,0,0,0,1.3,1.3H57.817a.782.782,0,0,1,0,1.565Z" fill="#000091"/>
    <path id="Tracé_470" data-name="Tracé 470" d="M53.366,53.214H16.217a.782.782,0,1,1,0-1.565H53.366a.782.782,0,0,1,0,1.565Z" fill="#000091"/>
    <path id="Tracé_471" data-name="Tracé 471" d="M34.791,67.29a.781.781,0,0,1-.782-.782V46.433a.782.782,0,0,1,1.565,0V66.508a.781.781,0,0,1-.782.782Z" fill="#000091"/>
    <path id="Tracé_472" data-name="Tracé 472" d="M30.366,64.173H20.5a1.479,1.479,0,0,1-1.478-1.478V56.663A1.479,1.479,0,0,1,20.5,55.184h9.863a1.479,1.479,0,0,1,1.478,1.478v6.032A1.479,1.479,0,0,1,30.366,64.173ZM20.59,62.608h9.689V56.749H20.59Z" fill="#000091"/>
    <path id="Tracé_473" data-name="Tracé 473" d="M57.817,32.9a.781.781,0,0,1-.782-.782V28.983a.782.782,0,1,1,1.565,0v3.135A.781.781,0,0,1,57.817,32.9Z" fill="#e1000f"/>
    <path id="Tracé_474" data-name="Tracé 474" d="M58.041,46.13a.781.781,0,0,1-.782-.782V42.213a.782.782,0,0,1,1.565,0v3.135A.781.781,0,0,1,58.041,46.13Z" fill="#e1000f"/>
    <path id="Tracé_475" data-name="Tracé 475" d="M47.7,61.82a.781.781,0,0,1-.782-.782V57.9a.782.782,0,0,1,1.565,0v3.135A.781.781,0,0,1,47.7,61.82Z" fill="#000091"/>
    <path id="Tracé_476" data-name="Tracé 476" d="M40.331,61.82a.781.781,0,0,1-.782-.782V57.9a.782.782,0,0,1,1.565,0v3.135A.781.781,0,0,1,40.331,61.82Z" fill="#000091"/>
    <path id="Tracé_477" data-name="Tracé 477" d="M44.078,67.29a.781.781,0,0,1-.782-.782V52.847a.782.782,0,1,1,1.565,0v13.66A.781.781,0,0,1,44.078,67.29Z" fill="#000091"/>
    <g id="Groupe_68" data-name="Groupe 68">
      <path id="Tracé_479" data-name="Tracé 479" d="M34.607,36.846H17.267a1.3,1.3,0,0,1-1.3-1.3V33.551a.777.777,0,0,1,.23-.553l3.893-3.893a.785.785,0,0,1,.553-.23H31.331a.785.785,0,0,1,.536.212l3.8,3.565a.78.78,0,0,1,.247.57v2.32A1.3,1.3,0,0,1,34.607,36.846ZM17.528,35.281H34.346v-1.72l-3.325-3.12H20.962l-3.434,3.434v1.405Z" fill="#000091"/>
    </g>
    <g id="Groupe_69" data-name="Groupe 69">
      <path id="Tracé_480" data-name="Tracé 480" d="M29.013,30.39H22.859a1.3,1.3,0,0,1-1.3-1.3V21.007a1.3,1.3,0,0,1,1.3-1.3h6.154a1.3,1.3,0,0,1,1.3,1.3v8.079A1.3,1.3,0,0,1,29.013,30.39ZM23.12,28.825h5.632V21.268H23.12Z" fill="#000091"/>
    </g>
    <path id="Tracé_481" data-name="Tracé 481" d="M46.179,29.244a.781.781,0,0,1-.782-.782V20.484a.782.782,0,1,1,1.565,0v7.978A.781.781,0,0,1,46.179,29.244Z" fill="#000091"/>
    <path id="Tracé_482" data-name="Tracé 482" d="M49.055,32.317H43.3a.781.781,0,0,1-.782-.782,3.66,3.66,0,1,1,7.321,0,.781.781,0,0,1-.782.782Zm-4.82-1.565h3.886a2.095,2.095,0,0,0-3.886,0Z" fill="#000091"/>
    <g id="Groupe_70" data-name="Groupe 70">
      <circle id="Ellipse_66" data-name="Ellipse 66" cx="0.52" cy="0.52" r="0.52" transform="translate(19.807 48.775)" fill="#e1000f"/>
      <path id="Tracé_483" data-name="Tracé 483" d="M20.327,50.6a1.3,1.3,0,1,1,1.3-1.3A1.3,1.3,0,0,1,20.327,50.6Zm0-1.565a.263.263,0,1,0,.263.263A.263.263,0,0,0,20.327,49.032Z" fill="#e1000f"/>
    </g>
    <g id="Groupe_71" data-name="Groupe 71">
      <circle id="Ellipse_67" data-name="Ellipse 67" cx="0.52" cy="0.52" r="0.52" transform="translate(23.532 48.775)" fill="#e1000f"/>
      <path id="Tracé_484" data-name="Tracé 484" d="M24.052,50.6a1.3,1.3,0,1,1,1.3-1.3A1.3,1.3,0,0,1,24.052,50.6Zm0-1.565a.263.263,0,1,0,.263.263A.263.263,0,0,0,24.052,49.032Z" fill="#e1000f"/>
    </g>
    <g id="Groupe_72" data-name="Groupe 72">
      <circle id="Ellipse_68" data-name="Ellipse 68" cx="0.52" cy="0.52" r="0.52" transform="translate(27.258 48.775)" fill="#e1000f"/>
      <path id="Tracé_485" data-name="Tracé 485" d="M27.778,50.6a1.3,1.3,0,1,1,1.3-1.3A1.3,1.3,0,0,1,27.778,50.6Zm0-1.565a.263.263,0,1,0,.263.263A.263.263,0,0,0,27.778,49.032Z" fill="#e1000f"/>
    </g>
    <g id="Groupe_73" data-name="Groupe 73">
      <circle id="Ellipse_69" data-name="Ellipse 69" cx="0.52" cy="0.52" r="0.52" transform="translate(30.985 48.775)" fill="#e1000f"/>
      <path id="Tracé_486" data-name="Tracé 486" d="M31.5,50.6a1.3,1.3,0,1,1,1.3-1.3A1.3,1.3,0,0,1,31.5,50.6Zm0-1.565a.263.263,0,1,0,.263.263A.263.263,0,0,0,31.5,49.032Z" fill="#e1000f"/>
    </g>
    <path id="Tracé_487" data-name="Tracé 487" d="M69.434,67.29H54.367a.781.781,0,0,1-.782-.782V25.784a2,2,0,0,1,2-2h13.85a2,2,0,0,1,2,2V65.291A2,2,0,0,1,69.434,67.29ZM55.15,65.725H69.434a.441.441,0,0,0,.435-.435V25.784a.441.441,0,0,0-.435-.435H55.584a.441.441,0,0,0-.435.435Z" fill="#000091"/>
  </g>
</svg>
