<svg xmlns="http://www.w3.org/2000/svg" width="56" height="56.138" viewBox="0 0 56 56.138">
  <g id="Picto-electricite" transform="translate(-18.259 -17.766)">
    <path id="Rectangle_255" data-name="Rectangle 255" d="M2,0H3.136a2,2,0,0,1,2,2v8.153a0,0,0,0,1,0,0H0a0,0,0,0,1,0,0V2A2,2,0,0,1,2,0Z" transform="translate(22.459 18.516)" fill="none" stroke="#e1000f" stroke-width="1.5"/>
    <path id="Rectangle_256" data-name="Rectangle 256" d="M2,0H3.136a2,2,0,0,1,2,2v8.153a0,0,0,0,1,0,0H0a0,0,0,0,1,0,0V2A2,2,0,0,1,2,0Z" transform="translate(35.76 18.516)" fill="none" stroke="#e1000f" stroke-width="1.5"/>
    <path id="Tracé_510" data-name="Tracé 510" d="M41.412,49.672H21.943a3.688,3.688,0,0,1-3.684-3.684V28.669a.734.734,0,0,1,.735-.735H44.359a.734.734,0,0,1,.735.735V45.988a3.688,3.688,0,0,1-3.684,3.684ZM19.728,29.4V45.988A2.217,2.217,0,0,0,21.943,48.2H41.412a2.217,2.217,0,0,0,2.215-2.215V29.4Z" fill="#000091"/>
    <path id="Tracé_511" data-name="Tracé 511" d="M35.28,58.255H28.9a3.688,3.688,0,0,1-3.684-3.684V50.034a.735.735,0,1,1,1.469,0v4.538A2.217,2.217,0,0,0,28.9,56.786h6.38a2.217,2.217,0,0,0,2.215-2.215V50.034a.735.735,0,0,1,1.469,0v4.538A3.688,3.688,0,0,1,35.28,58.255Z" fill="#000091"/>
    <g id="Groupe_76" data-name="Groupe 76">
      <path id="Tracé_512" data-name="Tracé 512" d="M73.462,73.9a.623.623,0,0,1-.083,0,.732.732,0,0,1-.648-.812,9.774,9.774,0,0,0,.059-1.063V39.025a9.624,9.624,0,1,0-19.249,0V62a.735.735,0,1,1-1.469,0V39.025a11.093,11.093,0,1,1,22.187,0V72.019a10.9,10.9,0,0,1-.068,1.225A.736.736,0,0,1,73.462,73.9Z" fill="#000091"/>
      <path id="Tracé_513" data-name="Tracé 513" d="M42.449,73.9A11.106,11.106,0,0,1,31.356,62.811V57.517a.735.735,0,1,1,1.469,0v5.294a9.624,9.624,0,0,0,19.249,0V39.025a.735.735,0,0,1,1.469,0V62.811A11.106,11.106,0,0,1,42.449,73.9Z" fill="#000091"/>
    </g>
  </g>
</svg>
