<svg xmlns="http://www.w3.org/2000/svg" xmlns:xlink="http://www.w3.org/1999/xlink" width="56" height="56" viewBox="0 0 56 56">
  <defs>
    <clipPath id="clip-path">
      <rect id="Rectangle_208" data-name="Rectangle 208" width="56" height="56" transform="translate(271 12)" fill="none" stroke="#e5e5e5" stroke-width="1"/>
    </clipPath>
  </defs>
  <g id="file-csv" transform="translate(-271 -12)" clip-path="url(#clip-path)">
    <g id="file-csv-2" data-name="file-csv" transform="translate(272.4 12)">
      <path id="Tracé_242" data-name="Tracé 242" d="M47.81,15.4a.7.7,0,1,1,.7-.7A.7.7,0,0,1,47.81,15.4Z" fill="#ececfe" fill-rule="evenodd"/>
      <path id="Tracé_243" data-name="Tracé 243" d="M16.31,56a.7.7,0,1,1,.7-.7A.661.661,0,0,1,16.31,56Z" fill="#ececfe" fill-rule="evenodd"/>
      <path id="Tracé_244" data-name="Tracé 244" d="M16.31,1.4a.753.753,0,0,1-.7-.7.753.753,0,0,1,.7-.7.7.7,0,0,1,.7.7A.661.661,0,0,1,16.31,1.4Z" fill="#ececfe" fill-rule="evenodd"/>
      <path id="Tracé_245" data-name="Tracé 245" d="M37.73,5.74h.14a3.482,3.482,0,0,1,3.36,3.5V44.38a3.482,3.482,0,0,1-3.5,3.36H32.06a.744.744,0,0,1-.63-.7.7.7,0,0,1,.7-.7H37.8a2.079,2.079,0,0,0,1.96-2.1V9.1a2.079,2.079,0,0,0-2.1-1.96H13.72a2.079,2.079,0,0,0-1.96,2.1V30.31a.744.744,0,0,1-.7.63.7.7,0,0,1-.7-.7V9.1a3.482,3.482,0,0,1,3.5-3.36Z" fill="#000091"/>
      <g id="Groupe_73" data-name="Groupe 73">
        <path id="Tracé_246" data-name="Tracé 246" d="M25.41,12.18c.21,0,.42.35.42.7s-.14.7-.35.7H14.98c-.21,0-.42-.35-.42-.7s.14-.7.35-.7h10.5Z" fill="#000091"/>
        <path id="Tracé_247" data-name="Tracé 247" d="M30.8,17.15a.691.691,0,0,1,.63.7.636.636,0,0,1-.56.7H15.19a.691.691,0,0,1-.63-.7.636.636,0,0,1,.56-.7H30.8Z" fill="#000091"/>
        <path id="Tracé_248" data-name="Tracé 248" d="M37.03,22.89c0-.42-.49-.7-1.05-.7H15.54c-.49.07-.91.35-.91.7,0,.42.42.7,1.05.7H36.19C36.61,23.52,37.03,23.24,37.03,22.89Z" fill="#000091"/>
        <path id="Tracé_249" data-name="Tracé 249" d="M37.03,27.86c0-.42-.49-.7-1.05-.7H15.54c-.49.07-.91.35-.91.7,0,.42.42.7,1.05.7H36.19A.784.784,0,0,0,37.03,27.86Z" fill="#000091"/>
      </g>
      <path id="Tracé_250" data-name="Tracé 250" d="M8.26,33.74H25.83a2.808,2.808,0,0,1,2.8,2.8V47.32a2.869,2.869,0,0,1-2.8,2.87H8.26a2.883,2.883,0,0,1-2.87-2.87V36.54A2.824,2.824,0,0,1,8.26,33.74Z" fill="none" stroke="#e1000f" stroke-width="1.4"/>
      <g id="Groupe_74" data-name="Groupe 74">
        <path id="Tracé_251" data-name="Tracé 251" d="M12.74,42.98l1.19.91a3.124,3.124,0,0,1-2.52,1.19,3.081,3.081,0,1,1,0-6.16,3.228,3.228,0,0,1,2.52,1.19l-1.19.91a1.5,1.5,0,0,0-1.33-.7,1.682,1.682,0,0,0,0,3.36A1.674,1.674,0,0,0,12.74,42.98Z" fill="#e1000f"/>
        <path id="Tracé_252" data-name="Tracé 252" d="M15.68,43.05a1.545,1.545,0,0,0,1.19.7c.35,0,.56-.14.56-.49,0-.91-2.59-.63-2.59-2.59a1.907,1.907,0,0,1,2.03-1.82,2.888,2.888,0,0,1,2.17.98l-1.05.98a1.541,1.541,0,0,0-1.12-.7.468.468,0,0,0-.49.42c0,.84,2.59.56,2.59,2.66a1.823,1.823,0,0,1-2.03,1.82,2.762,2.762,0,0,1-2.31-.98l1.05-.98Z" fill="#e1000f"/>
        <path id="Tracé_253" data-name="Tracé 253" d="M21.14,38.99l1.54,4.2,1.54-4.2h1.61l-2.1,5.88H21.7l-2.1-5.88Z" fill="#e1000f"/>
      </g>
    </g>
  </g>
</svg>
