<svg xmlns="http://www.w3.org/2000/svg" xmlns:xlink="http://www.w3.org/1999/xlink" width="56" height="56" viewBox="0 0 56 56">
  <defs>
    <clipPath id="clip-path">
      <rect id="Rectangle_211" data-name="Rectangle 211" width="56" height="56" transform="translate(251 12)" fill="none" stroke="#e5e5e5" stroke-width="1"/>
    </clipPath>
  </defs>
  <g id="file-xls" transform="translate(-251 -12)" clip-path="url(#clip-path)">
    <g id="file-xls-2" data-name="file-xls" transform="translate(251.63 12)">
      <path id="Tracé_242" data-name="Tracé 242" d="M47.81,15.4a.7.7,0,1,1,.7-.7A.7.7,0,0,1,47.81,15.4Z" fill="#ececfe" fill-rule="evenodd"/>
      <path id="Tracé_243" data-name="Tracé 243" d="M16.31,56a.7.7,0,1,1,.7-.7A.661.661,0,0,1,16.31,56Z" fill="#ececfe" fill-rule="evenodd"/>
      <path id="Tracé_244" data-name="Tracé 244" d="M16.31,1.4a.753.753,0,0,1-.7-.7.753.753,0,0,1,.7-.7.7.7,0,0,1,.7.7A.661.661,0,0,1,16.31,1.4Z" fill="#ececfe" fill-rule="evenodd"/>
      <path id="Tracé_245" data-name="Tracé 245" d="M39.27,5.74h.14a3.482,3.482,0,0,1,3.36,3.5V44.38a3.482,3.482,0,0,1-3.5,3.36H33.6a.744.744,0,0,1-.63-.7.7.7,0,0,1,.7-.7h5.74a2.079,2.079,0,0,0,1.96-2.1V9.1a2.079,2.079,0,0,0-2.1-1.96H15.33a2.079,2.079,0,0,0-1.96,2.1V30.31a.744.744,0,0,1-.7.63.7.7,0,0,1-.7-.7V9.1a3.482,3.482,0,0,1,3.5-3.36Z" fill="#000091"/>
      <path id="Tracé_246" data-name="Tracé 246" d="M9.8,33.74H27.37a2.808,2.808,0,0,1,2.8,2.8V47.32a2.869,2.869,0,0,1-2.8,2.87H9.8a2.883,2.883,0,0,1-2.87-2.87V36.54A2.824,2.824,0,0,1,9.8,33.74Z" fill="none" stroke="#e1000f" stroke-width="1.4"/>
      <g id="Groupe_73" data-name="Groupe 73">
        <line id="Ligne_69" data-name="Ligne 69" x2="18.13" transform="translate(18.41 17.01)" fill="none" stroke="#000091" stroke-width="1.4"/>
        <line id="Ligne_70" data-name="Ligne 70" x2="18.13" transform="translate(18.41 21.84)" fill="none" stroke="#000091" stroke-width="1.4"/>
        <rect id="Rectangle_210" data-name="Rectangle 210" width="18.2" height="13.44" transform="translate(18.2 12.88)" fill="none" stroke="#000091" stroke-width="1.4"/>
        <line id="Ligne_71" data-name="Ligne 71" y2="13.93" transform="translate(22.33 12.81)" fill="none" stroke="#000091" stroke-width="1.4"/>
        <line id="Ligne_72" data-name="Ligne 72" y2="13.93" transform="translate(27.23 12.88)" fill="none" stroke="#000091" stroke-width="1.4"/>
        <line id="Ligne_73" data-name="Ligne 73" y2="13.93" transform="translate(31.78 12.95)" fill="none" stroke="#000091" stroke-width="1.4"/>
      </g>
      <g id="Groupe_74" data-name="Groupe 74">
        <path id="Tracé_247" data-name="Tracé 247" d="M10.43,44.87l2.03-3.01-1.89-2.87h1.75l1.19,1.75,1.19-1.75h1.75l-1.89,2.87,2.03,3.01H14.84l-1.33-1.89-1.33,1.89Z" fill="#e1000f"/>
        <path id="Tracé_248" data-name="Tracé 248" d="M17.71,38.99h1.47v4.55h2.1v1.33H17.64l.07-5.88Z" fill="#e1000f"/>
        <path id="Tracé_249" data-name="Tracé 249" d="M23.1,43.05a1.545,1.545,0,0,0,1.19.7c.35,0,.56-.14.56-.49,0-.91-2.59-.63-2.59-2.59a1.907,1.907,0,0,1,2.03-1.82,2.888,2.888,0,0,1,2.17.98l-1.05.98a1.541,1.541,0,0,0-1.12-.7.468.468,0,0,0-.49.42c0,.84,2.59.56,2.59,2.66a1.823,1.823,0,0,1-2.03,1.82,2.762,2.762,0,0,1-2.31-.98l1.05-.98Z" fill="#e1000f"/>
      </g>
    </g>
  </g>
</svg>
