<svg xmlns="http://www.w3.org/2000/svg" width="56" height="45.701" viewBox="0 0 56 45.701">
  <g id="Picto-salon" transform="translate(-10.716 -15.586)">
    <path id="Tracé_441" data-name="Tracé 441" d="M45.342,44.567a.615.615,0,0,1-.616-.616V39.024a4.468,4.468,0,0,0-4.463-4.463H31.89a4.468,4.468,0,0,0-4.463,4.463v4.927a.616.616,0,1,1-1.231,0V39.024A5.7,5.7,0,0,1,31.89,33.33h8.374a5.7,5.7,0,0,1,5.694,5.694v4.927A.615.615,0,0,1,45.342,44.567Z" fill="#000091"/>
    <path id="Tracé_442" data-name="Tracé 442" d="M28.742,61.286H24.5a1.541,1.541,0,0,1-1.539-1.539V51.533h-.448a2.465,2.465,0,0,1-2.462-2.462v-2.79a2.465,2.465,0,0,1,2.462-2.462h5.306a2.465,2.465,0,0,1,2.462,2.462V59.745a1.541,1.541,0,0,1-1.539,1.539ZM22.513,45.051a1.233,1.233,0,0,0-1.231,1.231v2.79A1.233,1.233,0,0,0,22.513,50.3h1.063a.615.615,0,0,1,.616.616v8.83a.313.313,0,0,0,.308.308h4.242a.313.313,0,0,0,.308-.308V46.284a1.233,1.233,0,0,0-1.231-1.231H22.513Z" fill="#000091"/>
    <path id="Tracé_443" data-name="Tracé 443" d="M48.292,61.286H44.05a1.541,1.541,0,0,1-1.539-1.539V46.282a2.465,2.465,0,0,1,2.462-2.462h5.306a2.465,2.465,0,0,1,2.462,2.462v2.79a2.465,2.465,0,0,1-2.462,2.462h-.448v8.214a1.541,1.541,0,0,1-1.539,1.539ZM44.973,45.051a1.233,1.233,0,0,0-1.231,1.231V59.747a.313.313,0,0,0,.308.308h4.242a.313.313,0,0,0,.308-.308v-8.83a.615.615,0,0,1,.616-.616h1.063a1.233,1.233,0,0,0,1.231-1.231v-2.79a1.233,1.233,0,0,0-1.231-1.231H44.973Z" fill="#000091"/>
    <path id="Tracé_444" data-name="Tracé 444" d="M44.684,61.286H28.742a.616.616,0,0,1,0-1.231H44.684a.616.616,0,0,1,0,1.231Z" fill="#000091"/>
    <path id="Tracé_445" data-name="Tracé 445" d="M43.139,51.494a.61.61,0,0,1-.6-.616,1.221,1.221,0,0,0-1.206-1.231H31.495a1.221,1.221,0,0,0-1.206,1.231.6.6,0,1,1-1.206,0,2.44,2.44,0,0,1,2.413-2.462h9.834a2.441,2.441,0,0,1,2.413,2.462.609.609,0,0,1-.6.616Z" fill="#000091"/>
    <path id="Tracé_446" data-name="Tracé 446" d="M41.231,55.515H29.663a.616.616,0,1,1,0-1.231H41.231a.616.616,0,0,1,0,1.231Z" fill="#000091"/>
    <path id="Tracé_447" data-name="Tracé 447" d="M65,32.418H49.866a1.078,1.078,0,0,1-1.077-1.077V20.466a1.078,1.078,0,0,1,1.077-1.077H65a1.078,1.078,0,0,1,1.077,1.077V31.341A1.078,1.078,0,0,1,65,32.418ZM50.02,31.187H64.845V20.62H50.02Z" fill="#000091"/>
    <path id="Tracé_448" data-name="Tracé 448" d="M53.541,20.618a.616.616,0,0,1-.435-1.051l3.8-3.8a.617.617,0,0,1,.871,0l3.616,3.616a.616.616,0,1,1-.871.871l-3.181-3.181-3.365,3.365a.613.613,0,0,1-.435.18Z" fill="#000091"/>
    <path id="Tracé_449" data-name="Tracé 449" d="M65.46,29.491a.614.614,0,0,1-.522-.288c-1.071-1.7-2.176-2.758-2.5-2.771-.5,0-1.984,1.074-3.048,2.077a.616.616,0,0,1-.865-.02c-1.9-1.964-3.682-3.284-4.149-3.284-.531,0-2.611,1.64-4.541,3.572a.616.616,0,0,1-.871-.871c.038-.038.966-.965,2.062-1.908,2.087-1.794,2.887-2.025,3.35-2.025.428,0,1.222.2,3.161,1.887.58.506,1.1,1.006,1.45,1.346,2.084-1.856,3.159-2.008,3.453-2.008,1.291,0,2.905,2.339,3.539,3.345a.616.616,0,0,1-.192.849.609.609,0,0,1-.328.1Z" fill="#000091"/>
    <circle id="Ellipse_65" data-name="Ellipse 65" cx="1.768" cy="1.768" r="1.768" transform="translate(57.423 21.728)" fill="#000091"/>
    <path id="Tracé_450" data-name="Tracé 450" d="M15.068,61.286a.615.615,0,0,1-.616-.616V39.663a.616.616,0,1,1,1.231,0V60.67a.615.615,0,0,1-.616.616Z" fill="#000091"/>
    <path id="Tracé_451" data-name="Tracé 451" d="M18.8,61.286H11.332a.616.616,0,0,1,0-1.231H18.8a.616.616,0,0,1,0,1.231Z" fill="#000091"/>
    <path id="Tracé_452" data-name="Tracé 452" d="M66.1,61.286a.615.615,0,0,1-.616-.616V55.949a.616.616,0,0,1,1.231,0V60.67A.615.615,0,0,1,66.1,61.286Z" fill="#000091"/>
    <path id="Tracé_453" data-name="Tracé 453" d="M37.8,29.48H19.681a2.465,2.465,0,0,1-2.462-2.462V26a.615.615,0,0,1,.616-.616H39.649a.615.615,0,0,1,.616.616v1.019A2.465,2.465,0,0,1,37.8,29.48ZM18.45,26.615v.4a1.233,1.233,0,0,0,1.231,1.231H37.8a1.233,1.233,0,0,0,1.231-1.231v-.4Z" fill="#000091"/>
    <path id="Tracé_454" data-name="Tracé 454" d="M25.062,26.615H23.094A.615.615,0,0,1,22.479,26V18.667a.615.615,0,0,1,.616-.616h1.968a.615.615,0,0,1,.616.616V26A.615.615,0,0,1,25.062,26.615ZM23.71,25.384h.737v-6.1H23.71Z" fill="#000091"/>
    <path id="Tracé_455" data-name="Tracé 455" d="M33.384,26.3H31.416a.615.615,0,0,1-.616-.616V18.353a.615.615,0,0,1,.616-.616h1.968a.615.615,0,0,1,.616.616v7.332A.615.615,0,0,1,33.384,26.3ZM32.032,25.07h.737v-6.1h-.737Z" fill="#000091"/>
    <path id="Tracé_456" data-name="Tracé 456" d="M27.031,26.615H25.062A.615.615,0,0,1,24.447,26v-9.04a.615.615,0,0,1,.616-.616h1.968a.615.615,0,0,1,.616.616V26A.615.615,0,0,1,27.031,26.615Zm-1.353-1.231h.737V17.575h-.737Z" fill="#000091"/>
    <path id="Tracé_457" data-name="Tracé 457" d="M31.416,26.3H29.448a.615.615,0,0,1-.616-.616V18.353a.615.615,0,0,1,.616-.616h1.968a.615.615,0,0,1,.616.616v7.332A.615.615,0,0,1,31.416,26.3ZM30.063,25.07H30.8v-6.1h-.737Z" fill="#000091"/>
    <path id="Tracé_458" data-name="Tracé 458" d="M29.448,26.615H27.031A.615.615,0,0,1,26.415,26v-9.04a.615.615,0,0,1,.616-.616h2.417a.615.615,0,0,1,.616.616V26A.615.615,0,0,1,29.448,26.615Zm-1.8-1.231h1.186V17.575H27.646Z" fill="#000091"/>
    <path id="Tracé_459" data-name="Tracé 459" d="M58.814,45.482a.614.614,0,0,1-.451-.2,9.691,9.691,0,0,1-2.26-8.022.616.616,0,0,1,.868-.431c.154.074,3.759,1.862,4.293,7.951a.615.615,0,0,1-1.225.108c-.329-3.75-1.905-5.627-2.861-6.435a8.831,8.831,0,0,0,2.088,5.992.616.616,0,0,1-.454,1.033Z" fill="#000091"/>
    <path id="Tracé_460" data-name="Tracé 460" d="M62.9,45.455a.616.616,0,0,1-.442-1.045,6.517,6.517,0,0,0,1.617-4.133,38.8,38.8,0,0,1-3.59,2.461.615.615,0,0,1-.636-1.054,24.7,24.7,0,0,0,4.346-3.19.616.616,0,0,1,1.083.314c.022.16.486,3.964-1.937,6.461a.611.611,0,0,1-.442.186Z" fill="#000091"/>
    <path id="Tracé_461" data-name="Tracé 461" d="M62.78,41.1h-.029a.615.615,0,0,1-.586-.643,7.589,7.589,0,0,0-.717-3.929,11.381,11.381,0,0,0-1.691,3.565.616.616,0,1,1-1.177-.362c.309-1.008,1.433-4.321,2.928-4.644a.618.618,0,0,1,.591.194c.06.068,1.46,1.69,1.3,5.233a.615.615,0,0,1-.614.586Z" fill="#000091"/>
    <g id="Groupe_66" data-name="Groupe 66">
      <path id="Tracé_463" data-name="Tracé 463" d="M18.8,40.278H11.332a.616.616,0,0,1-.6-.754l1.049-4.539c0-.02.011-.04.017-.06.162-.472.4-1.186,1.25-1.186h3.869a1.613,1.613,0,0,1,1.42,1.145.808.808,0,0,1,.034.1L19.4,39.526a.614.614,0,0,1-.6.751Zm-6.7-1.231h5.926l-.848-3.73c-.114-.249-.235-.343-.266-.348H13.1a2.975,2.975,0,0,0-.126.323l-.868,3.755Z" fill="#e1000f"/>
    </g>
    <path id="Tracé_464" data-name="Tracé 464" d="M55.572,61.286a.615.615,0,0,1-.616-.616V55.949a.616.616,0,0,1,1.231,0V60.67A.615.615,0,0,1,55.572,61.286Z" fill="#000091"/>
    <g id="Groupe_67" data-name="Groupe 67">
      <path id="Tracé_466" data-name="Tracé 466" d="M62.264,51.264H59.487a1.958,1.958,0,0,1-1.956-1.937l-.249-4.418a.616.616,0,0,1,.611-.649l5.884-.034h0a.615.615,0,0,1,.616.64l-.175,4.456a1.959,1.959,0,0,1-1.956,1.944Zm-3.718-5.778.214,3.787v.035a.725.725,0,0,0,.725.725h2.778a.725.725,0,0,0,.725-.725v-.025l.149-3.824-4.593.026Z" fill="#e1000f"/>
    </g>
    <path id="Tracé_467" data-name="Tracé 467" d="M65.485,57.18h-9.3a1.233,1.233,0,0,1-1.231-1.231V51.21a1.233,1.233,0,0,1,1.231-1.231h9.3a1.233,1.233,0,0,1,1.231,1.231v4.739A1.233,1.233,0,0,1,65.485,57.18Zm0-1.231v0Zm-9.3-4.739v4.739h9.294V51.21Z" fill="#000091"/>
  </g>
</svg>
