<svg xmlns="http://www.w3.org/2000/svg" width="56" height="38.834" viewBox="0 0 56 38.834">
  <g id="Picto-SDB_WC" transform="translate(-6.347 -14.394)">
    <g id="Groupe_74" data-name="Groupe 74">
      <path id="Tracé_488" data-name="Tracé 488" d="M42.768,49.121H32.727a.613.613,0,0,1-.614-.614V18.615A.613.613,0,0,1,32.727,18H42.768a.613.613,0,0,1,.614.614V48.507A.613.613,0,0,1,42.768,49.121Zm-9.428-1.228h8.814V19.229H33.341Z" fill="#000091"/>
    </g>
    <path id="Tracé_489" data-name="Tracé 489" d="M19.82,53.2H11.356A1.376,1.376,0,0,1,9.98,51.822a.463.463,0,0,1,.045-.2l.727-1.565V46.145L9.6,44.111a.477.477,0,1,1,.831-.471l1.217,2.143a.477.477,0,0,1,.063.236v4.144a.463.463,0,0,1-.045.2l-.718,1.546a.42.42,0,0,0,.412.334h8.464a.421.421,0,0,0,.408-.319L18.52,48.859a.478.478,0,0,1,.213-.666,4.314,4.314,0,0,0,2.307-4.268.478.478,0,0,1,.95-.106,5.445,5.445,0,0,1-2.4,5l1.546,2.771a.479.479,0,0,1,.06.233A1.376,1.376,0,0,1,19.821,53.2Z" fill="#000091"/>
    <path id="Tracé_490" data-name="Tracé 490" d="M12.489,42.141a.478.478,0,0,1-.478-.478V34.585a.737.737,0,0,0-.735-.735H8.747a.737.737,0,0,0-.735.735v7.078a.478.478,0,0,1-.955,0V34.585a1.693,1.693,0,0,1,1.69-1.69h2.53a1.693,1.693,0,0,1,1.69,1.69v7.078A.478.478,0,0,1,12.489,42.141Z" fill="#000091"/>
    <path id="Tracé_491" data-name="Tracé 491" d="M12.489,36.76H7.535a.478.478,0,1,1,0-.955h4.954a.478.478,0,1,1,0,.955Z" fill="#000091"/>
    <path id="Tracé_492" data-name="Tracé 492" d="M10.838,35.185H9.213a.478.478,0,0,1,0-.955h1.625a.478.478,0,0,1,0,.955Z" fill="#000091"/>
    <path id="Tracé_493" data-name="Tracé 493" d="M25.49,35.91H24.466a.409.409,0,1,1,0-.819H25.49a.409.409,0,1,1,0,.819Z" fill="#e1000f"/>
    <path id="Tracé_494" data-name="Tracé 494" d="M20.546,35.978H19.435a.478.478,0,1,1,0-.955h1.111a.478.478,0,0,1,0,.955Z" fill="#e1000f"/>
    <path id="Tracé_495" data-name="Tracé 495" d="M23.834,37.3H21.092a1.024,1.024,0,0,1-1.023-1.023V34.719A1.024,1.024,0,0,1,21.092,33.7h2.742a1.024,1.024,0,0,1,1.023,1.023V36.28A1.024,1.024,0,0,1,23.834,37.3Zm-2.742-2.652a.069.069,0,0,0-.068.068V36.28a.069.069,0,0,0,.068.068h2.742a.069.069,0,0,0,.068-.068V34.719a.069.069,0,0,0-.068-.068Z" fill="#e1000f"/>
    <path id="Tracé_496" data-name="Tracé 496" d="M61.187,19.229H31.406a1.16,1.16,0,0,1-1.16-1.16V15.554a1.16,1.16,0,0,1,1.16-1.16H61.187a1.16,1.16,0,0,1,1.16,1.16V18.07A1.16,1.16,0,0,1,61.187,19.229ZM31.474,18H61.119V15.622H31.474Z" fill="#000091"/>
    <path id="Tracé_497" data-name="Tracé 497" d="M61.187,53.228H31.406a1.16,1.16,0,0,1-1.16-1.16V49.552a1.16,1.16,0,0,1,1.16-1.16H61.187a1.16,1.16,0,0,1,1.16,1.16v2.516A1.16,1.16,0,0,1,61.187,53.228ZM31.474,52H61.119V49.62H31.474Z" fill="#000091"/>
    <g id="Groupe_75" data-name="Groupe 75">
      <path id="Tracé_498" data-name="Tracé 498" d="M21.984,44.352H7.571a1.225,1.225,0,0,1-1.224-1.224v-.3A1.225,1.225,0,0,1,7.571,41.6H21.985a1.225,1.225,0,0,1,1.224,1.224v.3a1.225,1.225,0,0,1-1.224,1.224Zm-14.414-1.8a.272.272,0,0,0-.269.269v.3a.272.272,0,0,0,.269.269H21.984a.272.272,0,0,0,.269-.269v-.3a.272.272,0,0,0-.269-.269H7.571Z" fill="#000091"/>
    </g>
    <path id="Tracé_499" data-name="Tracé 499" d="M22.644,39.621H20.91a.478.478,0,0,1-.478-.478V36.825a.478.478,0,0,1,.478-.478h2.677a.478.478,0,0,1,.442.658l-.943,2.318a.478.478,0,0,1-.442.3Zm-1.257-.955h.935l.554-1.363h-1.49v1.363Z" fill="#e1000f"/>
    <path id="Tracé_500" data-name="Tracé 500" d="M32.727,49.121a.613.613,0,0,1-.614-.614V18.615a.614.614,0,0,1,1.228,0V48.507A.613.613,0,0,1,32.727,49.121Z" fill="#000091"/>
    <path id="Tracé_501" data-name="Tracé 501" d="M59.944,49.121a.613.613,0,0,1-.614-.614V18.615a.614.614,0,0,1,1.228,0V48.507A.613.613,0,0,1,59.944,49.121Z" fill="#000091"/>
    <path id="Tracé_502" data-name="Tracé 502" d="M51.7,24.774a.613.613,0,0,1-.614-.614V18.615a.614.614,0,0,1,1.228,0V24.16A.613.613,0,0,1,51.7,24.774Z" fill="#000091"/>
    <path id="Tracé_503" data-name="Tracé 503" d="M47.2,26.657V24.983A1.785,1.785,0,0,1,48.98,23.2h5.432a1.785,1.785,0,0,1,1.779,1.779v1.674" fill="#000091"/>
    <path id="Tracé_504" data-name="Tracé 504" d="M47.751,31.957a.613.613,0,0,1-.614-.614V30.16a.614.614,0,0,1,1.228,0v1.183A.613.613,0,0,1,47.751,31.957Z" fill="#e1000f"/>
    <path id="Tracé_505" data-name="Tracé 505" d="M35.823,36.312a.613.613,0,0,1-.614-.614V34.515a.614.614,0,1,1,1.228,0V35.7A.613.613,0,0,1,35.823,36.312Z" fill="#000091"/>
    <path id="Tracé_506" data-name="Tracé 506" d="M51.7,31.957a.613.613,0,0,1-.614-.614V30.16a.614.614,0,0,1,1.228,0v1.183A.613.613,0,0,1,51.7,31.957Z" fill="#e1000f"/>
    <path id="Tracé_507" data-name="Tracé 507" d="M49.675,35.357a.613.613,0,0,1-.614-.614V33.56a.614.614,0,0,1,1.228,0v1.183A.613.613,0,0,1,49.675,35.357Z" fill="#e1000f"/>
    <path id="Tracé_508" data-name="Tracé 508" d="M53.693,35.357a.613.613,0,0,1-.614-.614V33.56a.614.614,0,0,1,1.228,0v1.183A.613.613,0,0,1,53.693,35.357Z" fill="#e1000f"/>
    <path id="Tracé_509" data-name="Tracé 509" d="M55.643,31.957a.613.613,0,0,1-.614-.614V30.16a.614.614,0,0,1,1.228,0v1.183A.613.613,0,0,1,55.643,31.957Z" fill="#e1000f"/>
  </g>
</svg>
