<svg xmlns="http://www.w3.org/2000/svg" xmlns:xlink="http://www.w3.org/1999/xlink" width="190" height="190" viewBox="0 0 190 190">
  <defs>
    <clipPath id="clip-path">
      <rect id="Rectangle_163" data-name="Rectangle 163" width="190" height="190" transform="translate(625 270)" fill="#fff" stroke="#707070" stroke-width="1"/>
    </clipPath>
  </defs>
  <g id="icon-bug-lg" transform="translate(-625 -270)" clip-path="url(#clip-path)">
    <g id="icon-bug" transform="translate(619.191 265.038)">
      <g id="Calque_2">
        <path id="Tracé_239" data-name="Tracé 239" d="M149.1,30.255c-39.21,0-65.834-17.185-84.713-17.185S5.809,22.268,5.809,95.605s53.248,84.229,74.064,84.229C176.688,179.834,218.318,30.255,149.1,30.255Z" fill="#e5e5f4"/>
        <path id="Tracé_240" data-name="Tracé 240" d="M35.58,60.994a8.229,8.229,0,1,1,8.229-8.229h0A8.48,8.48,0,0,1,35.58,60.994Zm0-10.892a2.686,2.686,0,0,0-2.662,2.662,2.738,2.738,0,0,0,2.662,2.9,2.686,2.686,0,0,0,2.662-2.662h0A2.747,2.747,0,0,0,35.58,50.1Z" fill="#9a9aff"/>
      </g>
      <g id="Calque_3">
        <path id="Tracé_241" data-name="Tracé 241" d="M7.5,42.357,163.618,8.471l32.191,149.1L39.694,191.452Z" fill="none"/>
        <path id="Tracé_242" data-name="Tracé 242" d="M69.223,94.153l60.51-12.828s5.083,7.745,5.567,11.86,4.841,25.656,4.841,25.656,1.452,20.573-20.331,29.045c0,0-26.624,13.07-43.325-9.439l-8.713-35.822C67.529,102.624,66.318,99.478,69.223,94.153Z" fill="#ff9940"/>
        <path id="Tracé_243" data-name="Tracé 243" d="M69.223,94.153s-.968,5.325-.726,6.293h0s.242,7.019,1.21,8.955h0L73.822,127.8s5.083,22.752,32.191,22.994h0s-24.2-12.828-27.108-24.446a161.6,161.6,0,0,1-4.115-18.153s-.484-3.146-.726-5.567a13.161,13.161,0,0,1,0-4.357l.726-5.325-5.567,1.21" fill="#ff6f4c"/>
        <path id="Tracé_244" data-name="Tracé 244" d="M118.841,147.885c14.522-6.293,22.51-21.3,19.363-36.064l-4.115-18.637a30.913,30.913,0,0,0-5.325-11.86L69.223,94.153a29.771,29.771,0,0,0,0,13.07l4.115,18.637c3.146,14.764,16.943,25.172,32.675,24.93L98.025,114l13.07-2.9ZM67.287,144.5a43.02,43.02,0,0,1-7.019-15.975l-19.605,4.115L38,120.293l19.605-4.115-1.452-6.293a39.984,39.984,0,0,1-.968-11.86L38.968,93.185l4.115-12.1,14.764,4.357a8.6,8.6,0,0,1,.968-2.178l74.79-16.217a11.182,11.182,0,0,1,1.694,1.694l11.618-10.166,8.713,9.439L143.045,79.146a43.849,43.849,0,0,1,4.115,11.134l1.452,6.293,19.605-4.115,2.662,12.344-19.605,4.115a46.958,46.958,0,0,1,.242,17.427l18.153,5.567-4.115,12.1-18.395-5.567a47.951,47.951,0,0,1-70.675,15.248L61.962,166.28l-8.713-9.439L67.287,144.5Zm.242-76C64.624,54.7,73.822,41.146,88.1,38s28.318,5.567,31.465,19.121Z"/>
      </g>
    </g>
  </g>
</svg>
