<svg id="icon-house-alert" xmlns="http://www.w3.org/2000/svg" xmlns:xlink="http://www.w3.org/1999/xlink" width="100" height="100" viewBox="0 0 100 100">
  <defs>
    <clipPath id="clip-path">
      <rect id="Rectangle_5" data-name="Rectangle 5" width="100" height="100" fill="#fff"/>
    </clipPath>
  </defs>
  <g id="Groupe_de_masques_1" data-name="Groupe de masques 1" clip-path="url(#clip-path)">
    <g id="_005-alert" data-name="005-alert" transform="translate(0 4.898)">
      <path id="Tracé_1" data-name="Tracé 1" d="M12.566,81.668C12.566,61.81,2.28,48.174,2.28,38.605S7.781,8.941,51.8,8.941,102.277,35.976,102.277,46.5C102.28,95.784,12.566,116.835,12.566,81.668Z" transform="translate(-2.28 -8.941)" fill="#e5e5f4"/>
      <g id="Groupe_10" data-name="Groupe 10" transform="translate(61.163 1.068)">
        <path id="Tracé_2" data-name="Tracé 2" d="M0,0H2.87V5.741H0Z" transform="translate(0 2.03) rotate(-45)" fill="#9a9aff"/>
        <path id="Tracé_3" data-name="Tracé 3" d="M0,0H2.87V5.741H0Z" transform="translate(11.697 13.746) rotate(-45)" fill="#9a9aff"/>
        <path id="Tracé_4" data-name="Tracé 4" d="M0,0H5.744V2.87H0Z" transform="translate(11.178 4.081) rotate(-45)" fill="#9a9aff"/>
      </g>
      <path id="Tracé_5" data-name="Tracé 5" d="M81.877,52.594l-8.153-7.78V29.226H65.111V36.6L54.346,26.355,26.814,52.594a1.39,1.39,0,0,0-.459,1.034,1.421,1.421,0,0,0,1.435,1.435h7.177v20.1a4.308,4.308,0,0,0,4.306,4.306H70.853a2.872,2.872,0,0,0,2.871-2.871V55.063H80.9a1.421,1.421,0,0,0,1.435-1.435,1.39,1.39,0,0,0-.459-1.034Z" transform="translate(-8.654 -13.551)" fill="#f3f3f1"/>
      <path id="Tracé_6" data-name="Tracé 6" d="M101.285,100.611a2.76,2.76,0,0,1-2.762,2.742H68.161a2.76,2.76,0,0,1-2.762-2.742,2.538,2.538,0,0,1,.413-1.424L80.994,74.523a2.749,2.749,0,0,1,4.691,0l15.181,24.663A2.5,2.5,0,0,1,101.285,100.611Z" transform="translate(-18.99 -25.955)" fill="#ff9940"/>
      <path id="Tracé_7" data-name="Tracé 7" d="M85.525,37.638V30.26H79.065v1.229Z" transform="translate(-22.608 -14.585)" fill="#9a9aff"/>
      <path id="Tracé_8" data-name="Tracé 8" d="M32.814,53.628a1.39,1.39,0,0,1,.459-1.033l24.3-23.162-3.233-3.078L26.814,52.594a1.39,1.39,0,0,0-.459,1.034,1.421,1.421,0,0,0,1.435,1.435H34.25a1.421,1.421,0,0,1-1.435-1.435Z" transform="translate(-8.654 -13.551)" fill="#9a9aff"/>
      <path id="Tracé_9" data-name="Tracé 9" d="M44.528,85.5V65.4H38.068V85.5A4.308,4.308,0,0,0,42.375,89.8h6.459A4.308,4.308,0,0,1,44.528,85.5Z" transform="translate(-11.754 -23.888)" fill="#9a9aff"/>
      <path id="Tracé_10" data-name="Tracé 10" d="M71.859,100.611a2.538,2.538,0,0,1,.413-1.424l14.3-23.228-.884-1.435a2.749,2.749,0,0,0-4.691,0L65.813,99.187a2.538,2.538,0,0,0-.413,1.424,2.76,2.76,0,0,0,2.762,2.742h6.459a2.76,2.76,0,0,1-2.762-2.742Z" transform="translate(-18.99 -25.955)" fill="#ff6f4c"/>
      <path id="Tracé_11" data-name="Tracé 11" d="M97.748,104.73H67.386a4.91,4.91,0,0,1-4.915-4.892,4.687,4.687,0,0,1,.781-2.63L78.384,72.62a4.905,4.905,0,0,1,8.383.034L101.928,97.28a4.612,4.612,0,0,1,.735,2.558A4.91,4.91,0,0,1,97.748,104.73ZM82.567,74.586a.574.574,0,0,0-.494.256l-15.3,25a.606.606,0,0,0,.609.586H97.748a.606.606,0,0,0,.609-.586.425.425,0,0,0-.049-.224L83.078,74.879A.573.573,0,0,0,82.567,74.586Z" transform="translate(-18.215 -25.18)" fill="#1e1e1e"/>
      <path id="Tracé_12" data-name="Tracé 12" d="M86.874,85.9H91.18V95.946H86.874Z" transform="translate(-24.675 -29.314)"/>
      <circle id="Ellipse_1" data-name="Ellipse 1" cx="2.153" cy="2.153" r="2.153" transform="translate(62.199 69.503)"/>
      <path id="Tracé_13" data-name="Tracé 13" d="M47.111,80.844H38.5a6.469,6.469,0,0,1-6.459-6.459V56.442H27.015a3.594,3.594,0,0,1-3.589-3.589A3.547,3.547,0,0,1,24.6,50.221l27.488-26.2a2.16,2.16,0,0,1,2.971,0l7.128,6.784V28.451A2.154,2.154,0,0,1,64.336,26.3h8.612A2.154,2.154,0,0,1,75.1,28.451V43.116l7.484,7.143-2.971,3.118L71.461,45.6a2.161,2.161,0,0,1-.666-1.559V30.6H66.489v5.225a2.153,2.153,0,0,1-3.637,1.559L53.57,28.555,28.83,52.136h5.363a2.154,2.154,0,0,1,2.153,2.153v20.1A2.158,2.158,0,0,0,38.5,76.538h8.612ZM27.546,53.359l-.02.02Z" transform="translate(-7.878 -12.777)" fill="#1e1e1e"/>
    </g>
  </g>
</svg>
