<svg id="icon-chart-bubble" xmlns="http://www.w3.org/2000/svg" xmlns:xlink="http://www.w3.org/1999/xlink" width="78" height="78" viewBox="0 0 78 78">
  <defs>
    <clipPath id="clip-path">
      <rect id="Rectangle_5" data-name="Rectangle 5" width="78" height="78" transform="translate(0)" fill="#fff"/>
    </clipPath>
  </defs>
  <g id="Groupe_de_masques_6" data-name="Groupe de masques 6" clip-path="url(#clip-path)">
    <g id="_002-chat-bubble" data-name="002-chat-bubble" transform="translate(0 3.835)">
      <path id="Tracé_64" data-name="Tracé 64" d="M9.06,60.886c0-15.548-8.054-26.224-8.054-33.716S5.313,3.945,39.777,3.945,79.3,25.111,79.3,33.352C79.3,71.938,9.06,88.421,9.06,60.886Z" transform="translate(-1.006 -3.945)" fill="#e5e5f4"/>
      <path id="Tracé_65" data-name="Tracé 65" d="M15.429,13.633A3.372,3.372,0,1,1,18.8,10.262,3.376,3.376,0,0,1,15.429,13.633Zm0-4.5a1.124,1.124,0,1,0,1.124,1.124A1.124,1.124,0,0,0,15.429,9.138Z" transform="translate(2.364 -3.047)" fill="#9a9aff"/>
      <path id="Tracé_66" data-name="Tracé 66" d="M32.419,18.517A20.816,20.816,0,0,0,11.627,39.309h8.991a11.818,11.818,0,1,1,3.461,8.339l-6.361,6.361a20.79,20.79,0,1,0,14.7-35.492Z" transform="translate(2.232 0.498)" fill="#f3f3f1"/>
      <path id="Tracé_67" data-name="Tracé 67" d="M20.618,34.451H11.627a20.8,20.8,0,0,0,6.091,14.7L24.08,42.79A11.8,11.8,0,0,1,20.618,34.451Z" transform="translate(2.232 5.356)" fill="#ff9940"/>
      <path id="Tracé_68" data-name="Tracé 68" d="M55.9,13.875V23.99a2.254,2.254,0,0,1-2.248,2.248H46.346l-7.305,6.743V26.237h-4.5A2.254,2.254,0,0,1,32.3,23.99V13.875a2.254,2.254,0,0,1,2.248-2.248H53.651A2.254,2.254,0,0,1,55.9,13.875Z" transform="translate(8.534 -1.602)" fill="#ff9940"/>
      <path id="Tracé_69" data-name="Tracé 69" d="M16.685,34.451H11.627a20.8,20.8,0,0,0,6.091,14.7l2.762-2.762A20.681,20.681,0,0,1,16.685,34.451Z" transform="translate(2.232 5.356)" fill="#ff6f4c"/>
      <path id="Tracé_70" data-name="Tracé 70" d="M37.355,23.99V13.875A2.254,2.254,0,0,1,39.6,11.627H34.546A2.254,2.254,0,0,0,32.3,13.875V23.99a2.254,2.254,0,0,0,2.248,2.248h4.5S37.355,25.226,37.355,23.99Z" transform="translate(8.534 -1.602)" fill="#ff6f4c"/>
      <path id="Tracé_71" data-name="Tracé 71" d="M34.947,18.688a20.416,20.416,0,0,0-2.529-.171A20.816,20.816,0,0,0,11.627,39.309h5.057A20.81,20.81,0,0,1,34.947,18.688Z" transform="translate(2.232 0.498)" fill="#9a9aff"/>
      <path id="Tracé_72" data-name="Tracé 72" d="M21.353,47.2l4.259-4.259a11.83,11.83,0,0,1-2.956-2.1L16.3,47.2A20.8,20.8,0,0,0,31,53.294a20.452,20.452,0,0,0,2.531-.171A20.833,20.833,0,0,1,21.353,47.2Z" transform="translate(3.655 7.305)" fill="#9a9aff"/>
      <path id="Tracé_73" data-name="Tracé 73" d="M32.813,62.175a22.47,22.47,0,0,1-.607-44.932l.088,3.369A19.1,19.1,0,1,0,51.918,39.7a19.724,19.724,0,0,0-.746-5.32l3.246-.91A23.018,23.018,0,0,1,55.29,39.7,22.5,22.5,0,0,1,32.813,62.175Zm0-8.744A13.734,13.734,0,1,1,34.269,26.04l-.353,3.354a10.362,10.362,0,1,0,9.258,10.3,7.694,7.694,0,0,0-.128-1.459L46.36,37.6a11.015,11.015,0,0,1,.187,2.093A13.749,13.749,0,0,1,32.813,53.431Z" transform="translate(1.838 0.11)"/>
      <path id="Tracé_74" data-name="Tracé 74" d="M11.627,33.159h8.755v3.372H11.627Z" transform="translate(2.232 4.962)"/>
      <path id="Tracé_75" data-name="Tracé 75" d="M0,0H8.758V3.371H0Z" transform="translate(18.743 53.318) rotate(-45)"/>
      <path id="Tracé_76" data-name="Tracé 76" d="M39.435,35.06a1.685,1.685,0,0,1-1.686-1.686V28.317h-2.81a3.938,3.938,0,0,1-3.934-3.934V14.269a3.938,3.938,0,0,1,3.934-3.934H54.045a3.938,3.938,0,0,1,3.934,3.934V24.384a3.938,3.938,0,0,1-3.934,3.934H47.4l-6.822,6.3A1.674,1.674,0,0,1,39.435,35.06Zm-4.5-21.353a.568.568,0,0,0-.562.562V24.384a.568.568,0,0,0,.562.562h4.5a1.686,1.686,0,0,1,1.686,1.686v2.893L45.6,25.393a1.691,1.691,0,0,1,1.144-.447h7.305a.568.568,0,0,0,.562-.562V14.269a.568.568,0,0,0-.562-.562Z" transform="translate(8.14 -1.996)"/>
    </g>
  </g>
</svg>
