<svg xmlns="http://www.w3.org/2000/svg" xmlns:xlink="http://www.w3.org/1999/xlink" width="190" height="190" viewBox="0 0 190 190">
  <defs>
    <clipPath id="clip-path">
      <rect id="Rectangle_163" data-name="Rectangle 163" width="190" height="190" transform="translate(1038 181)" fill="#fff" stroke="#707070" stroke-width="1"/>
    </clipPath>
  </defs>
  <g id="icon-search-lg" transform="translate(-1038 -181)" clip-path="url(#clip-path)">
    <g id="Calque_2" transform="translate(1038 186.816)">
      <path id="Tracé_227" data-name="Tracé 227" d="M159.144,31.624c-41.939,0-70.416-18.381-90.608-18.381S5.886,23.081,5.886,101.522,62.84,191.613,85.1,191.613C188.656,191.613,233.184,31.624,159.144,31.624Z" transform="translate(-5.886 -13.244)" fill="#e5e5f4"/>
      <path id="Tracé_228" data-name="Tracé 228" d="M146.091,50.114a12.429,12.429,0,0,1-12.426-12.426,12.6,12.6,0,0,1,12.426-12.426,12.429,12.429,0,0,1,12.426,12.426h0A12.6,12.6,0,0,1,146.091,50.114Zm0-16.827a4.142,4.142,0,1,0,4.142,4.142h0A4.089,4.089,0,0,0,146.091,33.287Z" transform="translate(1.213 -12.576)" fill="#9a9aff"/>
      <circle id="Ellipse_79" data-name="Ellipse 79" cx="44.786" cy="44.786" r="44.786" transform="translate(48.67 49.964)" fill="#ff9940"/>
      <path id="Tracé_229" data-name="Tracé 229" d="M67.642,104.43A45.7,45.7,0,0,1,104.4,59.644,45.633,45.633,0,0,0,50.815,95.369C45.9,119.963,61.688,144.3,86.282,149.217a51.327,51.327,0,0,0,9.061.777,48.415,48.415,0,0,0,8.8-.777A45.731,45.731,0,0,1,67.642,104.43Z" transform="translate(-3.44 -10.715)" fill="#ff6f4c"/>
      <path id="Tracé_230" data-name="Tracé 230" d="M140.491,142l27.182,27.182-9.061,9.061L131.689,150.8a57.521,57.521,0,1,1,8.8-8.8Zm-12.685-4.919a44.487,44.487,0,1,0-31.842,13.462,43.652,43.652,0,0,0,31.066-12.685Zm-24.335-55.4a12.748,12.748,0,0,0,10.355,23.3,13.124,13.124,0,0,0,6.472-6.472A25.467,25.467,0,1,1,88.456,81.684,29.515,29.515,0,0,1,103.471,81.684Z" transform="translate(-4.06 -11.268)"/>
    </g>
  </g>
</svg>
