<svg id="icon-house-touch" xmlns="http://www.w3.org/2000/svg" xmlns:xlink="http://www.w3.org/1999/xlink" width="100" height="100" viewBox="0 0 100 100">
  <defs>
    <clipPath id="clip-path">
      <rect id="Rectangle_5" data-name="Rectangle 5" width="100" height="100" fill="#fff"/>
    </clipPath>
  </defs>
  <g id="Groupe_de_masques_2" data-name="Groupe de masques 2" clip-path="url(#clip-path)">
    <g id="_006-touch-control" data-name="006-touch-control" transform="translate(0 4.888)">
      <path id="Tracé_14" data-name="Tracé 14" d="M91.794,26.378c0,19.814,10.264,33.421,10.264,42.968s-5.489,29.6-49.411,29.6S2.276,71.97,2.276,61.469c0-49.176,89.518-70.182,89.518-35.091Z" transform="translate(-2.276 -8.941)" fill="#e5e5f4"/>
      <path id="Tracé_15" data-name="Tracé 15" d="M105.81,47.637a4.3,4.3,0,1,1,4.3-4.3A4.3,4.3,0,0,1,105.81,47.637Zm0-5.729a1.432,1.432,0,1,0,1.432,1.432A1.435,1.435,0,0,0,105.81,41.908Z" transform="translate(-28.704 -16.958)" fill="#9a9aff"/>
      <path id="Tracé_16" data-name="Tracé 16" d="M81.755,52.536,73.62,44.773V29.219H65.026v7.362L54.284,26.354,26.813,52.536a1.387,1.387,0,0,0-.458,1.031A1.418,1.418,0,0,0,27.787,55h7.161V75.052a4.3,4.3,0,0,0,4.3,4.3h31.51a2.866,2.866,0,0,0,2.865-2.865V55h7.161a1.418,1.418,0,0,0,1.432-1.432A1.387,1.387,0,0,0,81.755,52.536Z" transform="translate(-8.689 -13.578)" fill="#f3f3f1"/>
      <path id="Tracé_17" data-name="Tracé 17" d="M83.794,84.954l-3.18-3.18a2.7,2.7,0,0,1,3.821-3.821L86.979,80.5,88.887,82.4,86.979,80.5A2.7,2.7,0,0,1,90.8,76.676l7,7,.026.026c4.54,4.54,3.24,10.7-1.292,15.234l-.011.011-2.547,2.547c-3.234,3.183-7.943,3.492-15.271.009s-8.576-.937-10.178-2.541c-.584-.584-.636-1.908,1.275-3.818,2.025-2.025,5.32-1.911,7.293-1.621L64.08,80.505A2.7,2.7,0,0,1,67.9,76.684l7.631,7.631,3.18,3.18-3.18-3.18a2.7,2.7,0,0,1,3.821-3.821l1.272,1.272Z" transform="translate(-18.525 -26.769)" fill="#ff9940"/>
      <g id="Groupe_11" data-name="Groupe 11" transform="translate(17.666 12.776)">
        <path id="Tracé_18" data-name="Tracé 18" d="M85.508,37.621V30.259H79.063v1.226Z" transform="translate(-40.391 -27.394)" fill="#9a9aff"/>
        <path id="Tracé_19" data-name="Tracé 19" d="M32.8,53.568a1.387,1.387,0,0,1,.458-1.031L57.509,29.425l-3.226-3.071L26.813,52.536a1.387,1.387,0,0,0-.458,1.031A1.418,1.418,0,0,0,27.787,55h6.445A1.418,1.418,0,0,1,32.8,53.568Z" transform="translate(-26.354 -26.354)" fill="#9a9aff"/>
        <path id="Tracé_20" data-name="Tracé 20" d="M44.513,85.45V65.4H38.067V85.45a4.3,4.3,0,0,0,4.3,4.3h6.445A4.3,4.3,0,0,1,44.513,85.45Z" transform="translate(-29.474 -36.752)" fill="#9a9aff"/>
      </g>
      <path id="Tracé_21" data-name="Tracé 21" d="M95.381,77.96a2.7,2.7,0,0,1,3.818,0l2.544,2.544a2.677,2.677,0,0,1-.779-1.974l-1.848-1.848a2.684,2.684,0,0,0-4.446,2.761A2.633,2.633,0,0,1,95.381,77.96Z" transform="translate(-26.844 -26.77)" fill="#00b871"/>
      <path id="Tracé_22" data-name="Tracé 22" d="M85.137,101.505c-7.328-3.483-8.577-.937-10.178-2.541-.584-.584-.636-1.908,1.275-3.818,2.025-2.025,5.32-1.911,7.293-1.618L70.517,80.516a2.677,2.677,0,0,1-.779-1.974L67.89,76.7a2.7,2.7,0,0,0-3.821,3.821L77.079,93.527c-1.974-.292-5.268-.4-7.293,1.618-1.911,1.911-1.859,3.234-1.275,3.818,1.6,1.6,2.85-.942,10.178,2.541,5.145,2.443,8.978,2.988,11.934,2.014A28.762,28.762,0,0,1,85.137,101.505Z" transform="translate(-18.522 -26.774)" fill="#ff6f4c"/>
      <path id="Tracé_23" data-name="Tracé 23" d="M87.08,84.787A2.7,2.7,0,0,1,90.9,80.966l1.272,1.272a2.677,2.677,0,0,1-.779-1.974l-1.848-1.848a2.7,2.7,0,0,0-3.821,3.821l-1.272-1.272a2.678,2.678,0,0,0-1.974-.779Z" transform="translate(-23.635 -27.233)" fill="#ff9940"/>
      <path id="Tracé_24" data-name="Tracé 24" d="M86.934,105.353a23.732,23.732,0,0,1-9.94-2.69c-3.927-1.865-5.786-1.782-7.015-1.75A4.445,4.445,0,0,1,66.22,99.7c-1.289-1.292-1.727-3.861,1.275-6.858a8.006,8.006,0,0,1,3.793-2.083l-9.513-9.513A4.847,4.847,0,0,1,68.629,74.4l4.228,4.225c.115-.143.238-.281.367-.412a4.856,4.856,0,0,1,4.217-1.358,4.87,4.87,0,0,1,6.78-1.936,5.337,5.337,0,0,1,.461-.533,4.825,4.825,0,0,1,3.426-1.421h0a4.82,4.82,0,0,1,3.429,1.424l6.992,6.99c5.1,5.1,4.583,12.447-1.269,18.3L94.7,102.231a10.616,10.616,0,0,1-7.769,3.122ZM70.709,96.6c1.61,0,4.085.261,8.127,2.183,8.009,3.807,11.166,2.051,12.839.4l2.535-2.535c3.122-3.122,5.328-8.184,1.306-12.209l-7.021-7.018a.551.551,0,0,0-.779.779l1.911,1.908a2.149,2.149,0,0,1-3.042,3.036l-4.449-4.452a.549.549,0,0,0-.779,0,.62.62,0,0,0,0,.776l3.18,3.183-3.039,3.039-3.18-3.18s0-.006-.006-.009l-1.263-1.263a.546.546,0,0,0-.779,0,.621.621,0,0,0,0,.779l3.18,3.18A2.148,2.148,0,0,1,76.4,88.237L65.593,77.426a.546.546,0,0,0-.776,0,.539.539,0,0,0-.166.39.549.549,0,0,0,.16.39L77.821,91.219a2.147,2.147,0,0,1-1.83,3.644c-1.449-.218-4.082-.367-5.46,1.014a6.6,6.6,0,0,0-.642.73c.243,0,.516-.011.819-.011Z" transform="translate(-17.743 -25.99)"/>
      <path id="Tracé_25" data-name="Tracé 25" d="M49.923,80.718H38.465a6.453,6.453,0,0,1-6.445-6.445v-17.9H27.007a3.586,3.586,0,0,1-3.581-3.581,3.55,3.55,0,0,1,1.163-2.624L52.02,24.02a2.155,2.155,0,0,1,2.965,0L62.1,30.789V28.44a2.149,2.149,0,0,1,2.148-2.148H72.84a2.149,2.149,0,0,1,2.148,2.148V43.072L82.456,50.2a3.522,3.522,0,0,1,1.126,2.59A3.586,3.586,0,0,1,80,56.369H72.84v-4.3H78.2L71.359,45.55a2.156,2.156,0,0,1-.665-1.555V30.588h-4.3V35.8a2.149,2.149,0,0,1-3.629,1.555L53.5,28.543l-24.69,23.53h5.354a2.149,2.149,0,0,1,2.148,2.148V74.273a2.151,2.151,0,0,0,2.148,2.148H49.923ZM79.506,53.324l.026.026ZM27.534,53.3l-.017.017Z" transform="translate(-7.909 -12.799)"/>
    </g>
  </g>
</svg>
