<svg xmlns="http://www.w3.org/2000/svg" xmlns:xlink="http://www.w3.org/1999/xlink" width="100" height="100" viewBox="0 0 100 100"><defs><style>.a{fill:#fff;}.b{clip-path:url(#a);}.c{fill:#e5e5f4;}.d{fill:#9a9aff;}.e{fill:#f3f3f1;}.f{fill:#ff9940;}.g{fill:#d5dbe1;}</style><clipPath id="a"><rect class="a" width="100" height="100"/></clipPath></defs><g class="b"><g transform="translate(0 5.642)"><path class="c" d="M12.359,80.324c0-19.531-10.117-32.943-10.117-42.354s5.41-29.176,48.7-29.176,49.647,26.59,49.647,36.941C100.6,94.207,12.359,114.912,12.359,80.324Z" transform="translate(-0.594 -8.794)"/><g transform="translate(0 33.536)"><path class="d" d="M12.48,54.4H15.3v5.647H12.48Z" transform="translate(-3.304 -54.402)"/><path class="d" d="M12.48,76.483H15.3V82.13H12.48Z" transform="translate(-3.304 -60.247)"/><path class="d" d="M0,66.883H5.647v2.824H0Z" transform="translate(0 -57.706)"/></g><path class="e" d="M57.686,25.92,26.344,55.963a1.453,1.453,0,0,0-.424,1.016,1.4,1.4,0,0,0,1.412,1.412h7.059V85.216a4.248,4.248,0,0,0,4.235,4.235H76.745a4.248,4.248,0,0,0,4.235-4.235V58.392h7.059a1.4,1.4,0,0,0,1.412-1.412,1.453,1.453,0,0,0-.424-1.016L80.98,48.057V28.744H71.1v9.544Z" transform="translate(-6.861 -13.327)"/><path class="f" d="M73.921,64.321h8.471v24H73.921Z" transform="translate(-19.567 -23.492)"/><path class="f" d="M52.8,79.681h8.471V92.388H52.8Z" transform="translate(-13.977 -27.558)"/><path class="d" d="M43.794,96.905V70.081H37.441V96.905a4.248,4.248,0,0,0,4.235,4.235h6.353A4.248,4.248,0,0,1,43.794,96.905Z" transform="translate(-9.911 -25.017)"/><path class="g" d="M93.715,39.3V29.761H87.362v3.685Z" transform="translate(-23.125 -14.344)"/><path class="d" d="M32.274,56.98a1.453,1.453,0,0,1,.424-1.016L60.924,28.905,57.686,25.92,26.344,55.963a1.453,1.453,0,0,0-.424,1.016,1.4,1.4,0,0,0,1.412,1.412h6.353A1.4,1.4,0,0,1,32.274,56.98Z" transform="translate(-6.861 -13.327)"/><path d="M46.081,94.082H79.964v4.235H46.081Z" transform="translate(-12.198 -31.37)"/><path d="M83.747,87.559H79.512V65.677H75.277V87.559H71.041v-24a2.118,2.118,0,0,1,2.118-2.118H81.63a2.118,2.118,0,0,1,2.118,2.118Z" transform="translate(-18.805 -22.73)"/><path d="M62.627,91.625H58.392V81.037H54.156V91.625H49.921V78.919A2.118,2.118,0,0,1,52.039,76.8h8.471a2.118,2.118,0,0,1,2.118,2.118Z" transform="translate(-13.214 -26.796)"/><path d="M75.983,90.806H37.864a6.361,6.361,0,0,1-6.353-6.353V59.746H26.57A3.534,3.534,0,0,1,24.094,53.7L55.458,23.627a2.116,2.116,0,0,1,2.9-.028l9.86,9.092v-4.71a2.118,2.118,0,0,1,2.118-2.118h9.883a2.118,2.118,0,0,1,2.118,2.118V46.4l7.412,7.285a3.573,3.573,0,0,1,1.059,2.527,3.534,3.534,0,0,1-3.529,3.529H82.336V84.453A6.361,6.361,0,0,1,75.983,90.806ZM28.318,55.511h5.311a2.118,2.118,0,0,1,2.118,2.118V84.453a2.12,2.12,0,0,0,2.118,2.118H75.983A2.12,2.12,0,0,0,78.1,84.453V57.629a2.118,2.118,0,0,1,2.118-2.118H85.56L78.736,48.8a2.115,2.115,0,0,1-.635-1.511V30.1H72.453v7.426A2.118,2.118,0,0,1,68.9,39.081L56.952,28.063Z" transform="translate(-6.099 -12.564)"/></g></g></svg>