<svg id="icon-pass" xmlns="http://www.w3.org/2000/svg" xmlns:xlink="http://www.w3.org/1999/xlink" width="78" height="78" viewBox="0 0 78 78">
  <defs>
    <clipPath id="clip-path">
      <rect id="Rectangle_5" data-name="Rectangle 5" width="78" height="78" transform="translate(0)" fill="#fff"/>
    </clipPath>
  </defs>
  <g id="Groupe_de_masques_7" data-name="Groupe de masques 7" clip-path="url(#clip-path)">
    <g id="_008-pass" data-name="008-pass" transform="translate(3.819 0)">
      <g id="Groupe_29" data-name="Groupe 29" transform="translate(0 0)">
        <path id="Tracé_77" data-name="Tracé 77" d="M17.571,9.027c15.485,0,26.118-8.021,33.58-8.021S74.283,5.3,74.283,39.62,53.2,78.982,44.995,78.982C6.564,78.985-9.852,9.027,17.571,9.027Z" transform="translate(-3.945 -1.006)" fill="#e5e5f4"/>
      </g>
      <g id="Groupe_34" data-name="Groupe 34" transform="translate(54.776 8.637)">
        <g id="Groupe_30" data-name="Groupe 30" transform="translate(0.397 0)">
          <path id="Tracé_78" data-name="Tracé 78" d="M0,0H2.238V4.477H0Z" transform="translate(0 1.583) rotate(-45)" fill="#9a9aff"/>
        </g>
        <g id="Groupe_31" data-name="Groupe 31" transform="translate(9.498 9.102)">
          <path id="Tracé_79" data-name="Tracé 79" d="M0,0H2.238V4.477H0Z" transform="translate(0 1.583) rotate(-45)" fill="#9a9aff"/>
        </g>
        <g id="Groupe_32" data-name="Groupe 32" transform="translate(0 9.102)">
          <path id="Tracé_80" data-name="Tracé 80" d="M0,0H4.477V2.238H0Z" transform="translate(0 3.165) rotate(-45)" fill="#9a9aff"/>
        </g>
        <g id="Groupe_33" data-name="Groupe 33" transform="translate(9.102 0.001)">
          <path id="Tracé_81" data-name="Tracé 81" d="M0,0H4.477V2.238H0Z" transform="translate(0 3.165) rotate(-45)" fill="#9a9aff"/>
        </g>
      </g>
      <g id="Groupe_35" data-name="Groupe 35" transform="translate(9.984 13.803)">
        <path id="Tracé_82" data-name="Tracé 82" d="M41.909,55.281H16.1A4.49,4.49,0,0,1,11.627,50.8V16.1A4.49,4.49,0,0,1,16.1,11.627H41.849A4.49,4.49,0,0,1,46.326,16.1l.06,34.692A4.48,4.48,0,0,1,41.909,55.281Z" transform="translate(-11.627 -11.627)" fill="#f3f3f1"/>
      </g>
      <g id="Groupe_36" data-name="Groupe 36" transform="translate(24.535 20.519)">
        <circle id="Ellipse_5" data-name="Ellipse 5" cx="2.798" cy="2.798" r="2.798" fill="#2fdf84"/>
      </g>
      <g id="Groupe_37" data-name="Groupe 37" transform="translate(20.058 31.713)">
        <path id="Tracé_83" data-name="Tracé 83" d="M33.93,32.683v-2.8a4.476,4.476,0,0,0-4.477-4.477h-5.6a4.476,4.476,0,0,0-4.477,4.477v2.8Z" transform="translate(-19.379 -25.408)" fill="#ff9940"/>
      </g>
      <g id="Groupe_38" data-name="Groupe 38" transform="translate(36.848 40.712)">
        <path id="Tracé_84" data-name="Tracé 84" d="M51.528,41.242h-5.6a8.009,8.009,0,0,0,1.052-4.186c0-3.134-1.567-4.724-2.619-4.724-1.03,0-2.127,1.075-2.127,3.694,0,2.749-3.239,5.375-4.681,6.342a2.208,2.208,0,0,0-1.9-1.126H34.537A2.239,2.239,0,0,0,32.3,43.481V53.555a2.239,2.239,0,0,0,2.239,2.239h1.119a2.245,2.245,0,0,0,2.239-2.239v-.022c1.254.716,5.171,2.261,11.171,2.261h1.142a4.4,4.4,0,0,0,4.343-3.582c.022,0,1.254-6.089,1.254-6.694a4.29,4.29,0,0,0-4.276-4.276Z" transform="translate(-32.298 -32.332)" fill="#ff9940"/>
      </g>
      <g id="Groupe_39" data-name="Groupe 39" transform="translate(9.984 13.803)">
        <path id="Tracé_85" data-name="Tracé 85" d="M16.664,50.8V16.1a4.49,4.49,0,0,1,4.477-4.477H16.1A4.49,4.49,0,0,0,11.627,16.1V50.8A4.49,4.49,0,0,0,16.1,55.281h5.037A4.49,4.49,0,0,1,16.664,50.8Z" transform="translate(-11.627 -11.627)" fill="#9a9aff"/>
      </g>
      <g id="Groupe_40" data-name="Groupe 40" transform="translate(24.535 20.519)">
        <path id="Tracé_86" data-name="Tracé 86" d="M27.861,19.593a2.738,2.738,0,0,1,.28-1.178,2.8,2.8,0,1,0,0,2.355A2.738,2.738,0,0,1,27.861,19.593Z" transform="translate(-22.824 -16.795)" fill="#ff6f4c"/>
      </g>
      <g id="Groupe_41" data-name="Groupe 41" transform="translate(20.058 31.713)">
        <path id="Tracé_87" data-name="Tracé 87" d="M28.893,25.408H23.856a4.476,4.476,0,0,0-4.477,4.477v2.8h5.037v-2.8A4.476,4.476,0,0,1,28.893,25.408Z" transform="translate(-19.379 -25.408)" fill="#ff6f4c"/>
      </g>
      <g id="Groupe_42" data-name="Groupe 42" transform="translate(43.407 40.712)">
        <path id="Tracé_88" data-name="Tracé 88" d="M38.061,41.242h1.119a2.208,2.208,0,0,1,1.9,1.126c1.182-.792,3.548-2.709,4.37-4.885.007-.143.02-.278.02-.428,0-3.134-1.567-4.724-2.619-4.724-1.03,0-2.127,1.075-2.127,3.694,0,2.08-1.851,4.086-3.38,5.362a2.2,2.2,0,0,1,.716-.146Z" transform="translate(-37.345 -32.332)" fill="#ff6f4c"/>
      </g>
      <g id="Groupe_43" data-name="Groupe 43" transform="translate(36.848 49.622)">
        <path id="Tracé_89" data-name="Tracé 89" d="M37.335,51.5V41.427a2.181,2.181,0,0,1,.445-1.272c-.072.051-.159.116-.224.159a2.208,2.208,0,0,0-1.9-1.126H34.537A2.239,2.239,0,0,0,32.3,41.427V51.5a2.239,2.239,0,0,0,2.239,2.239h1.119a2.22,2.22,0,0,0,1.957-1.216,2.2,2.2,0,0,1-.278-1.023Z" transform="translate(-32.298 -39.188)" fill="#ff6f4c"/>
      </g>
      <g id="Groupe_44" data-name="Groupe 44" transform="translate(17.26 42.346)">
        <path id="Tracé_90" data-name="Tracé 90" d="M17.226,33.59H37.373v3.358H17.226Z" transform="translate(-17.226 -33.59)"/>
      </g>
      <g id="Groupe_45" data-name="Groupe 45" transform="translate(17.26 49.062)">
        <path id="Tracé_91" data-name="Tracé 91" d="M17.226,38.757H30.7v3.358H17.226Z" transform="translate(-17.226 -38.757)"/>
      </g>
      <g id="Groupe_46" data-name="Groupe 46" transform="translate(22.856 18.84)">
        <path id="Tracé_92" data-name="Tracé 92" d="M26.009,24.458a4.477,4.477,0,1,1,4.477-4.477A4.482,4.482,0,0,1,26.009,24.458Zm0-5.6a1.119,1.119,0,1,0,1.119,1.119A1.12,1.12,0,0,0,26.009,18.861Z" transform="translate(-21.532 -15.503)"/>
      </g>
      <g id="Groupe_47" data-name="Groupe 47" transform="translate(18.379 30.034)">
        <path id="Tracé_93" data-name="Tracé 93" d="M36,33.07H32.638v-2.8a2.8,2.8,0,0,0-2.8-2.8h-5.6a2.8,2.8,0,0,0-2.8,2.8v2.8H18.087v-2.8a6.161,6.161,0,0,1,6.156-6.156h5.6A6.161,6.161,0,0,1,36,30.272Z" transform="translate(-18.087 -24.116)"/>
      </g>
      <g id="Groupe_48" data-name="Groupe 48" transform="translate(8.305 12.125)">
        <path id="Tracé_94" data-name="Tracé 94" d="M32.789,57.347h-16.3a6.161,6.161,0,0,1-6.156-6.156v-34.7a6.161,6.161,0,0,1,6.156-6.156H42.236a6.161,6.161,0,0,1,6.156,6.156V32.767H45.034V16.492a2.8,2.8,0,0,0-2.8-2.8H16.492a2.8,2.8,0,0,0-2.8,2.8v34.7a2.8,2.8,0,0,0,2.8,2.8h16.3Z" transform="translate(-10.335 -10.335)"/>
      </g>
      <g id="Groupe_49" data-name="Groupe 49" transform="translate(35.169 47.943)">
        <path id="Tracé_95" data-name="Tracé 95" d="M36.043,55.805H34.924a3.922,3.922,0,0,1-3.918-3.918V41.814A3.922,3.922,0,0,1,34.924,37.9h1.119a3.922,3.922,0,0,1,3.918,3.918V51.888A3.922,3.922,0,0,1,36.043,55.805ZM34.924,41.254a.56.56,0,0,0-.56.56V51.888a.56.56,0,0,0,.56.56h1.119a.566.566,0,0,0,.56-.56V41.814a.56.56,0,0,0-.56-.56Z" transform="translate(-31.006 -37.896)"/>
      </g>
      <g id="Groupe_50" data-name="Groupe 50" transform="translate(41.489 39.033)">
        <path id="Tracé_96" data-name="Tracé 96" d="M49.137,57.859H48c-6.176,0-9.821-1.554-11.444-2.48l1.666-2.917C39.289,53.075,42.392,54.5,48,54.5h1.142a2.727,2.727,0,0,0,2.686-2.174,1.842,1.842,0,0,1,.043-.193c.161-.694,1.139-5.621,1.191-6.293a2.593,2.593,0,0,0-2.6-2.534h-5.6a1.679,1.679,0,0,1-1.395-2.615,5.089,5.089,0,0,0,.768-3.251c0-2.008-.79-2.948-1.077-3.062a9,9,0,0,0-.311,2.033c0,3.747-3.636,6.425-5.2,7.4l-1.78-2.848c1.751-1.092,3.62-2.863,3.62-4.553,0-3.712,1.912-5.373,3.806-5.373,2.113,0,4.3,2.4,4.3,6.4a11.02,11.02,0,0,1-.284,2.507h3.15a5.961,5.961,0,0,1,5.955,5.955,26.17,26.17,0,0,1-.649,3.893c-.278,1.426-.466,2.4-.654,3.065l.027,0a6.075,6.075,0,0,1-6,4.992Z" transform="translate(-35.869 -31.04)"/>
      </g>
    </g>
  </g>
</svg>
