<svg id="icon-house-check" xmlns="http://www.w3.org/2000/svg" xmlns:xlink="http://www.w3.org/1999/xlink" width="180" height="180" viewBox="0 0 180 180">
  <defs>
    <clipPath id="clip-path">
      <rect id="Rectangle_21" data-name="Rectangle 21" width="180" height="180" fill="#fff" stroke="#707070" stroke-width="1"/>
    </clipPath>
  </defs>
  <g id="icon-house-check-2" data-name="icon-house-check" clip-path="url(#clip-path)">
    <g id="verifier" transform="translate(0 8.816)">
      <path id="Tracé_139" data-name="Tracé 139" d="M20.528,138.8c0-35.745-18.516-60.291-18.516-77.515s9.9-53.4,89.137-53.4S182.012,56.553,182.012,75.5C182.017,164.211,20.528,202.106,20.528,138.8Z" transform="translate(-2.012 -7.889)" fill="#fff"/>
      <path id="Tracé_140" data-name="Tracé 140" d="M97.324,43.064a7.751,7.751,0,1,1,7.751-7.751A7.761,7.761,0,0,1,97.324,43.064Zm0-10.335a2.584,2.584,0,1,0,2.584,2.584A2.585,2.585,0,0,0,97.324,32.729Z" transform="translate(41.768 1.946)" fill="#9a9aff"/>
      <path id="Tracé_141" data-name="Tracé 141" d="M123.2,70.487l-14.676-14V28.422h-15.5V41.7L73.639,23.254,24.081,70.487a2.5,2.5,0,0,0-.827,1.86,2.559,2.559,0,0,0,2.584,2.584H38.757V111.1a7.754,7.754,0,0,0,7.751,7.751h56.844a5.17,5.17,0,0,0,5.168-5.168V74.931H121.44a2.559,2.559,0,0,0,2.584-2.584,2.5,2.5,0,0,0-.827-1.86Z" transform="translate(8.609 -0.207)" fill="#f3f3f1"/>
      <circle id="Ellipse_27" data-name="Ellipse 27" cx="29.714" cy="29.714" r="29.714" transform="translate(88.708 79.892)" fill="#ff9940"/>
      <g id="Groupe_119" data-name="Groupe 119" transform="translate(31.864 23.048)">
        <path id="Tracé_142" data-name="Tracé 142" d="M81.391,39.98V26.7H69.763v2.212Z" transform="translate(0 -21.532)" fill="#d5dbe1"/>
        <path id="Tracé_143" data-name="Tracé 143" d="M45.217,93.879V57.706H33.59V93.879a7.754,7.754,0,0,0,7.751,7.751H52.969A7.754,7.754,0,0,1,45.217,93.879Z" transform="translate(-18.087 -6.029)" fill="#9a9aff"/>
        <path id="Tracé_144" data-name="Tracé 144" d="M34.882,72.347a2.5,2.5,0,0,1,.827-1.86L79.458,28.794l-5.819-5.54L24.081,70.487a2.5,2.5,0,0,0-.827,1.86,2.559,2.559,0,0,0,2.584,2.584H37.466a2.559,2.559,0,0,1-2.584-2.584Z" transform="translate(-23.254 -23.254)" fill="#9a9aff"/>
      </g>
      <path id="Tracé_145" data-name="Tracé 145" d="M72.778,90.865a29.715,29.715,0,0,1,23.9-29.135,29.712,29.712,0,1,0-5.814,58.849A29.537,29.537,0,0,0,96.678,120,29.715,29.715,0,0,1,72.778,90.865Z" transform="translate(27.557 18.741)" fill="#ff6f4c"/>
      <path id="Tracé_146" data-name="Tracé 146" d="M92.157,125.746a33.59,33.59,0,1,1,33.59-33.59A33.629,33.629,0,0,1,92.157,125.746Zm0-59.428a25.838,25.838,0,1,0,25.838,25.838A25.868,25.868,0,0,0,92.157,66.318Z" transform="translate(26.266 17.449)"/>
      <path id="Tracé_147" data-name="Tracé 147" d="M81.442,97.774A3.859,3.859,0,0,1,78.7,96.637L69.66,87.594l5.483-5.483,6.2,6.2L95.4,73.171l5.684,5.276L84.29,96.534a3.893,3.893,0,0,1-2.77,1.24h-.078Z" transform="translate(31.812 24.751)"/>
      <path id="Tracé_148" data-name="Tracé 148" d="M63.3,124.023H47.8A11.638,11.638,0,0,1,36.174,112.4V80.1H27.13a6.469,6.469,0,0,1-6.46-6.46,6.378,6.378,0,0,1,2.114-4.744L72.254,21.74a3.883,3.883,0,0,1,5.349,0L90.434,33.951V29.713a3.877,3.877,0,0,1,3.876-3.876h15.5a3.877,3.877,0,0,1,3.876,3.876V56.12l4.744,4.537-5.359,5.6-5.943-5.684a3.873,3.873,0,0,1-1.194-2.8V33.589H98.186v9.405A3.876,3.876,0,0,1,91.638,45.8L74.931,29.9,30.4,72.347h9.653a3.877,3.877,0,0,1,3.876,3.876V112.4a3.877,3.877,0,0,0,3.876,3.876H63.3ZM28.086,74.548l-.036.036A.239.239,0,0,0,28.086,74.548Z" transform="translate(7.317 -1.498)"/>
    </g>
  </g>
</svg>
