<svg xmlns="http://www.w3.org/2000/svg" xmlns:xlink="http://www.w3.org/1999/xlink" width="486" height="309" viewBox="0 0 486 309">
  <defs>
    <clipPath id="clip-path">
      <rect id="Rectangle_150" data-name="Rectangle 150" width="486" height="309" transform="translate(834 140)" fill="#fff" stroke="#707070" stroke-width="1"/>
    </clipPath>
  </defs>
  <g id="illustration-undraw-home" transform="translate(-834 -140)" clip-path="url(#clip-path)">
    <g id="undraw_location_review_d5qn" transform="translate(916.668 140)">
      <g id="Groupe_5" data-name="Groupe 5">
        <path id="Tracé_209" data-name="Tracé 209" d="M245.968,309l2.23-41.473s73.134-15.162,73.134-58.864S201.819,159.61,189.779,179.677q-.181.3-.359.6A52.368,52.368,0,0,0,208.252,252.4a101.527,101.527,0,0,0,31.027,11.555l-.849,44.057" fill="#ccc"/>
        <circle id="Ellipse_15" data-name="Ellipse 15" cx="41.287" cy="41.287" r="41.287" transform="translate(136.85)" fill="#e4794a"/>
        <path id="Tracé_210" data-name="Tracé 210" d="M117.227,299.169,70.662,296.2,68.151,86.814a19.1,19.1,0,0,1,5.56-13.653L123.6,23.275A18.9,18.9,0,0,1,149.164,22.1L203.3,67.139a18.909,18.909,0,0,1,6.843,14.82l-1.86,157.469,23.53,32.68.05.069,3.987,34.553-118.624-7.562Z" fill="#fff"/>
        <path id="Tracé_211" data-name="Tracé 211" d="M164.79,88.093V78.384a4.653,4.653,0,0,1,4.648-4.648H183.08a4.653,4.653,0,0,1,4.648,4.648v9.709a4.653,4.653,0,0,1-4.648,4.648H169.438A4.653,4.653,0,0,1,164.79,88.093Z" fill="#000091"/>
        <path id="Tracé_212" data-name="Tracé 212" d="M141.867,231.484a4.659,4.659,0,0,1-4.482-4.509l-1.021-34.722a4.648,4.648,0,0,1,5.844-4.628l1.021.273a4.654,4.654,0,0,1,3.45,4.491v34.45a4.648,4.648,0,0,1-4.643,4.648c-.056,0-.113,0-.169,0Z" fill="#161616"/>
        <path id="Tracé_213" data-name="Tracé 213" d="M99.494,226.693V190.665a4.622,4.622,0,0,1,4.535-4.647l18.355-.447a4.68,4.68,0,0,1,4.76,4.512l1.057,36.475a4.649,4.649,0,0,1-4.646,4.783H104.142a4.653,4.653,0,0,1-4.648-4.648Z" fill="#161616"/>
        <path id="Tracé_214" data-name="Tracé 214" d="M207.987,251.311l14.387,25.576,1.652,28.764,11.456.727L231.548,272.3l-23.593-32.768h0a12.07,12.07,0,0,0,.031,11.779Z" fill="#ccc"/>
        <rect id="Rectangle_151" data-name="Rectangle 151" width="46.698" height="0.655" transform="matrix(1, -0.014, 0.014, 1, 176.872, 298.058)" fill="#3f3d56"/>
        <rect id="Rectangle_152" data-name="Rectangle 152" width="44.274" height="0.655" transform="matrix(1, -0.008, 0.008, 1, 176.46, 291.981)" fill="#3f3d56"/>
        <rect id="Rectangle_153" data-name="Rectangle 153" width="42.357" height="0.655" transform="translate(176.087 286.551) rotate(-1.119)" fill="#3f3d56"/>
        <rect id="Rectangle_154" data-name="Rectangle 154" width="40.691" height="0.656" transform="translate(176.45 281.198) rotate(-1.901)" fill="#3f3d56"/>
        <rect id="Rectangle_155" data-name="Rectangle 155" width="39.098" height="0.656" transform="translate(176.078 275.987) rotate(-2.013)" fill="#3f3d56"/>
        <rect id="Rectangle_156" data-name="Rectangle 156" width="38.057" height="0.655" transform="translate(174.486 270.006)" fill="#3f3d56"/>
        <rect id="Rectangle_157" data-name="Rectangle 157" width="36.988" height="0.655" transform="matrix(1, -0.012, 0.012, 1, 173.588, 265.841)" fill="#3f3d56"/>
        <rect id="Rectangle_158" data-name="Rectangle 158" width="35.858" height="0.656" transform="translate(172.76 262.015) rotate(-1.901)" fill="#3f3d56"/>
        <rect id="Rectangle_159" data-name="Rectangle 159" width="35.395" height="0.655" transform="matrix(1, -0.018, 0.018, 1, 171.907, 256.883)" fill="#3f3d56"/>
        <rect id="Rectangle_160" data-name="Rectangle 160" width="33.902" height="0.656" transform="matrix(1, -0.031, 0.031, 1, 170.781, 252.781)" fill="#3f3d56"/>
        <rect id="Rectangle_161" data-name="Rectangle 161" width="33.588" height="0.655" transform="translate(169.779 248.051) rotate(-0.56)" fill="#3f3d56"/>
        <path id="Tracé_215" data-name="Tracé 215" d="M167.323,234.229V189.786a4.653,4.653,0,0,1,4.648-4.648h21.506a4.653,4.653,0,0,1,4.648,4.648v44.443a4.653,4.653,0,0,1-4.648,4.648H171.971A4.653,4.653,0,0,1,167.323,234.229Z" fill="#000091"/>
        <path id="Tracé_216" data-name="Tracé 216" d="M117.227,299.169l-38.07-2.425-.307-.02V267.261a6.765,6.765,0,0,1,6.757-6.758h37.6a6.765,6.765,0,0,1,6.757,6.758V299.17H117.227Z" fill="#ccc"/>
        <path id="Tracé_217" data-name="Tracé 217" d="M169.945,153.621V119.663a4.653,4.653,0,0,1,4.648-4.648h7.088a4.653,4.653,0,0,1,4.648,4.648v33.958a4.653,4.653,0,0,1-4.648,4.648h-7.088A4.653,4.653,0,0,1,169.945,153.621Z" fill="#161616"/>
        <path id="Tracé_218" data-name="Tracé 218" d="M177.154,302.446l-1.966-28.836-5.9-27.525-1.638-7.537h0a4.931,4.931,0,0,0-7.7,4.324l.161,3.213,5.9,27.525,1.966,28.836" fill="#ccc"/>
      </g>
      <g id="Groupe_6" data-name="Groupe 6">
        <path id="Tracé_219" data-name="Tracé 219" d="M124.81,72.343v69.468a11.153,11.153,0,0,1-11.141,11.141H44.2a11.153,11.153,0,0,1-11.141-11.141V72.343A11.153,11.153,0,0,1,44.2,61.2h69.468A11.153,11.153,0,0,1,124.81,72.343Zm-15.451,79.3A14.14,14.14,0,0,0,123.5,137.5V106.788A44.275,44.275,0,0,0,79.225,62.513H44.2a9.83,9.83,0,0,0-9.83,9.83v59.775a19.523,19.523,0,0,0,19.523,19.523H109.36Z" fill="#161616"/>
        <path id="Tracé_220" data-name="Tracé 220" d="M88.183,89.574H65.756a1.025,1.025,0,1,1,0-2.051H88.183a1.025,1.025,0,0,1,0,2.051Z" fill="#000091"/>
        <path id="Tracé_221" data-name="Tracé 221" d="M88.183,111.439H65.756a1.025,1.025,0,1,1,0-2.051H88.183a1.025,1.025,0,0,1,0,2.051Z" fill="#000091"/>
        <path id="Tracé_222" data-name="Tracé 222" d="M77.042,141.586H54.615a1.025,1.025,0,1,1,0-2.051H77.042a1.025,1.025,0,0,1,0,2.051h0Z" fill="#000091"/>
        <path id="Tracé_223" data-name="Tracé 223" d="M100.217,100.514h-46.5a1.025,1.025,0,1,1,0-2.051h46.5a1.025,1.025,0,0,1,0,2.051h0Z" fill="#000091"/>
      </g>
      <path id="Tracé_224" data-name="Tracé 224" d="M104.4,221.833a104.4,104.4,0,1,1,104.4-104.4,104.523,104.523,0,0,1-104.4,104.4Zm0-207.5C42.315,146.341.867,71.746,1.311,117.429,1.862,174.272,47.558,220.522,104.4,220.522a103.093,103.093,0,1,0,0-206.186Z" fill="#161616"/>
    </g>
  </g>
</svg>
