<svg xmlns="http://www.w3.org/2000/svg" xmlns:xlink="http://www.w3.org/1999/xlink" width="384" height="425" viewBox="0 0 384 425">
  <defs>
    <clipPath id="clip-path">
      <rect id="Rectangle_167" data-name="Rectangle 167" width="384" height="425" transform="translate(936 1437)" fill="#fff" stroke="#707070" stroke-width="1"/>
    </clipPath>
  </defs>
  <g id="illustration-undraw-target" transform="translate(-936 -1437)" clip-path="url(#clip-path)">
    <g id="undraw_target_re_fi8j" transform="translate(936 1456.072)">
      <path id="Tracé_225" data-name="Tracé 225" d="M35.669,255.772l7.093,3.424,16.583-25.731-10.47-5.053Z" fill="#ffb6b6"/>
      <path id="Tracé_226" data-name="Tracé 226" d="M194.551,335.819l21.813,10.529.133-.276a9.428,9.428,0,0,0-4.391-12.589h0l-2.525-4.946-8.893-.566-1.9-.919Z" transform="translate(-162.704 -72.768)" fill="#2f2e41"/>
      <path id="Tracé_227" data-name="Tracé 227" d="M88.47,265.364h7.876l3.747-30.381H88.468Z" fill="#ffb6b6"/>
      <path id="Tracé_228" data-name="Tracé 228" d="M250.9,346.348h24.221v-.306a9.428,9.428,0,0,0-9.427-9.427h0l-4.424-3.357-8.255,3.357H250.9Z" transform="translate(-162.704 -72.768)" fill="#2f2e41"/>
      <path id="Tracé_229" data-name="Tracé 229" d="M258.98,197.227l9.026,62.242.767,13.99-4.733,43.657,1.921,4.23-5.368,3.311H249.669l-.58-46.116L240.9,239.918l-1.267,43.776-1.753,3.383c-6.532,14.821-15.332,19.674-21.553,30.752L205.4,311.912l.229-4.413c-2.195-1.111,3.295-4.359,3.822-6.761l.955-4.3,6.373-13.2.243-4.649-1.744-31.617.821-42.577,14.329-10.957Z" transform="translate(-162.704 -72.768)" fill="#2f2e41"/>
      <circle id="Ellipse_21" data-name="Ellipse 21" cx="14.193" cy="14.193" r="14.193" transform="translate(68.357 7.834)" fill="#ffb6b6"/>
      <path id="Tracé_230" data-name="Tracé 230" d="M247.206,208.714a79.945,79.945,0,0,1-32.938-7.145l-.166-.085.051-.18c.5-1.759.978-4.71.117-5.141a.59.59,0,0,1-.367-.433c-.049-.354.3-.677.795-1.124.951-.869,2.254-2.059,1.49-3.968-1.347-3.367,2.441-20.623,2.686-21.729L217.256,141.4a22.881,22.881,0,0,1,16.92-23.384l.036-.01.037,0c.526.03,1.083-1.757,1.506-3.064.624-1.932,1.036-3.12,1.739-3.069,5.442.351,9.069.581,11.486.731,4.582.285,5.385,5.858,5.483,6.747a27.415,27.415,0,0,1,12.427,29.664l-2.284,9.82-2.018,4.718.665,9.309c3.13,2.6,2.233,7.928,2.055,8.827,2.983,3.086,1.151,6.717.707,7.486a7.272,7.272,0,0,1,1.312,6.78l2.747,8.928-.207.072A68.571,68.571,0,0,1,247.206,208.714Z" transform="translate(-162.704 -72.768)" fill="#3f3d56"/>
      <path id="Tracé_231" data-name="Tracé 231" d="M335.134,115.555a5.525,5.525,0,0,0-8.466-.327l-44.877.244-12.75,6.16-1.654,7.059,20.6-.861,39.326-4.492a5.555,5.555,0,0,0,7.819-7.784Z" transform="translate(-162.704 -72.768)" fill="#ffb6b6"/>
      <path id="Tracé_232" data-name="Tracé 232" d="M284.708,130.314l-17.469,8.264-16.2-6.779-.016-.131a12.068,12.068,0,0,1,6.124-12.082,33.043,33.043,0,0,1,10.885-3.768c10.713-1.594,12.885-2.206,12.906-2.212l.236-.068Z" transform="translate(-162.704 -72.768)" fill="#3f3d56"/>
      <path id="Tracé_233" data-name="Tracé 233" d="M233.219,103.715a1.6,1.6,0,0,1-.515-.083,3.378,3.378,0,0,1-1.558-1.384c-2.515-3.618-3.73-8.442-3.61-14.337.051-2.494.333-5.683,2.08-8.225,1.469-2.137,4.44-3.834,7.209-2.982a2.993,2.993,0,0,1,1.493-2.763,7.844,7.844,0,0,1,3.425-.865,30.612,30.612,0,0,1,8.567,0,10.453,10.453,0,0,1,7.163,4.515l.028.071.276,1.342a1.274,1.274,0,0,0,1.7.936,1.156,1.156,0,0,1,1.551,1.248l-.077.534.8-.15a1.156,1.156,0,0,1,1.3,1.537l-.227.614a1.216,1.216,0,0,1,.884.389,1.118,1.118,0,0,1,.152,1.317,10.475,10.475,0,0,1-3.7,3.723,8.745,8.745,0,0,1-2.7,1.063,51.937,51.937,0,0,1-18.842.567,10.623,10.623,0,0,1,.421,3.814,4.009,4.009,0,0,1-2.406,3.381,5.806,5.806,0,0,1-.879.212,5.153,5.153,0,0,0-.839.2,2.457,2.457,0,0,0-.719,4.2l.622-.648-.2.824a1.182,1.182,0,0,1-.6.751A1.657,1.657,0,0,1,233.219,103.715Z" transform="translate(-162.704 -72.768)" fill="#2f2e41"/>
      <ellipse id="Ellipse_22" data-name="Ellipse 22" cx="81.053" cy="79.816" rx="81.053" ry="79.816" transform="translate(84.502 44.289)" fill="#e6e6e6"/>
      <path id="Tracé_234" data-name="Tracé 234" d="M395.419,196.873a65.046,65.046,0,0,1-6.155,27.692c-.125.267-.254.534-.383.8a66.869,66.869,0,0,1-28.836,29.78c-.263.138-.526.276-.788.41a67.676,67.676,0,0,1-31,7.451,68.746,68.746,0,0,1-11.16-.909c-.294-.049-.588-.1-.877-.151a67.337,67.337,0,0,1-36.309-19.177c-.2-.209-.41-.423-.619-.637a65.532,65.532,0,0,1-17.5-35.735c-.04-.294-.085-.588-.12-.882a65.436,65.436,0,0,1,7.273-39.681c.138-.263.285-.526.428-.784a66.805,66.805,0,0,1,20.611-22.526c.245-.169.49-.334.735-.5A67.411,67.411,0,0,1,318.053,131.5c.294-.04.588-.085.882-.125a68.516,68.516,0,0,1,9.325-.632,67.756,67.756,0,0,1,28.453,6.213c.272.125.539.249.806.379a67.192,67.192,0,0,1,21.835,16.629c.2.223.392.45.579.677A65.368,65.368,0,0,1,394.3,184.8v0c.058.289.107.579.156.873A65.344,65.344,0,0,1,395.419,196.873Z" transform="translate(-162.704 -72.768)" fill="#fff"/>
      <path id="Tracé_235" data-name="Tracé 235" d="M334.891,191.846a8.221,8.221,0,0,1,1.737,3.975l32.358-6.1a40.3,40.3,0,0,0-8.84-18.651Z" transform="translate(-162.704 -72.768)" fill="#fff"/>
      <path id="Tracé_236" data-name="Tracé 236" d="M370,190.286c-.04-.294-.093-.583-.147-.873v0a41.209,41.209,0,0,0-9.023-19.056c-.191-.227-.387-.454-.583-.672a42.458,42.458,0,0,0-13.3-10.154h0c-.267-.129-.53-.258-.8-.383a42.855,42.855,0,0,0-23.764-3.5c-.294.036-.588.08-.882.129a42.325,42.325,0,0,0-16.447,6.315c-.249.16-.5.325-.744.494A42.12,42.12,0,0,0,291.118,177q-.214.387-.427.788a41.024,41.024,0,0,0-4.3,24.833q.053.448.134.882a41.21,41.21,0,0,0,10.907,21.831c.2.214.405.428.619.637a42.391,42.391,0,0,0,22.29,11.811c.294.058.588.107.882.156a42.9,42.9,0,0,0,26.414-4.053c.263-.134.521-.272.784-.414h0a42.152,42.152,0,0,0,17.836-18.353q.2-.4.387-.8A40.974,40.974,0,0,0,370,190.286Zm-4.168,23.657q-.187.408-.387.8A41.307,41.307,0,0,1,348,232.683c-.263.138-.525.276-.788.41a41.909,41.909,0,0,1-25.839,3.959c-.294-.045-.592-.094-.882-.151A41.49,41.49,0,0,1,298.7,225.362c-.214-.209-.419-.423-.624-.637A40.4,40.4,0,0,1,287.4,203.393c-.049-.289-.094-.583-.134-.877a40.179,40.179,0,0,1,4.2-24.3c.134-.263.276-.526.423-.788A41.253,41.253,0,0,1,304.83,163.3c.245-.169.49-.334.739-.49a41.465,41.465,0,0,1,16.055-6.164c.29-.049.583-.094.882-.129a41.918,41.918,0,0,1,23.256,3.434c.272.12.539.249.8.379a41.5,41.5,0,0,1,13,9.913c.2.223.392.45.579.677a40.3,40.3,0,0,1,8.84,18.651c.053.289.1.579.147.877a40.138,40.138,0,0,1-3.3,23.492Z" transform="translate(-162.704 -72.768)" fill="#ccc"/>
      <path id="Tracé_237" data-name="Tracé 237" d="M325.165,190.228l-.726.517L304.83,163.3l-.521-.726-14.327-20.05c.245-.169.49-.334.735-.5l14.336,20.054.517.73Z" transform="translate(-162.704 -72.768)" fill="#ccc"/>
      <path id="Tracé_238" data-name="Tracé 238" d="M321.66,193.777l-.432.784-29.754-16.344-.784-.432-21.747-11.949c.138-.263.285-.526.428-.784L291.118,177l.779.432Z" transform="translate(-162.704 -72.768)" fill="#ccc"/>
      <path id="Tracé_239" data-name="Tracé 239" d="M321.282,199.42,287.4,203.393l-.882.107-24.73,2.9c-.04-.294-.085-.588-.12-.882l24.717-2.9.882-.1,33.909-3.977Z" transform="translate(-162.704 -72.768)" fill="#ccc"/>
      <path id="Tracé_240" data-name="Tracé 240" d="M323.468,202.413,298.7,225.362l-.655.606-18.134,16.8c-.2-.209-.41-.423-.619-.637l18.135-16.8.65-.606,24.784-22.967Z" transform="translate(-162.704 -72.768)" fill="#ccc"/>
      <path id="Tracé_241" data-name="Tracé 241" d="M357.52,137.33l-10.568,22.2h0l-.383.806-14.447,30.346-.8-.383,14.447-30.342.383-.811,10.568-22.192C356.985,137.076,357.252,137.2,357.52,137.33Z" transform="translate(-162.704 -72.768)" fill="#ccc"/>
      <path id="Tracé_242" data-name="Tracé 242" d="M379.934,154.636l-19.1,15.716-.69.57-26.111,21.484-.566-.686,26.1-21.475.686-.566,19.105-15.721C379.551,154.182,379.747,154.409,379.934,154.636Z" transform="translate(-162.704 -72.768)" fill="#ccc"/>
      <path id="Tracé_243" data-name="Tracé 243" d="M394.457,185.677,370,190.286l-.873.165-33.464,6.311-.165-.873,33.481-6.315.873-.16v0l24.445-4.6C394.359,185.093,394.408,185.383,394.457,185.677Z" transform="translate(-162.704 -72.768)" fill="#ccc"/>
      <path id="Tracé_244" data-name="Tracé 244" d="M389.264,224.565c-.125.267-.254.534-.383.8l-22.624-10.252-.811-.37L334.891,200.9l.37-.811,30.573,13.855.811.37Z" transform="translate(-162.704 -72.768)" fill="#ccc"/>
      <path id="Tracé_245" data-name="Tracé 245" d="M360.045,255.147c-.263.138-.526.276-.788.41l-11.624-21.675-.423-.788-15.886-29.625.784-.419L348,232.683l.419.784h0Z" transform="translate(-162.704 -72.768)" fill="#ccc"/>
      <path id="Tracé_246" data-name="Tracé 246" d="M326.968,204.185l-5.6,32.867-.151.882L317.1,262.1c-.294-.049-.588-.1-.877-.151l4.115-24.169.151-.877,5.6-32.867Z" transform="translate(-162.704 -72.768)" fill="#ccc"/>
      <path id="Tracé_247" data-name="Tracé 247" d="M327.222,189.721l-.882.125-4.716-33.2-.125-.882L318.052,131.5c.294-.04.588-.085.882-.125l3.447,24.267.125.882Z" transform="translate(-162.704 -72.768)" fill="#ccc"/>
      <ellipse id="Ellipse_23" data-name="Ellipse 23" cx="8.462" cy="8.332" rx="8.462" ry="8.332" transform="translate(157.094 115.773)" fill="#e4794a"/>
      <path id="Tracé_248" data-name="Tracé 248" d="M339.62,357.04l-6.333,5.3-23.47-21.906,9.348-7.827Z" fill="#a0616a"/>
      <path id="Tracé_249" data-name="Tracé 249" d="M508.08,436.228,488.6,452.536l-.206-.246a9.888,9.888,0,0,1,1.233-13.928h0l1.3-5.678,8.9-2.859,1.7-1.424Z" transform="translate(-162.704 -72.768)" fill="#2f2e41"/>
      <path id="Tracé_250" data-name="Tracé 250" d="M283.032,377.263h-8.26l-3.93-31.863h12.192Z" fill="#a0616a"/>
      <path id="Tracé_251" data-name="Tracé 251" d="M446.028,458.648h-25.4v-.321a9.888,9.888,0,0,1,9.887-9.887h0l4.64-3.52,8.657,3.521h2.217Z" transform="translate(-162.704 -72.768)" fill="#2f2e41"/>
      <path id="Tracé_252" data-name="Tracé 252" d="M466.4,297.554c2,2.494,1,10.975,1,10.975l.489,52.817c8.481,6.984,14.976,35.982,14.976,35.982l8.1,14.9c-1,2.993-7.471,14.7-9.466,14.2-.926-.231-12.451-10.86-20.115-26.623-8.854-18.209-13.936-41.885-13.936-41.885s1,67.846,1,70.84-13.47,1.5-16.463,1.5-18.4-122.223-18.4-122.223v-6.984l2.494-3.492S464.4,295.059,466.4,297.554Z" transform="translate(-162.704 -72.768)" fill="#2f2e41"/>
      <path id="Tracé_253" data-name="Tracé 253" d="M359.158,184.783l-6.05,2.823,6.742-1.412s4.954.2,4.954-1.815l8.066-4.436s6.856,3.63,8.873,1.613-1.613-6.05-1.613-6.05,2.43-1.34,2.223-1.88-3.433.267-3.433.267-7.663-4.436-7.26,3.226l-8.066,5.348S359.561,182.363,359.158,184.783Z" transform="translate(-162.704 -72.768)" fill="#3f3d56"/>
      <path id="Tracé_254" data-name="Tracé 254" d="M469.17,314.825c-10.587,5.253-23.185,6.841-35.051,5.447-10.23-1.2-12.357-12.634-21.852-16.689,3-8.621,3.037-20.065,2.53-23.277-.868-5.484-1.029-43.707,2.149-47.687,4.167-5.222,10.529-8.012,10.24-14.687l.891.915c-1.126-2.963,1.055-6.355,3.926-7.7s6.188-1.17,9.352-.973l7.991.5a7.184,7.184,0,0,0,1.075,6.477c4.722-1.3,9.7,2.16,11.812,6.576s2.058,9.519,1.963,14.414c-.109,5.664,4.089,45.444-.99,47.962,2.62.66,6.322,14.63,4.087,13.117C468.327,299.95,468.078,306.714,469.17,314.825Z" transform="translate(-162.704 -72.768)" fill="#000091"/>
      <path id="Tracé_255" data-name="Tracé 255" d="M366.26,178.2a8.139,8.139,0,0,1,10.386,6.92l44.92,39.5L413.455,230,368.87,194.24a8.183,8.183,0,0,1-2.61-16.041Z" transform="translate(-162.704 -72.768)" fill="#a0616a"/>
      <path id="Tracé_256" data-name="Tracé 256" d="M414.634,211.874c-.983.056-24.2-16.883-24.792-16.1l-1.56,8.461h0l-4.291,5.675h0l9.276,9.833,2.65,2.174,1.7,1.8c-.6.8,3.36,5.069,3.575,6.044a3.409,3.409,0,0,0,1.7,2.267l15.095,8.19a9.467,9.467,0,0,0,11.329-15.172l-2.226-2.252-3.41-3.456L417.3,212.88A3.392,3.392,0,0,0,414.634,211.874Z" transform="translate(-162.704 -72.768)" fill="#000091"/>
      <circle id="Ellipse_24" data-name="Ellipse 24" cx="16.375" cy="16.375" r="16.375" transform="translate(260.598 100.188)" fill="#a0616a"/>
      <path id="Tracé_257" data-name="Tracé 257" d="M459.211,184.145c-.911-3.613-4.307-6.766-8.015-6.4.458-2.784-1.395-5.587-3.893-6.9a13.214,13.214,0,0,0-8.265-.911,49.174,49.174,0,0,0-4.8,1.121c-1.34.361-7.622-1.79-8.953-1.4-1.138.336-3.877,4.413-4.741,5.227a2.774,2.774,0,0,0-.745,3.219,3.661,3.661,0,0,0,3.041,1.453,6.9,6.9,0,0,1,3.392.737c1.246.846,1.6,2.533,1.548,4.038a20.492,20.492,0,0,0-.115,4.5c.281,1.479,1.478,2.957,2.98,2.855a3.45,3.45,0,0,1,4.47-.106,5.684,5.684,0,0,1,1.942,4.331,17.612,17.612,0,0,1-.755,4.827c-.27,1.081-.474,2.392.327,3.167a3.244,3.244,0,0,0,1.639.684c2.364.5,11.236-.179,13.6.323l-.183-.361c1.713-3.309,3.985-6.306,5.669-9.631S460.121,187.758,459.211,184.145Z" transform="translate(-162.704 -72.768)" fill="#2f2e41"/>
      <path id="Tracé_258" data-name="Tracé 258" d="M484.346,319.383a8.139,8.139,0,0,1-5.564-11.171L459.477,251.6l9.717-.637,20.872,53.209a8.183,8.183,0,0,1-5.72,15.212Z" transform="translate(-162.704 -72.768)" fill="#a0616a"/>
      <path id="Tracé_259" data-name="Tracé 259" d="M455.006,259c.881.44,12.586,26.687,13.492,26.3l5.564-6.562h0l6.546-2.786h0l-3.152-13.146-1.217-3.2-.581-2.411c.914-.395-.392-6.069-.092-7.022a3.41,3.41,0,0,0-.342-2.81l-9.016-14.616a9.467,9.467,0,1,0-17.377,7.521l.811,3.061,1.238,4.7L453.2,256.8A3.392,3.392,0,0,0,455.006,259Z" transform="translate(-162.704 -72.768)" fill="#000091"/>
      <path id="Tracé_260" data-name="Tracé 260" d="M529.7,449.279l-4.562-7.33-.911,4.189c-.16.734-.319,1.479-.467,2.219-1.3-1.106-2.674-2.13-4.023-3.112q-6.212-4.508-12.418-9.028l1.3,7.514c.8,4.627,1.633,9.348,3.609,13.578.219.479.456.953.71,1.414H532.19a6.205,6.205,0,0,0,.319-1.325.46.46,0,0,0,.006-.089C532.817,454.438,531.231,451.734,529.7,449.279Z" transform="translate(-162.704 -72.768)" fill="#f0f0f0"/>
      <path id="Tracé_261" data-name="Tracé 261" d="M546,459.442l-163.142.182a.7.7,0,1,1,0-1.409L546,458.033a.7.7,0,1,1,0,1.409Z" transform="translate(-162.704 -72.768)" fill="#cacaca"/>
      <path id="Tracé_262" data-name="Tracé 262" d="M310.257,336.59l-4.561-7.33-.911,4.189c-.16.734-.319,1.479-.467,2.219-1.3-1.106-2.674-2.13-4.023-3.112q-6.212-4.508-12.418-9.028l1.3,7.514c.8,4.627,1.633,9.348,3.609,13.578.219.479.456.953.71,1.414h19.252a6.2,6.2,0,0,0,.319-1.325.46.46,0,0,0,.006-.089C313.369,341.749,311.783,339.045,310.257,336.59Z" transform="translate(-162.704 -72.768)" fill="#f0f0f0"/>
      <path id="Tracé_263" data-name="Tracé 263" d="M326.551,346.753l-163.142.182a.7.7,0,1,1,0-1.409l163.142-.182a.7.7,0,0,1,0,1.409Z" transform="translate(-162.704 -72.768)" fill="#cacaca"/>
      <path id="Tracé_264" data-name="Tracé 264" d="M251.1,210.738a5.525,5.525,0,0,1-3.166-7.859l-14.92-42.325,1.494-14.081,6.087-3.94,6.144,19.684,9.048,38.533a5.555,5.555,0,0,1-4.687,9.988Z" transform="translate(-162.704 -72.768)" fill="#ffb6b6"/>
      <path id="Tracé_265" data-name="Tracé 265" d="M62.267,58.894l14.111-5.462,8.193,27.31L65.66,86.735Z" fill="#3f3d56"/>
    </g>
  </g>
</svg>
