<svg xmlns="http://www.w3.org/2000/svg" xmlns:xlink="http://www.w3.org/1999/xlink" width="36" height="36" viewBox="0 0 36 36">
  <defs>
    <clipPath id="clip-path">
      <rect id="Rectangle_50" data-name="Rectangle 50" width="36" height="36" transform="translate(0.413)" fill="none"/>
    </clipPath>
  </defs>
  <g id="la-sun" transform="translate(-0.413)" clip-path="url(#clip-path)">
    <path id="sun" d="M20.769,4.154v6.923h2.769V4.154ZM10.385,8.438,8.438,10.385l4.889,4.933,1.99-1.99Zm23.538,0L28.99,13.327l1.99,1.99,4.889-4.933ZM22.154,12.462a9.692,9.692,0,1,0,9.692,9.692A9.711,9.711,0,0,0,22.154,12.462Zm0,2.769a6.923,6.923,0,1,1-6.923,6.923A6.9,6.9,0,0,1,22.154,15.231Zm-18,5.538v2.769h6.923V20.769Zm29.077,0v2.769h6.923V20.769Zm-19.9,8.221L8.438,33.923l1.947,1.947,4.933-4.889Zm17.654,0-1.99,1.99,4.933,4.889,1.947-1.947Zm-10.212,4.24v6.923h2.769V33.231Z" transform="translate(-4.154 -4.154)" fill="#ff9940"/>
  </g>
</svg>
