<svg xmlns="http://www.w3.org/2000/svg" xmlns:xlink="http://www.w3.org/1999/xlink" width="36" height="36" viewBox="0 0 36 36">
  <defs>
    <clipPath id="clip-path">
      <rect id="Rectangle_50" data-name="Rectangle 50" width="36" height="36" transform="translate(0.413)" fill="none"/>
    </clipPath>
  </defs>
  <g id="la-tint" transform="translate(-0.413)" clip-path="url(#clip-path)">
    <path id="tint-solid" d="M23.45,5.038,22.305,6.412S19.374,9.945,16.4,14.336a61.085,61.085,0,0,0-4.168,6.916,15.587,15.587,0,0,0-1.969,6.6,13.191,13.191,0,1,0,26.382,0,15.588,15.588,0,0,0-1.969-6.6A61.1,61.1,0,0,0,30.5,14.336C27.527,9.945,24.6,6.412,24.6,6.412Zm0,4.718a77.124,77.124,0,0,1,4.672,6.229,57.854,57.854,0,0,1,3.893,6.6,14.144,14.144,0,0,1,1.695,5.267,10.26,10.26,0,1,1-20.519,0,14.142,14.142,0,0,1,1.695-5.267,57.831,57.831,0,0,1,3.893-6.6A77.123,77.123,0,0,1,23.45,9.756ZM16.122,27.847a7.357,7.357,0,0,0,7.328,7.328V32.244a4.4,4.4,0,0,1-4.4-4.4Z" transform="translate(-5.45 -5.038)" fill="#ff9940"/>
  </g>
</svg>
