<svg xmlns="http://www.w3.org/2000/svg" xmlns:xlink="http://www.w3.org/1999/xlink" width="36" height="36" viewBox="0 0 36 36">
  <defs>
    <clipPath id="clip-path">
      <rect id="Rectangle_50" data-name="Rectangle 50" width="36" height="36" transform="translate(0.413)" fill="none"/>
    </clipPath>
  </defs>
  <g id="la-users" transform="translate(-0.413)" clip-path="url(#clip-path)">
    <path id="users-solid" d="M14.786,7.714a4.5,4.5,0,1,0,4.5,4.5A4.518,4.518,0,0,0,14.786,7.714Zm11.571,0a4.5,4.5,0,1,0,4.5,4.5A4.518,4.518,0,0,0,26.357,7.714ZM14.786,10.286a1.929,1.929,0,1,1-1.929,1.929A1.91,1.91,0,0,1,14.786,10.286Zm11.571,0a1.929,1.929,0,1,1-1.929,1.929A1.91,1.91,0,0,1,26.357,10.286ZM9,15.429a5.115,5.115,0,0,0-3.576,8.8,6.475,6.475,0,0,0-2.853,5.344H5.143a3.857,3.857,0,1,1,7.714,0h2.571a6.475,6.475,0,0,0-2.853-5.344A5.115,5.115,0,0,0,9,15.429Zm6.429,14.143a6.459,6.459,0,0,0-1.286,3.857h2.571a3.857,3.857,0,0,1,7.714,0H27a6.436,6.436,0,0,0-2.853-5.344,5.143,5.143,0,1,0-7.152,0A6.481,6.481,0,0,0,15.429,29.571Zm10.286,0h2.571a3.857,3.857,0,1,1,7.714,0h2.571a6.475,6.475,0,0,0-2.853-5.344,5.143,5.143,0,1,0-7.152,0A6.474,6.474,0,0,0,25.714,29.571ZM9,18a2.571,2.571,0,1,1-2.571,2.571A2.551,2.551,0,0,1,9,18Zm23.143,0a2.571,2.571,0,1,1-2.571,2.571A2.551,2.551,0,0,1,32.143,18ZM20.571,21.857A2.571,2.571,0,1,1,18,24.429,2.551,2.551,0,0,1,20.571,21.857Z" transform="translate(-2.571 -2.571)" fill="#ff9940"/>
  </g>
</svg>
