<svg xmlns="http://www.w3.org/2000/svg" xmlns:xlink="http://www.w3.org/1999/xlink" width="133" zoomAndPan="magnify" viewBox="0 0 99.75 31.5" height="42" preserveAspectRatio="xMidYMid meet" version="1.0"><defs><g/><clipPath id="9b1e843af4"><path d="M 60.992188 2.707031 L 97.121094 2.707031 L 97.121094 27.808594 L 60.992188 27.808594 Z M 60.992188 2.707031 " clip-rule="nonzero"/></clipPath></defs><g clip-path="url(#9b1e843af4)"><path fill="#ff6218" d="M 19.230469 26.230469 C 18.84375 26.230469 18.53125 26.542969 18.53125 26.933594 C 18.53125 27.320312 18.84375 27.632812 19.230469 27.632812 L 91.289062 27.632812 C 91.984375 27.632812 92.617188 27.351562 93.070312 26.894531 C 93.527344 26.4375 93.8125 25.804688 93.8125 25.113281 L 93.8125 16.246094 L 95.0625 16.246094 C 95.550781 16.246094 95.953125 16.121094 96.265625 15.90625 C 96.613281 15.671875 96.84375 15.339844 96.960938 14.960938 L 96.960938 14.964844 C 97.066406 14.613281 97.070312 14.226562 96.976562 13.851562 C 96.859375 13.40625 96.601562 12.96875 96.210938 12.632812 L 85.46875 3.371094 C 84.953125 2.929688 84.285156 2.707031 83.625 2.707031 C 82.96875 2.707031 82.300781 2.929688 81.785156 3.371094 L 74.566406 9.617188 C 74.273438 9.867188 74.242188 10.308594 74.496094 10.601562 C 74.746094 10.894531 75.1875 10.925781 75.480469 10.675781 L 82.703125 4.429688 C 82.949219 4.214844 83.285156 4.109375 83.625 4.109375 C 83.96875 4.109375 84.304688 4.214844 84.550781 4.429688 L 95.296875 13.691406 C 95.464844 13.835938 95.574219 14.015625 95.621094 14.199219 C 95.652344 14.324219 95.65625 14.449219 95.621094 14.550781 L 95.625 14.550781 L 95.621094 14.554688 C 95.601562 14.628906 95.554688 14.695312 95.484375 14.746094 C 95.390625 14.804688 95.253906 14.84375 95.0625 14.84375 L 93.109375 14.84375 C 92.722656 14.84375 92.410156 15.15625 92.410156 15.546875 L 92.410156 25.113281 C 92.410156 25.417969 92.28125 25.699219 92.078125 25.902344 C 91.878906 26.105469 91.597656 26.230469 91.289062 26.230469 Z M 19.230469 26.230469 " fill-opacity="1" fill-rule="nonzero"/></g><g fill="#ff6218" fill-opacity="1"><g transform="translate(2.375163, 21.334458)"><g><path d="M 0.3125 -1.171875 L 1.859375 -2.59375 C 2.078125 -2.300781 2.335938 -2.066406 2.640625 -1.890625 C 2.953125 -1.710938 3.265625 -1.625 3.578125 -1.625 C 3.816406 -1.625 4.003906 -1.679688 4.140625 -1.796875 C 4.285156 -1.910156 4.359375 -2.085938 4.359375 -2.328125 C 4.359375 -2.546875 4.269531 -2.722656 4.09375 -2.859375 C 3.914062 -2.992188 3.6875 -3.113281 3.40625 -3.21875 C 3.125 -3.332031 2.828125 -3.457031 2.515625 -3.59375 C 2.203125 -3.726562 1.90625 -3.894531 1.625 -4.09375 C 1.34375 -4.289062 1.113281 -4.546875 0.9375 -4.859375 C 0.757812 -5.179688 0.671875 -5.582031 0.671875 -6.0625 C 0.671875 -6.53125 0.789062 -6.957031 1.03125 -7.34375 C 1.28125 -7.738281 1.617188 -8.050781 2.046875 -8.28125 C 2.484375 -8.507812 2.984375 -8.625 3.546875 -8.625 C 4.210938 -8.625 4.800781 -8.492188 5.3125 -8.234375 C 5.832031 -7.972656 6.289062 -7.625 6.6875 -7.1875 L 5.140625 -5.78125 C 4.890625 -6.0625 4.632812 -6.296875 4.375 -6.484375 C 4.113281 -6.671875 3.84375 -6.765625 3.5625 -6.765625 C 3.34375 -6.765625 3.164062 -6.707031 3.03125 -6.59375 C 2.894531 -6.476562 2.828125 -6.332031 2.828125 -6.15625 C 2.828125 -5.945312 2.914062 -5.773438 3.09375 -5.640625 C 3.269531 -5.515625 3.5 -5.394531 3.78125 -5.28125 C 4.0625 -5.175781 4.359375 -5.050781 4.671875 -4.90625 C 4.984375 -4.769531 5.28125 -4.597656 5.5625 -4.390625 C 5.84375 -4.191406 6.070312 -3.929688 6.25 -3.609375 C 6.425781 -3.285156 6.515625 -2.878906 6.515625 -2.390625 C 6.503906 -1.835938 6.363281 -1.363281 6.09375 -0.96875 C 5.832031 -0.582031 5.484375 -0.285156 5.046875 -0.078125 C 4.609375 0.128906 4.125 0.234375 3.59375 0.234375 C 2.820312 0.234375 2.175781 0.109375 1.65625 -0.140625 C 1.144531 -0.390625 0.695312 -0.734375 0.3125 -1.171875 Z M 0.3125 -1.171875 "/></g></g></g><g fill="#ff6218" fill-opacity="1"><g transform="translate(8.853202, 21.334458)"><g><path d="M 1.75 -6.703125 C 1.53125 -6.703125 1.328125 -6.753906 1.140625 -6.859375 C 0.960938 -6.972656 0.816406 -7.125 0.703125 -7.3125 C 0.597656 -7.5 0.546875 -7.695312 0.546875 -7.90625 C 0.546875 -8.238281 0.664062 -8.519531 0.90625 -8.75 C 1.144531 -8.988281 1.425781 -9.109375 1.75 -9.109375 C 1.96875 -9.109375 2.164062 -9.050781 2.34375 -8.9375 C 2.519531 -8.832031 2.660156 -8.6875 2.765625 -8.5 C 2.878906 -8.320312 2.9375 -8.125 2.9375 -7.90625 C 2.9375 -7.695312 2.878906 -7.5 2.765625 -7.3125 C 2.660156 -7.125 2.519531 -6.972656 2.34375 -6.859375 C 2.164062 -6.753906 1.96875 -6.703125 1.75 -6.703125 Z M 0.78125 0 L 0.78125 -6.046875 L 2.6875 -6.046875 L 2.6875 0 Z M 0.78125 0 "/></g></g></g><g fill="#ff6218" fill-opacity="1"><g transform="translate(11.750782, 21.334458)"><g><path d="M 0.265625 1.03125 C 0.265625 0.738281 0.332031 0.472656 0.46875 0.234375 C 0.613281 -0.00390625 0.804688 -0.21875 1.046875 -0.40625 C 0.828125 -0.675781 0.71875 -0.96875 0.71875 -1.28125 C 0.71875 -1.53125 0.765625 -1.75 0.859375 -1.9375 C 0.953125 -2.132812 1.113281 -2.320312 1.34375 -2.5 C 1.082031 -2.695312 0.882812 -2.9375 0.75 -3.21875 C 0.613281 -3.507812 0.546875 -3.820312 0.546875 -4.15625 C 0.546875 -4.550781 0.640625 -4.910156 0.828125 -5.234375 C 1.023438 -5.554688 1.304688 -5.8125 1.671875 -6 C 2.046875 -6.1875 2.492188 -6.28125 3.015625 -6.28125 C 3.503906 -6.28125 3.929688 -6.203125 4.296875 -6.046875 L 6.453125 -6.046875 L 6.453125 -4.453125 L 5.515625 -4.453125 C 5.523438 -4.398438 5.53125 -4.347656 5.53125 -4.296875 C 5.53125 -4.253906 5.53125 -4.207031 5.53125 -4.15625 C 5.53125 -3.757812 5.429688 -3.398438 5.234375 -3.078125 C 5.046875 -2.753906 4.765625 -2.5 4.390625 -2.3125 C 4.015625 -2.125 3.554688 -2.03125 3.015625 -2.03125 C 2.960938 -2.03125 2.90625 -2.03125 2.84375 -2.03125 C 2.789062 -2.03125 2.738281 -2.03125 2.6875 -2.03125 C 2.613281 -1.957031 2.578125 -1.878906 2.578125 -1.796875 C 2.578125 -1.691406 2.601562 -1.617188 2.65625 -1.578125 C 2.71875 -1.535156 2.800781 -1.515625 2.90625 -1.515625 L 4.28125 -1.515625 C 4.769531 -1.515625 5.1875 -1.425781 5.53125 -1.25 C 5.882812 -1.070312 6.15625 -0.832031 6.34375 -0.53125 C 6.53125 -0.226562 6.625 0.113281 6.625 0.5 C 6.625 0.96875 6.488281 1.390625 6.21875 1.765625 C 5.957031 2.140625 5.585938 2.4375 5.109375 2.65625 C 4.628906 2.882812 4.066406 3 3.421875 3 C 2.398438 3 1.617188 2.832031 1.078125 2.5 C 0.535156 2.175781 0.265625 1.6875 0.265625 1.03125 Z M 3.03125 -3.421875 C 3.257812 -3.421875 3.445312 -3.476562 3.59375 -3.59375 C 3.75 -3.71875 3.828125 -3.90625 3.828125 -4.15625 C 3.828125 -4.40625 3.75 -4.585938 3.59375 -4.703125 C 3.445312 -4.828125 3.257812 -4.890625 3.03125 -4.890625 C 2.800781 -4.890625 2.609375 -4.828125 2.453125 -4.703125 C 2.304688 -4.578125 2.234375 -4.394531 2.234375 -4.15625 C 2.234375 -3.90625 2.304688 -3.71875 2.453125 -3.59375 C 2.609375 -3.476562 2.800781 -3.421875 3.03125 -3.421875 Z M 2.03125 0.75 C 2.03125 0.976562 2.132812 1.160156 2.34375 1.296875 C 2.5625 1.429688 2.910156 1.5 3.390625 1.5 C 3.878906 1.5 4.226562 1.421875 4.4375 1.265625 C 4.644531 1.117188 4.75 0.929688 4.75 0.703125 C 4.75 0.523438 4.6875 0.378906 4.5625 0.265625 C 4.445312 0.160156 4.269531 0.109375 4.03125 0.109375 L 2.28125 0.109375 C 2.21875 0.191406 2.160156 0.28125 2.109375 0.375 C 2.054688 0.476562 2.03125 0.601562 2.03125 0.75 Z M 2.03125 0.75 "/></g></g></g><g fill="#ff6218" fill-opacity="1"><g transform="translate(17.893524, 21.334458)"><g><path d="M 0.78125 0 L 0.78125 -6.046875 L 2.6875 -6.046875 L 2.6875 -5.703125 C 2.882812 -5.867188 3.113281 -6.003906 3.375 -6.109375 C 3.632812 -6.222656 3.941406 -6.28125 4.296875 -6.28125 C 4.722656 -6.28125 5.109375 -6.179688 5.453125 -5.984375 C 5.804688 -5.785156 6.085938 -5.484375 6.296875 -5.078125 C 6.515625 -4.671875 6.625 -4.160156 6.625 -3.546875 L 6.625 0 L 4.703125 0 L 4.703125 -3.46875 C 4.703125 -3.769531 4.625 -4.015625 4.46875 -4.203125 C 4.3125 -4.398438 4.082031 -4.5 3.78125 -4.5 C 3.550781 -4.5 3.363281 -4.453125 3.21875 -4.359375 C 3.070312 -4.265625 2.957031 -4.160156 2.875 -4.046875 C 2.789062 -3.929688 2.726562 -3.835938 2.6875 -3.765625 L 2.6875 0 Z M 0.78125 0 "/></g></g></g><g fill="#ff6218" fill-opacity="1"><g transform="translate(24.670929, 21.334458)"><g><path d="M 2.53125 0.1875 C 1.925781 0.1875 1.425781 0.0195312 1.03125 -0.3125 C 0.644531 -0.65625 0.453125 -1.117188 0.453125 -1.703125 C 0.453125 -2.160156 0.625 -2.554688 0.96875 -2.890625 C 1.320312 -3.222656 1.828125 -3.441406 2.484375 -3.546875 L 4.1875 -3.828125 C 4.175781 -4.066406 4.078125 -4.257812 3.890625 -4.40625 C 3.710938 -4.5625 3.488281 -4.640625 3.21875 -4.640625 C 2.96875 -4.640625 2.742188 -4.582031 2.546875 -4.46875 C 2.359375 -4.351562 2.195312 -4.195312 2.0625 -4 L 0.671875 -5.0625 C 0.953125 -5.4375 1.316406 -5.734375 1.765625 -5.953125 C 2.210938 -6.171875 2.710938 -6.28125 3.265625 -6.28125 C 3.910156 -6.28125 4.441406 -6.164062 4.859375 -5.9375 C 5.273438 -5.707031 5.582031 -5.40625 5.78125 -5.03125 C 5.976562 -4.65625 6.078125 -4.25 6.078125 -3.8125 L 6.078125 0 L 4.1875 0 L 4.1875 -0.453125 C 4.019531 -0.273438 3.78125 -0.125 3.46875 0 C 3.164062 0.125 2.851562 0.1875 2.53125 0.1875 Z M 2.34375 -1.796875 C 2.34375 -1.640625 2.394531 -1.515625 2.5 -1.421875 C 2.613281 -1.335938 2.765625 -1.296875 2.953125 -1.296875 C 3.253906 -1.296875 3.503906 -1.359375 3.703125 -1.484375 C 3.898438 -1.609375 4.0625 -1.757812 4.1875 -1.9375 L 4.1875 -2.546875 L 3 -2.34375 C 2.75 -2.300781 2.578125 -2.234375 2.484375 -2.140625 C 2.390625 -2.046875 2.34375 -1.929688 2.34375 -1.796875 Z M 2.34375 -1.796875 "/></g></g></g><g fill="#ff6218" fill-opacity="1"><g transform="translate(30.897494, 21.334458)"><g><path d="M 0.78125 0 L 0.78125 -8.984375 L 2.6875 -8.984375 L 2.6875 0 Z M 0.78125 0 "/></g></g></g><g fill="#ff6218" fill-opacity="1"><g transform="translate(33.795073, 21.334458)"><g/></g></g><g fill="#000091" fill-opacity="1"><g transform="translate(36.473204, 21.334458)"><g><path d="M 1.15625 0 L 1.15625 -8.390625 L 3.296875 -8.390625 L 3.296875 -1.921875 L 6.34375 -1.921875 L 6.34375 0 Z M 1.15625 0 "/></g></g></g><g fill="#000091" fill-opacity="1"><g transform="translate(42.592001, 21.334458)"><g><path d="M 3.765625 -6.28125 C 4.421875 -6.28125 5 -6.132812 5.5 -5.84375 C 6 -5.5625 6.390625 -5.171875 6.671875 -4.671875 C 6.953125 -4.179688 7.09375 -3.628906 7.09375 -3.015625 C 7.09375 -2.398438 6.953125 -1.847656 6.671875 -1.359375 C 6.390625 -0.867188 6 -0.476562 5.5 -0.1875 C 5 0.09375 4.421875 0.234375 3.765625 0.234375 C 3.097656 0.234375 2.515625 0.09375 2.015625 -0.1875 C 1.515625 -0.476562 1.125 -0.867188 0.84375 -1.359375 C 0.5625 -1.847656 0.421875 -2.398438 0.421875 -3.015625 C 0.421875 -3.628906 0.5625 -4.179688 0.84375 -4.671875 C 1.125 -5.171875 1.515625 -5.5625 2.015625 -5.84375 C 2.515625 -6.132812 3.097656 -6.28125 3.765625 -6.28125 Z M 3.78125 -1.546875 C 4.15625 -1.546875 4.472656 -1.679688 4.734375 -1.953125 C 4.992188 -2.222656 5.125 -2.578125 5.125 -3.015625 C 5.125 -3.472656 4.992188 -3.832031 4.734375 -4.09375 C 4.472656 -4.363281 4.15625 -4.5 3.78125 -4.5 C 3.382812 -4.5 3.050781 -4.363281 2.78125 -4.09375 C 2.519531 -3.820312 2.390625 -3.460938 2.390625 -3.015625 C 2.390625 -2.566406 2.519531 -2.207031 2.78125 -1.9375 C 3.050781 -1.675781 3.382812 -1.546875 3.78125 -1.546875 Z M 3.78125 -1.546875 "/></g></g></g><g fill="#000091" fill-opacity="1"><g transform="translate(49.537059, 21.334458)"><g><path d="M 0.265625 1.03125 C 0.265625 0.738281 0.332031 0.472656 0.46875 0.234375 C 0.613281 -0.00390625 0.804688 -0.21875 1.046875 -0.40625 C 0.828125 -0.675781 0.71875 -0.96875 0.71875 -1.28125 C 0.71875 -1.53125 0.765625 -1.75 0.859375 -1.9375 C 0.953125 -2.132812 1.113281 -2.320312 1.34375 -2.5 C 1.082031 -2.695312 0.882812 -2.9375 0.75 -3.21875 C 0.613281 -3.507812 0.546875 -3.820312 0.546875 -4.15625 C 0.546875 -4.550781 0.640625 -4.910156 0.828125 -5.234375 C 1.023438 -5.554688 1.304688 -5.8125 1.671875 -6 C 2.046875 -6.1875 2.492188 -6.28125 3.015625 -6.28125 C 3.503906 -6.28125 3.929688 -6.203125 4.296875 -6.046875 L 6.453125 -6.046875 L 6.453125 -4.453125 L 5.515625 -4.453125 C 5.523438 -4.398438 5.53125 -4.347656 5.53125 -4.296875 C 5.53125 -4.253906 5.53125 -4.207031 5.53125 -4.15625 C 5.53125 -3.757812 5.429688 -3.398438 5.234375 -3.078125 C 5.046875 -2.753906 4.765625 -2.5 4.390625 -2.3125 C 4.015625 -2.125 3.554688 -2.03125 3.015625 -2.03125 C 2.960938 -2.03125 2.90625 -2.03125 2.84375 -2.03125 C 2.789062 -2.03125 2.738281 -2.03125 2.6875 -2.03125 C 2.613281 -1.957031 2.578125 -1.878906 2.578125 -1.796875 C 2.578125 -1.691406 2.601562 -1.617188 2.65625 -1.578125 C 2.71875 -1.535156 2.800781 -1.515625 2.90625 -1.515625 L 4.28125 -1.515625 C 4.769531 -1.515625 5.1875 -1.425781 5.53125 -1.25 C 5.882812 -1.070312 6.15625 -0.832031 6.34375 -0.53125 C 6.53125 -0.226562 6.625 0.113281 6.625 0.5 C 6.625 0.96875 6.488281 1.390625 6.21875 1.765625 C 5.957031 2.140625 5.585938 2.4375 5.109375 2.65625 C 4.628906 2.882812 4.066406 3 3.421875 3 C 2.398438 3 1.617188 2.832031 1.078125 2.5 C 0.535156 2.175781 0.265625 1.6875 0.265625 1.03125 Z M 3.03125 -3.421875 C 3.257812 -3.421875 3.445312 -3.476562 3.59375 -3.59375 C 3.75 -3.71875 3.828125 -3.90625 3.828125 -4.15625 C 3.828125 -4.40625 3.75 -4.585938 3.59375 -4.703125 C 3.445312 -4.828125 3.257812 -4.890625 3.03125 -4.890625 C 2.800781 -4.890625 2.609375 -4.828125 2.453125 -4.703125 C 2.304688 -4.578125 2.234375 -4.394531 2.234375 -4.15625 C 2.234375 -3.90625 2.304688 -3.71875 2.453125 -3.59375 C 2.609375 -3.476562 2.800781 -3.421875 3.03125 -3.421875 Z M 2.03125 0.75 C 2.03125 0.976562 2.132812 1.160156 2.34375 1.296875 C 2.5625 1.429688 2.910156 1.5 3.390625 1.5 C 3.878906 1.5 4.226562 1.421875 4.4375 1.265625 C 4.644531 1.117188 4.75 0.929688 4.75 0.703125 C 4.75 0.523438 4.6875 0.378906 4.5625 0.265625 C 4.445312 0.160156 4.269531 0.109375 4.03125 0.109375 L 2.28125 0.109375 C 2.21875 0.191406 2.160156 0.28125 2.109375 0.375 C 2.054688 0.476562 2.03125 0.601562 2.03125 0.75 Z M 2.03125 0.75 "/></g></g></g><g fill="#000091" fill-opacity="1"><g transform="translate(55.679802, 21.334458)"><g><path d="M 6.5 -0.96875 C 6.207031 -0.59375 5.832031 -0.296875 5.375 -0.078125 C 4.914062 0.128906 4.394531 0.234375 3.8125 0.234375 C 3.070312 0.234375 2.445312 0.0859375 1.9375 -0.203125 C 1.4375 -0.503906 1.054688 -0.898438 0.796875 -1.390625 C 0.546875 -1.890625 0.421875 -2.429688 0.421875 -3.015625 C 0.421875 -3.597656 0.539062 -4.132812 0.78125 -4.625 C 1.019531 -5.125 1.375 -5.523438 1.84375 -5.828125 C 2.3125 -6.128906 2.882812 -6.28125 3.5625 -6.28125 C 4.132812 -6.28125 4.628906 -6.160156 5.046875 -5.921875 C 5.472656 -5.691406 5.804688 -5.367188 6.046875 -4.953125 C 6.285156 -4.535156 6.40625 -4.050781 6.40625 -3.5 C 6.40625 -3.300781 6.390625 -3.109375 6.359375 -2.921875 C 6.335938 -2.742188 6.3125 -2.601562 6.28125 -2.5 L 2.375 -2.5 C 2.457031 -2.082031 2.625 -1.804688 2.875 -1.671875 C 3.132812 -1.535156 3.441406 -1.46875 3.796875 -1.46875 C 4.085938 -1.46875 4.351562 -1.519531 4.59375 -1.625 C 4.832031 -1.726562 5.019531 -1.863281 5.15625 -2.03125 Z M 3.515625 -4.75 C 2.898438 -4.75 2.523438 -4.441406 2.390625 -3.828125 L 4.546875 -3.828125 C 4.546875 -4.035156 4.457031 -4.238281 4.28125 -4.4375 C 4.113281 -4.644531 3.859375 -4.75 3.515625 -4.75 Z M 3.515625 -4.75 "/></g></g></g><g fill="#000091" fill-opacity="1"><g transform="translate(62.026116, 21.334458)"><g><path d="M 0.78125 0 L 0.78125 -6.046875 L 2.6875 -6.046875 L 2.6875 -5.734375 C 2.863281 -5.890625 3.070312 -6.019531 3.3125 -6.125 C 3.5625 -6.226562 3.847656 -6.28125 4.171875 -6.28125 C 4.523438 -6.28125 4.851562 -6.207031 5.15625 -6.0625 C 5.457031 -5.914062 5.707031 -5.695312 5.90625 -5.40625 C 6.101562 -5.632812 6.351562 -5.835938 6.65625 -6.015625 C 6.957031 -6.191406 7.351562 -6.28125 7.84375 -6.28125 C 8.257812 -6.28125 8.632812 -6.179688 8.96875 -5.984375 C 9.300781 -5.796875 9.566406 -5.507812 9.765625 -5.125 C 9.960938 -4.738281 10.0625 -4.253906 10.0625 -3.671875 L 10.0625 0 L 8.15625 0 L 8.15625 -3.578125 C 8.15625 -3.847656 8.082031 -4.066406 7.9375 -4.234375 C 7.800781 -4.410156 7.597656 -4.5 7.328125 -4.5 C 7.128906 -4.5 6.96875 -4.453125 6.84375 -4.359375 C 6.71875 -4.265625 6.617188 -4.160156 6.546875 -4.046875 C 6.472656 -3.941406 6.421875 -3.863281 6.390625 -3.8125 C 6.390625 -3.789062 6.390625 -3.765625 6.390625 -3.734375 C 6.390625 -3.710938 6.390625 -3.691406 6.390625 -3.671875 L 6.390625 0 L 4.46875 0 L 4.46875 -3.578125 C 4.46875 -3.847656 4.398438 -4.066406 4.265625 -4.234375 C 4.128906 -4.410156 3.925781 -4.5 3.65625 -4.5 C 3.457031 -4.5 3.289062 -4.453125 3.15625 -4.359375 C 3.03125 -4.265625 2.929688 -4.160156 2.859375 -4.046875 C 2.785156 -3.929688 2.726562 -3.835938 2.6875 -3.765625 L 2.6875 0 Z M 0.78125 0 "/></g></g></g><g fill="#000091" fill-opacity="1"><g transform="translate(72.240296, 21.334458)"><g><path d="M 6.5 -0.96875 C 6.207031 -0.59375 5.832031 -0.296875 5.375 -0.078125 C 4.914062 0.128906 4.394531 0.234375 3.8125 0.234375 C 3.070312 0.234375 2.445312 0.0859375 1.9375 -0.203125 C 1.4375 -0.503906 1.054688 -0.898438 0.796875 -1.390625 C 0.546875 -1.890625 0.421875 -2.429688 0.421875 -3.015625 C 0.421875 -3.597656 0.539062 -4.132812 0.78125 -4.625 C 1.019531 -5.125 1.375 -5.523438 1.84375 -5.828125 C 2.3125 -6.128906 2.882812 -6.28125 3.5625 -6.28125 C 4.132812 -6.28125 4.628906 -6.160156 5.046875 -5.921875 C 5.472656 -5.691406 5.804688 -5.367188 6.046875 -4.953125 C 6.285156 -4.535156 6.40625 -4.050781 6.40625 -3.5 C 6.40625 -3.300781 6.390625 -3.109375 6.359375 -2.921875 C 6.335938 -2.742188 6.3125 -2.601562 6.28125 -2.5 L 2.375 -2.5 C 2.457031 -2.082031 2.625 -1.804688 2.875 -1.671875 C 3.132812 -1.535156 3.441406 -1.46875 3.796875 -1.46875 C 4.085938 -1.46875 4.351562 -1.519531 4.59375 -1.625 C 4.832031 -1.726562 5.019531 -1.863281 5.15625 -2.03125 Z M 3.515625 -4.75 C 2.898438 -4.75 2.523438 -4.441406 2.390625 -3.828125 L 4.546875 -3.828125 C 4.546875 -4.035156 4.457031 -4.238281 4.28125 -4.4375 C 4.113281 -4.644531 3.859375 -4.75 3.515625 -4.75 Z M 3.515625 -4.75 "/></g></g></g><g fill="#000091" fill-opacity="1"><g transform="translate(78.586612, 21.334458)"><g><path d="M 0.78125 0 L 0.78125 -6.046875 L 2.6875 -6.046875 L 2.6875 -5.703125 C 2.882812 -5.867188 3.113281 -6.003906 3.375 -6.109375 C 3.632812 -6.222656 3.941406 -6.28125 4.296875 -6.28125 C 4.722656 -6.28125 5.109375 -6.179688 5.453125 -5.984375 C 5.804688 -5.785156 6.085938 -5.484375 6.296875 -5.078125 C 6.515625 -4.671875 6.625 -4.160156 6.625 -3.546875 L 6.625 0 L 4.703125 0 L 4.703125 -3.46875 C 4.703125 -3.769531 4.625 -4.015625 4.46875 -4.203125 C 4.3125 -4.398438 4.082031 -4.5 3.78125 -4.5 C 3.550781 -4.5 3.363281 -4.453125 3.21875 -4.359375 C 3.070312 -4.265625 2.957031 -4.160156 2.875 -4.046875 C 2.789062 -3.929688 2.726562 -3.835938 2.6875 -3.765625 L 2.6875 0 Z M 0.78125 0 "/></g></g></g><g fill="#000091" fill-opacity="1"><g transform="translate(85.364019, 21.334458)"><g><path d="M 1.203125 -2.34375 L 1.203125 -4.34375 L 0.078125 -4.34375 L 0.078125 -6.046875 L 1.203125 -6.046875 L 1.203125 -7.546875 L 3.109375 -7.546875 L 3.109375 -6.046875 L 4.765625 -6.046875 L 4.765625 -4.34375 L 3.109375 -4.34375 L 3.109375 -2.34375 C 3.109375 -1.851562 3.363281 -1.609375 3.875 -1.609375 C 4.09375 -1.609375 4.273438 -1.617188 4.421875 -1.640625 C 4.578125 -1.671875 4.695312 -1.703125 4.78125 -1.734375 L 4.78125 -0.09375 C 4.625 -0.0195312 4.441406 0.03125 4.234375 0.0625 C 4.035156 0.101562 3.796875 0.125 3.515625 0.125 C 2.691406 0.125 2.097656 -0.0976562 1.734375 -0.546875 C 1.378906 -1.003906 1.203125 -1.601562 1.203125 -2.34375 Z M 1.203125 -2.34375 "/></g></g></g></svg>