<svg xmlns="http://www.w3.org/2000/svg" width="134" height="42"><defs><clipPath id="a"><path d="M82.441 3.574h48.88v33.848H82.44Zm0 0"/></clipPath></defs><g clip-path="url(#a)"><path d="M25.922 35.516a.95.95 0 0 0-.672.277.95.95 0 0 0-.277.676c0 .527.422.953.949.953h97.543c.941 0 1.793-.387 2.414-1.008.64-.64 1-1.508 1-2.418V21.961h1.691c.664 0 1.207-.172 1.633-.461.469-.32.781-.77.938-1.281.144-.477.152-1 .02-1.508a3.24 3.24 0 0 0-1.036-1.656L115.582 4.477a3.84 3.84 0 0 0-2.492-.903c-.89 0-1.793.305-2.492.903l-9.774 8.48a.95.95 0 0 0-.094 1.34.943.943 0 0 0 1.336.098l9.774-8.48c.332-.286.789-.435 1.25-.435.465 0 .918.149 1.254.434l14.543 12.574c.23.2.379.446.441.692a.9.9 0 0 1 0 .48h.004l-.004.004a.5.5 0 0 1-.187.258c-.125.082-.313.133-.57.133h-2.641c-.524 0-.95.43-.95.953v12.988c0 .402-.164.79-.445 1.074a1.5 1.5 0 0 1-1.07.446Zm0 0" style="stroke:none;fill-rule:nonzero;fill:#c75000;fill-opacity:1"/></g><path d="m3.078 28.793 2.09-1.934q.457.6 1.078.957.627.36 1.242.36.504-.001.785-.23.287-.225.286-.712a.87.87 0 0 0-.356-.718 4 4 0 0 0-.933-.504q-.61-.24-1.211-.504a7 7 0 0 1-1.207-.684 3.1 3.1 0 0 1-.93-1.047q-.359-.643-.36-1.62.002-.956.497-1.747a3.6 3.6 0 0 1 1.367-1.258q.878-.473 2.031-.472 1.343 0 2.398.539a6.3 6.3 0 0 1 1.848 1.41l-2.09 1.922a5.7 5.7 0 0 0-1.043-.969q-.534-.385-1.097-.383-.44-.001-.715.238a.74.74 0 0 0-.278.59.84.84 0 0 0 .356.696c.242.175.55.34.937.492q.575.228 1.207.504a6.5 6.5 0 0 1 1.207.691c.383.277.696.633.93 1.074q.359.658.36 1.649-.016 1.142-.559 1.937a3.55 3.55 0 0 1-1.438 1.22 4.5 4.5 0 0 1-1.96.42c-1.047 0-1.922-.167-2.618-.51a5.75 5.75 0 0 1-1.824-1.407m10.715-7.496a1.55 1.55 0 0 1-.809-.227 1.8 1.8 0 0 1-.601-.601 1.6 1.6 0 0 1-.227-.813q.002-.668.485-1.148.49-.48 1.152-.48.44 0 .805.222c.242.14.441.344.582.59.144.246.222.527.218.816.004.285-.074.567-.218.813-.14.246-.344.453-.582.601a1.5 1.5 0 0 1-.805.227m-1.313 9.09v-8.2h2.579v8.2Zm3.227 1.398q0-.603.281-1.09.286-.487.79-.863-.453-.55-.454-1.184c0-.335.063-.64.192-.906q.195-.396.648-.754a2.65 2.65 0 0 1-.809-.984 2.8 2.8 0 0 1-.273-1.258q-.002-.814.395-1.465a2.8 2.8 0 0 1 1.144-1.031q.744-.387 1.817-.387c.656 0 1.23.11 1.714.325h2.938v2.164h-1.281q.016.1.015.195v.2q0 .809-.39 1.468-.386.656-1.141 1.043-.755.382-1.855.383h-.231q-.11-.001-.223-.02a.46.46 0 0 0-.148.324q.001.211.125.301a.5.5 0 0 0 .312.094h1.868q.984-.001 1.699.355.713.357 1.094.977a2.6 2.6 0 0 1 .382 1.398q0 .946-.546 1.707-.54.761-1.512 1.22c-.649.3-1.414.452-2.285.452q-2.063 0-3.164-.664-1.102-.666-1.102-2m3.746-6.031q.468-.001.777-.254.31-.251.31-.754c0-.34-.102-.586-.31-.75q-.309-.246-.777-.246-.469.001-.77.254-.3.251-.3.742 0 .503.3.754.301.253.77.254m-1.344 5.64c0 .317.141.563.426.75.29.184.754.274 1.406.274q.987 0 1.414-.309c.29-.207.43-.46.43-.765a.77.77 0 0 0-.242-.594q-.246-.218-.727-.219h-2.382a1.7 1.7 0 0 0-.227.367q-.098.201-.098.497m6.614-1.008v-8.2H27.3v.461q.404-.345.93-.562.526-.223 1.242-.223.872 0 1.586.41.715.406 1.144 1.227.429.82.43 2.074v4.813h-2.594v-4.7c0-.414-.11-.746-.324-1.007q-.324-.389-.942-.39-.455 0-.753.187-.302.187-.473.421-.165.237-.246.383v5.106Zm11.539.246q-1.23-.002-2.016-.684-.785-.686-.785-1.875-.001-.939.707-1.613.703-.677 2.031-.887l2.301-.394a1.01 1.01 0 0 0-.379-.774q-.364-.314-.934-.312a1.74 1.74 0 0 0-.894.226 2.1 2.1 0 0 0-.66.633l-1.883-1.43a3.9 3.9 0 0 1 1.477-1.218q.907-.44 2.043-.442c.863 0 1.578.157 2.136.465q.845.464 1.25 1.23.41.764.41 1.657v5.172H38.5v-.621q-.34.375-.96.62a3.5 3.5 0 0 1-1.278.247m-.258-2.688c0 .207.078.371.226.5q.228.183.602.184.615 0 1.02-.258.409-.258.648-.621v-.812l-1.605.277q-.502.082-.7.27a.63.63 0 0 0-.191.46m6.324 2.442V18.19h2.578v12.196Zm0 0" style="stroke:none;fill-rule:nonzero;fill:#c75000;fill-opacity:1"/><path d="M50.39 30.387V19.004h2.887v8.766h4.118v2.617Zm11.801-8.524q1.342 0 2.356.59 1.014.584 1.582 1.586.567.996.566 2.25.001 1.253-.566 2.254a4.25 4.25 0 0 1-1.582 1.586q-1.014.581-2.356.582-1.347 0-2.367-.582a4.24 4.24 0 0 1-1.59-1.586q-.564-1.001-.566-2.254.002-1.254.566-2.25a4.16 4.16 0 0 1 1.59-1.586q1.02-.59 2.367-.59m.016 6.426q.776 0 1.305-.55c.351-.372.527-.852.527-1.45 0-.617-.176-1.11-.527-1.465a1.77 1.77 0 0 0-1.305-.535q-.795.001-1.332.547c-.355.363-.531.844-.531 1.453q0 .909.531 1.453c.36.367.8.547 1.332.547m4.652 3.496q0-.603.282-1.09.286-.487.789-.863-.452-.55-.453-1.184c0-.335.062-.64.191-.906q.199-.396.648-.754a2.65 2.65 0 0 1-.808-.984 2.9 2.9 0 0 1-.274-1.258q.001-.814.395-1.465a2.8 2.8 0 0 1 1.144-1.031q.745-.387 1.817-.387.986.001 1.715.325h2.937v2.164h-1.281q.017.1.016.195v.2q0 .809-.391 1.468-.386.656-1.14 1.043c-.5.254-1.122.383-1.856.383h-.23q-.113-.001-.223-.02a.46.46 0 0 0-.149.324q.001.211.125.301a.5.5 0 0 0 .313.094h1.867q.984-.001 1.7.355.713.357 1.093.977a2.6 2.6 0 0 1 .383 1.398c0 .63-.184 1.2-.543 1.707q-.544.761-1.516 1.22-.972.451-2.285.452-2.063 0-3.164-.664-1.102-.666-1.102-2m3.746-6.031q.468-.001.778-.254.31-.251.308-.754.001-.504-.308-.75-.31-.246-.778-.246-.469.001-.77.254-.298.251-.3.742.002.503.3.754.301.253.77.254m-1.343 5.64c0 .317.14.563.425.75.29.184.754.274 1.407.274q.985 0 1.414-.309.432-.309.43-.765a.77.77 0 0 0-.243-.594q-.24-.218-.726-.219h-2.383a1.7 1.7 0 0 0-.227.367q-.098.201-.097.497m14.343-2.325a4 4 0 0 1-1.511 1.203q-.931.439-2.121.438-1.507 0-2.528-.61a4 4 0 0 1-1.539-1.62 4.74 4.74 0 0 1-.515-2.192q-.001-1.188.484-2.195.481-1.008 1.434-1.617.947-.612 2.328-.614 1.164-.001 2.023.485.86.48 1.34 1.324.476.845.477 1.965 0 .409-.047.777c-.035.242-.07.441-.114.59h-5.285q.177.832.688 1.113.51.287 1.242.285.58 0 1.066-.21.489-.213.766-.57Zm-4.035-5.125c-.824 0-1.328.414-1.523 1.235h2.933c-.011-.282-.128-.555-.355-.828q-.34-.406-1.055-.407m4.895 6.442v-8.2h2.582v.426q.37-.325.863-.535.496-.215 1.145-.215.714 0 1.328.293c.41.2.75.496 1.02.899a4 4 0 0 1 1.015-.832q.61-.36 1.613-.36c.551 0 1.055.133 1.508.39q.68.395 1.086 1.18c.27.528.406 1.184.406 1.977v4.977h-2.594v-4.864q0-.55-.277-.89-.275-.345-.828-.344-.403 0-.66.188a1.6 1.6 0 0 0-.406.406l-.215.332v5.172h-2.59v-4.864q-.001-.55-.277-.89-.276-.345-.829-.344-.405 0-.664.188a1.5 1.5 0 0 0-.406.421c-.094.157-.176.286-.238.383v5.106Zm21.562-1.317a4 4 0 0 1-1.511 1.203c-.625.293-1.329.438-2.121.438q-1.507 0-2.528-.61a4 4 0 0 1-1.539-1.62 4.7 4.7 0 0 1-.52-2.192q.002-1.188.489-2.195.482-1.008 1.433-1.617.948-.612 2.329-.614 1.16-.001 2.023.485.86.48 1.34 1.324.475.845.476 1.965 0 .409-.046.777c-.036.242-.07.441-.114.59h-5.285q.177.832.688 1.113.51.287 1.242.285.58 0 1.066-.21c.324-.141.582-.333.766-.57Zm-4.035-5.125q-1.236.002-1.523 1.235h2.933c-.011-.282-.129-.555-.359-.828q-.335-.406-1.05-.407m4.894 6.442v-8.2h2.578v.461q.406-.345.933-.562.529-.223 1.239-.223a3.14 3.14 0 0 1 1.59.41q.71.406 1.144 1.227.427.82.426 2.074v4.813h-2.59v-4.7c0-.414-.11-.746-.324-1.007-.219-.258-.531-.39-.945-.39q-.45 0-.754.187-.3.187-.47.421a4 4 0 0 0-.25.383v5.106Zm9.746-3.188V24.5h-1.528v-2.312h1.528V20.14h2.594v2.047h2.234V24.5h-2.234v2.7q0 1.007 1.02 1.007.455 0 .753-.059c.2-.035.36-.078.48-.12v2.23q-.326.145-.73.215-.405.075-.973.074-1.674 0-2.41-.918-.733-.919-.734-2.43m0 0" style="stroke:none;fill-rule:nonzero;fill:#000091;fill-opacity:1"/></svg>