<svg xmlns="http://www.w3.org/2000/svg" width="133" height="42" version="1.0" viewBox="0 0 99.75 31.5"><defs><clipPath id="a"><path d="M60.992 2.707h36.13v25.102h-36.13Zm0 0"/></clipPath></defs><g clip-path="url(#a)"><path fill="#ff6218" d="M19.23 26.23a.7.7 0 0 0-.699.704c0 .386.313.699.7.699h72.058c.695 0 1.328-.281 1.781-.738a2.52 2.52 0 0 0 .743-1.782v-8.867h1.25c.488 0 .89-.125 1.203-.34.347-.234.578-.566.695-.945v.004c.105-.352.11-.738.016-1.113a2.436 2.436 0 0 0-.766-1.22l-10.742-9.26a2.844 2.844 0 0 0-1.844-.665c-.656 0-1.324.223-1.84.664l-7.219 6.246a.695.695 0 0 0-.07.985c.25.293.692.324.984.074l7.223-6.246c.246-.215.582-.32.922-.32.344 0 .68.105.926.32l10.746 9.261c.168.145.277.325.324.508a.631.631 0 0 1 0 .352h.004l-.004.004a.346.346 0 0 1-.137.191.79.79 0 0 1-.421.098h-1.954a.7.7 0 0 0-.699.703v9.566c0 .305-.129.586-.332.79-.2.202-.48.327-.789.327Zm0 0"/></g><path fill="#ff6218" d="m2.688 20.163 1.547-1.422c.218.293.476.527.78.703.313.18.626.265.938.265.239 0 .426-.054.563-.171.144-.114.219-.29.219-.532a.643.643 0 0 0-.266-.53 2.812 2.812 0 0 0-.688-.36 32.828 32.828 0 0 1-.89-.375c-.313-.133-.61-.301-.89-.5a2.28 2.28 0 0 1-.688-.766c-.18-.32-.266-.723-.266-1.203 0-.469.117-.895.36-1.281.25-.395.585-.707 1.015-.938a3.216 3.216 0 0 1 1.5-.344c.664 0 1.254.133 1.766.391.52.262.976.61 1.375 1.047l-1.547 1.406a4.851 4.851 0 0 0-.766-.703 1.375 1.375 0 0 0-.812-.281c-.22 0-.399.058-.532.172a.55.55 0 0 0-.203.437c0 .211.086.383.266.516.176.125.406.246.687.36.282.105.579.23.891.374.313.137.61.309.89.516.282.2.508.46.688.781.176.324.266.73.266 1.219-.012.555-.153 1.027-.422 1.422-.262.386-.61.683-1.047.89a3.355 3.355 0 0 1-1.453.313c-.774 0-1.418-.125-1.938-.375a4.251 4.251 0 0 1-1.343-1.031ZM10.603 14.631a1.22 1.22 0 0 1-.61-.156 1.35 1.35 0 0 1-.437-.453 1.184 1.184 0 0 1-.156-.594c0-.332.117-.613.36-.844.238-.238.519-.359.843-.359.219 0 .414.059.594.172.176.105.316.25.422.437.113.18.172.375.172.594 0 .211-.059.406-.172.594-.106.187-.246.34-.422.453-.18.106-.375.156-.594.156Zm-.969 6.703v-6.046h1.907v6.046ZM12.016 22.366c0-.293.067-.559.204-.797.144-.238.335-.453.578-.64a1.364 1.364 0 0 1-.328-.876c0-.25.046-.469.14-.656.094-.195.254-.383.485-.563a1.908 1.908 0 0 1-.594-.718 2.163 2.163 0 0 1-.203-.938c0-.394.093-.754.28-1.078.196-.32.477-.578.845-.766.375-.187.82-.28 1.343-.28.489 0 .914.077 1.282.234h2.156v1.593h-.938c.008.055.016.106.016.157v.14c0 .399-.102.758-.297 1.078a1.945 1.945 0 0 1-.844.766c-.375.187-.836.281-1.375.281h-.328a.328.328 0 0 0-.11.235c0 .105.024.18.079.218a.431.431 0 0 0 .25.063h1.375c.488 0 .906.09 1.25.265.352.18.625.418.813.72.187.304.28.644.28 1.03 0 .47-.136.891-.405 1.266-.262.375-.633.672-1.11.89-.48.227-1.043.344-1.687.344-1.024 0-1.805-.168-2.344-.5-.543-.324-.813-.812-.813-1.468Zm2.766-4.453c.227 0 .414-.055.563-.172.156-.125.234-.313.234-.563 0-.25-.078-.43-.234-.547a.843.843 0 0 0-.563-.187.894.894 0 0 0-.578.187c-.149.125-.219.309-.219.547 0 .25.07.438.219.563a.932.932 0 0 0 .578.172Zm-1 4.171c0 .227.102.41.313.547.218.133.566.203 1.046.203.489 0 .836-.078 1.047-.234.207-.148.313-.336.313-.562a.562.562 0 0 0-.188-.438c-.117-.105-.293-.156-.531-.156h-1.75a2.062 2.062 0 0 0-.172.265.783.783 0 0 0-.078.375ZM18.675 21.334v-6.046h1.906v.343c.195-.164.426-.3.688-.406.257-.113.566-.172.921-.172.426 0 .813.102 1.157.297.351.2.632.5.843.906.22.407.329.918.329 1.532v3.546h-1.922v-3.468c0-.301-.078-.547-.235-.735-.156-.195-.386-.297-.687-.297-.23 0-.418.047-.563.141-.148.094-.261.2-.343.313a2.87 2.87 0 0 0-.188.28v3.766ZM27.202 21.522c-.605 0-1.105-.168-1.5-.5-.387-.344-.578-.805-.578-1.39 0-.458.172-.852.516-1.188.351-.332.86-.55 1.515-.656l1.703-.282a.75.75 0 0 0-.296-.578.985.985 0 0 0-.672-.234c-.25 0-.477.058-.672.172a1.625 1.625 0 0 0-.485.468l-1.39-1.062a2.96 2.96 0 0 1 1.094-.89 3.357 3.357 0 0 1 1.5-.329c.644 0 1.175.117 1.593.344.414.23.723.531.922.906.195.375.297.781.297 1.219v3.812h-1.89v-.453c-.169.18-.407.328-.72.453a2.449 2.449 0 0 1-.937.188Zm-.187-1.984c0 .156.05.28.156.375.113.086.266.125.453.125.3 0 .55-.063.75-.188.195-.125.36-.273.484-.453v-.61l-1.187.204c-.25.043-.422.11-.516.203a.472.472 0 0 0-.14.344ZM31.679 21.334V12.35h1.906v8.984Zm0 0"/><path fill="#000091" d="M37.63 21.334v-8.39h2.14v6.469h3.047v1.921ZM46.358 15.053c.656 0 1.234.149 1.734.438.5.281.89.672 1.172 1.172.281.492.422 1.043.422 1.656 0 .617-.14 1.168-.422 1.656a3.125 3.125 0 0 1-1.172 1.172c-.5.281-1.078.422-1.734.422-.668 0-1.25-.14-1.75-.422-.5-.29-.891-.68-1.172-1.172a3.254 3.254 0 0 1-.422-1.656c0-.613.14-1.164.422-1.656.281-.5.672-.891 1.172-1.172.5-.29 1.082-.438 1.75-.438Zm.015 4.735c.375 0 .692-.133.953-.407.258-.27.391-.625.391-1.062 0-.457-.133-.817-.39-1.078a1.279 1.279 0 0 0-.954-.407c-.398 0-.73.137-1 .407-.261.273-.39.633-.39 1.078 0 .45.129.808.39 1.078.27.262.602.39 1 .39ZM49.803 22.366c0-.293.066-.559.203-.797.144-.238.336-.453.578-.64a1.364 1.364 0 0 1-.328-.876c0-.25.047-.469.14-.656.094-.195.254-.383.485-.563a1.908 1.908 0 0 1-.594-.718 2.163 2.163 0 0 1-.203-.938c0-.394.094-.754.281-1.078.195-.32.477-.578.844-.766.375-.187.82-.28 1.344-.28.488 0 .914.077 1.28.234h2.157v1.593h-.937c.007.055.015.106.015.157v.14c0 .399-.101.758-.297 1.078a1.945 1.945 0 0 1-.843.766c-.375.187-.836.281-1.375.281H52.225a.328.328 0 0 0-.11.235c0 .105.024.18.078.218a.431.431 0 0 0 .25.063h1.375c.489 0 .907.09 1.25.265.352.18.625.418.813.72.187.304.281.644.281 1.03 0 .47-.137.891-.406 1.266-.262.375-.633.672-1.11.89-.48.227-1.043.344-1.687.344-1.024 0-1.805-.168-2.344-.5-.543-.324-.812-.812-.812-1.468Zm2.765-4.453c.227 0 .414-.055.563-.172.156-.125.234-.313.234-.563 0-.25-.078-.43-.234-.547a.843.843 0 0 0-.563-.187.894.894 0 0 0-.578.187c-.148.125-.219.309-.219.547 0 .25.07.438.22.563a.932.932 0 0 0 .577.172Zm-1 4.171c0 .227.102.41.313.547.219.133.566.203 1.047.203.488 0 .836-.078 1.047-.234.207-.148.312-.336.312-.562a.562.562 0 0 0-.187-.438c-.118-.105-.293-.156-.532-.156h-1.75a2.062 2.062 0 0 0-.172.265.783.783 0 0 0-.078.375ZM62.18 20.366a3.1 3.1 0 0 1-1.125.89 3.77 3.77 0 0 1-1.563.313c-.742 0-1.367-.149-1.875-.438-.5-.3-.883-.695-1.14-1.187-.25-.5-.375-1.04-.375-1.625 0-.582.117-1.117.36-1.61a2.9 2.9 0 0 1 1.062-1.203c.468-.3 1.039-.453 1.718-.453.57 0 1.067.121 1.485.36.425.23.757.554 1 .968.238.418.36.903.36 1.453 0 .2-.017.391-.048.579-.023.18-.047.32-.078.421h-3.906c.082.418.25.696.5.829.258.136.566.203.922.203.289 0 .554-.051.797-.157.238-.101.425-.238.562-.406Zm-2.985-3.782c-.617 0-.992.31-1.125.922h2.157c0-.207-.09-.41-.266-.609-.168-.207-.422-.313-.766-.313ZM62.807 21.334v-6.046h1.907v.312c.175-.156.382-.285.625-.39.25-.102.535-.157.859-.157.352 0 .68.074.984.219.301.148.551.367.75.656.196-.226.446-.43.75-.61.301-.175.696-.265 1.188-.265a2.2 2.2 0 0 1 1.125.297c.332.188.598.477.797.86.195.386.297.87.297 1.453v3.671h-1.907v-3.578c0-.27-.074-.488-.218-.656-.137-.176-.34-.266-.61-.266-.199 0-.36.047-.484.141-.125.094-.227.2-.297.313a4.717 4.717 0 0 0-.156.234v3.812h-1.922v-3.578c0-.27-.07-.488-.203-.656-.137-.176-.34-.266-.61-.266-.199 0-.367.047-.5.141-.125.094-.226.2-.297.313-.074.117-.132.21-.171.28v3.766ZM78.74 20.366a3.1 3.1 0 0 1-1.125.89 3.77 3.77 0 0 1-1.562.313c-.742 0-1.367-.149-1.875-.438-.5-.3-.883-.695-1.14-1.187-.25-.5-.376-1.04-.376-1.625 0-.582.117-1.117.36-1.61a2.9 2.9 0 0 1 1.062-1.203c.469-.3 1.04-.453 1.719-.453.57 0 1.066.121 1.484.36.426.23.758.554 1 .968.238.418.36.903.36 1.453 0 .2-.016.391-.047.579-.024.18-.047.32-.078.421h-3.907c.082.418.25.696.5.829.258.136.567.203.922.203.29 0 .555-.051.797-.157.238-.101.426-.238.563-.406Zm-2.984-3.782c-.617 0-.992.31-1.125.922h2.156c0-.207-.09-.41-.265-.609-.168-.207-.422-.313-.766-.313ZM79.368 21.334v-6.046h1.906v.343c.195-.164.426-.3.688-.406.257-.113.566-.172.921-.172.426 0 .813.102 1.157.297.351.2.633.5.843.906.22.407.329.918.329 1.532v3.546H83.29v-3.468c0-.301-.078-.547-.235-.735-.156-.195-.386-.297-.687-.297-.23 0-.418.047-.563.141-.148.094-.261.2-.343.313a2.87 2.87 0 0 0-.188.28v3.766ZM86.567 18.99v-2h-1.125v-1.702h1.125v-1.5h1.906v1.5h1.657v1.703h-1.657v2c0 .492.254.734.766.734.219 0 .398-.008.547-.031.156-.031.273-.063.36-.094v1.64c-.157.075-.34.126-.548.157-.199.039-.437.062-.718.062-.825 0-1.418-.222-1.782-.671-.355-.457-.53-1.055-.53-1.797Zm0 0"/></svg>