<svg xmlns="http://www.w3.org/2000/svg" width="133.0" zoomAndPan="magnify" viewBox="0.0 0.0 99.75 31.5" height="42.0" preserveAspectRatio="xMidYMid meet" version="1.0"><defs><g/><clipPath id="b28ef6837e"><path d="M 0.65625 0 L 98.847656 0 L 98.847656 31.007812 L 0.65625 31.007812 Z M 0.65625 0 " clip-rule="nonzero"/></clipPath><clipPath id="9d9158db43"><path d="M 61.109375 2.574219 L 97.285156 2.574219 L 97.285156 27.675781 L 61.109375 27.675781 Z M 61.109375 2.574219 " clip-rule="nonzero"/></clipPath></defs><g clip-path="url(#b28ef6837e)"><path fill="#ffffff" d="M 0.65625 0 L 98.847656 0 L 98.847656 31.007812 L 0.65625 31.007812 Z M 0.65625 0 " fill-opacity="1" fill-rule="nonzero"/><path fill="#ffffff" d="M 0.65625 0 L 98.847656 0 L 98.847656 31.007812 L 0.65625 31.007812 Z M 0.65625 0 " fill-opacity="1" fill-rule="nonzero"/></g><g clip-path="url(#9d9158db43)"><path fill="#ff6218" d="M 18.90625 26.347656 C 18.511719 26.347656 18.195312 26.667969 18.195312 27.058594 C 18.195312 27.449219 18.511719 27.769531 18.90625 27.769531 L 91.730469 27.769531 C 92.433594 27.769531 93.070312 27.480469 93.53125 27.019531 C 93.992188 26.558594 94.277344 25.921875 94.277344 25.21875 L 94.277344 16.261719 L 95.542969 16.261719 C 96.035156 16.261719 96.441406 16.128906 96.761719 15.917969 C 97.109375 15.679688 97.34375 15.34375 97.460938 14.960938 C 97.570312 14.609375 97.574219 14.21875 97.476562 13.839844 C 97.359375 13.386719 97.097656 12.949219 96.703125 12.605469 L 85.847656 3.246094 C 85.324219 2.800781 84.652344 2.574219 83.984375 2.574219 C 83.320312 2.574219 82.644531 2.800781 82.125 3.246094 L 74.828125 9.558594 C 74.53125 9.8125 74.5 10.261719 74.757812 10.554688 C 75.011719 10.851562 75.457031 10.882812 75.753906 10.628906 L 83.050781 4.316406 C 83.300781 4.101562 83.640625 3.992188 83.984375 3.992188 C 84.332031 3.992188 84.671875 4.101562 84.921875 4.316406 L 95.777344 13.675781 C 95.949219 13.824219 96.058594 14.007812 96.105469 14.1875 C 96.140625 14.316406 96.140625 14.441406 96.109375 14.546875 L 96.109375 14.550781 C 96.085938 14.625 96.039062 14.691406 95.96875 14.742188 C 95.875 14.804688 95.734375 14.839844 95.542969 14.839844 L 93.570312 14.839844 C 93.179688 14.839844 92.859375 15.160156 92.859375 15.550781 L 92.859375 25.21875 C 92.859375 25.53125 92.734375 25.8125 92.527344 26.015625 C 92.324219 26.222656 92.042969 26.347656 91.730469 26.347656 Z M 18.90625 26.347656 " fill-opacity="1" fill-rule="nonzero"/></g><g fill="#ff6218" fill-opacity="1"><g transform="translate(1.87646, 22.964672)"><g><path d="M 0.328125 -1.21875 L 1.9375 -2.703125 C 2.164062 -2.398438 2.441406 -2.15625 2.765625 -1.96875 C 3.085938 -1.789062 3.40625 -1.703125 3.71875 -1.703125 C 3.976562 -1.703125 4.179688 -1.757812 4.328125 -1.875 C 4.472656 -1.988281 4.546875 -2.171875 4.546875 -2.421875 C 4.546875 -2.648438 4.453125 -2.832031 4.265625 -2.96875 C 4.085938 -3.113281 3.847656 -3.242188 3.546875 -3.359375 C 3.253906 -3.472656 2.945312 -3.597656 2.625 -3.734375 C 2.300781 -3.878906 1.988281 -4.054688 1.6875 -4.265625 C 1.394531 -4.472656 1.15625 -4.738281 0.96875 -5.0625 C 0.789062 -5.394531 0.703125 -5.8125 0.703125 -6.3125 C 0.703125 -6.800781 0.828125 -7.25 1.078125 -7.65625 C 1.328125 -8.0625 1.675781 -8.382812 2.125 -8.625 C 2.582031 -8.863281 3.109375 -8.984375 3.703125 -8.984375 C 4.390625 -8.984375 5.003906 -8.847656 5.546875 -8.578125 C 6.085938 -8.304688 6.5625 -7.941406 6.96875 -7.484375 L 5.359375 -6.015625 C 5.097656 -6.316406 4.828125 -6.5625 4.546875 -6.75 C 4.273438 -6.945312 3.992188 -7.046875 3.703125 -7.046875 C 3.484375 -7.046875 3.300781 -6.984375 3.15625 -6.859375 C 3.019531 -6.742188 2.953125 -6.597656 2.953125 -6.421875 C 2.953125 -6.203125 3.039062 -6.023438 3.21875 -5.890625 C 3.40625 -5.753906 3.644531 -5.625 3.9375 -5.5 C 4.226562 -5.382812 4.535156 -5.253906 4.859375 -5.109375 C 5.191406 -4.972656 5.503906 -4.796875 5.796875 -4.578125 C 6.085938 -4.367188 6.328125 -4.097656 6.515625 -3.765625 C 6.703125 -3.429688 6.796875 -3.007812 6.796875 -2.5 C 6.785156 -1.914062 6.640625 -1.421875 6.359375 -1.015625 C 6.078125 -0.609375 5.707031 -0.296875 5.25 -0.078125 C 4.789062 0.140625 4.289062 0.25 3.75 0.25 C 2.9375 0.25 2.257812 0.117188 1.71875 -0.140625 C 1.1875 -0.398438 0.722656 -0.757812 0.328125 -1.21875 Z M 0.328125 -1.21875 "/></g></g></g><g fill="#ff6218" fill-opacity="1"><g transform="translate(8.626339, 22.964672)"><g><path d="M 1.828125 -6.984375 C 1.597656 -6.984375 1.382812 -7.039062 1.1875 -7.15625 C 1 -7.269531 0.847656 -7.421875 0.734375 -7.609375 C 0.617188 -7.804688 0.5625 -8.015625 0.5625 -8.234375 C 0.5625 -8.578125 0.6875 -8.867188 0.9375 -9.109375 C 1.1875 -9.359375 1.484375 -9.484375 1.828125 -9.484375 C 2.046875 -9.484375 2.25 -9.425781 2.4375 -9.3125 C 2.625 -9.207031 2.773438 -9.054688 2.890625 -8.859375 C 3.003906 -8.671875 3.0625 -8.460938 3.0625 -8.234375 C 3.0625 -8.015625 3.003906 -7.804688 2.890625 -7.609375 C 2.773438 -7.421875 2.625 -7.269531 2.4375 -7.15625 C 2.25 -7.039062 2.046875 -6.984375 1.828125 -6.984375 Z M 0.8125 0 L 0.8125 -6.296875 L 2.796875 -6.296875 L 2.796875 0 Z M 0.8125 0 "/></g></g></g><g fill="#ff6218" fill-opacity="1"><g transform="translate(11.645631, 22.964672)"><g><path d="M 0.28125 1.078125 C 0.28125 0.765625 0.351562 0.484375 0.5 0.234375 C 0.644531 -0.015625 0.84375 -0.234375 1.09375 -0.421875 C 0.863281 -0.703125 0.75 -1.003906 0.75 -1.328125 C 0.75 -1.585938 0.796875 -1.816406 0.890625 -2.015625 C 0.992188 -2.222656 1.160156 -2.421875 1.390625 -2.609375 C 1.117188 -2.816406 0.910156 -3.066406 0.765625 -3.359375 C 0.628906 -3.660156 0.5625 -3.984375 0.5625 -4.328125 C 0.5625 -4.742188 0.660156 -5.117188 0.859375 -5.453125 C 1.066406 -5.785156 1.363281 -6.050781 1.75 -6.25 C 2.132812 -6.445312 2.597656 -6.546875 3.140625 -6.546875 C 3.648438 -6.546875 4.09375 -6.460938 4.46875 -6.296875 L 6.734375 -6.296875 L 6.734375 -4.625 L 5.75 -4.625 C 5.75 -4.582031 5.75 -4.535156 5.75 -4.484375 C 5.75 -4.429688 5.75 -4.378906 5.75 -4.328125 C 5.75 -3.910156 5.648438 -3.535156 5.453125 -3.203125 C 5.253906 -2.867188 4.960938 -2.601562 4.578125 -2.40625 C 4.191406 -2.207031 3.710938 -2.109375 3.140625 -2.109375 C 3.085938 -2.109375 3.03125 -2.109375 2.96875 -2.109375 C 2.914062 -2.109375 2.859375 -2.113281 2.796875 -2.125 C 2.722656 -2.050781 2.6875 -1.96875 2.6875 -1.875 C 2.6875 -1.757812 2.71875 -1.679688 2.78125 -1.640625 C 2.84375 -1.597656 2.921875 -1.578125 3.015625 -1.578125 L 4.453125 -1.578125 C 4.960938 -1.578125 5.398438 -1.484375 5.765625 -1.296875 C 6.128906 -1.117188 6.410156 -0.867188 6.609375 -0.546875 C 6.804688 -0.234375 6.90625 0.125 6.90625 0.53125 C 6.90625 1.007812 6.765625 1.441406 6.484375 1.828125 C 6.203125 2.222656 5.8125 2.535156 5.3125 2.765625 C 4.8125 3.003906 4.226562 3.125 3.5625 3.125 C 2.5 3.125 1.6875 2.953125 1.125 2.609375 C 0.5625 2.265625 0.28125 1.753906 0.28125 1.078125 Z M 3.15625 -3.5625 C 3.394531 -3.5625 3.59375 -3.625 3.75 -3.75 C 3.914062 -3.875 4 -4.066406 4 -4.328125 C 4 -4.585938 3.914062 -4.78125 3.75 -4.90625 C 3.59375 -5.03125 3.394531 -5.09375 3.15625 -5.09375 C 2.914062 -5.09375 2.71875 -5.023438 2.5625 -4.890625 C 2.40625 -4.765625 2.328125 -4.578125 2.328125 -4.328125 C 2.328125 -4.066406 2.40625 -3.875 2.5625 -3.75 C 2.71875 -3.625 2.914062 -3.5625 3.15625 -3.5625 Z M 2.125 0.78125 C 2.125 1.019531 2.234375 1.207031 2.453125 1.34375 C 2.671875 1.488281 3.03125 1.5625 3.53125 1.5625 C 4.039062 1.5625 4.40625 1.484375 4.625 1.328125 C 4.84375 1.171875 4.953125 0.972656 4.953125 0.734375 C 4.953125 0.546875 4.890625 0.394531 4.765625 0.28125 C 4.640625 0.164062 4.453125 0.109375 4.203125 0.109375 L 2.375 0.109375 C 2.300781 0.191406 2.238281 0.285156 2.1875 0.390625 C 2.144531 0.492188 2.125 0.625 2.125 0.78125 Z M 2.125 0.78125 "/></g></g></g><g fill="#ff6218" fill-opacity="1"><g transform="translate(18.046159, 22.964672)"><g><path d="M 0.8125 0 L 0.8125 -6.296875 L 2.796875 -6.296875 L 2.796875 -5.9375 C 3.003906 -6.113281 3.242188 -6.257812 3.515625 -6.375 C 3.785156 -6.488281 4.101562 -6.546875 4.46875 -6.546875 C 4.914062 -6.546875 5.320312 -6.441406 5.6875 -6.234375 C 6.050781 -6.023438 6.34375 -5.707031 6.5625 -5.28125 C 6.789062 -4.863281 6.90625 -4.335938 6.90625 -3.703125 L 6.90625 0 L 4.90625 0 L 4.90625 -3.609375 C 4.90625 -3.921875 4.820312 -4.175781 4.65625 -4.375 C 4.488281 -4.582031 4.25 -4.6875 3.9375 -4.6875 C 3.695312 -4.6875 3.5 -4.632812 3.34375 -4.53125 C 3.195312 -4.4375 3.078125 -4.328125 2.984375 -4.203125 C 2.898438 -4.085938 2.835938 -3.992188 2.796875 -3.921875 L 2.796875 0 Z M 0.8125 0 "/></g></g></g><g fill="#ff6218" fill-opacity="1"><g transform="translate(25.107961, 22.964672)"><g><path d="M 2.640625 0.1875 C 2.003906 0.1875 1.484375 0.015625 1.078125 -0.328125 C 0.671875 -0.679688 0.46875 -1.160156 0.46875 -1.765625 C 0.46875 -2.253906 0.648438 -2.671875 1.015625 -3.015625 C 1.378906 -3.359375 1.898438 -3.585938 2.578125 -3.703125 L 4.359375 -4 C 4.347656 -4.238281 4.25 -4.4375 4.0625 -4.59375 C 3.875 -4.75 3.632812 -4.828125 3.34375 -4.828125 C 3.082031 -4.828125 2.851562 -4.769531 2.65625 -4.65625 C 2.457031 -4.539062 2.285156 -4.378906 2.140625 -4.171875 L 0.703125 -5.265625 C 0.992188 -5.671875 1.367188 -5.984375 1.828125 -6.203125 C 2.296875 -6.429688 2.820312 -6.546875 3.40625 -6.546875 C 4.070312 -6.546875 4.617188 -6.425781 5.046875 -6.1875 C 5.484375 -5.945312 5.804688 -5.628906 6.015625 -5.234375 C 6.222656 -4.847656 6.328125 -4.425781 6.328125 -3.96875 L 6.328125 0 L 4.359375 0 L 4.359375 -0.46875 C 4.179688 -0.28125 3.929688 -0.125 3.609375 0 C 3.296875 0.125 2.972656 0.1875 2.640625 0.1875 Z M 2.4375 -1.875 C 2.4375 -1.71875 2.492188 -1.585938 2.609375 -1.484375 C 2.722656 -1.390625 2.878906 -1.34375 3.078125 -1.34375 C 3.390625 -1.34375 3.648438 -1.410156 3.859375 -1.546875 C 4.066406 -1.679688 4.234375 -1.835938 4.359375 -2.015625 L 4.359375 -2.640625 L 3.125 -2.4375 C 2.863281 -2.394531 2.679688 -2.320312 2.578125 -2.21875 C 2.484375 -2.125 2.4375 -2.007812 2.4375 -1.875 Z M 2.4375 -1.875 "/></g></g></g><g fill="#ff6218" fill-opacity="1"><g transform="translate(31.595825, 22.964672)"><g><path d="M 0.8125 0 L 0.8125 -9.359375 L 2.796875 -9.359375 L 2.796875 0 Z M 0.8125 0 "/></g></g></g><g fill="#ff6218" fill-opacity="1"><g transform="translate(34.615119, 22.964672)"><g/></g></g><g fill="#000091" fill-opacity="1"><g transform="translate(37.398805, 22.964672)"><g><path d="M 0.8125 0 L 0.8125 -9.359375 L 2.796875 -9.359375 L 2.796875 0 Z M 0.8125 0 "/></g></g></g><g fill="#000091" fill-opacity="1"><g transform="translate(40.418097, 22.964672)"><g><path d="M 3.921875 -6.546875 C 4.609375 -6.546875 5.210938 -6.394531 5.734375 -6.09375 C 6.253906 -5.789062 6.660156 -5.382812 6.953125 -4.875 C 7.242188 -4.363281 7.390625 -3.785156 7.390625 -3.140625 C 7.390625 -2.503906 7.242188 -1.929688 6.953125 -1.421875 C 6.660156 -0.910156 6.253906 -0.503906 5.734375 -0.203125 C 5.210938 0.0976562 4.609375 0.25 3.921875 0.25 C 3.234375 0.25 2.625 0.0976562 2.09375 -0.203125 C 1.570312 -0.503906 1.164062 -0.910156 0.875 -1.421875 C 0.582031 -1.929688 0.4375 -2.503906 0.4375 -3.140625 C 0.4375 -3.785156 0.582031 -4.363281 0.875 -4.875 C 1.164062 -5.382812 1.570312 -5.789062 2.09375 -6.09375 C 2.625 -6.394531 3.234375 -6.546875 3.921875 -6.546875 Z M 3.9375 -1.609375 C 4.332031 -1.609375 4.664062 -1.75 4.9375 -2.03125 C 5.207031 -2.3125 5.34375 -2.679688 5.34375 -3.140625 C 5.34375 -3.617188 5.207031 -3.992188 4.9375 -4.265625 C 4.664062 -4.546875 4.332031 -4.6875 3.9375 -4.6875 C 3.53125 -4.6875 3.1875 -4.546875 2.90625 -4.265625 C 2.632812 -3.984375 2.5 -3.609375 2.5 -3.140625 C 2.5 -2.679688 2.632812 -2.3125 2.90625 -2.03125 C 3.1875 -1.75 3.53125 -1.609375 3.9375 -1.609375 Z M 3.9375 -1.609375 "/></g></g></g><g fill="#000091" fill-opacity="1"><g transform="translate(47.654577, 22.964672)"><g><path d="M 0.28125 1.078125 C 0.28125 0.765625 0.351562 0.484375 0.5 0.234375 C 0.644531 -0.015625 0.84375 -0.234375 1.09375 -0.421875 C 0.863281 -0.703125 0.75 -1.003906 0.75 -1.328125 C 0.75 -1.585938 0.796875 -1.816406 0.890625 -2.015625 C 0.992188 -2.222656 1.160156 -2.421875 1.390625 -2.609375 C 1.117188 -2.816406 0.910156 -3.066406 0.765625 -3.359375 C 0.628906 -3.660156 0.5625 -3.984375 0.5625 -4.328125 C 0.5625 -4.742188 0.660156 -5.117188 0.859375 -5.453125 C 1.066406 -5.785156 1.363281 -6.050781 1.75 -6.25 C 2.132812 -6.445312 2.597656 -6.546875 3.140625 -6.546875 C 3.648438 -6.546875 4.09375 -6.460938 4.46875 -6.296875 L 6.734375 -6.296875 L 6.734375 -4.625 L 5.75 -4.625 C 5.75 -4.582031 5.75 -4.535156 5.75 -4.484375 C 5.75 -4.429688 5.75 -4.378906 5.75 -4.328125 C 5.75 -3.910156 5.648438 -3.535156 5.453125 -3.203125 C 5.253906 -2.867188 4.960938 -2.601562 4.578125 -2.40625 C 4.191406 -2.207031 3.710938 -2.109375 3.140625 -2.109375 C 3.085938 -2.109375 3.03125 -2.109375 2.96875 -2.109375 C 2.914062 -2.109375 2.859375 -2.113281 2.796875 -2.125 C 2.722656 -2.050781 2.6875 -1.96875 2.6875 -1.875 C 2.6875 -1.757812 2.71875 -1.679688 2.78125 -1.640625 C 2.84375 -1.597656 2.921875 -1.578125 3.015625 -1.578125 L 4.453125 -1.578125 C 4.960938 -1.578125 5.398438 -1.484375 5.765625 -1.296875 C 6.128906 -1.117188 6.410156 -0.867188 6.609375 -0.546875 C 6.804688 -0.234375 6.90625 0.125 6.90625 0.53125 C 6.90625 1.007812 6.765625 1.441406 6.484375 1.828125 C 6.203125 2.222656 5.8125 2.535156 5.3125 2.765625 C 4.8125 3.003906 4.226562 3.125 3.5625 3.125 C 2.5 3.125 1.6875 2.953125 1.125 2.609375 C 0.5625 2.265625 0.28125 1.753906 0.28125 1.078125 Z M 3.15625 -3.5625 C 3.394531 -3.5625 3.59375 -3.625 3.75 -3.75 C 3.914062 -3.875 4 -4.066406 4 -4.328125 C 4 -4.585938 3.914062 -4.78125 3.75 -4.90625 C 3.59375 -5.03125 3.394531 -5.09375 3.15625 -5.09375 C 2.914062 -5.09375 2.71875 -5.023438 2.5625 -4.890625 C 2.40625 -4.765625 2.328125 -4.578125 2.328125 -4.328125 C 2.328125 -4.066406 2.40625 -3.875 2.5625 -3.75 C 2.71875 -3.625 2.914062 -3.5625 3.15625 -3.5625 Z M 2.125 0.78125 C 2.125 1.019531 2.234375 1.207031 2.453125 1.34375 C 2.671875 1.488281 3.03125 1.5625 3.53125 1.5625 C 4.039062 1.5625 4.40625 1.484375 4.625 1.328125 C 4.84375 1.171875 4.953125 0.972656 4.953125 0.734375 C 4.953125 0.546875 4.890625 0.394531 4.765625 0.28125 C 4.640625 0.164062 4.453125 0.109375 4.203125 0.109375 L 2.375 0.109375 C 2.300781 0.191406 2.238281 0.285156 2.1875 0.390625 C 2.144531 0.492188 2.125 0.625 2.125 0.78125 Z M 2.125 0.78125 "/></g></g></g><g fill="#000091" fill-opacity="1"><g transform="translate(54.055104, 22.964672)"><g><path d="M 6.765625 -1.015625 C 6.460938 -0.617188 6.070312 -0.304688 5.59375 -0.078125 C 5.113281 0.140625 4.570312 0.25 3.96875 0.25 C 3.195312 0.25 2.546875 0.09375 2.015625 -0.21875 C 1.492188 -0.53125 1.097656 -0.941406 0.828125 -1.453125 C 0.566406 -1.972656 0.4375 -2.535156 0.4375 -3.140625 C 0.4375 -3.753906 0.5625 -4.316406 0.8125 -4.828125 C 1.0625 -5.347656 1.425781 -5.765625 1.90625 -6.078125 C 2.394531 -6.390625 2.992188 -6.546875 3.703125 -6.546875 C 4.304688 -6.546875 4.828125 -6.421875 5.265625 -6.171875 C 5.710938 -5.929688 6.054688 -5.59375 6.296875 -5.15625 C 6.546875 -4.71875 6.671875 -4.210938 6.671875 -3.640625 C 6.671875 -3.429688 6.65625 -3.234375 6.625 -3.046875 C 6.601562 -2.859375 6.578125 -2.707031 6.546875 -2.59375 L 2.46875 -2.59375 C 2.5625 -2.164062 2.738281 -1.878906 3 -1.734375 C 3.257812 -1.585938 3.578125 -1.515625 3.953125 -1.515625 C 4.253906 -1.515625 4.53125 -1.566406 4.78125 -1.671875 C 5.03125 -1.785156 5.226562 -1.9375 5.375 -2.125 Z M 3.65625 -4.9375 C 3.019531 -4.9375 2.628906 -4.625 2.484375 -4 L 4.75 -4 C 4.738281 -4.207031 4.644531 -4.414062 4.46875 -4.625 C 4.289062 -4.832031 4.019531 -4.9375 3.65625 -4.9375 Z M 3.65625 -4.9375 "/></g></g></g><g fill="#000091" fill-opacity="1"><g transform="translate(60.667739, 22.964672)"><g><path d="M 0.8125 0 L 0.8125 -6.296875 L 2.796875 -6.296875 L 2.796875 -5.96875 C 2.984375 -6.132812 3.203125 -6.269531 3.453125 -6.375 C 3.710938 -6.488281 4.007812 -6.546875 4.34375 -6.546875 C 4.707031 -6.546875 5.046875 -6.46875 5.359375 -6.3125 C 5.679688 -6.164062 5.945312 -5.9375 6.15625 -5.625 C 6.363281 -5.875 6.625 -6.085938 6.9375 -6.265625 C 7.25 -6.453125 7.660156 -6.546875 8.171875 -6.546875 C 8.597656 -6.546875 8.984375 -6.441406 9.328125 -6.234375 C 9.679688 -6.035156 9.960938 -5.734375 10.171875 -5.328125 C 10.378906 -4.929688 10.484375 -4.425781 10.484375 -3.8125 L 10.484375 0 L 8.484375 0 L 8.484375 -3.734375 C 8.484375 -4.015625 8.410156 -4.242188 8.265625 -4.421875 C 8.128906 -4.597656 7.921875 -4.6875 7.640625 -4.6875 C 7.429688 -4.6875 7.257812 -4.632812 7.125 -4.53125 C 6.988281 -4.4375 6.882812 -4.332031 6.8125 -4.21875 C 6.738281 -4.113281 6.6875 -4.03125 6.65625 -3.96875 C 6.65625 -3.945312 6.65625 -3.921875 6.65625 -3.890625 C 6.65625 -3.867188 6.65625 -3.84375 6.65625 -3.8125 L 6.65625 0 L 4.65625 0 L 4.65625 -3.734375 C 4.65625 -4.015625 4.582031 -4.242188 4.4375 -4.421875 C 4.300781 -4.597656 4.09375 -4.6875 3.8125 -4.6875 C 3.601562 -4.6875 3.429688 -4.632812 3.296875 -4.53125 C 3.160156 -4.4375 3.054688 -4.328125 2.984375 -4.203125 C 2.910156 -4.085938 2.847656 -3.992188 2.796875 -3.921875 L 2.796875 0 Z M 0.8125 0 "/></g></g></g><g fill="#000091" fill-opacity="1"><g transform="translate(71.310406, 22.964672)"><g><path d="M 6.765625 -1.015625 C 6.460938 -0.617188 6.070312 -0.304688 5.59375 -0.078125 C 5.113281 0.140625 4.570312 0.25 3.96875 0.25 C 3.195312 0.25 2.546875 0.09375 2.015625 -0.21875 C 1.492188 -0.53125 1.097656 -0.941406 0.828125 -1.453125 C 0.566406 -1.972656 0.4375 -2.535156 0.4375 -3.140625 C 0.4375 -3.753906 0.5625 -4.316406 0.8125 -4.828125 C 1.0625 -5.347656 1.425781 -5.765625 1.90625 -6.078125 C 2.394531 -6.390625 2.992188 -6.546875 3.703125 -6.546875 C 4.304688 -6.546875 4.828125 -6.421875 5.265625 -6.171875 C 5.710938 -5.929688 6.054688 -5.59375 6.296875 -5.15625 C 6.546875 -4.71875 6.671875 -4.210938 6.671875 -3.640625 C 6.671875 -3.429688 6.65625 -3.234375 6.625 -3.046875 C 6.601562 -2.859375 6.578125 -2.707031 6.546875 -2.59375 L 2.46875 -2.59375 C 2.5625 -2.164062 2.738281 -1.878906 3 -1.734375 C 3.257812 -1.585938 3.578125 -1.515625 3.953125 -1.515625 C 4.253906 -1.515625 4.53125 -1.566406 4.78125 -1.671875 C 5.03125 -1.785156 5.226562 -1.9375 5.375 -2.125 Z M 3.65625 -4.9375 C 3.019531 -4.9375 2.628906 -4.625 2.484375 -4 L 4.75 -4 C 4.738281 -4.207031 4.644531 -4.414062 4.46875 -4.625 C 4.289062 -4.832031 4.019531 -4.9375 3.65625 -4.9375 Z M 3.65625 -4.9375 "/></g></g></g><g fill="#000091" fill-opacity="1"><g transform="translate(77.923041, 22.964672)"><g><path d="M 0.8125 0 L 0.8125 -6.296875 L 2.796875 -6.296875 L 2.796875 -5.9375 C 3.003906 -6.113281 3.242188 -6.257812 3.515625 -6.375 C 3.785156 -6.488281 4.101562 -6.546875 4.46875 -6.546875 C 4.914062 -6.546875 5.320312 -6.441406 5.6875 -6.234375 C 6.050781 -6.023438 6.34375 -5.707031 6.5625 -5.28125 C 6.789062 -4.863281 6.90625 -4.335938 6.90625 -3.703125 L 6.90625 0 L 4.90625 0 L 4.90625 -3.609375 C 4.90625 -3.921875 4.820312 -4.175781 4.65625 -4.375 C 4.488281 -4.582031 4.25 -4.6875 3.9375 -4.6875 C 3.695312 -4.6875 3.5 -4.632812 3.34375 -4.53125 C 3.195312 -4.4375 3.078125 -4.328125 2.984375 -4.203125 C 2.898438 -4.085938 2.835938 -3.992188 2.796875 -3.921875 L 2.796875 0 Z M 0.8125 0 "/></g></g></g><g fill="#000091" fill-opacity="1"><g transform="translate(84.984843, 22.964672)"><g><path d="M 1.25 -2.453125 L 1.25 -4.515625 L 0.078125 -4.515625 L 0.078125 -6.296875 L 1.25 -6.296875 L 1.25 -7.859375 L 3.25 -7.859375 L 3.25 -6.296875 L 4.96875 -6.296875 L 4.96875 -4.515625 L 3.25 -4.515625 L 3.25 -2.453125 C 3.25 -1.929688 3.507812 -1.671875 4.03125 -1.671875 C 4.257812 -1.671875 4.453125 -1.6875 4.609375 -1.71875 C 4.765625 -1.75 4.890625 -1.78125 4.984375 -1.8125 L 4.984375 -0.09375 C 4.816406 -0.0195312 4.628906 0.03125 4.421875 0.0625 C 4.210938 0.101562 3.960938 0.125 3.671875 0.125 C 2.816406 0.125 2.195312 -0.109375 1.8125 -0.578125 C 1.4375 -1.046875 1.25 -1.671875 1.25 -2.453125 Z M 1.25 -2.453125 "/></g></g></g></svg>