<svg xmlns="http://www.w3.org/2000/svg" width="800.0" zoomAndPan="magnify" viewBox="0.0 -2.4999999936881068e-06 600.0 187.5" height="250.0" preserveAspectRatio="xMidYMid meet" version="1.0"><defs><g /><clipPath id="2f05ea488c"><path d="M 369.210938 14.730469 L 591.753906 14.730469 L 591.753906 168.070312 L 369.210938 168.070312 Z M 369.210938 14.730469 " clip-rule="nonzero" /></clipPath></defs><g clip-path="url(#2f05ea488c)"><path fill="#ff6218" d="M 112 159.640625 C 109.613281 159.640625 107.675781 161.578125 107.675781 163.964844 C 107.675781 166.351562 109.613281 168.285156 112 168.285156 L 555.898438 168.285156 C 560.171875 168.285156 564.058594 166.539062 566.871094 163.726562 C 569.679688 160.914062 571.429688 157.027344 571.429688 152.753906 L 571.429688 98.144531 L 579.132812 98.144531 C 582.140625 98.144531 584.617188 97.355469 586.550781 96.046875 C 588.6875 94.601562 590.109375 92.554688 590.820312 90.230469 L 590.824219 90.234375 C 591.484375 88.074219 591.507812 85.695312 590.914062 83.390625 C 590.207031 80.636719 588.621094 77.953125 586.207031 75.875 L 520.023438 18.820312 C 516.855469 16.09375 512.75 14.730469 508.683594 14.730469 C 504.621094 14.730469 500.515625 16.09375 497.347656 18.820312 L 452.871094 57.292969 C 451.070312 58.847656 450.875 61.570312 452.429688 63.371094 C 453.984375 65.171875 456.710938 65.367188 458.507812 63.8125 L 502.988281 25.34375 C 504.507812 24.03125 506.574219 23.375 508.683594 23.375 C 510.792969 23.375 512.863281 24.03125 514.386719 25.34375 L 580.570312 82.394531 C 581.609375 83.292969 582.285156 84.40625 582.570312 85.515625 C 582.769531 86.296875 582.777344 87.058594 582.582031 87.699219 L 582.589844 87.699219 L 582.582031 87.714844 C 582.441406 88.179688 582.152344 88.59375 581.71875 88.886719 C 581.15625 89.269531 580.300781 89.496094 579.132812 89.496094 L 567.105469 89.496094 C 564.71875 89.496094 562.78125 91.433594 562.78125 93.820312 L 562.78125 152.753906 C 562.78125 154.644531 562.003906 156.367188 560.757812 157.613281 C 559.507812 158.863281 557.785156 159.640625 555.898438 159.640625 Z M 112 159.640625 " fill-opacity="1" fill-rule="nonzero" /></g><g fill="#ff6218" fill-opacity="1"><g transform="translate(8.234164, 138.989414)"><g><path d="M 1.984375 -7.453125 L 11.78125 -16.5 C 13.207031 -14.625 14.894531 -13.128906 16.84375 -12.015625 C 18.789062 -10.898438 20.726562 -10.34375 22.65625 -10.34375 C 24.226562 -10.34375 25.457031 -10.695312 26.34375 -11.40625 C 27.238281 -12.113281 27.6875 -13.226562 27.6875 -14.75 C 27.6875 -16.125 27.125 -17.238281 26 -18.09375 C 24.882812 -18.957031 23.425781 -19.742188 21.625 -20.453125 C 19.832031 -21.160156 17.945312 -21.945312 15.96875 -22.8125 C 13.988281 -23.675781 12.097656 -24.738281 10.296875 -26 C 8.503906 -27.269531 7.050781 -28.90625 5.9375 -30.90625 C 4.820312 -32.914062 4.265625 -35.441406 4.265625 -38.484375 C 4.265625 -41.472656 5.035156 -44.195312 6.578125 -46.65625 C 8.117188 -49.113281 10.257812 -51.078125 13 -52.546875 C 15.738281 -54.015625 18.910156 -54.75 22.515625 -54.75 C 26.722656 -54.75 30.472656 -53.910156 33.765625 -52.234375 C 37.054688 -50.566406 39.945312 -48.363281 42.4375 -45.625 L 32.625 -36.65625 C 31.050781 -38.476562 29.425781 -39.984375 27.75 -41.171875 C 26.082031 -42.367188 24.363281 -42.96875 22.59375 -42.96875 C 21.21875 -42.96875 20.097656 -42.597656 19.234375 -41.859375 C 18.378906 -41.128906 17.953125 -40.207031 17.953125 -39.09375 C 17.953125 -37.769531 18.507812 -36.6875 19.625 -35.84375 C 20.738281 -35.007812 22.191406 -34.238281 23.984375 -33.53125 C 25.785156 -32.820312 27.675781 -32.035156 29.65625 -31.171875 C 31.632812 -30.316406 33.523438 -29.242188 35.328125 -27.953125 C 37.128906 -26.660156 38.585938 -24.984375 39.703125 -22.921875 C 40.816406 -20.867188 41.375 -18.296875 41.375 -15.203125 C 41.320312 -11.660156 40.445312 -8.644531 38.75 -6.15625 C 37.050781 -3.675781 34.804688 -1.773438 32.015625 -0.453125 C 29.222656 0.859375 26.15625 1.515625 22.8125 1.515625 C 17.894531 1.515625 13.800781 0.71875 10.53125 -0.875 C 7.257812 -2.46875 4.410156 -4.660156 1.984375 -7.453125 Z M 1.984375 -7.453125 " /></g></g></g><g fill="#ff6218" fill-opacity="1"><g transform="translate(49.369696, 138.989414)"><g><path d="M 11.109375 -42.515625 C 9.734375 -42.515625 8.460938 -42.867188 7.296875 -43.578125 C 6.128906 -44.285156 5.191406 -45.222656 4.484375 -46.390625 C 3.773438 -47.554688 3.421875 -48.820312 3.421875 -50.1875 C 3.421875 -52.269531 4.179688 -54.054688 5.703125 -55.546875 C 7.222656 -57.046875 9.023438 -57.796875 11.109375 -57.796875 C 12.472656 -57.796875 13.722656 -57.453125 14.859375 -56.765625 C 16.003906 -56.085938 16.914062 -55.164062 17.59375 -54 C 18.28125 -52.832031 18.625 -51.5625 18.625 -50.1875 C 18.625 -48.820312 18.28125 -47.554688 17.59375 -46.390625 C 16.914062 -45.222656 16.003906 -44.285156 14.859375 -43.578125 C 13.722656 -42.867188 12.472656 -42.515625 11.109375 -42.515625 Z M 4.9375 0 L 4.9375 -38.328125 L 17.03125 -38.328125 L 17.03125 0 Z M 4.9375 0 " /></g></g></g><g fill="#ff6218" fill-opacity="1"><g transform="translate(67.770058, 138.989414)"><g><path d="M 1.671875 6.546875 C 1.671875 4.660156 2.113281 2.957031 3 1.4375 C 3.882812 -0.0820312 5.113281 -1.421875 6.6875 -2.578125 C 5.269531 -4.304688 4.5625 -6.160156 4.5625 -8.140625 C 4.5625 -9.710938 4.863281 -11.117188 5.46875 -12.359375 C 6.082031 -13.597656 7.097656 -14.773438 8.515625 -15.890625 C 6.835938 -17.160156 5.566406 -18.691406 4.703125 -20.484375 C 3.847656 -22.285156 3.421875 -24.253906 3.421875 -26.390625 C 3.421875 -28.921875 4.039062 -31.203125 5.28125 -33.234375 C 6.519531 -35.265625 8.304688 -36.875 10.640625 -38.0625 C 12.972656 -39.25 15.8125 -39.84375 19.15625 -39.84375 C 22.25 -39.84375 24.9375 -39.335938 27.21875 -38.328125 L 40.984375 -38.328125 L 40.984375 -28.21875 L 34.984375 -28.21875 C 35.035156 -27.90625 35.0625 -27.597656 35.0625 -27.296875 C 35.0625 -26.992188 35.0625 -26.691406 35.0625 -26.390625 C 35.0625 -23.859375 34.453125 -21.5625 33.234375 -19.5 C 32.015625 -17.445312 30.222656 -15.828125 27.859375 -14.640625 C 25.503906 -13.453125 22.601562 -12.859375 19.15625 -12.859375 C 18.800781 -12.859375 18.445312 -12.859375 18.09375 -12.859375 C 17.738281 -12.859375 17.382812 -12.878906 17.03125 -12.921875 C 16.570312 -12.472656 16.34375 -11.96875 16.34375 -11.40625 C 16.34375 -10.75 16.53125 -10.28125 16.90625 -10 C 17.289062 -9.71875 17.789062 -9.578125 18.40625 -9.578125 L 27.15625 -9.578125 C 30.238281 -9.578125 32.894531 -9.019531 35.125 -7.90625 C 37.363281 -6.789062 39.078125 -5.269531 40.265625 -3.34375 C 41.453125 -1.414062 42.046875 0.757812 42.046875 3.1875 C 42.046875 6.132812 41.195312 8.796875 39.5 11.171875 C 37.800781 13.554688 35.429688 15.457031 32.390625 16.875 C 29.347656 18.300781 25.773438 19.015625 21.671875 19.015625 C 15.234375 19.015625 10.289062 17.972656 6.84375 15.890625 C 3.394531 13.816406 1.671875 10.703125 1.671875 6.546875 Z M 19.234375 -21.671875 C 20.703125 -21.671875 21.914062 -22.0625 22.875 -22.84375 C 23.84375 -23.632812 24.328125 -24.816406 24.328125 -26.390625 C 24.328125 -27.960938 23.84375 -29.128906 22.875 -29.890625 C 21.914062 -30.648438 20.703125 -31.03125 19.234375 -31.03125 C 17.765625 -31.03125 16.5625 -30.632812 15.625 -29.84375 C 14.6875 -29.0625 14.21875 -27.910156 14.21875 -26.390625 C 14.21875 -24.816406 14.6875 -23.632812 15.625 -22.84375 C 16.5625 -22.0625 17.765625 -21.671875 19.234375 -21.671875 Z M 12.921875 4.71875 C 12.921875 6.1875 13.59375 7.347656 14.9375 8.203125 C 16.28125 9.066406 18.472656 9.5 21.515625 9.5 C 24.609375 9.5 26.828125 9.015625 28.171875 8.046875 C 29.515625 7.085938 30.1875 5.898438 30.1875 4.484375 C 30.1875 3.316406 29.804688 2.390625 29.046875 1.703125 C 28.285156 1.023438 27.144531 0.6875 25.625 0.6875 L 14.453125 0.6875 C 14.046875 1.1875 13.6875 1.753906 13.375 2.390625 C 13.070312 3.023438 12.921875 3.800781 12.921875 4.71875 Z M 12.921875 4.71875 " /></g></g></g><g fill="#ff6218" fill-opacity="1"><g transform="translate(106.776553, 138.989414)"><g><path d="M 4.9375 0 L 4.9375 -38.328125 L 17.03125 -38.328125 L 17.03125 -36.203125 C 18.300781 -37.265625 19.757812 -38.132812 21.40625 -38.8125 C 23.050781 -39.5 24.988281 -39.84375 27.21875 -39.84375 C 29.957031 -39.84375 32.441406 -39.207031 34.671875 -37.9375 C 36.910156 -36.675781 38.695312 -34.765625 40.03125 -32.203125 C 41.375 -29.640625 42.046875 -26.410156 42.046875 -22.515625 L 42.046875 0 L 29.890625 0 L 29.890625 -21.984375 C 29.890625 -23.910156 29.378906 -25.476562 28.359375 -26.6875 C 27.347656 -27.90625 25.878906 -28.515625 23.953125 -28.515625 C 22.535156 -28.515625 21.359375 -28.222656 20.421875 -27.640625 C 19.484375 -27.054688 18.75 -26.394531 18.21875 -25.65625 C 17.6875 -24.925781 17.289062 -24.332031 17.03125 -23.875 L 17.03125 0 Z M 4.9375 0 " /></g></g></g><g fill="#ff6218" fill-opacity="1"><g transform="translate(149.813028, 138.989414)"><g><path d="M 16.046875 1.140625 C 12.191406 1.140625 9.035156 0.078125 6.578125 -2.046875 C 4.117188 -4.179688 2.890625 -7.097656 2.890625 -10.796875 C 2.890625 -13.734375 3.988281 -16.253906 6.1875 -18.359375 C 8.394531 -20.460938 11.578125 -21.847656 15.734375 -22.515625 L 26.546875 -24.328125 C 26.492188 -25.804688 25.894531 -27.023438 24.75 -27.984375 C 23.613281 -28.953125 22.15625 -29.4375 20.375 -29.4375 C 18.800781 -29.4375 17.40625 -29.078125 16.1875 -28.359375 C 14.976562 -27.648438 13.941406 -26.664062 13.078125 -25.40625 L 4.265625 -32.09375 C 6.035156 -34.519531 8.335938 -36.414062 11.171875 -37.78125 C 14.015625 -39.15625 17.210938 -39.84375 20.765625 -39.84375 C 24.816406 -39.84375 28.160156 -39.117188 30.796875 -37.671875 C 33.429688 -36.234375 35.382812 -34.320312 36.65625 -31.9375 C 37.925781 -29.550781 38.5625 -26.96875 38.5625 -24.1875 L 38.5625 0 L 26.546875 0 L 26.546875 -2.890625 C 25.472656 -1.722656 23.960938 -0.757812 22.015625 0 C 20.066406 0.757812 18.078125 1.140625 16.046875 1.140625 Z M 14.828125 -11.40625 C 14.828125 -10.445312 15.179688 -9.675781 15.890625 -9.09375 C 16.597656 -8.507812 17.535156 -8.21875 18.703125 -8.21875 C 20.628906 -8.21875 22.226562 -8.617188 23.5 -9.421875 C 24.769531 -10.234375 25.785156 -11.195312 26.546875 -12.3125 L 26.546875 -16.125 L 19.015625 -14.828125 C 17.441406 -14.578125 16.347656 -14.160156 15.734375 -13.578125 C 15.128906 -12.992188 14.828125 -12.269531 14.828125 -11.40625 Z M 14.828125 -11.40625 " /></g></g></g><g fill="#ff6218" fill-opacity="1"><g transform="translate(189.351781, 138.989414)"><g><path d="M 4.9375 0 L 4.9375 -57.03125 L 17.03125 -57.03125 L 17.03125 0 Z M 4.9375 0 " /></g></g></g><g fill="#ff6218" fill-opacity="1"><g transform="translate(207.752148, 138.989414)"><g /></g></g><g fill="#000091" fill-opacity="1"><g transform="translate(224.716661, 138.989414)"><g><path d="M 4.9375 0 L 4.9375 -57.03125 L 17.03125 -57.03125 L 17.03125 0 Z M 4.9375 0 " /></g></g></g><g fill="#000091" fill-opacity="1"><g transform="translate(243.117023, 138.989414)"><g><path d="M 23.875 -39.84375 C 28.082031 -39.84375 31.769531 -38.929688 34.9375 -37.109375 C 38.113281 -35.285156 40.585938 -32.8125 42.359375 -29.6875 C 44.128906 -26.570312 45.015625 -23.0625 45.015625 -19.15625 C 45.015625 -15.257812 44.128906 -11.75 42.359375 -8.625 C 40.585938 -5.507812 38.113281 -3.039062 34.9375 -1.21875 C 31.769531 0.601562 28.082031 1.515625 23.875 1.515625 C 19.664062 1.515625 15.960938 0.601562 12.765625 -1.21875 C 9.578125 -3.039062 7.09375 -5.507812 5.3125 -8.625 C 3.539062 -11.75 2.65625 -15.257812 2.65625 -19.15625 C 2.65625 -23.0625 3.539062 -26.570312 5.3125 -29.6875 C 7.09375 -32.8125 9.578125 -35.285156 12.765625 -37.109375 C 15.960938 -38.929688 19.664062 -39.84375 23.875 -39.84375 Z M 23.953125 -9.8125 C 26.390625 -9.8125 28.429688 -10.671875 30.078125 -12.390625 C 31.722656 -14.117188 32.546875 -16.375 32.546875 -19.15625 C 32.546875 -22.050781 31.722656 -24.332031 30.078125 -26 C 28.429688 -27.675781 26.390625 -28.515625 23.953125 -28.515625 C 21.472656 -28.515625 19.394531 -27.664062 17.71875 -25.96875 C 16.039062 -24.269531 15.203125 -22 15.203125 -19.15625 C 15.203125 -16.320312 16.039062 -14.054688 17.71875 -12.359375 C 19.394531 -10.660156 21.472656 -9.8125 23.953125 -9.8125 Z M 23.953125 -9.8125 " /></g></g></g><g fill="#000091" fill-opacity="1"><g transform="translate(287.218029, 138.989414)"><g><path d="M 1.671875 6.546875 C 1.671875 4.660156 2.113281 2.957031 3 1.4375 C 3.882812 -0.0820312 5.113281 -1.421875 6.6875 -2.578125 C 5.269531 -4.304688 4.5625 -6.160156 4.5625 -8.140625 C 4.5625 -9.710938 4.863281 -11.117188 5.46875 -12.359375 C 6.082031 -13.597656 7.097656 -14.773438 8.515625 -15.890625 C 6.835938 -17.160156 5.566406 -18.691406 4.703125 -20.484375 C 3.847656 -22.285156 3.421875 -24.253906 3.421875 -26.390625 C 3.421875 -28.921875 4.039062 -31.203125 5.28125 -33.234375 C 6.519531 -35.265625 8.304688 -36.875 10.640625 -38.0625 C 12.972656 -39.25 15.8125 -39.84375 19.15625 -39.84375 C 22.25 -39.84375 24.9375 -39.335938 27.21875 -38.328125 L 40.984375 -38.328125 L 40.984375 -28.21875 L 34.984375 -28.21875 C 35.035156 -27.90625 35.0625 -27.597656 35.0625 -27.296875 C 35.0625 -26.992188 35.0625 -26.691406 35.0625 -26.390625 C 35.0625 -23.859375 34.453125 -21.5625 33.234375 -19.5 C 32.015625 -17.445312 30.222656 -15.828125 27.859375 -14.640625 C 25.503906 -13.453125 22.601562 -12.859375 19.15625 -12.859375 C 18.800781 -12.859375 18.445312 -12.859375 18.09375 -12.859375 C 17.738281 -12.859375 17.382812 -12.878906 17.03125 -12.921875 C 16.570312 -12.472656 16.34375 -11.96875 16.34375 -11.40625 C 16.34375 -10.75 16.53125 -10.28125 16.90625 -10 C 17.289062 -9.71875 17.789062 -9.578125 18.40625 -9.578125 L 27.15625 -9.578125 C 30.238281 -9.578125 32.894531 -9.019531 35.125 -7.90625 C 37.363281 -6.789062 39.078125 -5.269531 40.265625 -3.34375 C 41.453125 -1.414062 42.046875 0.757812 42.046875 3.1875 C 42.046875 6.132812 41.195312 8.796875 39.5 11.171875 C 37.800781 13.554688 35.429688 15.457031 32.390625 16.875 C 29.347656 18.300781 25.773438 19.015625 21.671875 19.015625 C 15.234375 19.015625 10.289062 17.972656 6.84375 15.890625 C 3.394531 13.816406 1.671875 10.703125 1.671875 6.546875 Z M 19.234375 -21.671875 C 20.703125 -21.671875 21.914062 -22.0625 22.875 -22.84375 C 23.84375 -23.632812 24.328125 -24.816406 24.328125 -26.390625 C 24.328125 -27.960938 23.84375 -29.128906 22.875 -29.890625 C 21.914062 -30.648438 20.703125 -31.03125 19.234375 -31.03125 C 17.765625 -31.03125 16.5625 -30.632812 15.625 -29.84375 C 14.6875 -29.0625 14.21875 -27.910156 14.21875 -26.390625 C 14.21875 -24.816406 14.6875 -23.632812 15.625 -22.84375 C 16.5625 -22.0625 17.765625 -21.671875 19.234375 -21.671875 Z M 12.921875 4.71875 C 12.921875 6.1875 13.59375 7.347656 14.9375 8.203125 C 16.28125 9.066406 18.472656 9.5 21.515625 9.5 C 24.609375 9.5 26.828125 9.015625 28.171875 8.046875 C 29.515625 7.085938 30.1875 5.898438 30.1875 4.484375 C 30.1875 3.316406 29.804688 2.390625 29.046875 1.703125 C 28.285156 1.023438 27.144531 0.6875 25.625 0.6875 L 14.453125 0.6875 C 14.046875 1.1875 13.6875 1.753906 13.375 2.390625 C 13.070312 3.023438 12.921875 3.800781 12.921875 4.71875 Z M 12.921875 4.71875 " /></g></g></g><g fill="#000091" fill-opacity="1"><g transform="translate(326.224524, 138.989414)"><g><path d="M 41.21875 -6.15625 C 39.394531 -3.769531 37.023438 -1.894531 34.109375 -0.53125 C 31.191406 0.832031 27.882812 1.515625 24.1875 1.515625 C 19.46875 1.515625 15.507812 0.566406 12.3125 -1.328125 C 9.125 -3.234375 6.71875 -5.753906 5.09375 -8.890625 C 3.46875 -12.035156 2.65625 -15.457031 2.65625 -19.15625 C 2.65625 -22.863281 3.414062 -26.285156 4.9375 -29.421875 C 6.457031 -32.566406 8.703125 -35.085938 11.671875 -36.984375 C 14.640625 -38.890625 18.28125 -39.84375 22.59375 -39.84375 C 26.238281 -39.84375 29.40625 -39.09375 32.09375 -37.59375 C 34.78125 -36.101562 36.867188 -34.039062 38.359375 -31.40625 C 39.859375 -28.769531 40.609375 -25.703125 40.609375 -22.203125 C 40.609375 -20.929688 40.53125 -19.722656 40.375 -18.578125 C 40.226562 -17.441406 40.050781 -16.519531 39.84375 -15.8125 L 15.0625 -15.8125 C 15.613281 -13.226562 16.6875 -11.492188 18.28125 -10.609375 C 19.882812 -9.722656 21.828125 -9.28125 24.109375 -9.28125 C 25.929688 -9.28125 27.601562 -9.609375 29.125 -10.265625 C 30.644531 -10.921875 31.835938 -11.804688 32.703125 -12.921875 Z M 22.28125 -30.109375 C 18.425781 -30.109375 16.046875 -28.179688 15.140625 -24.328125 L 28.890625 -24.328125 C 28.847656 -25.648438 28.289062 -26.941406 27.21875 -28.203125 C 26.15625 -29.472656 24.507812 -30.109375 22.28125 -30.109375 Z M 22.28125 -30.109375 " /></g></g></g><g fill="#000091" fill-opacity="1"><g transform="translate(366.52366, 138.989414)"><g><path d="M 4.9375 0 L 4.9375 -38.328125 L 17.03125 -38.328125 L 17.03125 -36.34375 C 18.195312 -37.363281 19.550781 -38.203125 21.09375 -38.859375 C 22.644531 -39.515625 24.4375 -39.84375 26.46875 -39.84375 C 28.695312 -39.84375 30.773438 -39.382812 32.703125 -38.46875 C 34.628906 -37.5625 36.222656 -36.171875 37.484375 -34.296875 C 38.753906 -35.765625 40.335938 -37.054688 42.234375 -38.171875 C 44.140625 -39.285156 46.664062 -39.84375 49.8125 -39.84375 C 52.394531 -39.84375 54.75 -39.234375 56.875 -38.015625 C 59.007812 -36.804688 60.707031 -34.972656 61.96875 -32.515625 C 63.238281 -30.054688 63.875 -26.972656 63.875 -23.265625 L 63.875 0 L 51.71875 0 L 51.71875 -22.734375 C 51.71875 -24.460938 51.285156 -25.859375 50.421875 -26.921875 C 49.554688 -27.984375 48.265625 -28.515625 46.546875 -28.515625 C 45.273438 -28.515625 44.234375 -28.222656 43.421875 -27.640625 C 42.609375 -27.054688 41.972656 -26.421875 41.515625 -25.734375 C 41.066406 -25.054688 40.738281 -24.539062 40.53125 -24.1875 C 40.53125 -24.03125 40.53125 -23.875 40.53125 -23.71875 C 40.53125 -23.570312 40.53125 -23.421875 40.53125 -23.265625 L 40.53125 0 L 28.359375 0 L 28.359375 -22.734375 C 28.359375 -24.460938 27.925781 -25.859375 27.0625 -26.921875 C 26.207031 -27.984375 24.914062 -28.515625 23.1875 -28.515625 C 21.925781 -28.515625 20.890625 -28.222656 20.078125 -27.640625 C 19.265625 -27.054688 18.628906 -26.394531 18.171875 -25.65625 C 17.710938 -24.925781 17.332031 -24.332031 17.03125 -23.875 L 17.03125 0 Z M 4.9375 0 " /></g></g></g><g fill="#000091" fill-opacity="1"><g transform="translate(431.382866, 138.989414)"><g><path d="M 41.21875 -6.15625 C 39.394531 -3.769531 37.023438 -1.894531 34.109375 -0.53125 C 31.191406 0.832031 27.882812 1.515625 24.1875 1.515625 C 19.46875 1.515625 15.507812 0.566406 12.3125 -1.328125 C 9.125 -3.234375 6.71875 -5.753906 5.09375 -8.890625 C 3.46875 -12.035156 2.65625 -15.457031 2.65625 -19.15625 C 2.65625 -22.863281 3.414062 -26.285156 4.9375 -29.421875 C 6.457031 -32.566406 8.703125 -35.085938 11.671875 -36.984375 C 14.640625 -38.890625 18.28125 -39.84375 22.59375 -39.84375 C 26.238281 -39.84375 29.40625 -39.09375 32.09375 -37.59375 C 34.78125 -36.101562 36.867188 -34.039062 38.359375 -31.40625 C 39.859375 -28.769531 40.609375 -25.703125 40.609375 -22.203125 C 40.609375 -20.929688 40.53125 -19.722656 40.375 -18.578125 C 40.226562 -17.441406 40.050781 -16.519531 39.84375 -15.8125 L 15.0625 -15.8125 C 15.613281 -13.226562 16.6875 -11.492188 18.28125 -10.609375 C 19.882812 -9.722656 21.828125 -9.28125 24.109375 -9.28125 C 25.929688 -9.28125 27.601562 -9.609375 29.125 -10.265625 C 30.644531 -10.921875 31.835938 -11.804688 32.703125 -12.921875 Z M 22.28125 -30.109375 C 18.425781 -30.109375 16.046875 -28.179688 15.140625 -24.328125 L 28.890625 -24.328125 C 28.847656 -25.648438 28.289062 -26.941406 27.21875 -28.203125 C 26.15625 -29.472656 24.507812 -30.109375 22.28125 -30.109375 Z M 22.28125 -30.109375 " /></g></g></g><g fill="#000091" fill-opacity="1"><g transform="translate(471.682003, 138.989414)"><g><path d="M 4.9375 0 L 4.9375 -38.328125 L 17.03125 -38.328125 L 17.03125 -36.203125 C 18.300781 -37.265625 19.757812 -38.132812 21.40625 -38.8125 C 23.050781 -39.5 24.988281 -39.84375 27.21875 -39.84375 C 29.957031 -39.84375 32.441406 -39.207031 34.671875 -37.9375 C 36.910156 -36.675781 38.695312 -34.765625 40.03125 -32.203125 C 41.375 -29.640625 42.046875 -26.410156 42.046875 -22.515625 L 42.046875 0 L 29.890625 0 L 29.890625 -21.984375 C 29.890625 -23.910156 29.378906 -25.476562 28.359375 -26.6875 C 27.347656 -27.90625 25.878906 -28.515625 23.953125 -28.515625 C 22.535156 -28.515625 21.359375 -28.222656 20.421875 -27.640625 C 19.484375 -27.054688 18.75 -26.394531 18.21875 -25.65625 C 17.6875 -24.925781 17.289062 -24.332031 17.03125 -23.875 L 17.03125 0 Z M 4.9375 0 " /></g></g></g><g fill="#000091" fill-opacity="1"><g transform="translate(514.718477, 138.989414)"><g><path d="M 7.609375 -14.90625 L 7.609375 -27.53125 L 0.453125 -27.53125 L 0.453125 -38.328125 L 7.609375 -38.328125 L 7.609375 -47.90625 L 19.765625 -47.90625 L 19.765625 -38.328125 L 30.265625 -38.328125 L 30.265625 -27.53125 L 19.765625 -27.53125 L 19.765625 -14.90625 C 19.765625 -11.757812 21.363281 -10.1875 24.5625 -10.1875 C 25.976562 -10.1875 27.15625 -10.273438 28.09375 -10.453125 C 29.03125 -10.628906 29.78125 -10.820312 30.34375 -11.03125 L 30.34375 -0.609375 C 29.332031 -0.148438 28.191406 0.191406 26.921875 0.421875 C 25.648438 0.648438 24.128906 0.765625 22.359375 0.765625 C 17.140625 0.765625 13.375 -0.664062 11.0625 -3.53125 C 8.757812 -6.394531 7.609375 -10.1875 7.609375 -14.90625 Z M 7.609375 -14.90625 " /></g></g></g></svg>