<svg xmlns="http://www.w3.org/2000/svg" width="500.0" zoomAndPan="magnify" viewBox="0.0 -4.499999988638592e-06 375.0 375.0" height="500.0" preserveAspectRatio="xMidYMid meet" version="1.0"><defs><g /><clipPath id="a4596b5bdb"><path d="M 17 27.621094 L 352.015625 27.621094 L 352.015625 258.621094 L 17 258.621094 Z M 17 27.621094 " clip-rule="nonzero" /></clipPath></defs><rect x="-37.5" width="450" fill="#ffffff" y="-37.499999" height="449.999989" fill-opacity="1" /><rect x="-37.5" width="450" fill="#ffffff" y="-37.499999" height="449.999989" fill-opacity="1" /><g clip-path="url(#a4596b5bdb)"><path fill="#ff6218" d="M 739.347656 245.882812 C 742.941406 245.882812 745.859375 248.796875 745.859375 252.394531 C 745.859375 255.988281 742.941406 258.902344 739.347656 258.902344 L 70.761719 258.902344 C 64.324219 258.902344 58.46875 256.273438 54.234375 252.035156 C 50 247.800781 47.367188 241.949219 47.367188 235.511719 L 47.367188 153.257812 L 35.765625 153.257812 C 31.234375 153.257812 27.503906 152.070312 24.59375 150.101562 C 21.371094 147.921875 19.234375 144.839844 18.160156 141.339844 L 18.152344 141.34375 C 17.15625 138.09375 17.125 134.511719 18.019531 131.035156 C 19.082031 126.890625 21.472656 122.847656 25.105469 119.714844 L 124.789062 33.785156 C 129.5625 29.675781 135.75 27.621094 141.871094 27.621094 C 147.988281 27.621094 154.175781 29.675781 158.945312 33.785156 L 225.9375 91.730469 C 228.648438 94.074219 228.945312 98.171875 226.601562 100.882812 C 224.257812 103.597656 220.15625 103.894531 217.445312 101.546875 L 150.453125 43.605469 C 148.160156 41.632812 145.046875 40.644531 141.871094 40.644531 C 138.695312 40.644531 135.574219 41.632812 133.28125 43.605469 L 33.601562 129.535156 C 32.03125 130.886719 31.015625 132.566406 30.585938 134.238281 C 30.285156 135.414062 30.273438 136.558594 30.566406 137.523438 L 30.558594 137.527344 L 30.566406 137.550781 C 30.78125 138.246094 31.214844 138.871094 31.867188 139.3125 C 32.714844 139.886719 34 140.234375 35.765625 140.234375 L 53.878906 140.234375 C 57.472656 140.234375 60.390625 143.152344 60.390625 146.746094 L 60.390625 235.511719 C 60.390625 238.355469 61.558594 240.949219 63.441406 242.832031 C 65.320312 244.710938 67.914062 245.882812 70.761719 245.882812 Z M 739.347656 245.882812 " fill-opacity="1" fill-rule="nonzero" /></g><g fill="#ff6218" fill-opacity="1"><g transform="translate(71.843796, 210.43569)"><g><path d="M 2.75 -10.390625 L 16.4375 -23 C 18.40625 -20.382812 20.75 -18.300781 23.46875 -16.75 C 26.195312 -15.195312 28.90625 -14.421875 31.59375 -14.421875 C 33.78125 -14.421875 35.488281 -14.914062 36.71875 -15.90625 C 37.957031 -16.894531 38.578125 -18.445312 38.578125 -20.5625 C 38.578125 -22.46875 37.800781 -24.019531 36.25 -25.21875 C 34.695312 -26.425781 32.664062 -27.523438 30.15625 -28.515625 C 27.644531 -29.503906 25.007812 -30.597656 22.25 -31.796875 C 19.5 -33.003906 16.867188 -34.488281 14.359375 -36.25 C 11.847656 -38.019531 9.816406 -40.300781 8.265625 -43.09375 C 6.710938 -45.882812 5.9375 -49.398438 5.9375 -53.640625 C 5.9375 -57.804688 7.015625 -61.601562 9.171875 -65.03125 C 11.328125 -68.457031 14.3125 -71.191406 18.125 -73.234375 C 21.9375 -75.285156 26.351562 -76.3125 31.375 -76.3125 C 37.238281 -76.3125 42.46875 -75.144531 47.0625 -72.8125 C 51.65625 -70.488281 55.679688 -67.414062 59.140625 -63.59375 L 45.46875 -51.09375 C 43.28125 -53.632812 41.019531 -55.734375 38.6875 -57.390625 C 36.351562 -59.054688 33.953125 -59.890625 31.484375 -59.890625 C 29.578125 -59.890625 28.019531 -59.375 26.8125 -58.34375 C 25.613281 -57.320312 25.015625 -56.035156 25.015625 -54.484375 C 25.015625 -52.648438 25.789062 -51.148438 27.34375 -49.984375 C 28.90625 -48.816406 30.9375 -47.738281 33.4375 -46.75 C 35.945312 -45.757812 38.578125 -44.660156 41.328125 -43.453125 C 44.085938 -42.253906 46.722656 -40.753906 49.234375 -38.953125 C 51.742188 -37.148438 53.773438 -34.816406 55.328125 -31.953125 C 56.878906 -29.097656 57.65625 -25.515625 57.65625 -21.203125 C 57.59375 -16.253906 56.375 -12.046875 54 -8.578125 C 51.632812 -5.117188 48.507812 -2.46875 44.625 -0.625 C 40.738281 1.207031 36.460938 2.125 31.796875 2.125 C 24.941406 2.125 19.234375 1.007812 14.671875 -1.21875 C 10.117188 -3.445312 6.144531 -6.503906 2.75 -10.390625 Z M 2.75 -10.390625 " /></g></g></g><g fill="#ff6218" fill-opacity="1"><g transform="translate(129.188663, 210.43569)"><g><path d="M 15.46875 -59.25 C 13.5625 -59.25 11.796875 -59.742188 10.171875 -60.734375 C 8.546875 -61.722656 7.238281 -63.03125 6.25 -64.65625 C 5.257812 -66.28125 4.765625 -68.046875 4.765625 -69.953125 C 4.765625 -72.859375 5.820312 -75.351562 7.9375 -77.4375 C 10.0625 -79.519531 12.570312 -80.5625 15.46875 -80.5625 C 17.382812 -80.5625 19.132812 -80.082031 20.71875 -79.125 C 22.3125 -78.175781 23.582031 -76.890625 24.53125 -75.265625 C 25.488281 -73.640625 25.96875 -71.867188 25.96875 -69.953125 C 25.96875 -68.046875 25.488281 -66.28125 24.53125 -64.65625 C 23.582031 -63.03125 22.3125 -61.722656 20.71875 -60.734375 C 19.132812 -59.742188 17.382812 -59.25 15.46875 -59.25 Z M 6.890625 0 L 6.890625 -53.421875 L 23.75 -53.421875 L 23.75 0 Z M 6.890625 0 " /></g></g></g><g fill="#ff6218" fill-opacity="1"><g transform="translate(154.839942, 210.43569)"><g><path d="M 2.328125 9.109375 C 2.328125 6.492188 2.945312 4.125 4.1875 2 C 5.425781 -0.113281 7.140625 -1.984375 9.328125 -3.609375 C 7.347656 -6.003906 6.359375 -8.582031 6.359375 -11.34375 C 6.359375 -13.53125 6.78125 -15.488281 7.625 -17.21875 C 8.476562 -18.957031 9.894531 -20.601562 11.875 -22.15625 C 9.539062 -23.914062 7.769531 -26.050781 6.5625 -28.5625 C 5.363281 -31.070312 4.765625 -33.8125 4.765625 -36.78125 C 4.765625 -40.3125 5.628906 -43.488281 7.359375 -46.3125 C 9.097656 -49.144531 11.59375 -51.390625 14.84375 -53.046875 C 18.09375 -54.710938 22.050781 -55.546875 26.71875 -55.546875 C 31.019531 -55.546875 34.765625 -54.835938 37.953125 -53.421875 L 57.140625 -53.421875 L 57.140625 -39.328125 L 48.765625 -39.328125 C 48.828125 -38.898438 48.859375 -38.472656 48.859375 -38.046875 C 48.859375 -37.628906 48.859375 -37.207031 48.859375 -36.78125 C 48.859375 -33.25 48.007812 -30.050781 46.3125 -27.1875 C 44.625 -24.320312 42.132812 -22.054688 38.84375 -20.390625 C 35.5625 -18.734375 31.519531 -17.90625 26.71875 -17.90625 C 26.21875 -17.90625 25.71875 -17.90625 25.21875 -17.90625 C 24.726562 -17.90625 24.238281 -17.941406 23.75 -18.015625 C 23.113281 -17.378906 22.796875 -16.675781 22.796875 -15.90625 C 22.796875 -14.976562 23.054688 -14.320312 23.578125 -13.9375 C 24.109375 -13.550781 24.800781 -13.359375 25.65625 -13.359375 L 37.84375 -13.359375 C 42.15625 -13.359375 45.863281 -12.578125 48.96875 -11.015625 C 52.082031 -9.460938 54.46875 -7.34375 56.125 -4.65625 C 57.789062 -1.976562 58.625 1.054688 58.625 4.453125 C 58.625 8.546875 57.4375 12.253906 55.0625 15.578125 C 52.695312 18.898438 49.394531 21.550781 45.15625 23.53125 C 40.914062 25.507812 35.929688 26.5 30.203125 26.5 C 21.234375 26.5 14.34375 25.050781 9.53125 22.15625 C 4.726562 19.257812 2.328125 14.910156 2.328125 9.109375 Z M 26.8125 -30.203125 C 28.863281 -30.203125 30.5625 -30.75 31.90625 -31.84375 C 33.25 -32.945312 33.921875 -34.59375 33.921875 -36.78125 C 33.921875 -38.96875 33.25 -40.59375 31.90625 -41.65625 C 30.5625 -42.71875 28.863281 -43.25 26.8125 -43.25 C 24.769531 -43.25 23.09375 -42.703125 21.78125 -41.609375 C 20.476562 -40.515625 19.828125 -38.90625 19.828125 -36.78125 C 19.828125 -34.59375 20.476562 -32.945312 21.78125 -31.84375 C 23.09375 -30.75 24.769531 -30.203125 26.8125 -30.203125 Z M 18.015625 6.578125 C 18.015625 8.617188 18.953125 10.238281 20.828125 11.4375 C 22.703125 12.644531 25.757812 13.25 30 13.25 C 34.3125 13.25 37.398438 12.578125 39.265625 11.234375 C 41.140625 9.890625 42.078125 8.226562 42.078125 6.25 C 42.078125 4.625 41.546875 3.332031 40.484375 2.375 C 39.429688 1.425781 37.84375 0.953125 35.71875 0.953125 L 20.140625 0.953125 C 19.578125 1.660156 19.082031 2.453125 18.65625 3.328125 C 18.226562 4.210938 18.015625 5.296875 18.015625 6.578125 Z M 18.015625 6.578125 " /></g></g></g><g fill="#ff6218" fill-opacity="1"><g transform="translate(209.216849, 210.43569)"><g><path d="M 6.890625 0 L 6.890625 -53.421875 L 23.75 -53.421875 L 23.75 -50.453125 C 25.507812 -51.941406 27.535156 -53.160156 29.828125 -54.109375 C 32.128906 -55.066406 34.835938 -55.546875 37.953125 -55.546875 C 41.765625 -55.546875 45.222656 -54.660156 48.328125 -52.890625 C 51.441406 -51.128906 53.9375 -48.460938 55.8125 -44.890625 C 57.6875 -41.316406 58.625 -36.8125 58.625 -31.375 L 58.625 0 L 41.65625 0 L 41.65625 -30.640625 C 41.65625 -33.316406 40.945312 -35.503906 39.53125 -37.203125 C 38.125 -38.898438 36.078125 -39.75 33.390625 -39.75 C 31.410156 -39.75 29.765625 -39.34375 28.453125 -38.53125 C 27.148438 -37.71875 26.128906 -36.796875 25.390625 -35.765625 C 24.648438 -34.742188 24.101562 -33.914062 23.75 -33.28125 L 23.75 0 Z M 6.890625 0 " /></g></g></g><g fill="#ff6218" fill-opacity="1"><g transform="translate(269.211688, 210.43569)"><g><path d="M 22.359375 1.59375 C 16.992188 1.59375 12.597656 0.109375 9.171875 -2.859375 C 5.742188 -5.828125 4.03125 -9.890625 4.03125 -15.046875 C 4.03125 -19.148438 5.566406 -22.664062 8.640625 -25.59375 C 11.710938 -28.53125 16.144531 -30.457031 21.9375 -31.375 L 37 -33.921875 C 36.925781 -35.972656 36.09375 -37.664062 34.5 -39 C 32.914062 -40.34375 30.882812 -41.015625 28.40625 -41.015625 C 26.21875 -41.015625 24.273438 -40.519531 22.578125 -39.53125 C 20.878906 -38.539062 19.429688 -37.164062 18.234375 -35.40625 L 5.9375 -44.734375 C 8.40625 -48.117188 11.617188 -50.765625 15.578125 -52.671875 C 19.535156 -54.585938 23.988281 -55.546875 28.9375 -55.546875 C 34.59375 -55.546875 39.253906 -54.535156 42.921875 -52.515625 C 46.597656 -50.503906 49.316406 -47.835938 51.078125 -44.515625 C 52.847656 -41.191406 53.734375 -37.585938 53.734375 -33.703125 L 53.734375 0 L 37 0 L 37 -4.03125 C 35.507812 -2.40625 33.40625 -1.0625 30.6875 0 C 27.96875 1.0625 25.191406 1.59375 22.359375 1.59375 Z M 20.671875 -15.90625 C 20.671875 -14.5625 21.164062 -13.484375 22.15625 -12.671875 C 23.144531 -11.859375 24.453125 -11.453125 26.078125 -11.453125 C 28.765625 -11.453125 30.988281 -12.015625 32.75 -13.140625 C 34.519531 -14.273438 35.9375 -15.617188 37 -17.171875 L 37 -22.46875 L 26.5 -20.671875 C 24.3125 -20.316406 22.789062 -19.734375 21.9375 -18.921875 C 21.09375 -18.109375 20.671875 -17.101562 20.671875 -15.90625 Z M 20.671875 -15.90625 " /></g></g></g><g fill="#ff6218" fill-opacity="1"><g transform="translate(324.330581, 210.43569)"><g><path d="M 6.890625 0 L 6.890625 -79.5 L 23.75 -79.5 L 23.75 0 Z M 6.890625 0 " /></g></g></g><g fill="#000091" fill-opacity="1"><g transform="translate(63.908972, 326.762063)"><g><path d="M 4.4375 0 L 4.4375 -51.25 L 15.3125 -51.25 L 15.3125 0 Z M 4.4375 0 " /></g></g></g><g fill="#000091" fill-opacity="1"><g transform="translate(80.440909, 326.762063)"><g><path d="M 21.453125 -35.796875 C 25.234375 -35.796875 28.546875 -34.976562 31.390625 -33.34375 C 34.242188 -31.707031 36.46875 -29.488281 38.0625 -26.6875 C 39.65625 -23.882812 40.453125 -20.726562 40.453125 -17.21875 C 40.453125 -13.707031 39.65625 -10.550781 38.0625 -7.75 C 36.46875 -4.945312 34.242188 -2.726562 31.390625 -1.09375 C 28.546875 0.539062 25.234375 1.359375 21.453125 1.359375 C 17.671875 1.359375 14.34375 0.539062 11.46875 -1.09375 C 8.601562 -2.726562 6.375 -4.945312 4.78125 -7.75 C 3.1875 -10.550781 2.390625 -13.707031 2.390625 -17.21875 C 2.390625 -20.726562 3.1875 -23.882812 4.78125 -26.6875 C 6.375 -29.488281 8.601562 -31.707031 11.46875 -33.34375 C 14.34375 -34.976562 17.671875 -35.796875 21.453125 -35.796875 Z M 21.515625 -8.8125 C 23.703125 -8.8125 25.535156 -9.582031 27.015625 -11.125 C 28.503906 -12.675781 29.25 -14.707031 29.25 -17.21875 C 29.25 -19.8125 28.503906 -21.859375 27.015625 -23.359375 C 25.535156 -24.867188 23.703125 -25.625 21.515625 -25.625 C 19.285156 -25.625 17.421875 -24.859375 15.921875 -23.328125 C 14.421875 -21.804688 13.671875 -19.769531 13.671875 -17.21875 C 13.671875 -14.664062 14.421875 -12.625 15.921875 -11.09375 C 17.421875 -9.570312 19.285156 -8.8125 21.515625 -8.8125 Z M 21.515625 -8.8125 " /></g></g></g><g fill="#000091" fill-opacity="1"><g transform="translate(120.06388, 326.762063)"><g><path d="M 1.5 5.875 C 1.5 4.1875 1.894531 2.660156 2.6875 1.296875 C 3.488281 -0.0664062 4.597656 -1.273438 6.015625 -2.328125 C 4.734375 -3.867188 4.09375 -5.53125 4.09375 -7.3125 C 4.09375 -8.71875 4.363281 -9.976562 4.90625 -11.09375 C 5.457031 -12.21875 6.375 -13.28125 7.65625 -14.28125 C 6.144531 -15.414062 5.003906 -16.789062 4.234375 -18.40625 C 3.460938 -20.03125 3.078125 -21.796875 3.078125 -23.703125 C 3.078125 -25.984375 3.632812 -28.035156 4.75 -29.859375 C 5.863281 -31.679688 7.46875 -33.125 9.5625 -34.1875 C 11.65625 -35.257812 14.207031 -35.796875 17.21875 -35.796875 C 20 -35.796875 22.414062 -35.34375 24.46875 -34.4375 L 36.828125 -34.4375 L 36.828125 -25.34375 L 31.4375 -25.34375 C 31.476562 -25.070312 31.5 -24.800781 31.5 -24.53125 C 31.5 -24.257812 31.5 -23.984375 31.5 -23.703125 C 31.5 -21.429688 30.953125 -19.375 29.859375 -17.53125 C 28.765625 -15.6875 27.15625 -14.226562 25.03125 -13.15625 C 22.914062 -12.082031 20.3125 -11.546875 17.21875 -11.546875 C 16.894531 -11.546875 16.570312 -11.546875 16.25 -11.546875 C 15.9375 -11.546875 15.625 -11.566406 15.3125 -11.609375 C 14.894531 -11.203125 14.6875 -10.75 14.6875 -10.25 C 14.6875 -9.65625 14.859375 -9.234375 15.203125 -8.984375 C 15.546875 -8.734375 15.988281 -8.609375 16.53125 -8.609375 L 24.390625 -8.609375 C 27.171875 -8.609375 29.5625 -8.109375 31.5625 -7.109375 C 33.570312 -6.109375 35.109375 -4.738281 36.171875 -3 C 37.242188 -1.269531 37.78125 0.6875 37.78125 2.875 C 37.78125 5.507812 37.015625 7.894531 35.484375 10.03125 C 33.960938 12.175781 31.835938 13.882812 29.109375 15.15625 C 26.378906 16.4375 23.164062 17.078125 19.46875 17.078125 C 13.6875 17.078125 9.242188 16.144531 6.140625 14.28125 C 3.046875 12.414062 1.5 9.613281 1.5 5.875 Z M 17.28125 -19.46875 C 18.601562 -19.46875 19.695312 -19.820312 20.5625 -20.53125 C 21.425781 -21.238281 21.859375 -22.296875 21.859375 -23.703125 C 21.859375 -25.117188 21.425781 -26.164062 20.5625 -26.84375 C 19.695312 -27.53125 18.601562 -27.875 17.28125 -27.875 C 15.96875 -27.875 14.890625 -27.519531 14.046875 -26.8125 C 13.203125 -26.113281 12.78125 -25.078125 12.78125 -23.703125 C 12.78125 -22.296875 13.203125 -21.238281 14.046875 -20.53125 C 14.890625 -19.820312 15.96875 -19.46875 17.28125 -19.46875 Z M 11.609375 4.234375 C 11.609375 5.554688 12.210938 6.601562 13.421875 7.375 C 14.628906 8.15625 16.601562 8.546875 19.34375 8.546875 C 22.113281 8.546875 24.101562 8.109375 25.3125 7.234375 C 26.519531 6.367188 27.125 5.300781 27.125 4.03125 C 27.125 2.976562 26.78125 2.144531 26.09375 1.53125 C 25.414062 0.914062 24.394531 0.609375 23.03125 0.609375 L 12.984375 0.609375 C 12.617188 1.066406 12.296875 1.578125 12.015625 2.140625 C 11.742188 2.710938 11.609375 3.410156 11.609375 4.234375 Z M 11.609375 4.234375 " /></g></g></g><g fill="#000091" fill-opacity="1"><g transform="translate(155.109652, 326.762063)"><g><path d="M 37.03125 -5.53125 C 35.394531 -3.394531 33.265625 -1.710938 30.640625 -0.484375 C 28.023438 0.742188 25.054688 1.359375 21.734375 1.359375 C 17.492188 1.359375 13.9375 0.503906 11.0625 -1.203125 C 8.195312 -2.910156 6.035156 -5.175781 4.578125 -8 C 3.117188 -10.820312 2.390625 -13.894531 2.390625 -17.21875 C 2.390625 -20.539062 3.070312 -23.613281 4.4375 -26.4375 C 5.800781 -29.257812 7.816406 -31.523438 10.484375 -33.234375 C 13.148438 -34.941406 16.421875 -35.796875 20.296875 -35.796875 C 23.578125 -35.796875 26.421875 -35.125 28.828125 -33.78125 C 31.242188 -32.4375 33.125 -30.582031 34.46875 -28.21875 C 35.8125 -25.851562 36.484375 -23.097656 36.484375 -19.953125 C 36.484375 -18.816406 36.414062 -17.734375 36.28125 -16.703125 C 36.144531 -15.679688 35.984375 -14.851562 35.796875 -14.21875 L 13.53125 -14.21875 C 14.03125 -11.894531 14.992188 -10.332031 16.421875 -9.53125 C 17.859375 -8.738281 19.601562 -8.34375 21.65625 -8.34375 C 23.300781 -8.34375 24.804688 -8.632812 26.171875 -9.21875 C 27.535156 -9.8125 28.601562 -10.609375 29.375 -11.609375 Z M 20.015625 -27.0625 C 16.554688 -27.0625 14.414062 -25.328125 13.59375 -21.859375 L 25.96875 -21.859375 C 25.914062 -23.046875 25.410156 -24.207031 24.453125 -25.34375 C 23.503906 -26.488281 22.023438 -27.0625 20.015625 -27.0625 Z M 20.015625 -27.0625 " /></g></g></g><g fill="#000091" fill-opacity="1"><g transform="translate(191.31681, 326.762063)"><g><path d="M 4.4375 0 L 4.4375 -34.4375 L 15.3125 -34.4375 L 15.3125 -32.65625 C 16.351562 -33.570312 17.566406 -34.320312 18.953125 -34.90625 C 20.347656 -35.5 21.957031 -35.796875 23.78125 -35.796875 C 25.78125 -35.796875 27.644531 -35.382812 29.375 -34.5625 C 31.113281 -33.75 32.550781 -32.5 33.6875 -30.8125 C 34.820312 -32.132812 36.242188 -33.296875 37.953125 -34.296875 C 39.660156 -35.296875 41.925781 -35.796875 44.75 -35.796875 C 47.070312 -35.796875 49.191406 -35.25 51.109375 -34.15625 C 53.023438 -33.070312 54.550781 -31.421875 55.6875 -29.203125 C 56.820312 -26.992188 57.390625 -24.226562 57.390625 -20.90625 L 57.390625 0 L 46.46875 0 L 46.46875 -20.4375 C 46.46875 -21.976562 46.078125 -23.226562 45.296875 -24.1875 C 44.523438 -25.144531 43.363281 -25.625 41.8125 -25.625 C 40.675781 -25.625 39.742188 -25.359375 39.015625 -24.828125 C 38.285156 -24.304688 37.710938 -23.738281 37.296875 -23.125 C 36.890625 -22.507812 36.597656 -22.046875 36.421875 -21.734375 C 36.421875 -21.585938 36.421875 -21.445312 36.421875 -21.3125 C 36.421875 -21.175781 36.421875 -21.039062 36.421875 -20.90625 L 36.421875 0 L 25.484375 0 L 25.484375 -20.4375 C 25.484375 -21.976562 25.09375 -23.226562 24.3125 -24.1875 C 23.539062 -25.144531 22.382812 -25.625 20.84375 -25.625 C 19.695312 -25.625 18.757812 -25.359375 18.03125 -24.828125 C 17.3125 -24.304688 16.742188 -23.710938 16.328125 -23.046875 C 15.921875 -22.390625 15.582031 -21.859375 15.3125 -21.453125 L 15.3125 0 Z M 4.4375 0 " /></g></g></g><g fill="#000091" fill-opacity="1"><g transform="translate(249.590273, 326.762063)"><g><path d="M 37.03125 -5.53125 C 35.394531 -3.394531 33.265625 -1.710938 30.640625 -0.484375 C 28.023438 0.742188 25.054688 1.359375 21.734375 1.359375 C 17.492188 1.359375 13.9375 0.503906 11.0625 -1.203125 C 8.195312 -2.910156 6.035156 -5.175781 4.578125 -8 C 3.117188 -10.820312 2.390625 -13.894531 2.390625 -17.21875 C 2.390625 -20.539062 3.070312 -23.613281 4.4375 -26.4375 C 5.800781 -29.257812 7.816406 -31.523438 10.484375 -33.234375 C 13.148438 -34.941406 16.421875 -35.796875 20.296875 -35.796875 C 23.578125 -35.796875 26.421875 -35.125 28.828125 -33.78125 C 31.242188 -32.4375 33.125 -30.582031 34.46875 -28.21875 C 35.8125 -25.851562 36.484375 -23.097656 36.484375 -19.953125 C 36.484375 -18.816406 36.414062 -17.734375 36.28125 -16.703125 C 36.144531 -15.679688 35.984375 -14.851562 35.796875 -14.21875 L 13.53125 -14.21875 C 14.03125 -11.894531 14.992188 -10.332031 16.421875 -9.53125 C 17.859375 -8.738281 19.601562 -8.34375 21.65625 -8.34375 C 23.300781 -8.34375 24.804688 -8.632812 26.171875 -9.21875 C 27.535156 -9.8125 28.601562 -10.609375 29.375 -11.609375 Z M 20.015625 -27.0625 C 16.554688 -27.0625 14.414062 -25.328125 13.59375 -21.859375 L 25.96875 -21.859375 C 25.914062 -23.046875 25.410156 -24.207031 24.453125 -25.34375 C 23.503906 -26.488281 22.023438 -27.0625 20.015625 -27.0625 Z M 20.015625 -27.0625 " /></g></g></g><g fill="#000091" fill-opacity="1"><g transform="translate(285.797421, 326.762063)"><g><path d="M 4.4375 0 L 4.4375 -34.4375 L 15.3125 -34.4375 L 15.3125 -32.53125 C 16.445312 -33.476562 17.753906 -34.257812 19.234375 -34.875 C 20.710938 -35.488281 22.457031 -35.796875 24.46875 -35.796875 C 26.925781 -35.796875 29.15625 -35.226562 31.15625 -34.09375 C 33.164062 -32.957031 34.769531 -31.238281 35.96875 -28.9375 C 37.175781 -26.632812 37.78125 -23.726562 37.78125 -20.21875 L 37.78125 0 L 26.859375 0 L 26.859375 -19.75 C 26.859375 -21.476562 26.398438 -22.890625 25.484375 -23.984375 C 24.578125 -25.078125 23.253906 -25.625 21.515625 -25.625 C 20.242188 -25.625 19.1875 -25.359375 18.34375 -24.828125 C 17.5 -24.304688 16.835938 -23.710938 16.359375 -23.046875 C 15.878906 -22.390625 15.53125 -21.859375 15.3125 -21.453125 L 15.3125 0 Z M 4.4375 0 " /></g></g></g><g fill="#000091" fill-opacity="1"><g transform="translate(324.463968, 326.762063)"><g><path d="M 6.828125 -13.390625 L 6.828125 -24.734375 L 0.40625 -24.734375 L 0.40625 -34.4375 L 6.828125 -34.4375 L 6.828125 -43.046875 L 17.765625 -43.046875 L 17.765625 -34.4375 L 27.1875 -34.4375 L 27.1875 -24.734375 L 17.765625 -24.734375 L 17.765625 -13.390625 C 17.765625 -10.566406 19.195312 -9.15625 22.0625 -9.15625 C 23.34375 -9.15625 24.40625 -9.234375 25.25 -9.390625 C 26.09375 -9.554688 26.765625 -9.726562 27.265625 -9.90625 L 27.265625 -0.546875 C 26.347656 -0.140625 25.320312 0.164062 24.1875 0.375 C 23.050781 0.582031 21.6875 0.6875 20.09375 0.6875 C 15.394531 0.6875 12.007812 -0.597656 9.9375 -3.171875 C 7.863281 -5.742188 6.828125 -9.148438 6.828125 -13.390625 Z M 6.828125 -13.390625 " /></g></g></g></svg>