<svg xmlns="http://www.w3.org/2000/svg" width="500" height="500" version="1.0" viewBox="0 0 375 375"><defs><clipPath id="a"><path d="M23.203 38.398h322.5V261h-322.5Zm0 0"/></clipPath></defs><path fill="#fff" d="M-37.5-37.5h450v450h-450z"/><path fill="#fff" d="M-37.5-37.5h450v450h-450z"/><g clip-path="url(#a)"><path fill="#ff6218" d="M718.547 248.434a6.265 6.265 0 1 1 0 12.531H75.16c-6.191 0-11.828-2.535-15.902-6.61-4.074-4.078-6.61-9.707-6.61-15.902v-79.152H41.484c-4.359 0-7.949-1.145-10.75-3.04-3.101-2.097-5.156-5.062-6.191-8.429h-.008c-.957-3.125-.988-6.574-.125-9.914 1.024-3.992 3.324-7.883 6.82-10.895l95.922-82.691c4.598-3.957 10.551-5.934 16.438-5.934 5.89 0 11.844 1.977 16.433 5.934l64.465 55.758a6.251 6.251 0 0 1 .64 8.812 6.247 6.247 0 0 1-8.812.637l-64.468-55.758c-2.203-1.898-5.2-2.851-8.258-2.851-3.055 0-6.059.953-8.262 2.851l-95.926 82.692c-1.507 1.3-2.488 2.914-2.902 4.527-.29 1.129-.3 2.23-.02 3.16h-.003l.003.024a3.129 3.129 0 0 0 1.254 1.695c.817.555 2.055.89 3.75.89h17.43a6.265 6.265 0 0 1 6.266 6.266v85.418a9.96 9.96 0 0 0 2.937 7.043c1.809 1.809 4.305 2.938 7.043 2.938Zm0 0"/></g><path fill="#ff6218" d="m78.859 204.324 13.156-12.14c1.906 2.523 4.164 4.531 6.781 6.031 2.613 1.492 5.211 2.234 7.797 2.234 2.113 0 3.766-.472 4.953-1.421 1.188-.957 1.781-2.454 1.781-4.485 0-1.844-.75-3.344-2.25-4.5-1.492-1.156-3.445-2.207-5.859-3.156-2.418-.945-4.953-2-7.61-3.156a43.184 43.184 0 0 1-7.593-4.282c-2.406-1.707-4.36-3.898-5.86-6.578-1.492-2.687-2.234-6.07-2.234-10.156 0-4.008 1.035-7.664 3.11-10.969 2.07-3.3 4.94-5.937 8.609-7.906 3.676-1.969 7.926-2.953 12.75-2.953 5.644 0 10.676 1.125 15.094 3.375a40.152 40.152 0 0 1 11.64 8.86l-13.156 12.046c-2.117-2.457-4.297-4.484-6.547-6.078-2.242-1.594-4.547-2.39-6.922-2.39-1.836 0-3.328.496-4.484 1.484-1.156.98-1.734 2.219-1.734 3.719 0 1.761.742 3.203 2.234 4.328 1.5 1.125 3.453 2.168 5.86 3.125 2.413.949 4.952 2 7.609 3.156a40.143 40.143 0 0 1 7.593 4.328c2.414 1.73 4.368 3.977 5.86 6.734 1.5 2.75 2.25 6.2 2.25 10.344-.063 4.762-1.235 8.809-3.516 12.14-2.281 3.337-5.293 5.888-9.031 7.657-3.742 1.77-7.856 2.656-12.344 2.656-6.594 0-12.086-1.074-16.469-3.218-4.386-2.145-8.21-5.086-11.468-8.829ZM146.277 157.309a9.623 9.623 0 0 1-5.094-1.422 11.293 11.293 0 0 1-3.781-3.781 9.623 9.623 0 0 1-1.422-5.094c0-2.79 1.016-5.188 3.047-7.188 2.039-2.007 4.457-3.015 7.25-3.015 1.832 0 3.515.46 5.047 1.375a10.404 10.404 0 0 1 3.672 3.719 9.943 9.943 0 0 1 1.375 5.109c0 1.836-.461 3.531-1.375 5.094a10.907 10.907 0 0 1-3.672 3.781c-1.532.95-3.215 1.422-5.047 1.422Zm-8.266 57.015v-51.406h16.219v51.406ZM158.32 223.09c0-2.512.595-4.789 1.782-6.828 1.188-2.04 2.832-3.844 4.938-5.406-1.899-2.313-2.844-4.79-2.844-7.438 0-2.113.406-4.004 1.219-5.672.812-1.664 2.171-3.242 4.078-4.734-2.243-1.707-3.938-3.766-5.094-6.172-1.156-2.414-1.734-5.05-1.734-7.906 0-3.406.832-6.469 2.5-9.188 1.664-2.718 4.062-4.875 7.187-6.468 3.125-1.602 6.93-2.407 11.422-2.407 4.144 0 7.75.684 10.812 2.047h18.47v13.563h-8.063c.062.406.093.82.093 1.234v1.219c0 3.398-.82 6.476-2.453 9.234-1.625 2.75-4.023 4.93-7.187 6.531-3.156 1.594-7.047 2.391-11.672 2.391h-1.438c-.468 0-.945-.035-1.421-.11-.606.618-.907 1.298-.907 2.048 0 .886.25 1.515.75 1.89.508.367 1.176.547 2 .547h11.719c4.156 0 7.727.75 10.719 2.25 2.988 1.5 5.281 3.543 6.875 6.125 1.601 2.586 2.406 5.504 2.406 8.766 0 3.945-1.14 7.515-3.422 10.703-2.273 3.195-5.45 5.75-9.531 7.656-4.086 1.906-8.883 2.86-14.39 2.86-8.637 0-15.266-1.399-19.891-4.188-4.618-2.781-6.922-6.965-6.922-12.547Zm23.563-37.828c1.969 0 3.598-.523 4.89-1.578 1.29-1.063 1.938-2.645 1.938-4.75 0-2.113-.648-3.676-1.937-4.688-1.293-1.02-2.922-1.53-4.89-1.53-1.981 0-3.602.526-4.86 1.577-1.25 1.055-1.875 2.602-1.875 4.64 0 2.106.625 3.688 1.875 4.75 1.258 1.056 2.879 1.579 4.86 1.579Zm-8.468 35.39c0 1.97.898 3.532 2.703 4.688 1.8 1.156 4.738 1.734 8.812 1.734 4.156 0 7.133-.648 8.938-1.937 1.8-1.293 2.703-2.89 2.703-4.797 0-1.562-.512-2.805-1.531-3.719-1.024-.918-2.555-1.375-4.594-1.375h-15a11.79 11.79 0 0 0-1.422 2.282c-.406.851-.61 1.894-.61 3.125ZM215.023 214.324v-51.406h16.22v2.86c1.695-1.426 3.648-2.598 5.859-3.516 2.218-.926 4.82-1.39 7.812-1.39 3.676 0 7.008.855 10 2.562 2.988 1.7 5.383 4.265 7.188 7.703 1.8 3.43 2.703 7.762 2.703 13v30.187h-16.313V184.84c0-2.582-.683-4.687-2.047-6.312-1.367-1.633-3.34-2.454-5.922-2.454-1.898 0-3.476.391-4.734 1.172-1.262.782-2.25 1.668-2.969 2.657-.71.98-1.234 1.777-1.578 2.39v32.031ZM287.648 215.856c-5.168 0-9.402-1.43-12.703-4.282-3.293-2.851-4.938-6.765-4.938-11.734 0-3.945 1.477-7.328 4.438-10.14 2.957-2.82 7.222-4.676 12.797-5.563l14.484-2.453c-.062-1.969-.86-3.598-2.39-4.89-1.532-1.29-3.485-1.938-5.86-1.938-2.117 0-3.992.476-5.625 1.422-1.625.949-3.016 2.277-4.172 3.984l-11.828-8.984c2.375-3.258 5.461-5.805 9.266-7.641 3.812-1.844 8.097-2.766 12.86-2.766 5.437 0 9.921.97 13.452 2.907 3.54 1.937 6.16 4.507 7.86 7.703 1.707 3.199 2.562 6.668 2.562 10.406v32.437h-16.125v-3.875c-1.43 1.563-3.45 2.856-6.062 3.875-2.618 1.02-5.29 1.532-8.016 1.532Zm-1.625-16.828c0 1.293.473 2.328 1.422 3.109.957.781 2.219 1.172 3.781 1.172 2.582 0 4.723-.54 6.422-1.625 1.695-1.094 3.055-2.39 4.078-3.89v-5.095l-10.094 1.735c-2.105.344-3.57.906-4.39 1.687-.813.782-1.219 1.75-1.219 2.907ZM325.799 214.324v-76.5h16.219v76.5Zm0 0"/><path fill="#000091" d="M74.535 318.002v-43.11h10.97v33.188h15.64v9.922ZM119.358 285.72c3.407 0 6.391.742 8.954 2.219 2.57 1.48 4.578 3.484 6.015 6.016 1.438 2.523 2.156 5.367 2.156 8.53 0 3.157-.718 6-2.156 8.532-1.437 2.524-3.445 4.524-6.015 6-2.563 1.477-5.547 2.219-8.954 2.219-3.406 0-6.406-.742-9-2.219-2.586-1.476-4.593-3.476-6.03-6-1.438-2.531-2.157-5.375-2.157-8.531 0-3.164.719-6.008 2.156-8.531 1.438-2.532 3.445-4.535 6.031-6.016 2.594-1.477 5.594-2.219 9-2.219Zm.063 24.328c1.969 0 3.617-.695 4.953-2.093 1.332-1.395 2-3.22 2-5.47 0-2.343-.668-4.19-2-5.546-1.336-1.352-2.984-2.031-4.953-2.031-2.012 0-3.7.687-5.063 2.062-1.355 1.375-2.03 3.215-2.03 5.516 0 2.293.675 4.125 2.03 5.5 1.364 1.375 3.051 2.062 5.063 2.062ZM137.069 323.298c0-1.523.36-2.898 1.078-4.125.719-1.226 1.71-2.316 2.984-3.265-1.148-1.395-1.718-2.895-1.718-4.5 0-1.27.242-2.406.734-3.406.488-1.008 1.312-1.97 2.469-2.875-1.368-1.02-2.399-2.258-3.094-3.72-.7-1.456-1.047-3.05-1.047-4.78 0-2.051.504-3.895 1.516-5.532 1.007-1.644 2.457-2.953 4.343-3.922 1.883-.968 4.18-1.453 6.891-1.453 2.508 0 4.688.414 6.531 1.235h11.157v8.203h-4.875c.039.242.062.484.062.734v.735c0 2.054-.496 3.914-1.484 5.578-.98 1.668-2.43 2.984-4.344 3.953-1.906.96-4.258 1.437-7.047 1.437h-.86c-.28 0-.57-.02-.859-.062-.367.367-.547.777-.547 1.234 0 .531.149.914.454 1.14.312.22.71.329 1.203.329h7.078c2.508 0 4.664.453 6.469 1.36 1.812.906 3.195 2.14 4.156 3.702.969 1.555 1.453 3.317 1.453 5.297 0 2.375-.688 4.524-2.063 6.453-1.375 1.938-3.296 3.477-5.765 4.625-2.461 1.157-5.356 1.735-8.688 1.735-5.21 0-9.21-.844-12-2.531-2.793-1.688-4.187-4.215-4.187-7.579Zm14.219-22.843c1.195 0 2.18-.317 2.953-.953.78-.645 1.172-1.602 1.172-2.875 0-1.27-.391-2.211-1.172-2.829-.774-.613-1.758-.921-2.953-.921-1.188 0-2.165.32-2.922.953-.762.636-1.14 1.57-1.14 2.797 0 1.273.378 2.23 1.14 2.875.757.636 1.734.953 2.922.953Zm-5.11 21.359c0 1.195.54 2.145 1.625 2.844 1.094.695 2.875 1.047 5.344 1.047 2.5 0 4.289-.391 5.375-1.172 1.094-.781 1.64-1.746 1.64-2.89 0-.95-.308-1.704-.921-2.266-.618-.555-1.543-.829-2.782-.829h-9.046a7.235 7.235 0 0 0-.875 1.391c-.243.508-.36 1.133-.36 1.875ZM200.671 313.017c-1.48 1.93-3.402 3.45-5.765 4.563-2.368 1.101-5.043 1.656-8.032 1.656-3.824 0-7.03-.774-9.625-2.313-2.586-1.539-4.53-3.582-5.843-6.125-1.313-2.55-1.97-5.32-1.97-8.312 0-3 .614-5.77 1.845-8.313 1.226-2.55 3.046-4.597 5.453-6.14 2.406-1.54 5.351-2.313 8.843-2.313 2.958 0 5.52.61 7.688 1.828 2.176 1.211 3.867 2.883 5.078 5.016 1.219 2.137 1.828 4.621 1.828 7.453 0 1.024-.062 1.996-.187 2.922-.125.93-.266 1.68-.422 2.25h-20.078c.445 2.094 1.316 3.5 2.61 4.219 1.288.719 2.862 1.078 4.718 1.078 1.476 0 2.832-.266 4.062-.797 1.227-.531 2.192-1.25 2.891-2.156Zm-15.344-19.406c-3.125 0-5.058 1.562-5.796 4.687h11.156c-.043-1.07-.496-2.117-1.36-3.14-.867-1.031-2.199-1.547-4-1.547ZM203.898 318.002v-31.047h9.797v1.609c.945-.82 2.047-1.5 3.297-2.031 1.25-.54 2.695-.813 4.344-.813 1.8 0 3.484.371 5.046 1.11 1.563.742 2.852 1.87 3.875 3.39 1.032-1.187 2.317-2.234 3.86-3.14 1.539-.907 3.582-1.36 6.125-1.36 2.094 0 4 .496 5.719 1.485 1.726.992 3.101 2.48 4.125 4.468 1.03 1.993 1.546 4.485 1.546 7.485v18.844h-9.843V299.58c0-1.395-.352-2.52-1.047-3.375-.7-.864-1.746-1.297-3.14-1.297-1.032 0-1.876.234-2.532.703-.656.469-1.172.984-1.547 1.547-.367.554-.633.969-.797 1.25v19.594h-9.86V299.58c0-1.395-.35-2.52-1.046-3.375-.7-.864-1.746-1.297-3.14-1.297-1.024 0-1.86.234-2.516.703-.657.469-1.172 1.008-1.547 1.61a37.246 37.246 0 0 1-.922 1.437v19.344ZM285.786 313.017c-1.48 1.93-3.403 3.45-5.766 4.563-2.367 1.101-5.043 1.656-8.031 1.656-3.824 0-7.031-.774-9.625-2.313-2.586-1.539-4.531-3.582-5.844-6.125-1.312-2.55-1.969-5.32-1.969-8.312 0-3 .614-5.77 1.844-8.313 1.227-2.55 3.047-4.597 5.453-6.14 2.407-1.54 5.352-2.313 8.844-2.313 2.957 0 5.52.61 7.688 1.828 2.175 1.211 3.867 2.883 5.078 5.016 1.218 2.137 1.828 4.621 1.828 7.453 0 1.024-.063 1.996-.188 2.922-.125.93-.265 1.68-.422 2.25h-20.078c.446 2.094 1.317 3.5 2.61 4.219 1.289.719 2.863 1.078 4.718 1.078 1.477 0 2.832-.266 4.063-.797 1.227-.531 2.191-1.25 2.89-2.156Zm-15.344-19.406c-3.125 0-5.059 1.562-5.797 4.687h11.156c-.043-1.07-.496-2.117-1.359-3.14-.867-1.031-2.2-1.547-4-1.547ZM289.013 318.002v-31.047h9.797v1.734a13.6 13.6 0 0 1 3.546-2.125c1.332-.562 2.899-.844 4.704-.844 2.218 0 4.226.516 6.03 1.547 1.813 1.024 3.259 2.574 4.345 4.656 1.093 2.075 1.64 4.688 1.64 7.844v18.235h-9.86v-17.797c0-1.563-.413-2.832-1.234-3.813-.812-.988-2-1.484-3.562-1.484-1.156 0-2.117.234-2.875.703-.75.469-1.344 1.008-1.781 1.61-.43.593-.746 1.074-.953 1.437v19.344ZM326.002 305.923v-10.218h-5.781v-8.75h5.781v-7.75h9.86v7.75h8.5v8.75h-8.5v10.218c0 2.555 1.288 3.829 3.874 3.829 1.157 0 2.11-.07 2.86-.22.758-.144 1.367-.3 1.828-.468v8.438c-.824.375-1.75.648-2.781.828-1.024.187-2.25.28-3.688.28-4.23 0-7.281-1.155-9.156-3.468-1.867-2.32-2.797-5.394-2.797-9.219Zm0 0"/></svg>