<svg xmlns="http://www.w3.org/2000/svg" width="800" height="250" version="1.0" viewBox="0 0 600 187.5"><defs><clipPath id="a"><path d="M368.488 15.531h219.914v151.844H368.488Zm0 0"/></clipPath></defs><g clip-path="url(#a)"><path fill="#ff6218" d="M113.969 158.93a4.28 4.28 0 0 0-4.281 4.277 4.28 4.28 0 0 0 4.28 4.277h439.266c4.23 0 8.078-1.73 10.86-4.511 2.781-2.786 4.511-6.63 4.511-10.86V98.074h7.622c2.976 0 5.43-.781 7.34-2.074 2.12-1.43 3.523-3.457 4.226-5.758l.008.004c.652-2.137.672-4.488.086-6.773-.7-2.723-2.27-5.38-4.657-7.438l-65.492-56.457c-3.136-2.7-7.203-4.047-11.222-4.047-4.02 0-8.086 1.348-11.22 4.047l-44.015 38.07a4.266 4.266 0 0 0 5.582 6.454l44.012-38.07c1.508-1.298 3.555-1.946 5.64-1.946 2.087 0 4.137.648 5.641 1.945l65.492 56.457c1.032.89 1.7 1.992 1.98 3.09.2.774.208 1.527.017 2.16h.003l-.003.016a2.16 2.16 0 0 1-.856 1.16c-.559.375-1.402.606-2.562.606h-11.899a4.276 4.276 0 0 0-4.277 4.277v58.316c0 1.871-.77 3.575-2.004 4.813a6.809 6.809 0 0 1-4.813 2.004Zm0 0"/></g><path fill="#ff6218" d="m13.164 121.898 9.422-8.687c1.363 1.804 2.984 3.242 4.86 4.312 1.874 1.063 3.738 1.594 5.593 1.594 1.5 0 2.676-.336 3.531-1.016.852-.675 1.282-1.75 1.282-3.218 0-1.313-.54-2.38-1.61-3.204-1.074-.832-2.476-1.585-4.203-2.265a176.175 176.175 0 0 1-5.437-2.25 30.974 30.974 0 0 1-5.438-3.078c-1.73-1.219-3.133-2.785-4.203-4.703-1.063-1.926-1.594-4.352-1.594-7.282 0-2.863.738-5.476 2.219-7.843 1.488-2.364 3.547-4.25 6.172-5.657 2.625-1.414 5.664-2.125 9.125-2.125 4.039 0 7.644.809 10.812 2.422a28.736 28.736 0 0 1 8.328 6.344l-9.421 8.625c-1.512-1.758-3.075-3.207-4.688-4.344-1.605-1.144-3.258-1.719-4.953-1.719-1.313 0-2.387.356-3.219 1.063-.824.7-1.234 1.586-1.234 2.656 0 1.274.531 2.309 1.594 3.11 1.07.804 2.472 1.546 4.203 2.234 1.726.68 3.539 1.434 5.437 2.266a29.403 29.403 0 0 1 5.453 3.093c1.727 1.243 3.125 2.844 4.188 4.813 1.07 1.969 1.61 4.437 1.61 7.406-.056 3.418-.9 6.32-2.532 8.703-1.625 2.375-3.777 4.2-6.453 5.469-2.68 1.258-5.621 1.89-8.828 1.89-4.72 0-8.653-.765-11.797-2.296-3.137-1.532-5.875-3.633-8.219-6.313ZM61.409 88.242a6.94 6.94 0 0 1-3.657-1.016 8.13 8.13 0 0 1-2.703-2.703 6.94 6.94 0 0 1-1.015-3.656c0-2 .726-3.711 2.187-5.14 1.469-1.438 3.195-2.157 5.188-2.157 1.312 0 2.515.328 3.609.984a7.4 7.4 0 0 1 2.64 2.672 7.055 7.055 0 0 1 .985 3.641 7.13 7.13 0 0 1-.984 3.656 7.808 7.808 0 0 1-2.641 2.703 6.701 6.701 0 0 1-3.61 1.016Zm-5.907 40.812V92.258h11.61v36.796ZM70.02 135.336c0-1.805.422-3.434 1.266-4.89.851-1.458 2.035-2.75 3.547-3.876-1.367-1.656-2.047-3.43-2.047-5.328 0-1.508.289-2.86.875-4.047.594-1.195 1.566-2.332 2.922-3.406-1.606-1.207-2.824-2.676-3.656-4.406-.825-1.727-1.235-3.618-1.235-5.672 0-2.426.594-4.614 1.781-6.563 1.196-1.945 2.914-3.492 5.157-4.64 2.238-1.145 4.968-1.72 8.187-1.72 2.969 0 5.547.493 7.735 1.47h13.218v9.703h-5.765c.039.293.062.586.062.875v.875c0 2.437-.586 4.648-1.75 6.625-1.168 1.968-2.887 3.527-5.156 4.672-2.262 1.136-5.043 1.703-8.344 1.703h-1.031c-.344 0-.684-.02-1.016-.063-.437.438-.656.922-.656 1.453 0 .637.18 1.09.547 1.36.363.261.836.39 1.422.39h8.39c2.97 0 5.524.54 7.672 1.61 2.145 1.074 3.785 2.539 4.922 4.39 1.145 1.844 1.719 3.93 1.719 6.266 0 2.82-.82 5.379-2.453 7.672-1.625 2.289-3.903 4.113-6.828 5.469-2.918 1.363-6.344 2.046-10.282 2.046-6.187 0-10.937-1-14.25-3-3.304-1.992-4.953-4.98-4.953-8.968Zm16.86-27.094c1.414 0 2.582-.375 3.5-1.125.925-.758 1.39-1.895 1.39-3.406 0-1.5-.465-2.614-1.39-3.344-.918-.738-2.086-1.11-3.5-1.11-1.407 0-2.563.383-3.47 1.141-.898.75-1.343 1.856-1.343 3.313 0 1.511.445 2.648 1.344 3.406.906.75 2.062 1.125 3.469 1.125Zm-6.063 25.344c0 1.406.645 2.52 1.938 3.343 1.289.833 3.394 1.25 6.312 1.25 2.977 0 5.11-.464 6.39-1.39 1.29-.918 1.938-2.059 1.938-3.422 0-1.125-.367-2.016-1.093-2.672-.731-.656-1.825-.984-3.282-.984H82.286a8.104 8.104 0 0 0-1.031 1.64c-.293.614-.438 1.36-.438 2.235ZM110.596 129.054V92.258h11.61v2.046a16.175 16.175 0 0 1 4.187-2.515c1.582-.664 3.446-1 5.594-1 2.625 0 5.008.61 7.156 1.828 2.145 1.219 3.86 3.059 5.14 5.516 1.29 2.46 1.938 5.562 1.938 9.312v21.61h-11.687V107.96c0-1.852-.485-3.364-1.453-4.532-.969-1.164-2.383-1.75-4.235-1.75-1.367 0-2.5.282-3.406.844-.898.555-1.601 1.184-2.11 1.89-.511.712-.886 1.282-1.124 1.72v22.921ZM162.556 130.148c-3.7 0-6.73-1.023-9.094-3.062-2.355-2.04-3.531-4.844-3.531-8.407 0-2.82 1.055-5.238 3.172-7.25 2.113-2.02 5.164-3.347 9.156-3.984l10.375-1.75c-.055-1.414-.625-2.582-1.719-3.5-1.093-.926-2.496-1.39-4.203-1.39-1.5 0-2.84.34-4.015 1.015-1.168.68-2.165 1.625-2.985 2.844l-8.469-6.422c1.696-2.332 3.91-4.156 6.641-5.469 2.727-1.32 5.797-1.984 9.203-1.984 3.895 0 7.11.7 9.64 2.094 2.532 1.386 4.4 3.226 5.61 5.515 1.219 2.281 1.828 4.762 1.828 7.438v23.218h-11.531v-2.78c-1.023 1.124-2.469 2.054-4.344 2.78a15.764 15.764 0 0 1-5.734 1.094Zm-1.172-12.047c0 .93.336 1.672 1.016 2.235.687.554 1.593.828 2.718.828 1.844 0 3.375-.383 4.594-1.156 1.219-.782 2.192-1.707 2.922-2.782v-3.656l-7.234 1.25c-1.512.242-2.559.64-3.141 1.203-.586.563-.875 1.258-.875 2.078ZM189.846 129.054V74.29h11.61v54.765Zm0 0"/><path fill="#000091" d="M226.154 129.054V77.945h13v39.36h18.547v11.75ZM279.287 90.789c4.04 0 7.582.883 10.625 2.64 3.04 1.75 5.41 4.125 7.11 7.125 1.707 2.993 2.562 6.356 2.562 10.094 0 3.75-.855 7.125-2.562 10.125-1.7 2.992-4.07 5.36-7.11 7.11-3.043 1.75-6.586 2.625-10.625 2.625-4.043 0-7.593-.875-10.656-2.625-3.062-1.75-5.45-4.118-7.156-7.11-1.7-3-2.547-6.375-2.547-10.125 0-3.738.848-7.101 2.547-10.094 1.707-3 4.094-5.375 7.156-7.125 3.063-1.757 6.613-2.64 10.656-2.64Zm.078 28.844c2.332 0 4.29-.829 5.875-2.485 1.582-1.656 2.375-3.82 2.375-6.5 0-2.77-.793-4.957-2.375-6.562-1.586-1.602-3.543-2.407-5.875-2.407-2.386 0-4.382.82-5.984 2.454-1.605 1.625-2.406 3.796-2.406 6.515 0 2.73.8 4.914 2.406 6.547 1.602 1.625 3.598 2.438 5.984 2.438ZM300.3 135.336c0-1.805.422-3.434 1.265-4.89.852-1.458 2.036-2.75 3.547-3.876-1.367-1.656-2.047-3.43-2.047-5.328 0-1.508.29-2.86.875-4.047.594-1.195 1.567-2.332 2.922-3.406-1.605-1.207-2.824-2.676-3.656-4.406-.824-1.727-1.234-3.618-1.234-5.672 0-2.426.593-4.614 1.78-6.563 1.196-1.945 2.915-3.492 5.157-4.64 2.238-1.145 4.969-1.72 8.188-1.72 2.968 0 5.547.493 7.734 1.47h13.219v9.703h-5.766c.04.293.063.586.063.875v.875c0 2.437-.586 4.648-1.75 6.625-1.168 1.968-2.887 3.527-5.157 4.672-2.261 1.136-5.043 1.703-8.343 1.703h-1.032c-.343 0-.683-.02-1.015-.063-.438.438-.656.922-.656 1.453 0 .637.18 1.09.546 1.36.364.261.836.39 1.422.39h8.39c2.97 0 5.524.54 7.673 1.61 2.144 1.074 3.785 2.539 4.922 4.39 1.144 1.844 1.718 3.93 1.718 6.266 0 2.82-.82 5.379-2.453 7.672-1.625 2.289-3.902 4.113-6.828 5.469-2.918 1.363-6.344 2.046-10.281 2.046-6.188 0-10.938-1-14.25-3-3.305-1.992-4.953-4.98-4.953-8.968Zm16.86-27.094c1.413 0 2.581-.375 3.5-1.125.925-.758 1.39-1.895 1.39-3.406 0-1.5-.465-2.614-1.39-3.344-.919-.738-2.087-1.11-3.5-1.11-1.407 0-2.563.383-3.47 1.141-.898.75-1.343 1.856-1.343 3.313 0 1.511.445 2.648 1.343 3.406.907.75 2.063 1.125 3.47 1.125Zm-6.063 25.344c0 1.406.644 2.52 1.937 3.343 1.29.833 3.395 1.25 6.313 1.25 2.976 0 5.109-.464 6.39-1.39 1.29-.918 1.938-2.059 1.938-3.422 0-1.125-.367-2.016-1.094-2.672-.73-.656-1.824-.984-3.281-.984h-10.735a8.104 8.104 0 0 0-1.03 1.64c-.294.614-.438 1.36-.438 2.235ZM375.704 123.133c-1.75 2.293-4.027 4.093-6.828 5.406-2.805 1.312-5.98 1.969-9.531 1.969-4.532 0-8.328-.914-11.391-2.735-3.062-1.82-5.375-4.238-6.937-7.25-1.555-3.02-2.329-6.312-2.329-9.875 0-3.55.727-6.832 2.188-9.844 1.457-3.02 3.61-5.44 6.453-7.265 2.852-1.832 6.348-2.75 10.484-2.75 3.5 0 6.54.719 9.125 2.156 2.582 1.438 4.586 3.422 6.016 5.953 1.438 2.531 2.156 5.477 2.156 8.828 0 1.22-.074 2.383-.218 3.485-.149 1.093-.313 1.98-.5 2.656h-23.813c.54 2.48 1.578 4.148 3.11 5 1.53.855 3.39 1.281 5.578 1.281 1.757 0 3.367-.316 4.828-.953 1.457-.633 2.597-1.484 3.422-2.547Zm-18.187-23c-3.7 0-5.985 1.855-6.86 5.562h13.219c-.055-1.27-.59-2.516-1.61-3.734-1.023-1.219-2.605-1.828-4.75-1.828ZM379.552 129.054V92.258h11.61v1.89c1.113-.969 2.41-1.77 3.89-2.406 1.488-.633 3.207-.953 5.156-.953 2.145 0 4.14.445 5.985 1.328 1.851.875 3.39 2.21 4.609 4 1.219-1.406 2.738-2.645 4.563-3.719 1.82-1.07 4.242-1.61 7.265-1.61 2.477 0 4.738.59 6.781 1.766 2.051 1.168 3.68 2.934 4.891 5.297 1.219 2.356 1.828 5.309 1.828 8.86v22.343h-11.672v-21.828c0-1.656-.418-2.992-1.25-4.015-.824-1.02-2.062-1.532-3.718-1.532-1.22 0-2.22.282-3 .844-.774.555-1.383 1.156-1.829 1.813a21.86 21.86 0 0 0-.937 1.5v23.218h-11.688v-21.828c0-1.656-.418-2.992-1.25-4.015-.824-1.02-2.062-1.532-3.718-1.532-1.22 0-2.22.282-3 .844-.774.555-1.375 1.184-1.813 1.89-.437.712-.805 1.282-1.094 1.72v22.921ZM476.628 123.133c-1.75 2.293-4.027 4.093-6.828 5.406-2.805 1.312-5.98 1.969-9.531 1.969-4.532 0-8.328-.914-11.391-2.735-3.062-1.82-5.375-4.238-6.937-7.25-1.555-3.02-2.329-6.312-2.329-9.875 0-3.55.727-6.832 2.188-9.844 1.457-3.02 3.61-5.44 6.453-7.265 2.852-1.832 6.348-2.75 10.484-2.75 3.5 0 6.54.719 9.125 2.156 2.582 1.438 4.586 3.422 6.016 5.953 1.438 2.531 2.156 5.477 2.156 8.828 0 1.22-.074 2.383-.218 3.485-.149 1.093-.313 1.98-.5 2.656h-23.813c.54 2.48 1.578 4.148 3.11 5 1.53.855 3.39 1.281 5.578 1.281 1.757 0 3.367-.316 4.828-.953 1.457-.633 2.597-1.484 3.422-2.547Zm-18.187-23c-3.7 0-5.985 1.855-6.86 5.562H464.8c-.055-1.27-.59-2.516-1.61-3.734-1.023-1.219-2.605-1.828-4.75-1.828ZM480.476 129.054V92.258h11.61v2.046a16.175 16.175 0 0 1 4.187-2.515c1.582-.664 3.445-1 5.594-1 2.625 0 5.007.61 7.156 1.828 2.144 1.219 3.86 3.059 5.14 5.516 1.29 2.46 1.938 5.562 1.938 9.312v21.61h-11.687V107.96c0-1.852-.485-3.364-1.454-4.532-.968-1.164-2.382-1.75-4.234-1.75-1.367 0-2.5.282-3.406.844-.899.555-1.602 1.184-2.11 1.89-.511.712-.886 1.282-1.125 1.72v22.921ZM524.326 114.742v-12.125h-6.86v-10.36h6.86v-9.203h11.688v9.204h10.078v10.359h-10.078v12.125c0 3.023 1.53 4.531 4.593 4.531 1.364 0 2.493-.082 3.391-.25.906-.176 1.629-.363 2.172-.562v10.015c-.98.438-2.078.766-3.297.985-1.219.218-2.68.328-4.375.328-5.012 0-8.625-1.375-10.844-4.125-2.218-2.75-3.328-6.39-3.328-10.922Zm0 0"/></svg>