<svg xmlns="http://www.w3.org/2000/svg" xmlns:xlink="http://www.w3.org/1999/xlink" width="800" zoomAndPan="magnify" viewBox="0 0 600 187.499995" height="250" preserveAspectRatio="xMidYMid meet" version="1.0"><defs><g/><clipPath id="c424f25ba5"><path d="M 368.488281 15.53125 L 588.402344 15.53125 L 588.402344 167.375 L 368.488281 167.375 Z M 368.488281 15.53125 " clip-rule="nonzero"/></clipPath></defs><g clip-path="url(#c424f25ba5)"><path fill="#ff6218" d="M 113.96875 158.929688 C 111.605469 158.929688 109.6875 160.84375 109.6875 163.207031 C 109.6875 165.570312 111.605469 167.484375 113.96875 167.484375 L 553.234375 167.484375 C 557.464844 167.484375 561.3125 165.753906 564.09375 162.972656 C 566.875 160.1875 568.605469 156.34375 568.605469 152.113281 L 568.605469 98.074219 L 576.226562 98.074219 C 579.203125 98.074219 581.65625 97.292969 583.566406 96 C 585.6875 94.570312 587.089844 92.542969 587.792969 90.242188 L 587.800781 90.246094 C 588.453125 88.109375 588.472656 85.757812 587.886719 83.472656 C 587.1875 80.75 585.617188 78.09375 583.230469 76.035156 L 517.738281 19.578125 C 514.601562 16.878906 510.535156 15.53125 506.515625 15.53125 C 502.496094 15.53125 498.429688 16.878906 495.296875 19.578125 L 451.28125 57.648438 C 449.5 59.1875 449.308594 61.882812 450.847656 63.664062 C 452.386719 65.445312 455.082031 65.640625 456.863281 64.101562 L 500.875 26.03125 C 502.382812 24.734375 504.429688 24.085938 506.515625 24.085938 C 508.601562 24.085938 510.652344 24.734375 512.15625 26.03125 L 577.648438 82.488281 C 578.679688 83.378906 579.347656 84.480469 579.628906 85.578125 C 579.828125 86.351562 579.835938 87.105469 579.644531 87.738281 L 579.648438 87.738281 L 579.644531 87.753906 C 579.503906 88.210938 579.21875 88.621094 578.789062 88.914062 C 578.230469 89.289062 577.386719 89.519531 576.226562 89.519531 L 564.328125 89.519531 C 561.964844 89.519531 560.050781 91.433594 560.050781 93.796875 L 560.050781 152.113281 C 560.050781 153.984375 559.28125 155.6875 558.046875 156.925781 C 556.808594 158.160156 555.105469 158.929688 553.234375 158.929688 Z M 113.96875 158.929688 " fill-opacity="1" fill-rule="nonzero"/></g><g fill="#ff6218" fill-opacity="1"><g transform="translate(11.273391, 129.054473)"><g><path d="M 1.890625 -7.15625 L 11.3125 -15.84375 C 12.675781 -14.039062 14.296875 -12.601562 16.171875 -11.53125 C 18.046875 -10.46875 19.910156 -9.9375 21.765625 -9.9375 C 23.265625 -9.9375 24.441406 -10.273438 25.296875 -10.953125 C 26.148438 -11.628906 26.578125 -12.703125 26.578125 -14.171875 C 26.578125 -15.484375 26.039062 -16.550781 24.96875 -17.375 C 23.894531 -18.207031 22.492188 -18.960938 20.765625 -19.640625 C 19.046875 -20.316406 17.234375 -21.066406 15.328125 -21.890625 C 13.429688 -22.722656 11.617188 -23.75 9.890625 -24.96875 C 8.160156 -26.1875 6.757812 -27.753906 5.6875 -29.671875 C 4.625 -31.597656 4.09375 -34.023438 4.09375 -36.953125 C 4.09375 -39.816406 4.832031 -42.429688 6.3125 -44.796875 C 7.800781 -47.160156 9.859375 -49.046875 12.484375 -50.453125 C 15.109375 -51.867188 18.148438 -52.578125 21.609375 -52.578125 C 25.648438 -52.578125 29.253906 -51.769531 32.421875 -50.15625 C 35.585938 -48.550781 38.363281 -46.4375 40.75 -43.8125 L 31.328125 -35.1875 C 29.816406 -36.945312 28.253906 -38.394531 26.640625 -39.53125 C 25.035156 -40.675781 23.382812 -41.25 21.6875 -41.25 C 20.375 -41.25 19.300781 -40.894531 18.46875 -40.1875 C 17.644531 -39.488281 17.234375 -38.601562 17.234375 -37.53125 C 17.234375 -36.257812 17.765625 -35.222656 18.828125 -34.421875 C 19.898438 -33.617188 21.300781 -32.875 23.03125 -32.1875 C 24.757812 -31.507812 26.570312 -30.753906 28.46875 -29.921875 C 30.375 -29.097656 32.191406 -28.066406 33.921875 -26.828125 C 35.648438 -25.585938 37.046875 -23.984375 38.109375 -22.015625 C 39.179688 -20.046875 39.71875 -17.578125 39.71875 -14.609375 C 39.664062 -11.191406 38.820312 -8.289062 37.1875 -5.90625 C 35.5625 -3.53125 33.410156 -1.707031 30.734375 -0.4375 C 28.054688 0.820312 25.113281 1.453125 21.90625 1.453125 C 17.1875 1.453125 13.253906 0.6875 10.109375 -0.84375 C 6.972656 -2.375 4.234375 -4.476562 1.890625 -7.15625 Z M 1.890625 -7.15625 "/></g></g></g><g fill="#ff6218" fill-opacity="1"><g transform="translate(50.752263, 129.054473)"><g><path d="M 10.65625 -40.8125 C 9.34375 -40.8125 8.125 -41.148438 7 -41.828125 C 5.882812 -42.515625 4.984375 -43.414062 4.296875 -44.53125 C 3.617188 -45.65625 3.28125 -46.875 3.28125 -48.1875 C 3.28125 -50.1875 4.007812 -51.898438 5.46875 -53.328125 C 6.9375 -54.765625 8.664062 -55.484375 10.65625 -55.484375 C 11.96875 -55.484375 13.171875 -55.15625 14.265625 -54.5 C 15.367188 -53.84375 16.25 -52.953125 16.90625 -51.828125 C 17.5625 -50.710938 17.890625 -49.5 17.890625 -48.1875 C 17.890625 -46.875 17.5625 -45.65625 16.90625 -44.53125 C 16.25 -43.414062 15.367188 -42.515625 14.265625 -41.828125 C 13.171875 -41.148438 11.96875 -40.8125 10.65625 -40.8125 Z M 4.75 0 L 4.75 -36.796875 L 16.359375 -36.796875 L 16.359375 0 Z M 4.75 0 "/></g></g></g><g fill="#ff6218" fill-opacity="1"><g transform="translate(68.410877, 129.054473)"><g><path d="M 1.609375 6.28125 C 1.609375 4.476562 2.03125 2.847656 2.875 1.390625 C 3.726562 -0.0664062 4.910156 -1.359375 6.421875 -2.484375 C 5.054688 -4.140625 4.375 -5.914062 4.375 -7.8125 C 4.375 -9.320312 4.664062 -10.671875 5.25 -11.859375 C 5.84375 -13.054688 6.816406 -14.191406 8.171875 -15.265625 C 6.566406 -16.472656 5.347656 -17.941406 4.515625 -19.671875 C 3.691406 -21.398438 3.28125 -23.289062 3.28125 -25.34375 C 3.28125 -27.769531 3.875 -29.957031 5.0625 -31.90625 C 6.257812 -33.851562 7.976562 -35.398438 10.21875 -36.546875 C 12.457031 -37.691406 15.1875 -38.265625 18.40625 -38.265625 C 21.375 -38.265625 23.953125 -37.773438 26.140625 -36.796875 L 39.359375 -36.796875 L 39.359375 -27.09375 L 33.59375 -27.09375 C 33.632812 -26.800781 33.65625 -26.507812 33.65625 -26.21875 C 33.65625 -25.925781 33.65625 -25.632812 33.65625 -25.34375 C 33.65625 -22.90625 33.070312 -20.695312 31.90625 -18.71875 C 30.738281 -16.75 29.019531 -15.191406 26.75 -14.046875 C 24.488281 -12.910156 21.707031 -12.34375 18.40625 -12.34375 C 18.0625 -12.34375 17.71875 -12.34375 17.375 -12.34375 C 17.03125 -12.34375 16.691406 -12.363281 16.359375 -12.40625 C 15.921875 -11.96875 15.703125 -11.484375 15.703125 -10.953125 C 15.703125 -10.316406 15.882812 -9.863281 16.25 -9.59375 C 16.613281 -9.332031 17.085938 -9.203125 17.671875 -9.203125 L 26.0625 -9.203125 C 29.03125 -9.203125 31.585938 -8.664062 33.734375 -7.59375 C 35.878906 -6.519531 37.519531 -5.054688 38.65625 -3.203125 C 39.800781 -1.359375 40.375 0.726562 40.375 3.0625 C 40.375 5.882812 39.554688 8.441406 37.921875 10.734375 C 36.296875 13.023438 34.019531 14.847656 31.09375 16.203125 C 28.175781 17.566406 24.75 18.25 20.8125 18.25 C 14.625 18.25 9.875 17.25 6.5625 15.25 C 3.257812 13.257812 1.609375 10.269531 1.609375 6.28125 Z M 18.46875 -20.8125 C 19.882812 -20.8125 21.050781 -21.1875 21.96875 -21.9375 C 22.894531 -22.695312 23.359375 -23.832031 23.359375 -25.34375 C 23.359375 -26.84375 22.894531 -27.957031 21.96875 -28.6875 C 21.050781 -29.425781 19.882812 -29.796875 18.46875 -29.796875 C 17.0625 -29.796875 15.90625 -29.414062 15 -28.65625 C 14.101562 -27.90625 13.65625 -26.800781 13.65625 -25.34375 C 13.65625 -23.832031 14.101562 -22.695312 15 -21.9375 C 15.90625 -21.1875 17.0625 -20.8125 18.46875 -20.8125 Z M 12.40625 4.53125 C 12.40625 5.9375 13.050781 7.050781 14.34375 7.875 C 15.632812 8.707031 17.738281 9.125 20.65625 9.125 C 23.632812 9.125 25.765625 8.660156 27.046875 7.734375 C 28.335938 6.816406 28.984375 5.675781 28.984375 4.3125 C 28.984375 3.1875 28.617188 2.296875 27.890625 1.640625 C 27.160156 0.984375 26.066406 0.65625 24.609375 0.65625 L 13.875 0.65625 C 13.476562 1.144531 13.132812 1.691406 12.84375 2.296875 C 12.550781 2.910156 12.40625 3.65625 12.40625 4.53125 Z M 12.40625 4.53125 "/></g></g></g><g fill="#ff6218" fill-opacity="1"><g transform="translate(105.846366, 129.054473)"><g><path d="M 4.75 0 L 4.75 -36.796875 L 16.359375 -36.796875 L 16.359375 -34.75 C 17.578125 -35.769531 18.972656 -36.609375 20.546875 -37.265625 C 22.128906 -37.929688 23.992188 -38.265625 26.140625 -38.265625 C 28.765625 -38.265625 31.148438 -37.65625 33.296875 -36.4375 C 35.441406 -35.21875 37.15625 -33.378906 38.4375 -30.921875 C 39.726562 -28.460938 40.375 -25.359375 40.375 -21.609375 L 40.375 0 L 28.6875 0 L 28.6875 -21.09375 C 28.6875 -22.945312 28.203125 -24.457031 27.234375 -25.625 C 26.265625 -26.789062 24.851562 -27.375 23 -27.375 C 21.632812 -27.375 20.5 -27.09375 19.59375 -26.53125 C 18.695312 -25.976562 17.992188 -25.347656 17.484375 -24.640625 C 16.972656 -23.929688 16.597656 -23.359375 16.359375 -22.921875 L 16.359375 0 Z M 4.75 0 "/></g></g></g><g fill="#ff6218" fill-opacity="1"><g transform="translate(147.149657, 129.054473)"><g><path d="M 15.40625 1.09375 C 11.707031 1.09375 8.675781 0.0703125 6.3125 -1.96875 C 3.957031 -4.007812 2.78125 -6.8125 2.78125 -10.375 C 2.78125 -13.195312 3.835938 -15.613281 5.953125 -17.625 C 8.066406 -19.644531 11.117188 -20.972656 15.109375 -21.609375 L 25.484375 -23.359375 C 25.429688 -24.773438 24.859375 -25.941406 23.765625 -26.859375 C 22.671875 -27.785156 21.269531 -28.25 19.5625 -28.25 C 18.0625 -28.25 16.722656 -27.910156 15.546875 -27.234375 C 14.378906 -26.554688 13.382812 -25.609375 12.5625 -24.390625 L 4.09375 -30.8125 C 5.789062 -33.144531 8.003906 -34.96875 10.734375 -36.28125 C 13.460938 -37.601562 16.53125 -38.265625 19.9375 -38.265625 C 23.832031 -38.265625 27.046875 -37.566406 29.578125 -36.171875 C 32.109375 -34.785156 33.976562 -32.945312 35.1875 -30.65625 C 36.40625 -28.375 37.015625 -25.894531 37.015625 -23.21875 L 37.015625 0 L 25.484375 0 L 25.484375 -2.78125 C 24.460938 -1.65625 23.015625 -0.726562 21.140625 0 C 19.265625 0.726562 17.351562 1.09375 15.40625 1.09375 Z M 14.234375 -10.953125 C 14.234375 -10.023438 14.570312 -9.28125 15.25 -8.71875 C 15.9375 -8.164062 16.84375 -7.890625 17.96875 -7.890625 C 19.8125 -7.890625 21.34375 -8.273438 22.5625 -9.046875 C 23.78125 -9.828125 24.753906 -10.753906 25.484375 -11.828125 L 25.484375 -15.484375 L 18.25 -14.234375 C 16.738281 -13.992188 15.691406 -13.59375 15.109375 -13.03125 C 14.523438 -12.46875 14.234375 -11.773438 14.234375 -10.953125 Z M 14.234375 -10.953125 "/></g></g></g><g fill="#ff6218" fill-opacity="1"><g transform="translate(185.095983, 129.054473)"><g><path d="M 4.75 0 L 4.75 -54.765625 L 16.359375 -54.765625 L 16.359375 0 Z M 4.75 0 "/></g></g></g><g fill="#ff6218" fill-opacity="1"><g transform="translate(202.754589, 129.054473)"><g/></g></g><g fill="#000091" fill-opacity="1"><g transform="translate(219.075827, 129.054473)"><g><path d="M 7.078125 0 L 7.078125 -51.109375 L 20.078125 -51.109375 L 20.078125 -11.75 L 38.625 -11.75 L 38.625 0 Z M 7.078125 0 "/></g></g></g><g fill="#000091" fill-opacity="1"><g transform="translate(256.365384, 129.054473)"><g><path d="M 22.921875 -38.265625 C 26.960938 -38.265625 30.503906 -37.382812 33.546875 -35.625 C 36.585938 -33.875 38.957031 -31.5 40.65625 -28.5 C 42.363281 -25.507812 43.21875 -22.144531 43.21875 -18.40625 C 43.21875 -14.65625 42.363281 -11.28125 40.65625 -8.28125 C 38.957031 -5.289062 36.585938 -2.921875 33.546875 -1.171875 C 30.503906 0.578125 26.960938 1.453125 22.921875 1.453125 C 18.878906 1.453125 15.328125 0.578125 12.265625 -1.171875 C 9.203125 -2.921875 6.816406 -5.289062 5.109375 -8.28125 C 3.410156 -11.28125 2.5625 -14.65625 2.5625 -18.40625 C 2.5625 -22.144531 3.410156 -25.507812 5.109375 -28.5 C 6.816406 -31.5 9.203125 -33.875 12.265625 -35.625 C 15.328125 -37.382812 18.878906 -38.265625 22.921875 -38.265625 Z M 23 -9.421875 C 25.332031 -9.421875 27.289062 -10.25 28.875 -11.90625 C 30.457031 -13.5625 31.25 -15.726562 31.25 -18.40625 C 31.25 -21.175781 30.457031 -23.363281 28.875 -24.96875 C 27.289062 -26.570312 25.332031 -27.375 23 -27.375 C 20.613281 -27.375 18.617188 -26.554688 17.015625 -24.921875 C 15.410156 -23.296875 14.609375 -21.125 14.609375 -18.40625 C 14.609375 -15.675781 15.410156 -13.492188 17.015625 -11.859375 C 18.617188 -10.234375 20.613281 -9.421875 23 -9.421875 Z M 23 -9.421875 "/></g></g></g><g fill="#000091" fill-opacity="1"><g transform="translate(298.690401, 129.054473)"><g><path d="M 1.609375 6.28125 C 1.609375 4.476562 2.03125 2.847656 2.875 1.390625 C 3.726562 -0.0664062 4.910156 -1.359375 6.421875 -2.484375 C 5.054688 -4.140625 4.375 -5.914062 4.375 -7.8125 C 4.375 -9.320312 4.664062 -10.671875 5.25 -11.859375 C 5.84375 -13.054688 6.816406 -14.191406 8.171875 -15.265625 C 6.566406 -16.472656 5.347656 -17.941406 4.515625 -19.671875 C 3.691406 -21.398438 3.28125 -23.289062 3.28125 -25.34375 C 3.28125 -27.769531 3.875 -29.957031 5.0625 -31.90625 C 6.257812 -33.851562 7.976562 -35.398438 10.21875 -36.546875 C 12.457031 -37.691406 15.1875 -38.265625 18.40625 -38.265625 C 21.375 -38.265625 23.953125 -37.773438 26.140625 -36.796875 L 39.359375 -36.796875 L 39.359375 -27.09375 L 33.59375 -27.09375 C 33.632812 -26.800781 33.65625 -26.507812 33.65625 -26.21875 C 33.65625 -25.925781 33.65625 -25.632812 33.65625 -25.34375 C 33.65625 -22.90625 33.070312 -20.695312 31.90625 -18.71875 C 30.738281 -16.75 29.019531 -15.191406 26.75 -14.046875 C 24.488281 -12.910156 21.707031 -12.34375 18.40625 -12.34375 C 18.0625 -12.34375 17.71875 -12.34375 17.375 -12.34375 C 17.03125 -12.34375 16.691406 -12.363281 16.359375 -12.40625 C 15.921875 -11.96875 15.703125 -11.484375 15.703125 -10.953125 C 15.703125 -10.316406 15.882812 -9.863281 16.25 -9.59375 C 16.613281 -9.332031 17.085938 -9.203125 17.671875 -9.203125 L 26.0625 -9.203125 C 29.03125 -9.203125 31.585938 -8.664062 33.734375 -7.59375 C 35.878906 -6.519531 37.519531 -5.054688 38.65625 -3.203125 C 39.800781 -1.359375 40.375 0.726562 40.375 3.0625 C 40.375 5.882812 39.554688 8.441406 37.921875 10.734375 C 36.296875 13.023438 34.019531 14.847656 31.09375 16.203125 C 28.175781 17.566406 24.75 18.25 20.8125 18.25 C 14.625 18.25 9.875 17.25 6.5625 15.25 C 3.257812 13.257812 1.609375 10.269531 1.609375 6.28125 Z M 18.46875 -20.8125 C 19.882812 -20.8125 21.050781 -21.1875 21.96875 -21.9375 C 22.894531 -22.695312 23.359375 -23.832031 23.359375 -25.34375 C 23.359375 -26.84375 22.894531 -27.957031 21.96875 -28.6875 C 21.050781 -29.425781 19.882812 -29.796875 18.46875 -29.796875 C 17.0625 -29.796875 15.90625 -29.414062 15 -28.65625 C 14.101562 -27.90625 13.65625 -26.800781 13.65625 -25.34375 C 13.65625 -23.832031 14.101562 -22.695312 15 -21.9375 C 15.90625 -21.1875 17.0625 -20.8125 18.46875 -20.8125 Z M 12.40625 4.53125 C 12.40625 5.9375 13.050781 7.050781 14.34375 7.875 C 15.632812 8.707031 17.738281 9.125 20.65625 9.125 C 23.632812 9.125 25.765625 8.660156 27.046875 7.734375 C 28.335938 6.816406 28.984375 5.675781 28.984375 4.3125 C 28.984375 3.1875 28.617188 2.296875 27.890625 1.640625 C 27.160156 0.984375 26.066406 0.65625 24.609375 0.65625 L 13.875 0.65625 C 13.476562 1.144531 13.132812 1.691406 12.84375 2.296875 C 12.550781 2.910156 12.40625 3.65625 12.40625 4.53125 Z M 12.40625 4.53125 "/></g></g></g><g fill="#000091" fill-opacity="1"><g transform="translate(336.125889, 129.054473)"><g><path d="M 39.578125 -5.921875 C 37.828125 -3.628906 35.550781 -1.828125 32.75 -0.515625 C 29.945312 0.796875 26.769531 1.453125 23.21875 1.453125 C 18.6875 1.453125 14.890625 0.539062 11.828125 -1.28125 C 8.765625 -3.101562 6.453125 -5.519531 4.890625 -8.53125 C 3.335938 -11.550781 2.5625 -14.84375 2.5625 -18.40625 C 2.5625 -21.957031 3.289062 -25.238281 4.75 -28.25 C 6.207031 -31.269531 8.359375 -33.691406 11.203125 -35.515625 C 14.054688 -37.347656 17.550781 -38.265625 21.6875 -38.265625 C 25.1875 -38.265625 28.226562 -37.546875 30.8125 -36.109375 C 33.394531 -34.671875 35.398438 -32.6875 36.828125 -30.15625 C 38.265625 -27.625 38.984375 -24.679688 38.984375 -21.328125 C 38.984375 -20.109375 38.910156 -18.945312 38.765625 -17.84375 C 38.617188 -16.75 38.453125 -15.863281 38.265625 -15.1875 L 14.453125 -15.1875 C 14.992188 -12.707031 16.03125 -11.039062 17.5625 -10.1875 C 19.09375 -9.332031 20.953125 -8.90625 23.140625 -8.90625 C 24.898438 -8.90625 26.507812 -9.222656 27.96875 -9.859375 C 29.425781 -10.492188 30.566406 -11.34375 31.390625 -12.40625 Z M 21.390625 -28.921875 C 17.691406 -28.921875 15.40625 -27.066406 14.53125 -23.359375 L 27.75 -23.359375 C 27.695312 -24.628906 27.160156 -25.875 26.140625 -27.09375 C 25.117188 -28.3125 23.535156 -28.921875 21.390625 -28.921875 Z M 21.390625 -28.921875 "/></g></g></g><g fill="#000091" fill-opacity="1"><g transform="translate(374.802001, 129.054473)"><g><path d="M 4.75 0 L 4.75 -36.796875 L 16.359375 -36.796875 L 16.359375 -34.90625 C 17.472656 -35.875 18.769531 -36.675781 20.25 -37.3125 C 21.738281 -37.945312 23.457031 -38.265625 25.40625 -38.265625 C 27.550781 -38.265625 29.546875 -37.820312 31.390625 -36.9375 C 33.242188 -36.0625 34.78125 -34.726562 36 -32.9375 C 37.21875 -34.34375 38.738281 -35.582031 40.5625 -36.65625 C 42.382812 -37.726562 44.804688 -38.265625 47.828125 -38.265625 C 50.304688 -38.265625 52.566406 -37.675781 54.609375 -36.5 C 56.660156 -35.332031 58.289062 -33.566406 59.5 -31.203125 C 60.71875 -28.847656 61.328125 -25.894531 61.328125 -22.34375 L 61.328125 0 L 49.65625 0 L 49.65625 -21.828125 C 49.65625 -23.484375 49.238281 -24.820312 48.40625 -25.84375 C 47.582031 -26.863281 46.34375 -27.375 44.6875 -27.375 C 43.46875 -27.375 42.46875 -27.09375 41.6875 -26.53125 C 40.914062 -25.976562 40.304688 -25.375 39.859375 -24.71875 C 39.421875 -24.0625 39.109375 -23.5625 38.921875 -23.21875 C 38.921875 -23.070312 38.921875 -22.925781 38.921875 -22.78125 C 38.921875 -22.632812 38.921875 -22.488281 38.921875 -22.34375 L 38.921875 0 L 27.234375 0 L 27.234375 -21.828125 C 27.234375 -23.484375 26.816406 -24.820312 25.984375 -25.84375 C 25.160156 -26.863281 23.921875 -27.375 22.265625 -27.375 C 21.046875 -27.375 20.046875 -27.09375 19.265625 -26.53125 C 18.492188 -25.976562 17.890625 -25.347656 17.453125 -24.640625 C 17.015625 -23.929688 16.648438 -23.359375 16.359375 -22.921875 L 16.359375 0 Z M 4.75 0 "/></g></g></g><g fill="#000091" fill-opacity="1"><g transform="translate(437.049901, 129.054473)"><g><path d="M 39.578125 -5.921875 C 37.828125 -3.628906 35.550781 -1.828125 32.75 -0.515625 C 29.945312 0.796875 26.769531 1.453125 23.21875 1.453125 C 18.6875 1.453125 14.890625 0.539062 11.828125 -1.28125 C 8.765625 -3.101562 6.453125 -5.519531 4.890625 -8.53125 C 3.335938 -11.550781 2.5625 -14.84375 2.5625 -18.40625 C 2.5625 -21.957031 3.289062 -25.238281 4.75 -28.25 C 6.207031 -31.269531 8.359375 -33.691406 11.203125 -35.515625 C 14.054688 -37.347656 17.550781 -38.265625 21.6875 -38.265625 C 25.1875 -38.265625 28.226562 -37.546875 30.8125 -36.109375 C 33.394531 -34.671875 35.398438 -32.6875 36.828125 -30.15625 C 38.265625 -27.625 38.984375 -24.679688 38.984375 -21.328125 C 38.984375 -20.109375 38.910156 -18.945312 38.765625 -17.84375 C 38.617188 -16.75 38.453125 -15.863281 38.265625 -15.1875 L 14.453125 -15.1875 C 14.992188 -12.707031 16.03125 -11.039062 17.5625 -10.1875 C 19.09375 -9.332031 20.953125 -8.90625 23.140625 -8.90625 C 24.898438 -8.90625 26.507812 -9.222656 27.96875 -9.859375 C 29.425781 -10.492188 30.566406 -11.34375 31.390625 -12.40625 Z M 21.390625 -28.921875 C 17.691406 -28.921875 15.40625 -27.066406 14.53125 -23.359375 L 27.75 -23.359375 C 27.695312 -24.628906 27.160156 -25.875 26.140625 -27.09375 C 25.117188 -28.3125 23.535156 -28.921875 21.390625 -28.921875 Z M 21.390625 -28.921875 "/></g></g></g><g fill="#000091" fill-opacity="1"><g transform="translate(475.726022, 129.054473)"><g><path d="M 4.75 0 L 4.75 -36.796875 L 16.359375 -36.796875 L 16.359375 -34.75 C 17.578125 -35.769531 18.972656 -36.609375 20.546875 -37.265625 C 22.128906 -37.929688 23.992188 -38.265625 26.140625 -38.265625 C 28.765625 -38.265625 31.148438 -37.65625 33.296875 -36.4375 C 35.441406 -35.21875 37.15625 -33.378906 38.4375 -30.921875 C 39.726562 -28.460938 40.375 -25.359375 40.375 -21.609375 L 40.375 0 L 28.6875 0 L 28.6875 -21.09375 C 28.6875 -22.945312 28.203125 -24.457031 27.234375 -25.625 C 26.265625 -26.789062 24.851562 -27.375 23 -27.375 C 21.632812 -27.375 20.5 -27.09375 19.59375 -26.53125 C 18.695312 -25.976562 17.992188 -25.347656 17.484375 -24.640625 C 16.972656 -23.929688 16.597656 -23.359375 16.359375 -22.921875 L 16.359375 0 Z M 4.75 0 "/></g></g></g><g fill="#000091" fill-opacity="1"><g transform="translate(517.029322, 129.054473)"><g><path d="M 7.296875 -14.3125 L 7.296875 -26.4375 L 0.4375 -26.4375 L 0.4375 -36.796875 L 7.296875 -36.796875 L 7.296875 -46 L 18.984375 -46 L 18.984375 -36.796875 L 29.0625 -36.796875 L 29.0625 -26.4375 L 18.984375 -26.4375 L 18.984375 -14.3125 C 18.984375 -11.289062 20.515625 -9.78125 23.578125 -9.78125 C 24.941406 -9.78125 26.070312 -9.863281 26.96875 -10.03125 C 27.875 -10.207031 28.597656 -10.394531 29.140625 -10.59375 L 29.140625 -0.578125 C 28.160156 -0.140625 27.0625 0.1875 25.84375 0.40625 C 24.625 0.625 23.164062 0.734375 21.46875 0.734375 C 16.457031 0.734375 12.84375 -0.640625 10.625 -3.390625 C 8.40625 -6.140625 7.296875 -9.78125 7.296875 -14.3125 Z M 7.296875 -14.3125 "/></g></g></g></svg>