<svg xmlns="http://www.w3.org/2000/svg" xmlns:xlink="http://www.w3.org/1999/xlink" width="500" zoomAndPan="magnify" viewBox="0 0 375 374.999991" height="500" preserveAspectRatio="xMidYMid meet" version="1.0"><defs><g/><clipPath id="60f421af03"><path d="M 23.203125 38.398438 L 345.703125 38.398438 L 345.703125 261 L 23.203125 261 Z M 23.203125 38.398438 " clip-rule="nonzero"/></clipPath></defs><rect x="-37.5" width="450" fill="#ffffff" y="-37.499999" height="449.999989" fill-opacity="1"/><rect x="-37.5" width="450" fill="#ffffff" y="-37.499999" height="449.999989" fill-opacity="1"/><g clip-path="url(#60f421af03)"><path fill="#ff6218" d="M 718.546875 248.433594 C 722.003906 248.433594 724.8125 251.238281 724.8125 254.699219 C 724.8125 258.160156 722.007812 260.964844 718.546875 260.964844 L 75.160156 260.964844 C 68.96875 260.964844 63.332031 258.429688 59.257812 254.355469 C 55.183594 250.277344 52.648438 244.648438 52.648438 238.453125 L 52.648438 159.300781 L 41.484375 159.300781 C 37.125 159.300781 33.535156 158.15625 30.734375 156.261719 C 27.632812 154.164062 25.578125 151.199219 24.542969 147.832031 L 24.535156 147.832031 C 23.578125 144.707031 23.546875 141.257812 24.410156 137.917969 C 25.433594 133.925781 27.734375 130.035156 31.230469 127.023438 L 127.152344 44.332031 C 131.75 40.375 137.703125 38.398438 143.589844 38.398438 C 149.480469 38.398438 155.433594 40.375 160.023438 44.332031 L 224.488281 100.089844 C 227.097656 102.347656 227.382812 106.292969 225.128906 108.902344 C 222.871094 111.511719 218.925781 111.796875 216.316406 109.539062 L 151.847656 53.78125 C 149.644531 51.882812 146.648438 50.929688 143.589844 50.929688 C 140.535156 50.929688 137.53125 51.882812 135.328125 53.78125 L 39.402344 136.472656 C 37.894531 137.773438 36.914062 139.386719 36.5 141 C 36.210938 142.128906 36.199219 143.230469 36.480469 144.160156 L 36.476562 144.160156 L 36.480469 144.183594 C 36.6875 144.855469 37.105469 145.457031 37.734375 145.878906 C 38.550781 146.433594 39.789062 146.769531 41.484375 146.769531 L 58.914062 146.769531 C 62.375 146.769531 65.179688 149.574219 65.179688 153.035156 L 65.179688 238.453125 C 65.179688 241.1875 66.308594 243.6875 68.117188 245.496094 C 69.925781 247.304688 72.421875 248.433594 75.160156 248.433594 Z M 718.546875 248.433594 " fill-opacity="1" fill-rule="nonzero"/></g><g fill="#ff6218" fill-opacity="1"><g transform="translate(76.202387, 214.324494)"><g><path d="M 2.65625 -10 L 15.8125 -22.140625 C 17.71875 -19.617188 19.976562 -17.609375 22.59375 -16.109375 C 25.207031 -14.617188 27.804688 -13.875 30.390625 -13.875 C 32.503906 -13.875 34.15625 -14.347656 35.34375 -15.296875 C 36.53125 -16.253906 37.125 -17.75 37.125 -19.78125 C 37.125 -21.625 36.375 -23.125 34.875 -24.28125 C 33.382812 -25.4375 31.429688 -26.488281 29.015625 -27.4375 C 26.597656 -28.382812 24.0625 -29.4375 21.40625 -30.59375 C 18.757812 -31.75 16.226562 -33.175781 13.8125 -34.875 C 11.40625 -36.582031 9.453125 -38.773438 7.953125 -41.453125 C 6.460938 -44.140625 5.71875 -47.523438 5.71875 -51.609375 C 5.71875 -55.617188 6.753906 -59.273438 8.828125 -62.578125 C 10.898438 -65.878906 13.769531 -68.515625 17.4375 -70.484375 C 21.113281 -72.453125 25.363281 -73.4375 30.1875 -73.4375 C 35.832031 -73.4375 40.863281 -72.3125 45.28125 -70.0625 C 49.707031 -67.820312 53.585938 -64.867188 56.921875 -61.203125 L 43.765625 -49.15625 C 41.648438 -51.613281 39.46875 -53.640625 37.21875 -55.234375 C 34.976562 -56.828125 32.671875 -57.625 30.296875 -57.625 C 28.460938 -57.625 26.96875 -57.128906 25.8125 -56.140625 C 24.65625 -55.160156 24.078125 -53.921875 24.078125 -52.421875 C 24.078125 -50.660156 24.820312 -49.21875 26.3125 -48.09375 C 27.8125 -46.96875 29.765625 -45.925781 32.171875 -44.96875 C 34.585938 -44.019531 37.125 -42.96875 39.78125 -41.8125 C 42.4375 -40.664062 44.96875 -39.222656 47.375 -37.484375 C 49.789062 -35.753906 51.742188 -33.507812 53.234375 -30.75 C 54.734375 -28 55.484375 -24.550781 55.484375 -20.40625 C 55.421875 -15.644531 54.25 -11.597656 51.96875 -8.265625 C 49.6875 -4.929688 46.675781 -2.378906 42.9375 -0.609375 C 39.195312 1.160156 35.082031 2.046875 30.59375 2.046875 C 24 2.046875 18.507812 0.972656 14.125 -1.171875 C 9.738281 -3.316406 5.914062 -6.257812 2.65625 -10 Z M 2.65625 -10 "/></g></g></g><g fill="#ff6218" fill-opacity="1"><g transform="translate(131.386176, 214.324494)"><g><path d="M 14.890625 -57.015625 C 13.054688 -57.015625 11.359375 -57.488281 9.796875 -58.4375 C 8.234375 -59.394531 6.972656 -60.65625 6.015625 -62.21875 C 5.066406 -63.78125 4.59375 -65.476562 4.59375 -67.3125 C 4.59375 -70.101562 5.609375 -72.5 7.640625 -74.5 C 9.679688 -76.507812 12.097656 -77.515625 14.890625 -77.515625 C 16.722656 -77.515625 18.40625 -77.054688 19.9375 -76.140625 C 21.46875 -75.222656 22.691406 -73.984375 23.609375 -72.421875 C 24.523438 -70.859375 24.984375 -69.15625 24.984375 -67.3125 C 24.984375 -65.476562 24.523438 -63.78125 23.609375 -62.21875 C 22.691406 -60.65625 21.46875 -59.394531 19.9375 -58.4375 C 18.40625 -57.488281 16.722656 -57.015625 14.890625 -57.015625 Z M 6.625 0 L 6.625 -51.40625 L 22.84375 -51.40625 L 22.84375 0 Z M 6.625 0 "/></g></g></g><g fill="#ff6218" fill-opacity="1"><g transform="translate(156.07077, 214.324494)"><g><path d="M 2.25 8.765625 C 2.25 6.253906 2.84375 3.976562 4.03125 1.9375 C 5.21875 -0.101562 6.863281 -1.90625 8.96875 -3.46875 C 7.070312 -5.78125 6.125 -8.257812 6.125 -10.90625 C 6.125 -13.019531 6.53125 -14.910156 7.34375 -16.578125 C 8.15625 -18.242188 9.515625 -19.820312 11.421875 -21.3125 C 9.179688 -23.019531 7.484375 -25.078125 6.328125 -27.484375 C 5.171875 -29.898438 4.59375 -32.535156 4.59375 -35.390625 C 4.59375 -38.796875 5.425781 -41.859375 7.09375 -44.578125 C 8.757812 -47.296875 11.15625 -49.453125 14.28125 -51.046875 C 17.40625 -52.648438 21.210938 -53.453125 25.703125 -53.453125 C 29.847656 -53.453125 33.453125 -52.769531 36.515625 -51.40625 L 54.984375 -51.40625 L 54.984375 -37.84375 L 46.921875 -37.84375 C 46.984375 -37.4375 47.015625 -37.023438 47.015625 -36.609375 C 47.015625 -36.203125 47.015625 -35.796875 47.015625 -35.390625 C 47.015625 -31.992188 46.195312 -28.914062 44.5625 -26.15625 C 42.9375 -23.40625 40.539062 -21.226562 37.375 -19.625 C 34.21875 -18.03125 30.328125 -17.234375 25.703125 -17.234375 C 25.222656 -17.234375 24.742188 -17.234375 24.265625 -17.234375 C 23.796875 -17.234375 23.320312 -17.269531 22.84375 -17.34375 C 22.238281 -16.726562 21.9375 -16.046875 21.9375 -15.296875 C 21.9375 -14.410156 22.1875 -13.78125 22.6875 -13.40625 C 23.195312 -13.039062 23.863281 -12.859375 24.6875 -12.859375 L 36.40625 -12.859375 C 40.5625 -12.859375 44.132812 -12.109375 47.125 -10.609375 C 50.113281 -9.109375 52.40625 -7.066406 54 -4.484375 C 55.601562 -1.898438 56.40625 1.019531 56.40625 4.28125 C 56.40625 8.226562 55.265625 11.796875 52.984375 14.984375 C 50.710938 18.179688 47.535156 20.734375 43.453125 22.640625 C 39.367188 24.546875 34.570312 25.5 29.0625 25.5 C 20.425781 25.5 13.796875 24.101562 9.171875 21.3125 C 4.554688 18.53125 2.25 14.347656 2.25 8.765625 Z M 25.8125 -29.0625 C 27.78125 -29.0625 29.410156 -29.585938 30.703125 -30.640625 C 31.992188 -31.703125 32.640625 -33.285156 32.640625 -35.390625 C 32.640625 -37.503906 31.992188 -39.066406 30.703125 -40.078125 C 29.410156 -41.097656 27.78125 -41.609375 25.8125 -41.609375 C 23.832031 -41.609375 22.210938 -41.082031 20.953125 -40.03125 C 19.703125 -38.976562 19.078125 -37.429688 19.078125 -35.390625 C 19.078125 -33.285156 19.703125 -31.703125 20.953125 -30.640625 C 22.210938 -29.585938 23.832031 -29.0625 25.8125 -29.0625 Z M 17.34375 6.328125 C 17.34375 8.296875 18.242188 9.859375 20.046875 11.015625 C 21.847656 12.171875 24.785156 12.75 28.859375 12.75 C 33.015625 12.75 35.992188 12.101562 37.796875 10.8125 C 39.597656 9.519531 40.5 7.921875 40.5 6.015625 C 40.5 4.453125 39.988281 3.210938 38.96875 2.296875 C 37.945312 1.378906 36.414062 0.921875 34.375 0.921875 L 19.375 0.921875 C 18.832031 1.597656 18.359375 2.359375 17.953125 3.203125 C 17.546875 4.054688 17.34375 5.097656 17.34375 6.328125 Z M 17.34375 6.328125 "/></g></g></g><g fill="#ff6218" fill-opacity="1"><g transform="translate(208.398448, 214.324494)"><g><path d="M 6.625 0 L 6.625 -51.40625 L 22.84375 -51.40625 L 22.84375 -48.546875 C 24.539062 -49.972656 26.492188 -51.144531 28.703125 -52.0625 C 30.921875 -52.988281 33.523438 -53.453125 36.515625 -53.453125 C 40.191406 -53.453125 43.523438 -52.597656 46.515625 -50.890625 C 49.503906 -49.191406 51.898438 -46.625 53.703125 -43.1875 C 55.503906 -39.757812 56.40625 -35.425781 56.40625 -30.1875 L 56.40625 0 L 40.09375 0 L 40.09375 -29.484375 C 40.09375 -32.066406 39.410156 -34.171875 38.046875 -35.796875 C 36.679688 -37.429688 34.707031 -38.25 32.125 -38.25 C 30.226562 -38.25 28.648438 -37.859375 27.390625 -37.078125 C 26.128906 -36.296875 25.140625 -35.410156 24.421875 -34.421875 C 23.710938 -33.441406 23.1875 -32.644531 22.84375 -32.03125 L 22.84375 0 Z M 6.625 0 "/></g></g></g><g fill="#ff6218" fill-opacity="1"><g transform="translate(266.132342, 214.324494)"><g><path d="M 21.515625 1.53125 C 16.347656 1.53125 12.113281 0.101562 8.8125 -2.75 C 5.519531 -5.601562 3.875 -9.515625 3.875 -14.484375 C 3.875 -18.429688 5.351562 -21.8125 8.3125 -24.625 C 11.269531 -27.445312 15.535156 -29.300781 21.109375 -30.1875 L 35.59375 -32.640625 C 35.53125 -34.609375 34.734375 -36.238281 33.203125 -37.53125 C 31.671875 -38.820312 29.71875 -39.46875 27.34375 -39.46875 C 25.226562 -39.46875 23.351562 -38.992188 21.71875 -38.046875 C 20.09375 -37.097656 18.703125 -35.769531 17.546875 -34.0625 L 5.71875 -43.046875 C 8.09375 -46.304688 11.179688 -48.851562 14.984375 -50.6875 C 18.796875 -52.53125 23.082031 -53.453125 27.84375 -53.453125 C 33.28125 -53.453125 37.765625 -52.484375 41.296875 -50.546875 C 44.835938 -48.609375 47.457031 -46.039062 49.15625 -42.84375 C 50.863281 -39.644531 51.71875 -36.175781 51.71875 -32.4375 L 51.71875 0 L 35.59375 0 L 35.59375 -3.875 C 34.164062 -2.3125 32.144531 -1.019531 29.53125 0 C 26.914062 1.019531 24.242188 1.53125 21.515625 1.53125 Z M 19.890625 -15.296875 C 19.890625 -14.003906 20.363281 -12.96875 21.3125 -12.1875 C 22.269531 -11.40625 23.53125 -11.015625 25.09375 -11.015625 C 27.675781 -11.015625 29.816406 -11.554688 31.515625 -12.640625 C 33.210938 -13.734375 34.570312 -15.03125 35.59375 -16.53125 L 35.59375 -21.625 L 25.5 -19.890625 C 23.394531 -19.546875 21.929688 -18.984375 21.109375 -18.203125 C 20.296875 -17.421875 19.890625 -16.453125 19.890625 -15.296875 Z M 19.890625 -15.296875 "/></g></g></g><g fill="#ff6218" fill-opacity="1"><g transform="translate(319.174044, 214.324494)"><g><path d="M 6.625 0 L 6.625 -76.5 L 22.84375 -76.5 L 22.84375 0 Z M 6.625 0 "/></g></g></g><g fill="#000091" fill-opacity="1"><g transform="translate(68.566589, 318.001532)"><g><path d="M 5.96875 0 L 5.96875 -43.109375 L 16.9375 -43.109375 L 16.9375 -9.921875 L 32.578125 -9.921875 L 32.578125 0 Z M 5.96875 0 "/></g></g></g><g fill="#000091" fill-opacity="1"><g transform="translate(100.014653, 318.001532)"><g><path d="M 19.34375 -32.28125 C 22.75 -32.28125 25.734375 -31.539062 28.296875 -30.0625 C 30.867188 -28.582031 32.875 -26.578125 34.3125 -24.046875 C 35.75 -21.523438 36.46875 -18.679688 36.46875 -15.515625 C 36.46875 -12.359375 35.75 -9.515625 34.3125 -6.984375 C 32.875 -4.460938 30.867188 -2.460938 28.296875 -0.984375 C 25.734375 0.492188 22.75 1.234375 19.34375 1.234375 C 15.9375 1.234375 12.9375 0.492188 10.34375 -0.984375 C 7.757812 -2.460938 5.75 -4.460938 4.3125 -6.984375 C 2.875 -9.515625 2.15625 -12.359375 2.15625 -15.515625 C 2.15625 -18.679688 2.875 -21.523438 4.3125 -24.046875 C 5.75 -26.578125 7.757812 -28.582031 10.34375 -30.0625 C 12.9375 -31.539062 15.9375 -32.28125 19.34375 -32.28125 Z M 19.40625 -7.953125 C 21.375 -7.953125 23.023438 -8.648438 24.359375 -10.046875 C 25.691406 -11.441406 26.359375 -13.265625 26.359375 -15.515625 C 26.359375 -17.859375 25.691406 -19.707031 24.359375 -21.0625 C 23.023438 -22.414062 21.375 -23.09375 19.40625 -23.09375 C 17.394531 -23.09375 15.707031 -22.40625 14.34375 -21.03125 C 12.988281 -19.65625 12.3125 -17.816406 12.3125 -15.515625 C 12.3125 -13.222656 12.988281 -11.390625 14.34375 -10.015625 C 15.707031 -8.640625 17.394531 -7.953125 19.40625 -7.953125 Z M 19.40625 -7.953125 "/></g></g></g><g fill="#000091" fill-opacity="1"><g transform="translate(135.709437, 318.001532)"><g><path d="M 1.359375 5.296875 C 1.359375 3.773438 1.71875 2.398438 2.4375 1.171875 C 3.15625 -0.0546875 4.148438 -1.144531 5.421875 -2.09375 C 4.273438 -3.488281 3.703125 -4.988281 3.703125 -6.59375 C 3.703125 -7.863281 3.945312 -9 4.4375 -10 C 4.925781 -11.007812 5.75 -11.96875 6.90625 -12.875 C 5.539062 -13.894531 4.507812 -15.132812 3.8125 -16.59375 C 3.113281 -18.050781 2.765625 -19.644531 2.765625 -21.375 C 2.765625 -23.425781 3.269531 -25.269531 4.28125 -26.90625 C 5.289062 -28.550781 6.738281 -29.859375 8.625 -30.828125 C 10.507812 -31.796875 12.804688 -32.28125 15.515625 -32.28125 C 18.023438 -32.28125 20.203125 -31.867188 22.046875 -31.046875 L 33.203125 -31.046875 L 33.203125 -22.84375 L 28.328125 -22.84375 C 28.367188 -22.601562 28.390625 -22.359375 28.390625 -22.109375 C 28.390625 -21.867188 28.390625 -21.625 28.390625 -21.375 C 28.390625 -19.320312 27.894531 -17.460938 26.90625 -15.796875 C 25.925781 -14.128906 24.476562 -12.8125 22.5625 -11.84375 C 20.65625 -10.882812 18.304688 -10.40625 15.515625 -10.40625 C 15.234375 -10.40625 14.945312 -10.40625 14.65625 -10.40625 C 14.375 -10.40625 14.085938 -10.425781 13.796875 -10.46875 C 13.429688 -10.101562 13.25 -9.691406 13.25 -9.234375 C 13.25 -8.703125 13.398438 -8.320312 13.703125 -8.09375 C 14.015625 -7.875 14.414062 -7.765625 14.90625 -7.765625 L 21.984375 -7.765625 C 24.492188 -7.765625 26.648438 -7.3125 28.453125 -6.40625 C 30.265625 -5.5 31.648438 -4.265625 32.609375 -2.703125 C 33.578125 -1.148438 34.0625 0.613281 34.0625 2.59375 C 34.0625 4.96875 33.375 7.117188 32 9.046875 C 30.625 10.984375 28.703125 12.523438 26.234375 13.671875 C 23.773438 14.828125 20.878906 15.40625 17.546875 15.40625 C 12.335938 15.40625 8.335938 14.5625 5.546875 12.875 C 2.753906 11.1875 1.359375 8.660156 1.359375 5.296875 Z M 15.578125 -17.546875 C 16.773438 -17.546875 17.757812 -17.863281 18.53125 -18.5 C 19.3125 -19.144531 19.703125 -20.101562 19.703125 -21.375 C 19.703125 -22.644531 19.3125 -23.585938 18.53125 -24.203125 C 17.757812 -24.816406 16.773438 -25.125 15.578125 -25.125 C 14.390625 -25.125 13.414062 -24.804688 12.65625 -24.171875 C 11.894531 -23.535156 11.515625 -22.601562 11.515625 -21.375 C 11.515625 -20.101562 11.894531 -19.144531 12.65625 -18.5 C 13.414062 -17.863281 14.390625 -17.546875 15.578125 -17.546875 Z M 10.46875 3.8125 C 10.46875 5.007812 11.007812 5.957031 12.09375 6.65625 C 13.1875 7.351562 14.96875 7.703125 17.4375 7.703125 C 19.9375 7.703125 21.726562 7.3125 22.8125 6.53125 C 23.90625 5.75 24.453125 4.785156 24.453125 3.640625 C 24.453125 2.691406 24.144531 1.9375 23.53125 1.375 C 22.914062 0.820312 21.988281 0.546875 20.75 0.546875 L 11.703125 0.546875 C 11.367188 0.960938 11.078125 1.425781 10.828125 1.9375 C 10.585938 2.445312 10.46875 3.070312 10.46875 3.8125 Z M 10.46875 3.8125 "/></g></g></g><g fill="#000091" fill-opacity="1"><g transform="translate(167.280594, 318.001532)"><g><path d="M 33.390625 -4.984375 C 31.910156 -3.054688 29.988281 -1.535156 27.625 -0.421875 C 25.257812 0.679688 22.582031 1.234375 19.59375 1.234375 C 15.769531 1.234375 12.5625 0.460938 9.96875 -1.078125 C 7.382812 -2.617188 5.4375 -4.660156 4.125 -7.203125 C 2.8125 -9.753906 2.15625 -12.523438 2.15625 -15.515625 C 2.15625 -18.515625 2.769531 -21.285156 4 -23.828125 C 5.226562 -26.378906 7.046875 -28.425781 9.453125 -29.96875 C 11.859375 -31.507812 14.804688 -32.28125 18.296875 -32.28125 C 21.253906 -32.28125 23.816406 -31.671875 25.984375 -30.453125 C 28.160156 -29.242188 29.851562 -27.570312 31.0625 -25.4375 C 32.28125 -23.300781 32.890625 -20.816406 32.890625 -17.984375 C 32.890625 -16.960938 32.828125 -15.988281 32.703125 -15.0625 C 32.578125 -14.132812 32.4375 -13.382812 32.28125 -12.8125 L 12.203125 -12.8125 C 12.648438 -10.71875 13.519531 -9.3125 14.8125 -8.59375 C 16.101562 -7.875 17.675781 -7.515625 19.53125 -7.515625 C 21.007812 -7.515625 22.363281 -7.78125 23.59375 -8.3125 C 24.820312 -8.84375 25.785156 -9.5625 26.484375 -10.46875 Z M 18.046875 -24.390625 C 14.921875 -24.390625 12.988281 -22.828125 12.25 -19.703125 L 23.40625 -19.703125 C 23.363281 -20.773438 22.910156 -21.820312 22.046875 -22.84375 C 21.179688 -23.875 19.847656 -24.390625 18.046875 -24.390625 Z M 18.046875 -24.390625 "/></g></g></g><g fill="#000091" fill-opacity="1"><g transform="translate(199.898062, 318.001532)"><g><path d="M 4 0 L 4 -31.046875 L 13.796875 -31.046875 L 13.796875 -29.4375 C 14.742188 -30.257812 15.84375 -30.9375 17.09375 -31.46875 C 18.34375 -32.007812 19.789062 -32.28125 21.4375 -32.28125 C 23.238281 -32.28125 24.921875 -31.910156 26.484375 -31.171875 C 28.046875 -30.429688 29.335938 -29.300781 30.359375 -27.78125 C 31.390625 -28.96875 32.675781 -30.015625 34.21875 -30.921875 C 35.757812 -31.828125 37.800781 -32.28125 40.34375 -32.28125 C 42.4375 -32.28125 44.34375 -31.785156 46.0625 -30.796875 C 47.789062 -29.804688 49.164062 -28.316406 50.1875 -26.328125 C 51.21875 -24.335938 51.734375 -21.84375 51.734375 -18.84375 L 51.734375 0 L 41.890625 0 L 41.890625 -18.421875 C 41.890625 -19.816406 41.539062 -20.941406 40.84375 -21.796875 C 40.144531 -22.660156 39.097656 -23.09375 37.703125 -23.09375 C 36.671875 -23.09375 35.828125 -22.859375 35.171875 -22.390625 C 34.515625 -21.921875 34 -21.40625 33.625 -20.84375 C 33.257812 -20.289062 32.992188 -19.875 32.828125 -19.59375 C 32.828125 -19.46875 32.828125 -19.34375 32.828125 -19.21875 C 32.828125 -19.09375 32.828125 -18.96875 32.828125 -18.84375 L 32.828125 0 L 22.96875 0 L 22.96875 -18.421875 C 22.96875 -19.816406 22.617188 -20.941406 21.921875 -21.796875 C 21.222656 -22.660156 20.175781 -23.09375 18.78125 -23.09375 C 17.757812 -23.09375 16.921875 -22.859375 16.265625 -22.390625 C 15.609375 -21.921875 15.09375 -21.382812 14.71875 -20.78125 C 14.351562 -20.1875 14.046875 -19.707031 13.796875 -19.34375 L 13.796875 0 Z M 4 0 "/></g></g></g><g fill="#000091" fill-opacity="1"><g transform="translate(252.395197, 318.001532)"><g><path d="M 33.390625 -4.984375 C 31.910156 -3.054688 29.988281 -1.535156 27.625 -0.421875 C 25.257812 0.679688 22.582031 1.234375 19.59375 1.234375 C 15.769531 1.234375 12.5625 0.460938 9.96875 -1.078125 C 7.382812 -2.617188 5.4375 -4.660156 4.125 -7.203125 C 2.8125 -9.753906 2.15625 -12.523438 2.15625 -15.515625 C 2.15625 -18.515625 2.769531 -21.285156 4 -23.828125 C 5.226562 -26.378906 7.046875 -28.425781 9.453125 -29.96875 C 11.859375 -31.507812 14.804688 -32.28125 18.296875 -32.28125 C 21.253906 -32.28125 23.816406 -31.671875 25.984375 -30.453125 C 28.160156 -29.242188 29.851562 -27.570312 31.0625 -25.4375 C 32.28125 -23.300781 32.890625 -20.816406 32.890625 -17.984375 C 32.890625 -16.960938 32.828125 -15.988281 32.703125 -15.0625 C 32.578125 -14.132812 32.4375 -13.382812 32.28125 -12.8125 L 12.203125 -12.8125 C 12.648438 -10.71875 13.519531 -9.3125 14.8125 -8.59375 C 16.101562 -7.875 17.675781 -7.515625 19.53125 -7.515625 C 21.007812 -7.515625 22.363281 -7.78125 23.59375 -8.3125 C 24.820312 -8.84375 25.785156 -9.5625 26.484375 -10.46875 Z M 18.046875 -24.390625 C 14.921875 -24.390625 12.988281 -22.828125 12.25 -19.703125 L 23.40625 -19.703125 C 23.363281 -20.773438 22.910156 -21.820312 22.046875 -22.84375 C 21.179688 -23.875 19.847656 -24.390625 18.046875 -24.390625 Z M 18.046875 -24.390625 "/></g></g></g><g fill="#000091" fill-opacity="1"><g transform="translate(285.012664, 318.001532)"><g><path d="M 4 0 L 4 -31.046875 L 13.796875 -31.046875 L 13.796875 -29.3125 C 14.828125 -30.175781 16.007812 -30.882812 17.34375 -31.4375 C 18.675781 -32 20.242188 -32.28125 22.046875 -32.28125 C 24.265625 -32.28125 26.273438 -31.765625 28.078125 -30.734375 C 29.890625 -29.710938 31.335938 -28.160156 32.421875 -26.078125 C 33.515625 -24.003906 34.0625 -21.390625 34.0625 -18.234375 L 34.0625 0 L 24.203125 0 L 24.203125 -17.796875 C 24.203125 -19.359375 23.789062 -20.628906 22.96875 -21.609375 C 22.15625 -22.597656 20.96875 -23.09375 19.40625 -23.09375 C 18.25 -23.09375 17.289062 -22.859375 16.53125 -22.390625 C 15.78125 -21.921875 15.1875 -21.382812 14.75 -20.78125 C 14.320312 -20.1875 14.003906 -19.707031 13.796875 -19.34375 L 13.796875 0 Z M 4 0 "/></g></g></g><g fill="#000091" fill-opacity="1"><g transform="translate(319.845799, 318.001532)"><g><path d="M 6.15625 -12.078125 L 6.15625 -22.296875 L 0.375 -22.296875 L 0.375 -31.046875 L 6.15625 -31.046875 L 6.15625 -38.796875 L 16.015625 -38.796875 L 16.015625 -31.046875 L 24.515625 -31.046875 L 24.515625 -22.296875 L 16.015625 -22.296875 L 16.015625 -12.078125 C 16.015625 -9.523438 17.304688 -8.25 19.890625 -8.25 C 21.046875 -8.25 22 -8.320312 22.75 -8.46875 C 23.507812 -8.613281 24.117188 -8.769531 24.578125 -8.9375 L 24.578125 -0.5 C 23.753906 -0.125 22.828125 0.148438 21.796875 0.328125 C 20.773438 0.515625 19.546875 0.609375 18.109375 0.609375 C 13.878906 0.609375 10.828125 -0.546875 8.953125 -2.859375 C 7.085938 -5.179688 6.15625 -8.253906 6.15625 -12.078125 Z M 6.15625 -12.078125 "/></g></g></g></svg>