<?xml version="1.0" encoding="UTF-8"?><svg xmlns="http://www.w3.org/2000/svg" viewBox="0 0 282.28 66.76"><defs><style>.d{fill:#fff;}.e{fill:#ec690d;}</style></defs><g id="a"/><g id="b"><g id="c"><g><rect class="e" width="282.28" height="66.76" rx="15.83" ry="15.83"/><g><path class="d" d="M91.57,58.6v-20.39c0-.4,.34-.72,.75-.72h1.87c.42,0,.75,.32,.75,.72v7.72c0,.4,.34,.72,.75,.72h9.14c.42,0,.75-.32,.75-.72v-7.72c0-.4,.34-.72,.75-.72h1.87c.42,0,.75,.32,.75,.72v20.39c0,.4-.34,.72-.75,.72h-1.87c-.42,0-.75-.32-.75-.72v-7.99c0-.4-.34-.72-.75-.72h-9.14c-.42,0-.75,.32-.75,.72v7.99c0,.4-.34,.72-.75,.72h-1.87c-.42,0-.75-.32-.75-.72Z"/><path class="d" d="M114.72,58.6v-20.39c0-.4,.34-.72,.75-.72h1.87c.42,0,.75,.32,.75,.72v20.39c0,.4-.34,.72-.75,.72h-1.87c-.42,0-.75-.32-.75-.72Z"/><path class="d" d="M122.89,53.01l1.87-.52c.39-.11,.82,.1,.93,.47,.63,2.15,2.26,3.5,4.6,3.5,2.15,0,3.89-1.22,3.89-3.06s-1.35-2.8-3.18-3.18l-2.64-.54c-3.53-.72-5.45-3.09-5.45-5.95,0-3.59,3.23-6.56,7.1-6.56,4.43,0,6.48,2.47,7.16,4.69,.11,.37-.11,.76-.49,.88l-1.78,.57c-.38,.12-.79-.07-.94-.42-.58-1.35-1.92-2.63-3.89-2.63-2.11,0-3.7,1.48-3.7,3.16,0,1.24,.98,2.56,2.71,2.9l2.72,.54c3.84,.76,5.86,3.09,5.86,6.33s-2.67,6.37-7.44,6.37-7.25-2.83-7.86-5.69c-.08-.37,.14-.75,.53-.85Z"/><path class="d" d="M139.37,39.94v-1.73c0-.4,.34-.72,.75-.72h15.54c.42,0,.75,.32,.75,.72v1.73c0,.4-.34,.72-.75,.72h-5.33c-.42,0-.75,.32-.75,.72v17.22c0,.4-.34,.72-.75,.72h-1.87c-.42,0-.75-.32-.75-.72v-17.22c0-.4-.34-.72-.75-.72h-5.32c-.42,0-.75-.32-.75-.72Z"/><path class="d" d="M168.6,37.18c6.1,0,11.01,4.82,11.01,11.18s-5.02,11.21-11.11,11.21-10.99-4.69-10.99-11.12,4.99-11.28,11.08-11.28Zm-.04,19.2c4.21,0,7.5-3.58,7.5-8s-3.29-8-7.5-8-7.5,3.55-7.5,8,3.27,8,7.5,8Z"/><path class="d" d="M188.06,56.13h8.2c.42,0,.75,.32,.75,.72v1.75c0,.4-.34,.72-.75,.72h-11.58c-.42,0-.75-.32-.75-.72v-20.39c0-.4,.34-.72,.75-.72h1.87c.42,0,.75,.32,.75,.72v17.2c0,.4,.34,.72,.75,.72Z"/><path class="d" d="M209.07,37.18c6.1,0,11.01,4.82,11.01,11.18s-5.02,11.21-11.11,11.21-10.99-4.69-10.99-11.12,4.99-11.28,11.08-11.28Zm-.04,19.2c4.21,0,7.5-3.58,7.5-8s-3.29-8-7.5-8-7.5,3.55-7.5,8,3.27,8,7.5,8Z"/><path class="d" d="M233.91,40.36c-4.2,0-7.42,3.44-7.42,8.01s3.04,8.03,7.39,8.03c3.35,0,5.4-1.71,6.17-3.96,.16-.46-.22-.93-.73-.93h-6c-.42,0-.75-.32-.75-.72v-1.68c0-.4,.34-.72,.75-.72h10.61v1.2c0,5.52-3.77,9.97-10.02,9.97s-10.92-4.75-10.92-11.12,4.72-11.27,10.96-11.27c4.83,0,8.07,2.73,9.31,5.9,.15,.39-.05,.82-.47,.95l-1.88,.6c-.38,.12-.79-.07-.94-.42-.73-1.77-2.69-3.84-6.06-3.84Z"/><path class="d" d="M261.11,40.59h-8.89c-.42,0-.75,.32-.75,.72v4.63c0,.4,.34,.72,.75,.72h7.95c.42,0,.75,.32,.75,.72v1.66c0,.4-.34,.72-.75,.72h-7.95c-.42,0-.75,.32-.75,.72v5c0,.4,.34,.72,.75,.72h8.99c.42,0,.75,.32,.75,.72v1.68c0,.4-.34,.72-.75,.72h-12.37c-.42,0-.75-.32-.75-.72v-20.39c0-.4,.34-.72,.75-.72h12.27c.42,0,.75,.32,.75,.72v1.66c0,.4-.34,.72-.75,.72Z"/></g><g><path class="d" d="M42.68,14.15v12.39l-9.4,6.51V14.15c0-.47,.38-.85,.85-.85h7.71c.47,0,.85,.38,.85,.85Z"/><path class="d" d="M42.68,38.76v19.95c0,.47-.38,.86-.85,.86h-7.71c-.47,0-.85-.39-.85-.86v-13.44l9.4-6.51Z"/><path class="d" d="M62.15,14.15v12.39l9.4,6.51V14.15c0-.47-.38-.85-.85-.85h-7.71c-.47,0-.85,.38-.85,.85Z"/><path class="d" d="M62.15,38.76v19.95c0,.47,.38,.86,.85,.86h7.71c.47,0,.85-.39,.85-.86v-13.44l-9.4-6.51Z"/><path class="d" d="M79.66,42.46l-2.22,3.21c-.29,.41-.86,.52-1.27,.23l-3.91-2.71-9.4-6.52-10.44-7.22-9.74,6.74-9.4,6.51-4.62,3.2c-.42,.28-.98,.18-1.27-.23l-2.22-3.21c-.29-.41-.19-.97,.22-1.27l7.89-5.46,9.4-6.51,9.11-6.31s.07-.06,.12-.07c0,0,.02-.02,.03-.02,.06-.05,.14-.08,.2-.1,.09-.03,.17-.04,.25-.04h.02c.09,0,.18,0,.26,.04,.08,.02,.17,.06,.23,.12l.13,.08,9.81,6.8,9.4,6.51,7.18,4.97c.41,.29,.51,.86,.22,1.27Z"/><g><rect class="d" x="52.88" y="38.37" width="4.85" height="4.85"/><polygon class="d" points="51.95 32.86 51.95 37.45 47.12 37.45 47.12 36.21 51.95 32.86"/><rect class="d" x="47.11" y="38.37" width="4.85" height="4.85"/><polygon class="d" points="57.72 36.21 57.72 37.45 52.88 37.45 52.88 32.86 57.72 36.21"/></g></g></g></g></g></svg>