<svg xmlns="http://www.w3.org/2000/svg" width="800" height="250" version="1.0" viewBox="0 0 600 187.5"><defs><clipPath id="a"><path d="M369.133 15.965h219.164v151.098H369.133Zm0 0"/></clipPath><clipPath id="c"><path d="M.133.965H219v151.098H.133Zm0 0"/></clipPath><clipPath id="b"><path d="M0 0h220v153H0z"/></clipPath></defs><g clip-path="url(#a)"><g clip-path="url(#b)" transform="translate(369 15)"><g clip-path="url(#c)"><path fill="#c75000" d="M-252.937 143.55a4.25 4.25 0 0 0-4.25 4.255 4.253 4.253 0 0 0 4.25 4.254h436.769c4.207 0 8.031-1.723 10.797-4.489a15.24 15.24 0 0 0 4.484-10.797v-53.73h7.582c2.961 0 5.395-.777 7.297-2.063 2.106-1.425 3.504-3.437 4.203-5.726l.004.004c.653-2.125.672-4.465.086-6.735-.691-2.707-2.254-5.347-4.629-7.394l-65.12-56.137C145.417 2.31 141.374.965 137.378.965c-4 0-8.04 1.344-11.156 4.027L82.46 42.848a4.24 4.24 0 0 0-.434 5.98 4.24 4.24 0 0 0 5.98.434l43.766-37.856c1.497-1.285 3.532-1.933 5.606-1.933s4.113.648 5.61 1.933l65.12 56.137c1.024.887 1.688 1.98 1.97 3.074.194.77.202 1.516.01 2.145l.009.004-.008.015c-.14.453-.422.864-.848 1.149-.554.379-1.394.605-2.547.605h-11.832a4.254 4.254 0 0 0-4.254 4.254v57.984a6.76 6.76 0 0 1-1.996 4.786 6.76 6.76 0 0 1-4.781 1.992Zm0 0"/></g></g></g><path fill="#c75000" d="m13.787 128.543 9.36-8.64q2.026 2.688 4.828 4.28 2.796 1.595 5.562 1.595c1.5 0 2.672-.336 3.516-1.016q1.266-1.013 1.266-3.188 0-1.967-1.594-3.203-1.594-1.23-4.172-2.25a165 165 0 0 1-5.422-2.25 30.4 30.4 0 0 1-5.406-3.047q-2.567-1.811-4.172-4.671c-1.062-1.914-1.594-4.329-1.594-7.235 0-2.851.739-5.453 2.22-7.797q2.215-3.527 6.124-5.625 3.92-2.109 9.078-2.109c4.02 0 7.602.805 10.75 2.406a28.5 28.5 0 0 1 8.266 6.297l-9.36 8.578q-2.251-2.624-4.656-4.328-2.39-1.701-4.922-1.703-1.97 0-3.203 1.062-1.235 1.049-1.234 2.641 0 1.893 1.594 3.094 1.607 1.19 4.187 2.203 2.578 1.02 5.406 2.25a29.4 29.4 0 0 1 5.407 3.094q2.577 1.845 4.171 4.781 1.594 2.94 1.594 7.375-.063 5.08-2.5 8.64-2.44 3.552-6.437 5.438-3.985 1.888-8.766 1.89-7.049 0-11.734-2.28-4.675-2.298-8.157-6.282M61.762 95.074a6.8 6.8 0 0 1-3.625-1.015 7.8 7.8 0 0 1-2.687-2.688 6.8 6.8 0 0 1-1.016-3.625q0-2.981 2.172-5.125 2.186-2.139 5.156-2.14c1.313 0 2.508.328 3.594.984a7.26 7.26 0 0 1 2.61 2.64 7.06 7.06 0 0 1 .984 3.641 7 7 0 0 1-.985 3.625 7.6 7.6 0 0 1-2.609 2.688c-1.086.68-2.281 1.015-3.594 1.015m-5.875 40.579V99.059h11.547v36.594ZM70.329 141.903q0-2.69 1.266-4.875 1.278-2.169 3.53-3.844-2.031-2.467-2.03-5.297-.001-2.25.859-4.031.872-1.782 2.906-3.375-2.392-1.812-3.625-4.39-1.235-2.58-1.234-5.626c0-2.414.594-4.594 1.781-6.531q1.781-2.906 5.11-4.61 3.34-1.717 8.14-1.718 4.418 0 7.688 1.453h13.14v9.656h-5.734q.077.44.078.875v.875q-.002 3.627-1.75 6.563-1.734 2.94-5.11 4.656-3.377 1.704-8.312 1.703h-1.031c-.336 0-.668-.023-1-.078q-.657.656-.656 1.453-.001.938.546 1.344.546.408 1.407.406h8.36c2.944 0 5.483.531 7.608 1.594q3.2 1.593 4.907 4.36c1.133 1.835 1.703 3.91 1.703 6.233q0 4.217-2.438 7.625-2.424 3.404-6.78 5.438-4.362 2.03-10.235 2.031-9.223-.002-14.157-2.969-4.937-2.97-4.937-8.921m16.766-26.938q2.108 0 3.484-1.125 1.39-1.125 1.39-3.375t-1.39-3.344c-.918-.726-2.078-1.093-3.484-1.093q-2.097 0-3.438 1.125-1.345 1.126-1.344 3.312-.001 2.25 1.344 3.375 1.342 1.125 3.438 1.125m-6.016 25.188q0 2.109 1.922 3.343c1.281.82 3.375 1.235 6.281 1.235 2.945 0 5.063-.465 6.344-1.39q1.922-1.38 1.922-3.407-.002-1.674-1.094-2.656c-.719-.649-1.805-.97-3.25-.97H82.532a8 8 0 0 0-1.016 1.626c-.292.601-.437 1.344-.437 2.219M110.693 135.653V99.059h11.547v2.047q1.81-1.531 4.172-2.516c1.57-.656 3.422-.984 5.547-.984q3.92 0 7.11 1.828c2.132 1.21 3.843 3.039 5.124 5.484q1.922 3.659 1.922 9.25v21.485h-11.61v-20.985q0-2.749-1.453-4.484c-.968-1.164-2.375-1.75-4.218-1.75q-2.033 0-3.375.844-1.348.832-2.11 1.875-.75 1.047-1.11 1.703v22.797ZM162.373 136.746c-3.68 0-6.687-1.015-9.031-3.047q-3.516-3.06-3.516-8.359-.001-4.2 3.157-7.219c2.101-2.007 5.14-3.328 9.109-3.953l10.297-1.75q-.064-2.09-1.703-3.469-1.63-1.389-4.172-1.39c-1.5 0-2.836.34-4 1.015-1.156.68-2.149 1.622-2.969 2.829l-8.422-6.391q2.544-3.48 6.61-5.438 4.06-1.968 9.14-1.968 5.812.002 9.578 2.078 3.779 2.063 5.594 5.484 1.828 3.41 1.828 7.406v23.079H172.39v-2.766q-1.518 1.675-4.313 2.766c-1.867.726-3.765 1.093-5.703 1.093m-1.156-11.984q-.002 1.376 1.016 2.219 1.012.83 2.687.828 2.747.002 4.563-1.156 1.827-1.155 2.906-2.766v-3.625l-7.188 1.234c-1.5.243-2.543.641-3.125 1.203q-.86.833-.859 2.063M189.527 135.653V81.215h11.547v54.438Zm0 0"/><path fill="#000091" d="M225.627 135.653V84.84h12.922v39.125h18.437v11.688ZM278.47 97.606q6.013 0 10.548 2.625 4.546 2.613 7.078 7.078c1.695 2.969 2.547 6.32 2.547 10.047 0 3.73-.852 7.086-2.547 10.062q-2.532 4.453-7.078 7.078-4.536 2.61-10.547 2.61-6.035 0-10.61-2.61-4.565-2.625-7.109-7.078-2.53-4.466-2.531-10.062 0-5.592 2.531-10.047 2.543-4.465 7.11-7.078 4.574-2.625 10.609-2.625m.063 28.687c2.32 0 4.27-.82 5.844-2.469 1.57-1.644 2.36-3.8 2.36-6.468 0-2.758-.79-4.938-2.36-6.532q-2.362-2.39-5.844-2.39-3.55 0-5.953 2.437-2.39 2.426-2.39 6.485 0 4.064 2.39 6.5 2.403 2.437 5.953 2.437M299.37 141.903q0-2.69 1.266-4.875 1.28-2.169 3.531-3.844-2.032-2.467-2.031-5.297-.001-2.25.86-4.031.872-1.782 2.906-3.375c-1.594-1.207-2.805-2.672-3.625-4.39q-1.236-2.58-1.235-5.626c0-2.414.594-4.594 1.782-6.531q1.78-2.906 5.109-4.61 3.34-1.717 8.14-1.718 4.418 0 7.688 1.453h13.14v9.656h-5.734q.077.44.078.875v.875c0 2.418-.586 4.606-1.75 6.563q-1.734 2.94-5.109 4.656-3.377 1.704-8.312 1.703h-1.032c-.336 0-.668-.023-1-.078q-.656.656-.656 1.453-.002.938.547 1.344.545.408 1.406.406h8.36c2.945 0 5.484.531 7.609 1.594q3.2 1.593 4.906 4.36c1.133 1.835 1.703 3.91 1.703 6.233q0 4.217-2.437 7.625-2.424 3.404-6.781 5.438-4.361 2.03-10.235 2.031-9.222-.002-14.156-2.969-4.939-2.97-4.938-8.921m16.766-26.938q2.108 0 3.484-1.125 1.39-1.125 1.391-3.375-.001-2.249-1.39-3.344c-.919-.726-2.079-1.093-3.485-1.093q-2.097 0-3.437 1.125c-.899.75-1.344 1.855-1.344 3.312 0 1.5.445 2.625 1.344 3.375q1.34 1.125 3.437 1.125m-6.016 25.188q0 2.109 1.922 3.343c1.282.82 3.375 1.235 6.282 1.235 2.945 0 5.062-.465 6.343-1.39q1.923-1.38 1.922-3.407-.002-1.674-1.094-2.656-1.079-.972-3.25-.97h-10.671a8 8 0 0 0-1.016 1.626c-.293.601-.438 1.344-.438 2.219M374.36 129.778c-1.743 2.273-4 4.062-6.782 5.375q-4.173 1.952-9.484 1.953-6.752 0-11.328-2.719c-3.043-1.82-5.34-4.234-6.89-7.234q-2.314-4.5-2.313-9.797-.001-5.297 2.171-9.797 2.169-4.5 6.422-7.219c2.832-1.82 6.305-2.734 10.422-2.734q5.217 0 9.063 2.156 3.855 2.144 6 5.922 2.139 3.767 2.14 8.765-.001 1.829-.218 3.47c-.149 1.085-.313 1.964-.5 2.64H349.39c.531 2.469 1.554 4.125 3.078 4.969q2.295 1.265 5.562 1.265 2.608 0 4.782-.937c1.457-.633 2.597-1.485 3.421-2.547Zm-18.079-22.875q-5.519.001-6.812 5.515h13.125q-.064-1.887-1.594-3.703-1.519-1.811-4.719-1.812M378.208 135.653V99.059h11.546v1.89q1.672-1.452 3.875-2.39c1.477-.633 3.188-.953 5.125-.953q3.186 0 5.938 1.312c1.844.875 3.367 2.211 4.578 4q1.828-2.109 4.547-3.703c1.812-1.07 4.219-1.61 7.219-1.61 2.468 0 4.718.587 6.75 1.75 2.031 1.169 3.648 2.923 4.86 5.266q1.827 3.516 1.827 8.813v22.219h-11.625v-21.704c0-1.644-.414-2.972-1.234-3.984q-1.237-1.53-3.703-1.531-1.816 0-2.969.844-1.158.83-1.813 1.812c-.437.649-.757 1.14-.953 1.484v23.079h-11.609v-21.704c0-1.644-.414-2.972-1.234-3.984q-1.237-1.53-3.704-1.531-1.814 0-2.984.844-1.158.832-1.812 1.875-.645 1.047-1.079 1.703v22.797ZM474.753 129.778c-1.742 2.273-4 4.062-6.781 5.375q-4.175 1.952-9.485 1.953-6.75 0-11.328-2.719c-3.043-1.82-5.34-4.234-6.89-7.234q-2.314-4.5-2.313-9.797t2.172-9.797q2.168-4.5 6.422-7.219c2.832-1.82 6.304-2.734 10.422-2.734 3.476 0 6.5.718 9.062 2.156q3.855 2.144 6 5.922 2.14 3.767 2.14 8.765-.001 1.829-.218 3.47c-.149 1.085-.313 1.964-.5 2.64h-23.672q.795 3.703 3.078 4.969 2.295 1.265 5.563 1.265 2.608 0 4.78-.937c1.458-.633 2.599-1.485 3.423-2.547Zm-18.078-22.875q-5.52.001-6.813 5.515h13.125q-.064-1.887-1.594-3.703-1.518-1.811-4.718-1.812M478.601 135.653V99.059h11.547v2.047q1.81-1.531 4.172-2.516c1.57-.656 3.422-.984 5.547-.984q3.92 0 7.109 1.828c2.133 1.21 3.844 3.039 5.125 5.484q1.922 3.659 1.922 9.25v21.485h-11.61v-20.985q0-2.749-1.453-4.484c-.968-1.164-2.375-1.75-4.218-1.75q-2.033 0-3.375.844-1.348.832-2.11 1.875-.75 1.047-1.11 1.703v22.797ZM522.234 121.418v-12.047h-6.828V99.06h6.828v-9.14h11.61v9.14h10.015v10.312h-10.015v12.047c0 3 1.523 4.5 4.578 4.5q2.027.001 3.375-.25c.894-.164 1.61-.347 2.14-.547v9.953c-.968.438-2.058.758-3.265.97q-1.816.327-4.36.327-7.488.001-10.78-4.093-3.299-4.11-3.298-10.86m0 0"/></svg>