<?xml version="1.0" encoding="UTF-8"?><svg id="Calque_2" xmlns="http://www.w3.org/2000/svg" viewBox="0 0 180.83 180.83"><defs><style>.cls-1{fill:#fff;}.cls-2{fill:#2fac66;}.cls-3{fill:#e20e18;}.cls-4{fill:#ffe910;}.cls-5{fill:#253574;}</style></defs><g id="Calque_2-2"><g><path class="cls-2" d="M90.41,180.83C40.56,180.83,0,140.27,0,90.41S40.56,0,90.41,0s90.41,40.56,90.41,90.41-40.56,90.41-90.41,90.41Zm0-175.86C43.3,4.97,4.97,43.3,4.97,90.41s38.33,85.44,85.44,85.44,85.44-38.33,85.44-85.44S137.53,4.97,90.41,4.97Z"/><path class="cls-2" d="M90.41,136.44c-25.38,0-46.03-20.65-46.03-46.03s20.65-46.03,46.03-46.03,46.03,20.65,46.03,46.03-20.65,46.03-46.03,46.03Zm0-90.19c-24.35,0-44.16,19.81-44.16,44.16s19.81,44.16,44.16,44.16,44.16-19.81,44.16-44.16-19.81-44.16-44.16-44.16Z"/><g><rect class="cls-3" x="119.93" y="89.06" width="30.27" height="16.4" transform="translate(-16.7 165.6) rotate(-60)"/><rect class="cls-1" x="105.73" y="80.86" width="30.27" height="16.4" transform="translate(-16.7 149.2) rotate(-60)"/><rect class="cls-5" x="91.53" y="72.67" width="30.27" height="16.4" transform="translate(-16.7 132.8) rotate(-60)"/><path class="cls-5" d="M107.74,65.95l39.7,22.92-13.46,23.31-39.7-22.92,13.46-23.31m-.61-2.29l-15.13,26.21,42.61,24.6,15.13-26.21-42.61-24.6h0Z"/><rect class="cls-5" x="63.35" y="87.37" width="60.17" height="1.86" transform="translate(-29.75 125.09) rotate(-60.01)"/><rect class="cls-5" x="35.36" y="73.82" width="49.2" height="30.27" transform="translate(-36.44 41.9) rotate(-30)"/><polygon class="cls-4" points="64.5 99.22 65.03 98.06 66.25 98.21 65.33 97.39 65.88 96.28 64.81 96.9 63.9 96.1 64.13 97.29 63.05 97.91 64.26 98.01 64.5 99.22"/><polygon class="cls-4" points="54.93 82.11 55.46 80.98 56.68 81.1 55.77 80.28 56.31 79.18 55.25 79.79 54.33 79.01 54.57 80.19 53.5 80.8 54.69 80.89 54.93 82.11"/><polygon class="cls-4" points="50.82 95.7 51.35 94.57 52.59 94.68 51.68 93.86 52.25 92.77 51.17 93.4 50.23 92.61 50.46 93.8 49.38 94.43 50.57 94.49 50.82 95.7"/><polygon class="cls-4" points="68.55 85.43 69.08 84.3 70.31 84.42 69.41 83.58 69.96 82.52 68.89 83.13 67.96 82.34 68.19 83.54 67.12 84.16 68.3 84.22 68.55 85.43"/><polygon class="cls-4" points="60.11 80.68 60.65 79.54 61.88 79.65 60.97 78.84 61.52 77.74 60.45 78.36 59.52 77.55 59.75 78.76 58.67 79.39 59.87 79.47 60.11 80.68"/><polygon class="cls-4" points="65.07 82.01 65.61 80.87 66.84 80.98 65.92 80.15 66.47 79.06 65.4 79.67 64.48 78.88 64.69 80.09 63.62 80.7 64.83 80.78 65.07 82.01"/><polygon class="cls-4" points="69.56 90.34 70.09 89.22 71.33 89.33 70.42 88.51 70.98 87.4 69.9 88.02 68.97 87.23 69.19 88.43 68.12 89.05 69.32 89.15 69.56 90.34"/><polygon class="cls-4" points="68.16 95.38 68.7 94.23 69.94 94.36 69.02 93.53 69.58 92.43 68.51 93.05 67.57 92.26 67.8 93.46 66.73 94.08 67.93 94.16 68.16 95.38"/><polygon class="cls-4" points="59.57 100.35 60.1 99.2 61.35 99.32 60.43 98.49 60.99 97.39 59.91 98.01 58.98 97.22 59.2 98.42 58.12 99.04 59.32 99.13 59.57 100.35"/><polygon class="cls-4" points="54.72 98.94 55.26 97.82 56.48 97.92 55.58 97.11 56.14 96 55.06 96.62 54.14 95.84 54.35 97.03 53.28 97.65 54.49 97.74 54.72 98.94"/><polygon class="cls-4" points="49.52 90.98 50.05 89.85 51.29 89.96 50.37 89.13 50.94 88.03 49.85 88.65 48.92 87.87 49.14 89.07 48.07 89.68 49.27 89.77 49.52 90.98"/><polygon class="cls-4" points="50.76 86.1 51.29 84.97 52.52 85.09 51.61 84.27 52.16 83.18 51.1 83.79 50.15 82.99 50.39 84.2 49.31 84.82 50.51 84.91 50.76 86.1"/><rect class="cls-5" x="86.48" y="58.21" width="1.86" height="60.17" transform="translate(-32.44 55.54) rotate(-30)"/></g><g><path class="cls-2" d="M22.3,57.62l6.46-11.3,3.27,1.87-4.21,7.37,4.6,2.63,3.58-6.26,3.27,1.87-3.58,6.26,8.25,4.72-2.25,3.93-19.39-11.08Z"/><path class="cls-2" d="M36.44,37.23l5.24-4.37c3.77-3.14,7.71-3.15,10.37,.04,1.73,2.08,2.02,4.46,.93,6.74l11.7,3.12-4.09,3.41-10.36-3.12-1.79,1.49,5.78,6.94-3.48,2.9-14.29-17.15Zm5.89,0l3.69,4.44,1.96-1.63c1.47-1.23,1.61-2.8,.45-4.19-1.08-1.3-2.67-1.47-4.15-.24l-1.96,1.63Z"/><path class="cls-2" d="M68.56,18.18l5.74-1.5,13.81,19.48-4.66,1.21-3.53-5.08-8.65,2.25-.6,6.16-4.66,1.21,2.55-23.74Zm9.03,10.74l-5.08-7.35-.85,8.89,5.93-1.54Z"/><path class="cls-2" d="M95.8,14.52l5.69,1.18,6.49,17.84,3.29-15.81,4.44,.92-4.55,21.87-5.69-1.18-6.49-17.84-3.29,15.81-4.44-.92,4.55-21.87Z"/><path class="cls-2" d="M133.09,47.97l1.11,4.37c-3.32,.92-7.03,.27-10.21-2.24-5.54-4.36-5.97-11.6-2.02-16.61,3.95-5.01,11.08-6.29,16.62-1.93,3.18,2.5,4.66,5.98,4.59,9.38l-4.52-.03c.12-2.22-.69-4.44-2.69-6.02-3.31-2.6-7.69-1.88-10.34,1.48-2.64,3.36-2.32,7.79,.99,10.4,2,1.58,4.35,1.84,6.48,1.2Z"/><path class="cls-2" d="M153.16,48.09l6.3,11.39-3.29,1.82-4.11-7.42-4.63,2.56,3.49,6.31-3.29,1.82-3.49-6.31-5.02,2.78,4.11,7.43-3.29,1.82-6.3-11.39,19.54-10.81Z"/></g><g><path class="cls-2" d="M38.7,107.33l3.04,6.11c2.19,4.4,1.28,8.23-2.43,10.08-2.43,1.21-4.81,.93-6.77-.66l-5.74,10.66-2.37-4.77,5.43-9.36-1.04-2.08-8.08,4.02-2.02-4.06,19.99-9.94Zm-1.35,5.73l-5.17,2.57,1.14,2.28c.85,1.71,2.35,2.21,3.98,1.41,1.51-.75,2.04-2.26,1.19-3.98l-1.14-2.28Z"/><path class="cls-2" d="M48.69,124.99l9.36,9.04-2.61,2.71-6.1-5.89-3.68,3.81,5.19,5.01-2.61,2.71-5.19-5-3.99,4.13,6.1,5.89-2.61,2.71-9.36-9.04,15.51-16.07Z"/><path class="cls-2" d="M61.97,136.45l4.07,1.98-7.97,16.38,7.63,3.71-1.8,3.7-11.7-5.69,9.77-20.07Z"/><path class="cls-2" d="M83.09,143.84l5.91,.49,6.58,22.95-4.8-.4-1.65-5.96-8.9-.74-2.61,5.61-4.8-.4,10.27-21.56Zm4.96,13.12l-2.36-8.61-3.74,8.11,6.1,.5Z"/><path class="cls-2" d="M99.31,144.5l5.45-2,14.93,11.71-5.56-15.15,4.25-1.56,7.69,20.96-5.45,2-14.93-11.72,5.56,15.15-4.25,1.56-7.69-20.96Z"/><path class="cls-2" d="M144.62,134.55l4.47-.58c.51,3.41-.58,7.01-3.45,9.87-4.99,4.97-12.23,4.53-16.73,0-4.5-4.52-4.91-11.76,.08-16.73,2.87-2.86,6.5-3.91,9.86-3.43l-.57,4.49c-2.19-.39-4.49,.15-6.3,1.95-2.98,2.97-2.79,7.41,.23,10.44s7.46,3.24,10.44,.27c1.81-1.8,2.35-4.1,1.98-6.29Z"/><path class="cls-2" d="M137.01,118.06l5.35-11.87,3.43,1.54-3.49,7.74,4.83,2.18,2.96-6.57,3.43,1.54-2.96,6.57,5.23,2.36,3.49-7.74,3.43,1.55-5.35,11.86-20.36-9.17Z"/></g></g></g></svg>