<?xml version="1.0" encoding="UTF-8"?>
<svg id="Calque_1" data-name="Calque 1" xmlns="http://www.w3.org/2000/svg" viewBox="0 0 500 500">
  <defs>
    <style>
      .cls-1 {
        fill: #000091;
      }

      .cls-2 {
        fill: #6a6af4;
      }
    </style>
  </defs>
  <path class="cls-1" d="m318.59,436h-154.26c-13.82,0-25.06-11.24-25.06-25.06,0-1.27.27-2.51.82-3.65l13.25-28.52v-71.28l-21.03-37.07c-2.36-4.18-.92-9.5,3.28-11.86,4.18-2.36,9.5-.92,11.86,3.28l22.18,39.06c.75,1.32,1.14,2.78,1.14,4.3v75.51c0,1.27-.27,2.51-.82,3.65l-13.08,28.17c.72,3.48,3.8,6.09,7.51,6.09h154.26c3.58,0,6.61-2.49,7.43-5.82l-31.18-55.87c-1.17-2.11-1.42-4.6-.7-6.91.75-2.29,2.39-4.18,4.57-5.22,47.39-22.3,42.29-75.51,42.04-77.77-.52-4.77,2.93-9.08,7.71-9.6,4.75-.5,9.05,2.91,9.6,7.66.07.65,6.22,61.31-43.71,91.08l28.17,50.5c.72,1.29,1.09,2.76,1.09,4.25,0,13.82-11.24,25.06-25.06,25.06l-.02.02Z"/>
  <path class="cls-1" d="m185,234.5c-4.8,0-8.7-3.9-8.7-8.7V96.81c0-7.38-6.02-13.4-13.4-13.4h-46.1c-7.38,0-13.4,6.02-13.4,13.4v128.99c0,4.8-3.9,8.7-8.7,8.7s-8.7-3.9-8.7-8.7V96.81c0-16.98,13.82-30.81,30.81-30.81h46.1c16.98,0,30.81,13.82,30.81,30.81v128.99c0,4.8-3.9,8.7-8.7,8.7Z"/>
  <path class="cls-1" d="m185,136.44h-90.28c-4.8,0-8.7-3.9-8.7-8.7s3.9-8.7,8.7-8.7h90.28c4.8,0,8.7,3.9,8.7,8.7s-3.9,8.7-8.7,8.7Z"/>
  <path class="cls-1" d="m154.91,107.75h-29.61c-4.8,0-8.7-3.9-8.7-8.7s3.9-8.7,8.7-8.7h29.61c4.8,0,8.7,3.9,8.7,8.7s-3.9,8.7-8.7,8.7Z"/>
  <path class="cls-1" d="m421.93,120.95h-18.67c-4.13,0-7.46-3.33-7.46-7.46s3.33-7.46,7.46-7.46h18.67c4.13,0,7.46,3.33,7.46,7.46s-3.33,7.46-7.46,7.46Z"/>
  <path class="cls-1" d="m331.82,122.19h-20.24c-4.8,0-8.7-3.9-8.7-8.7s3.9-8.7,8.7-8.7h20.24c4.8,0,8.7,3.9,8.7,8.7s-3.9,8.7-8.7,8.7Z"/>
  <path class="cls-1" d="m391.74,146.34h-49.98c-10.29,0-18.65-8.35-18.65-18.65v-28.44c0-10.29,8.35-18.65,18.65-18.65h49.98c10.29,0,18.65,8.35,18.65,18.65v28.44c0,10.29-8.35,18.65-18.65,18.65Zm-49.98-48.34c-.67,0-1.24.57-1.24,1.24v28.44c0,.67.57,1.24,1.24,1.24h49.98c.67,0,1.24-.57,1.24-1.24v-28.44c0-.67-.57-1.24-1.24-1.24h-49.98Z"/>
  <g>
    <rect class="cls-2" x="81.76" y="233.36" width="289.86" height="32.75" rx="13.6" ry="13.6"/>
    <path class="cls-2" d="m358.02,274.81H95.36c-12.28,0-22.3-10-22.3-22.3v-5.54c0-12.28,10-22.3,22.3-22.3h262.69c12.28,0,22.3,10,22.3,22.3v5.54c0,12.28-10,22.3-22.3,22.3h-.02Zm-262.69-32.75c-2.66,0-4.9,2.24-4.9,4.9v5.54c0,2.66,2.24,4.9,4.9,4.9h262.69c2.66,0,4.9-2.24,4.9-4.9v-5.54c0-2.66-2.24-4.9-4.9-4.9H95.34Z"/>
  </g>
  <path class="cls-1" d="m370.06,188.58h-31.6c-4.8,0-8.7-3.9-8.7-8.7v-42.24c0-4.8,3.9-8.7,8.7-8.7h48.78c2.91,0,5.59,1.44,7.21,3.85s1.94,5.45.85,8.13l-17.18,42.24c-1.34,3.28-4.53,5.42-8.06,5.42h0Zm-22.9-17.4h17.03l10.09-24.84h-27.15v24.84h.02Z"/>
</svg>