<?xml version="1.0" encoding="UTF-8"?>
<svg id="Calque_1" data-name="Calque 1" xmlns="http://www.w3.org/2000/svg" viewBox="0 0 500 500">
  <defs>
    <style>
      .cls-1 {
        fill: #6a6af4;
      }

      .cls-2 {
        fill: #000091;
      }
    </style>
  </defs>
  <g>
    <path class="cls-1" d="m235.54,242.98v-33.29c0-18.91-15.47-34.38-34.38-34.38h-28.2c-18.91,0-34.38,15.47-34.38,34.38v37.33h96.96v-4.04Z"/>
    <path class="cls-1" d="m235.54,251.52h-96.96c-2.49,0-4.5-2.01-4.5-4.5v-37.33c0-21.44,17.44-38.88,38.88-38.88h28.2c21.44,0,38.88,17.44,38.88,38.88v37.33c0,2.49-2.01,4.5-4.5,4.5Zm-92.46-9h87.96v-32.83c0-16.48-13.4-29.88-29.88-29.88h-28.2c-16.48,0-29.88,13.4-29.88,29.88v32.83Z"/>
  </g>
  <g>
    <path class="cls-1" d="m363.32,242.98v-33.29c0-18.91-15.47-34.38-34.38-34.38h-28.2c-18.91,0-34.38,15.47-34.38,34.38v40.4h96.96v-7.11Z"/>
    <path class="cls-1" d="m363.32,254.59h-96.96c-2.49,0-4.5-2.01-4.5-4.5v-40.4c0-21.44,17.44-38.88,38.88-38.88h28.2c21.44,0,38.88,17.44,38.88,38.88v40.4c0,2.49-2.01,4.5-4.5,4.5Zm-92.46-9h87.96v-35.9c0-16.48-13.4-29.88-29.88-29.88h-28.2c-16.48,0-29.88,13.4-29.88,29.88v35.9Z"/>
  </g>
  <path class="cls-2" d="m425.65,374.73H74.96c-2.49,0-4.5-2.01-4.5-4.5v-85.77c0-21.44,17.44-38.88,38.88-38.88h281.93c21.44,0,38.88,17.44,38.88,38.88v85.77c0,2.49-2.01,4.5-4.5,4.5Zm-346.2-9h341.7v-81.27c0-16.48-13.4-29.88-29.88-29.88H109.34c-16.48,0-29.88,13.4-29.88,29.88v81.27Z"/>
  <path class="cls-2" d="m400.18,251.52c-2.49,0-4.5-2.01-4.5-4.5v-81.77c0-16.48-13.4-29.88-29.88-29.88h-235.24c-16.48,0-29.88,13.4-29.88,29.88v81.77c0,2.49-2.01,4.5-4.5,4.5s-4.5-2.01-4.5-4.5v-81.77c0-21.44,17.44-38.88,38.88-38.88h235.24c21.44,0,38.88,17.44,38.88,38.88v81.77c0,2.49-2.01,4.5-4.5,4.5Z"/>
  <path class="cls-2" d="m425.65,288.97H74.96c-2.49,0-4.5-2.01-4.5-4.5s2.01-4.5,4.5-4.5h350.7c2.49,0,4.5,2.01,4.5,4.5s-2.01,4.5-4.5,4.5Z"/>
  <path class="cls-2" d="m387.13,370.72c-2.49,0-4.5-2.01-4.5-4.5,0-16.48-13.4-29.88-29.88-29.88h-203.05c-16.48,0-29.88,13.4-29.88,29.88,0,2.49-2.01,4.5-4.5,4.5s-4.5-2.01-4.5-4.5c0-21.44,17.44-38.88,38.88-38.88h203.05c21.44,0,38.88,17.44,38.88,38.88,0,2.49-2.01,4.5-4.5,4.5Z"/>
</svg>