<?xml version="1.0" encoding="UTF-8"?>
<svg id="Calque_1" data-name="Calque 1" xmlns="http://www.w3.org/2000/svg" viewBox="0 0 500 500">
  <defs>
    <style>
      .cls-1 {
        fill: #000091;
      }

      .cls-2 {
        fill: #6a6af4;
      }
    </style>
  </defs>
  <g>
    <rect class="cls-2" x="112.4" y="96.26" width="102.92" height="306.35"/>
    <path class="cls-2" d="m215.31,408.91h-102.92c-3.48,0-6.29-2.81-6.29-6.29V96.26c0-3.48,2.81-6.29,6.29-6.29h102.92c3.48,0,6.29,2.81,6.29,6.29v306.35c0,3.48-2.81,6.29-6.29,6.29Zm-96.62-12.58h90.33V102.56h-90.33v293.77Z"/>
  </g>
  <path class="cls-1" d="m404.08,102.56H98.86c-6.56,0-11.89-5.33-11.89-11.89v-25.78c0-6.56,5.33-11.89,11.89-11.89h305.22c6.56,0,11.89,5.33,11.89,11.89v25.78c0,6.56-5.33,11.89-11.89,11.89Zm-304.52-12.58h303.82v-24.39H99.56v24.39Z"/>
  <path class="cls-1" d="m404.08,451H98.86c-6.56,0-11.89-5.33-11.89-11.89v-25.78c0-6.56,5.33-11.89,11.89-11.89h305.22c6.56,0,11.89,5.33,11.89,11.89v25.78c0,6.56-5.33,11.89-11.89,11.89Zm-304.52-12.58h303.82v-24.39H99.56v24.39Z"/>
  <path class="cls-1" d="m112.4,408.91c-3.48,0-6.29-2.81-6.29-6.29V96.26c0-3.48,2.81-6.29,6.29-6.29s6.29,2.81,6.29,6.29v306.35c0,3.48-2.81,6.29-6.29,6.29Z"/>
  <path class="cls-1" d="m391.35,408.91c-3.48,0-6.29-2.81-6.29-6.29V96.26c0-3.48,2.81-6.29,6.29-6.29s6.29,2.81,6.29,6.29v306.35c0,3.48-2.81,6.29-6.29,6.29Z"/>
  <path class="cls-1" d="m306.82,159.38c-3.48,0-6.29-2.81-6.29-6.29v-56.83c0-3.48,2.81-6.29,6.29-6.29s6.29,2.81,6.29,6.29v56.83c0,3.48-2.81,6.29-6.29,6.29Z"/>
  <path class="cls-2" d="m260.74,178.68v-17.16c0-10.03,8.21-18.23,18.23-18.23h55.67c10.03,0,18.23,8.21,18.23,18.23v17.16"/>
  <path class="cls-1" d="m266.38,233c-3.48,0-6.29-2.81-6.29-6.29v-12.12c0-3.48,2.81-6.29,6.29-6.29s6.29,2.81,6.29,6.29v12.12c0,3.48-2.81,6.29-6.29,6.29Z"/>
  <path class="cls-1" d="m144.13,277.64c-3.48,0-6.29-2.81-6.29-6.29v-12.12c0-3.48,2.81-6.29,6.29-6.29s6.29,2.81,6.29,6.29v12.12c0,3.48-2.81,6.29-6.29,6.29Z"/>
  <path class="cls-1" d="m306.82,233c-3.48,0-6.29-2.81-6.29-6.29v-12.12c0-3.48,2.81-6.29,6.29-6.29s6.29,2.81,6.29,6.29v12.12c0,3.48-2.81,6.29-6.29,6.29Z"/>
  <path class="cls-1" d="m286.1,267.85c-3.48,0-6.29-2.81-6.29-6.29v-12.12c0-3.48,2.81-6.29,6.29-6.29s6.29,2.81,6.29,6.29v12.12c0,3.48-2.81,6.29-6.29,6.29Z"/>
  <path class="cls-1" d="m327.28,267.85c-3.48,0-6.29-2.81-6.29-6.29v-12.12c0-3.48,2.81-6.29,6.29-6.29s6.29,2.81,6.29,6.29v12.12c0,3.48-2.81,6.29-6.29,6.29Z"/>
  <path class="cls-1" d="m347.26,233c-3.48,0-6.29-2.81-6.29-6.29v-12.12c0-3.48,2.81-6.29,6.29-6.29s6.29,2.81,6.29,6.29v12.12c0,3.48-2.81,6.29-6.29,6.29Z"/>
</svg>