<?xml version="1.0" encoding="UTF-8"?>
<svg id="Calque_1" data-name="Calque 1" xmlns="http://www.w3.org/2000/svg" viewBox="0 0 500 500">
  <defs>
    <style>
      .cls-1 {
        fill: #6a6af4;
      }

      .cls-2 {
        fill: #000091;
      }
    </style>
  </defs>
  <path class="cls-2" d="m406.31,218.23h-93.65c-2.49,0-4.5-2.01-4.5-4.5s2.01-4.5,4.5-4.5h93.65c2.49,0,4.5,2.01,4.5,4.5s-2.01,4.5-4.5,4.5Z"/>
  <path class="cls-2" d="m332.5,386.98H105.26c-9.1,0-16.5-7.4-16.5-16.5v-91.45c0-9.1,7.4-16.5,16.5-16.5h207.4c2.49,0,4.5,2.01,4.5,4.5s-2.01,4.5-4.5,4.5H105.26c-4.14,0-7.5,3.36-7.5,7.5v91.45c0,4.14,3.36,7.5,7.5,7.5h227.24c2.49,0,4.5,2.01,4.5,4.5s-2.01,4.5-4.5,4.5Z"/>
  <path class="cls-2" d="m306.9,306.03H93.26c-2.49,0-4.5-2.01-4.5-4.5s2.01-4.5,4.5-4.5h213.64c2.49,0,4.5,2.01,4.5,4.5s-2.01,4.5-4.5,4.5Z"/>
  <path class="cls-2" d="m200.08,386.98c-2.49,0-4.5-2.01-4.5-4.5v-115.45c0-2.49,2.01-4.5,4.5-4.5s4.5,2.01,4.5,4.5v115.45c0,2.49-2.01,4.5-4.5,4.5Z"/>
  <path class="cls-2" d="m174.63,369.05h-56.72c-4.69,0-8.5-3.81-8.5-8.5v-34.69c0-4.69,3.81-8.5,8.5-8.5h56.72c4.69,0,8.5,3.81,8.5,8.5v34.69c0,4.69-3.81,8.5-8.5,8.5Zm-56.22-9h55.72v-33.69h-55.72v33.69Z"/>
  <path class="cls-2" d="m332.5,189.21c-2.49,0-4.5-2.01-4.5-4.5v-18.03c0-2.49,2.01-4.5,4.5-4.5s4.5,2.01,4.5,4.5v18.03c0,2.49-2.01,4.5-4.5,4.5Z"/>
  <path class="cls-2" d="m333.79,265.29c-2.49,0-4.5-2.01-4.5-4.5v-18.03c0-2.49,2.01-4.5,4.5-4.5s4.5,2.01,4.5,4.5v18.03c0,2.49-2.01,4.5-4.5,4.5Z"/>
  <path class="cls-2" d="m274.29,355.52c-2.49,0-4.5-2.01-4.5-4.5v-18.03c0-2.49,2.01-4.5,4.5-4.5s4.5,2.01,4.5,4.5v18.03c0,2.49-2.01,4.5-4.5,4.5Z"/>
  <path class="cls-2" d="m231.94,355.52c-2.49,0-4.5-2.01-4.5-4.5v-18.03c0-2.49,2.01-4.5,4.5-4.5s4.5,2.01,4.5,4.5v18.03c0,2.49-2.01,4.5-4.5,4.5Z"/>
  <path class="cls-2" d="m253.49,386.98c-2.49,0-4.5-2.01-4.5-4.5v-78.56c0-2.49,2.01-4.5,4.5-4.5s4.5,2.01,4.5,4.5v78.56c0,2.49-2.01,4.5-4.5,4.5Z"/>
  <g>
    <path class="cls-1" d="m202.02,191.07v13.34c0,1.65-1.35,3-3,3h-99.72c-1.65,0-3-1.35-3-3v-11.45l22.39-22.39h61.49l21.84,20.5Z"/>
    <path class="cls-1" d="m199.02,211.9h-99.72c-4.14,0-7.5-3.36-7.5-7.5v-11.45c0-1.19.47-2.34,1.32-3.18l22.39-22.39c.84-.84,1.99-1.32,3.18-1.32h61.49c1.14,0,2.25.44,3.08,1.22l21.84,20.5c.91.85,1.42,2.04,1.42,3.28v13.34c0,4.14-3.36,7.5-7.5,7.5Zm-98.22-9h96.72v-9.89l-19.12-17.94h-57.85l-19.75,19.75v8.08Z"/>
  </g>
  <g>
    <rect class="cls-1" x="128.47" y="117.8" width="41.39" height="52.46" rx="3" ry="3"/>
    <path class="cls-1" d="m166.85,174.77h-35.39c-4.14,0-7.5-3.36-7.5-7.5v-46.46c0-4.14,3.36-7.5,7.5-7.5h35.39c4.14,0,7.5,3.36,7.5,7.5v46.46c0,4.14-3.36,7.5-7.5,7.5Zm-33.89-9h32.39v-43.46h-32.39v43.46Z"/>
  </g>
  <path class="cls-2" d="m265.57,168.18c-2.49,0-4.5-2.01-4.5-4.5v-45.88c0-2.49,2.01-4.5,4.5-4.5s4.5,2.01,4.5,4.5v45.88c0,2.49-2.01,4.5-4.5,4.5Z"/>
  <path class="cls-2" d="m282.11,185.85h-33.09c-2.49,0-4.5-2.01-4.5-4.5,0-11.61,9.44-21.05,21.05-21.05s21.05,9.44,21.05,21.05c0,2.49-2.01,4.5-4.5,4.5Zm-27.72-9h22.35c-1.79-4.42-6.12-7.55-11.17-7.55s-9.39,3.13-11.18,7.55Z"/>
  <g>
    <circle class="cls-1" cx="116.9" cy="283.49" r="2.99"/>
    <path class="cls-1" d="m116.9,290.98c-4.13,0-7.49-3.36-7.49-7.49s3.36-7.49,7.49-7.49,7.49,3.36,7.49,7.49-3.36,7.49-7.49,7.49Zm0-9c-.83,0-1.51.68-1.51,1.51s.68,1.51,1.51,1.51,1.51-.68,1.51-1.51-.68-1.51-1.51-1.51Z"/>
  </g>
  <g>
    <circle class="cls-1" cx="138.32" cy="283.49" r="2.99"/>
    <path class="cls-1" d="m138.32,290.98c-4.13,0-7.49-3.36-7.49-7.49s3.36-7.49,7.49-7.49,7.49,3.36,7.49,7.49-3.36,7.49-7.49,7.49Zm0-9c-.83,0-1.51.68-1.51,1.51s.68,1.51,1.51,1.51,1.51-.68,1.51-1.51-.68-1.51-1.51-1.51Z"/>
  </g>
  <g>
    <circle class="cls-1" cx="159.75" cy="283.49" r="2.99"/>
    <path class="cls-1" d="m159.75,290.98c-4.13,0-7.49-3.36-7.49-7.49s3.36-7.49,7.49-7.49,7.49,3.36,7.49,7.49-3.36,7.49-7.49,7.49Zm0-9c-.83,0-1.51.68-1.51,1.51s.68,1.51,1.51,1.51,1.51-.68,1.51-1.51-.68-1.51-1.51-1.51Z"/>
  </g>
  <g>
    <circle class="cls-1" cx="181.18" cy="283.49" r="2.99"/>
    <path class="cls-1" d="m181.18,290.98c-4.13,0-7.49-3.36-7.49-7.49s3.36-7.49,7.49-7.49,7.49,3.36,7.49,7.49-3.36,7.49-7.49,7.49Zm0-9c-.83,0-1.51.68-1.51,1.51s.68,1.51,1.51,1.51,1.51-.68,1.51-1.51-.68-1.51-1.51-1.51Z"/>
  </g>
  <path class="cls-2" d="m399.31,386.98h-86.65c-2.49,0-4.5-2.01-4.5-4.5v-234.2c0-6.34,5.16-11.5,11.5-11.5h79.65c6.34,0,11.5,5.16,11.5,11.5v227.2c0,6.34-5.16,11.5-11.5,11.5Zm-82.15-9h82.15c1.36,0,2.5-1.15,2.5-2.5v-227.2c0-1.35-1.14-2.5-2.5-2.5h-79.65c-1.36,0-2.5,1.15-2.5,2.5v229.7Z"/>
</svg>