<?xml version="1.0" encoding="UTF-8"?>
<svg id="Calque_1" data-name="Calque 1" xmlns="http://www.w3.org/2000/svg" viewBox="0 0 500 500">
  <defs>
    <style>
      .cls-1 {
        fill: #6a6af4;
      }

      .cls-2 {
        fill: #000091;
      }
    </style>
  </defs>
  <g>
    <rect class="cls-1" x="239.87" y="136.44" width="73.6" height="219.09"/>
    <path class="cls-1" d="m313.47,360.03h-73.6c-2.49,0-4.5-2.01-4.5-4.5v-219.09c0-2.49,2.01-4.5,4.5-4.5h73.6c2.49,0,4.5,2.01,4.5,4.5v219.09c0,2.49-2.01,4.5-4.5,4.5Zm-69.1-9h64.6v-210.09h-64.6v210.09Z"/>
  </g>
  <path class="cls-2" d="m145.27,389.91h-62.04c-5.56,0-10.08-4.52-10.08-10.08,0-.51.11-1.01.33-1.47l5.33-11.47v-28.67l-8.46-14.91c-.95-1.68-.37-3.82,1.32-4.77,1.68-.95,3.82-.37,4.77,1.32l8.92,15.71c.3.53.46,1.12.46,1.73v30.37c0,.51-.11,1.01-.33,1.47l-5.26,11.33c.29,1.4,1.53,2.45,3.02,2.45h62.04c1.44,0,2.66-1,2.99-2.34l-12.54-22.47c-.47-.85-.57-1.85-.28-2.78.3-.92.96-1.68,1.84-2.1,19.06-8.97,17.01-30.37,16.91-31.28-.21-1.92,1.18-3.65,3.1-3.86,1.91-.2,3.64,1.17,3.86,3.08.03.26,2.5,24.66-17.58,36.63l11.33,20.31c.29.52.44,1.11.44,1.71,0,5.56-4.52,10.08-10.08,10.08Z"/>
  <path class="cls-2" d="m91.54,308.87c-1.93,0-3.5-1.57-3.5-3.5v-51.88c0-2.97-2.42-5.39-5.39-5.39h-18.54c-2.97,0-5.39,2.42-5.39,5.39v51.88c0,1.93-1.57,3.5-3.5,3.5s-3.5-1.57-3.5-3.5v-51.88c0-6.83,5.56-12.39,12.39-12.39h18.54c6.83,0,12.39,5.56,12.39,12.39v51.88c0,1.93-1.57,3.5-3.5,3.5Z"/>
  <path class="cls-2" d="m91.54,269.43h-36.31c-1.93,0-3.5-1.57-3.5-3.5s1.57-3.5,3.5-3.5h36.31c1.93,0,3.5,1.57,3.5,3.5s-1.57,3.5-3.5,3.5Z"/>
  <path class="cls-2" d="m79.44,257.89h-11.91c-1.93,0-3.5-1.57-3.5-3.5s1.57-3.5,3.5-3.5h11.91c1.93,0,3.5,1.57,3.5,3.5s-1.57,3.5-3.5,3.5Z"/>
  <path class="cls-2" d="m186.83,263.2h-7.51c-1.66,0-3-1.34-3-3s1.34-3,3-3h7.51c1.66,0,3,1.34,3,3s-1.34,3-3,3Z"/>
  <path class="cls-2" d="m150.59,263.7h-8.14c-1.93,0-3.5-1.57-3.5-3.5s1.57-3.5,3.5-3.5h8.14c1.93,0,3.5,1.57,3.5,3.5s-1.57,3.5-3.5,3.5Z"/>
  <path class="cls-2" d="m174.69,273.41h-20.1c-4.14,0-7.5-3.36-7.5-7.5v-11.44c0-4.14,3.36-7.5,7.5-7.5h20.1c4.14,0,7.5,3.36,7.5,7.5v11.44c0,4.14-3.36,7.5-7.5,7.5Zm-20.1-19.44c-.27,0-.5.23-.5.5v11.44c0,.27.23.5.5.5h20.1c.27,0,.5-.23.5-.5v-11.44c0-.27-.23-.5-.5-.5h-20.1Z"/>
  <path class="cls-2" d="m448.47,140.94h-218.28c-4.69,0-8.5-3.81-8.5-8.5v-18.44c0-4.69,3.81-8.5,8.5-8.5h218.28c4.69,0,8.5,3.81,8.5,8.5v18.44c0,4.69-3.81,8.5-8.5,8.5Zm-217.78-9h217.28v-17.44h-217.28v17.44Z"/>
  <path class="cls-2" d="m448.47,390.13h-218.28c-4.69,0-8.5-3.81-8.5-8.5v-18.44c0-4.69,3.81-8.5,8.5-8.5h218.28c4.69,0,8.5,3.81,8.5,8.5v18.44c0,4.69-3.81,8.5-8.5,8.5Zm-217.78-9h217.28v-17.44h-217.28v17.44Z"/>
  <g>
    <rect class="cls-1" x="50.02" y="308.41" width="116.58" height="13.17" rx="5.47" ry="5.47"/>
    <path class="cls-1" d="m161.13,325.08H55.49c-4.94,0-8.97-4.02-8.97-8.97v-2.23c0-4.94,4.02-8.97,8.97-8.97h105.65c4.94,0,8.97,4.02,8.97,8.97v2.23c0,4.94-4.02,8.97-8.97,8.97Zm-105.65-13.17c-1.07,0-1.97.9-1.97,1.97v2.23c0,1.07.9,1.97,1.97,1.97h105.65c1.07,0,1.97-.9,1.97-1.97v-2.23c0-1.07-.9-1.97-1.97-1.97H55.49Z"/>
  </g>
  <path class="cls-2" d="m165.97,290.4h-12.71c-1.93,0-3.5-1.57-3.5-3.5v-16.99c0-1.93,1.57-3.5,3.5-3.5h19.62c1.17,0,2.25.58,2.9,1.55s.78,2.19.34,3.27l-6.91,16.99c-.54,1.32-1.82,2.18-3.24,2.18Zm-9.21-7h6.85l4.06-9.99h-10.92v9.99Z"/>
  <path class="cls-2" d="m239.87,360.03c-2.49,0-4.5-2.01-4.5-4.5v-219.09c0-2.49,2.01-4.5,4.5-4.5s4.5,2.01,4.5,4.5v219.09c0,2.49-2.01,4.5-4.5,4.5Z"/>
  <path class="cls-2" d="m439.36,360.03c-2.49,0-4.5-2.01-4.5-4.5v-219.09c0-2.49,2.01-4.5,4.5-4.5s4.5,2.01,4.5,4.5v219.09c0,2.49-2.01,4.5-4.5,4.5Z"/>
  <path class="cls-2" d="m378.91,181.58c-2.49,0-4.5-2.01-4.5-4.5v-40.64c0-2.49,2.01-4.5,4.5-4.5s4.5,2.01,4.5,4.5v40.64c0,2.49-2.01,4.5-4.5,4.5Z"/>
  <path class="cls-1" d="m345.96,195.38v-12.27c0-7.17,5.87-13.04,13.04-13.04h39.81c7.17,0,13.04,5.87,13.04,13.04v12.27"/>
  <path class="cls-2" d="m349.99,234.23c-2.49,0-4.5-2.01-4.5-4.5v-8.67c0-2.49,2.01-4.5,4.5-4.5s4.5,2.01,4.5,4.5v8.67c0,2.49-2.01,4.5-4.5,4.5Z"/>
  <path class="cls-2" d="m262.56,266.15c-2.49,0-4.5-2.01-4.5-4.5v-8.67c0-2.49,2.01-4.5,4.5-4.5s4.5,2.01,4.5,4.5v8.67c0,2.49-2.01,4.5-4.5,4.5Z"/>
  <path class="cls-2" d="m378.91,234.23c-2.49,0-4.5-2.01-4.5-4.5v-8.67c0-2.49,2.01-4.5,4.5-4.5s4.5,2.01,4.5,4.5v8.67c0,2.49-2.01,4.5-4.5,4.5Z"/>
  <path class="cls-2" d="m364.09,259.15c-2.49,0-4.5-2.01-4.5-4.5v-8.67c0-2.49,2.01-4.5,4.5-4.5s4.5,2.01,4.5,4.5v8.67c0,2.49-2.01,4.5-4.5,4.5Z"/>
  <path class="cls-2" d="m393.54,259.15c-2.49,0-4.5-2.01-4.5-4.5v-8.67c0-2.49,2.01-4.5,4.5-4.5s4.5,2.01,4.5,4.5v8.67c0,2.49-2.01,4.5-4.5,4.5Z"/>
  <path class="cls-2" d="m407.83,234.23c-2.49,0-4.5-2.01-4.5-4.5v-8.67c0-2.49,2.01-4.5,4.5-4.5s4.5,2.01,4.5,4.5v8.67c0,2.49-2.01,4.5-4.5,4.5Z"/>
</svg>