<?xml version="1.0" encoding="UTF-8"?>
<svg id="Calque_1" data-name="Calque 1" xmlns="http://www.w3.org/2000/svg" viewBox="0 0 500 500">
  <defs>
    <style>
      .cls-1 {
        fill: #6a6af4;
      }

      .cls-2 {
        fill: #000091;
      }
    </style>
  </defs>
  <path class="cls-2" d="m294.66,289.62c-2.21,0-4-1.79-4-4v-32.02c0-15.99-13.01-29-29-29h-54.42c-15.99,0-29,13.01-29,29v32.02c0,2.21-1.79,4-4,4s-4-1.79-4-4v-32.02c0-20.4,16.6-37,37-37h54.42c20.4,0,37,16.6,37,37v32.02c0,2.21-1.79,4-4,4Z"/>
  <path class="cls-2" d="m186.78,398.27h-27.57c-5.51,0-10-4.49-10-10v-53.38h-2.91c-8.82,0-16-7.18-16-16v-18.13c0-8.82,7.18-16,16-16h34.48c8.82,0,16,7.18,16,16v87.5c0,5.51-4.49,10-10,10Zm-40.48-105.5c-4.41,0-8,3.59-8,8v18.13c0,4.41,3.59,8,8,8h6.91c2.21,0,4,1.79,4,4v57.38c0,1.08.92,2,2,2h27.57c1.08,0,2-.92,2-2v-87.5c0-4.41-3.59-8-8-8h-34.48Z"/>
  <path class="cls-2" d="m313.83,398.27h-27.57c-5.51,0-10-4.49-10-10v-87.5c0-8.82,7.18-16,16-16h34.48c8.82,0,16,7.18,16,16v18.13c0,8.82-7.18,16-16,16h-2.91v53.38c0,5.51-4.49,10-10,10Zm-21.57-105.5c-4.41,0-8,3.59-8,8v87.5c0,1.08.92,2,2,2h27.57c1.08,0,2-.92,2-2v-57.38c0-2.21,1.79-4,4-4h6.91c4.41,0,8-3.59,8-8v-18.13c0-4.41-3.59-8-8-8h-34.48Z"/>
  <path class="cls-2" d="m290.38,398.27h-103.6c-2.21,0-4-1.79-4-4s1.79-4,4-4h103.6c2.21,0,4,1.79,4,4s-1.79,4-4,4Z"/>
  <path class="cls-2" d="m280.34,334.64c-2.16,0-3.92-1.79-3.92-4,0-4.41-3.52-8-7.84-8h-63.91c-4.32,0-7.84,3.59-7.84,8,0,2.21-1.75,4-3.92,4s-3.92-1.79-3.92-4c0-8.82,7.03-16,15.68-16h63.91c8.64,0,15.68,7.18,15.68,16,0,2.21-1.75,4-3.92,4Z"/>
  <path class="cls-2" d="m267.94,360.77h-75.17c-2.21,0-4-1.79-4-4s1.79-4,4-4h75.17c2.21,0,4,1.79,4,4s-1.79,4-4,4Z"/>
  <path class="cls-2" d="m422.4,210.67h-98.34c-3.86,0-7-3.14-7-7v-70.67c0-3.86,3.14-7,7-7h98.34c3.86,0,7,3.14,7,7v70.67c0,3.86-3.14,7-7,7Zm-97.34-8h96.34v-68.67h-96.34v68.67Z"/>
  <path class="cls-2" d="m347.94,133.99c-1.02,0-2.05-.39-2.83-1.17-1.56-1.56-1.56-4.09,0-5.66l24.7-24.7c1.56-1.56,4.09-1.56,5.66,0l23.5,23.5c1.56,1.56,1.56,4.09,0,5.66-1.56,1.56-4.09,1.56-5.66,0l-20.67-20.67-21.87,21.87c-.78.78-1.8,1.17-2.83,1.17Z"/>
  <path class="cls-2" d="m425.4,191.65c-1.33,0-2.63-.66-3.39-1.87-6.96-11.02-14.14-17.92-16.24-18.01-3.28,0-12.89,6.98-19.81,13.5-1.59,1.5-4.09,1.44-5.62-.13-12.37-12.76-23.93-21.34-26.96-21.34-3.45.03-16.97,10.66-29.51,23.21-1.56,1.56-4.09,1.56-5.66,0-1.56-1.56-1.56-4.09,0-5.66.25-.25,6.28-6.27,13.4-12.4,13.56-11.66,18.76-13.16,21.77-13.16,2.78,0,7.94,1.27,20.54,12.26,3.77,3.29,7.17,6.54,9.42,8.75,13.54-12.06,20.53-13.05,22.44-13.05,8.39,0,18.88,15.2,23,21.74,1.18,1.87.62,4.34-1.25,5.52-.66.42-1.4.62-2.13.62Z"/>
  <circle class="cls-2" cx="384.66" cy="152.69" r="11.49"/>
  <path class="cls-2" d="m97.92,398.27c-2.21,0-4-1.79-4-4v-136.52c0-2.21,1.79-4,4-4s4,1.79,4,4v136.52c0,2.21-1.79,4-4,4Z"/>
  <path class="cls-2" d="m122.19,398.27h-48.55c-2.21,0-4-1.79-4-4s1.79-4,4-4h48.55c2.21,0,4,1.79,4,4s-1.79,4-4,4Z"/>
  <path class="cls-2" d="m429.56,398.27c-2.21,0-4-1.79-4-4v-30.68c0-2.21,1.79-4,4-4s4,1.79,4,4v30.68c0,2.21-1.79,4-4,4Z"/>
  <path class="cls-2" d="m245.66,191.58h-117.76c-8.82,0-16-7.18-16-16v-6.62c0-2.21,1.79-4,4-4h141.76c2.21,0,4,1.79,4,4v6.62c0,8.82-7.18,16-16,16Zm-125.76-18.62v2.62c0,4.41,3.59,8,8,8h117.76c4.41,0,8-3.59,8-8v-2.62H119.9Z"/>
  <path class="cls-2" d="m162.87,172.96h-12.79c-2.21,0-4-1.79-4-4v-47.65c0-2.21,1.79-4,4-4h12.79c2.21,0,4,1.79,4,4v47.65c0,2.21-1.79,4-4,4Zm-8.79-8h4.79v-39.65h-4.79v39.65Z"/>
  <path class="cls-2" d="m216.95,170.92h-12.79c-2.21,0-4-1.79-4-4v-47.65c0-2.21,1.79-4,4-4h12.79c2.21,0,4,1.79,4,4v47.65c0,2.21-1.79,4-4,4Zm-8.79-8h4.79v-39.65h-4.79v39.65Z"/>
  <path class="cls-2" d="m175.66,172.96h-12.79c-2.21,0-4-1.79-4-4v-58.75c0-2.21,1.79-4,4-4h12.79c2.21,0,4,1.79,4,4v58.75c0,2.21-1.79,4-4,4Zm-8.79-8h4.79v-50.75h-4.79v50.75Z"/>
  <path class="cls-2" d="m204.16,170.92h-12.79c-2.21,0-4-1.79-4-4v-47.65c0-2.21,1.79-4,4-4h12.79c2.21,0,4,1.79,4,4v47.65c0,2.21-1.79,4-4,4Zm-8.79-8h4.79v-39.65h-4.79v39.65Z"/>
  <path class="cls-2" d="m191.37,172.96h-15.71c-2.21,0-4-1.79-4-4v-58.75c0-2.21,1.79-4,4-4h15.71c2.21,0,4,1.79,4,4v58.75c0,2.21-1.79,4-4,4Zm-11.71-8h7.71v-50.75h-7.71v50.75Z"/>
  <path class="cls-2" d="m382.21,295.57c-1.07,0-2.14-.43-2.93-1.28-.85-.92-20.78-22.82-14.69-52.13.25-1.2,1.04-2.22,2.14-2.77,1.1-.55,2.39-.56,3.5-.03,1,.48,24.43,12.1,27.9,51.67.19,2.2-1.43,4.14-3.63,4.33-2.21.18-4.14-1.43-4.33-3.63-2.14-24.37-12.38-36.57-18.59-41.82-1.57,22.19,13.41,38.76,13.57,38.94,1.49,1.62,1.4,4.15-.23,5.65-.77.71-1.74,1.06-2.72,1.06Z"/>
  <path class="cls-2" d="m408.74,295.39c-1,0-2.01-.38-2.79-1.13-1.58-1.54-1.62-4.07-.08-5.66,7.87-8.11,10.04-19.26,10.51-26.86-9.31,7.5-22.61,15.55-23.33,15.99-1.89,1.14-4.35.53-5.49-1.36-1.14-1.89-.53-4.35,1.36-5.49,6.13-3.7,23.16-14.63,28.24-20.73,1.02-1.22,2.66-1.72,4.19-1.28,1.53.44,2.65,1.75,2.85,3.32.14,1.04,3.16,25.76-12.59,41.99-.78.81-1.83,1.21-2.87,1.21Z"/>
  <path class="cls-2" d="m407.98,267.1c-.06,0-.13,0-.19,0-2.21-.1-3.91-1.97-3.81-4.18.62-13.25-2.55-21.55-4.66-25.53-3.3,3.67-7.95,13.26-10.99,23.17-.65,2.11-2.89,3.3-5,2.65-2.11-.65-3.3-2.88-2.65-5,2.01-6.55,9.31-28.08,19.03-30.18,1.42-.3,2.88.18,3.84,1.26.39.44,9.49,10.98,8.42,34.01-.1,2.14-1.87,3.81-3.99,3.81Z"/>
  <g>
    <path class="cls-1" d="m122.19,257.75l-6.7-29.5c-1.23-2.9-3.17-5-5.55-5h-25.14c-2.38,0-3.17,1.61-4.33,5l-6.82,29.5h48.55Z"/>
    <path class="cls-1" d="m122.19,261.75h-48.55c-1.22,0-2.37-.56-3.13-1.51-.76-.95-1.04-2.2-.77-3.39l6.82-29.5c.03-.13.07-.26.11-.39,1.05-3.07,2.63-7.71,8.12-7.71h25.14c3.87,0,7.23,2.71,9.23,7.44.09.22.16.44.22.67l6.7,29.5c.27,1.19-.02,2.43-.77,3.38-.76.95-1.91,1.5-3.13,1.5Zm-43.52-8h38.51l-5.51-24.24c-.74-1.62-1.53-2.23-1.73-2.26h-24.8c-.2.4-.48,1.11-.82,2.1l-5.64,24.4Z"/>
  </g>
  <path class="cls-2" d="m361.14,398.27c-2.21,0-4-1.79-4-4v-30.68c0-2.21,1.79-4,4-4s4,1.79,4,4v30.68c0,2.21-1.79,4-4,4Z"/>
  <g>
    <path class="cls-1" d="m414.49,291.39l-1.14,29.03c0,4.79-3.92,8.71-8.71,8.71h-18.05c-4.79,0-8.71-3.92-8.71-8.71l-1.62-28.81,38.24-.22Z"/>
    <path class="cls-1" d="m404.63,333.14h-18.05c-6.97,0-12.65-5.64-12.71-12.59l-1.62-28.71c-.06-1.09.33-2.17,1.08-2.96.75-.8,1.8-1.25,2.89-1.26l38.24-.22h.02c1.08,0,2.12.44,2.88,1.22.76.79,1.16,1.85,1.12,2.94l-1.14,28.96c-.05,6.97-5.73,12.63-12.71,12.63Zm-24.16-37.55l1.39,24.61c0,.08,0,.15,0,.23,0,2.6,2.11,4.71,4.71,4.71h18.05c2.6,0,4.71-2.11,4.71-4.71,0-.05,0-.1,0-.16l.97-24.85-29.85.17Z"/>
  </g>
  <path class="cls-2" d="m425.56,371.59h-60.42c-4.41,0-8-3.59-8-8v-30.8c0-4.41,3.59-8,8-8h60.42c4.41,0,8,3.59,8,8v30.8c0,4.41-3.59,8-8,8Zm0-8v4-4s0,0,0,0h0Zm-60.42-30.8v30.8h60.4v-30.8s-60.4,0-60.4,0Z"/>
</svg>