<?xml version="1.0" encoding="UTF-8"?>
<svg id="Calque_1" data-name="Calque 1" xmlns="http://www.w3.org/2000/svg" viewBox="0 0 500 500">
  <defs>
    <style>
      .cls-1 {
        fill: #000091;
      }

      .cls-2 {
        fill: #e4794a;
      }
    </style>
  </defs>
  <path class="cls-1" d="m239.48,134.02c-14.29,0-25.92-11.63-25.92-25.92s11.63-25.92,25.92-25.92,25.92,11.63,25.92,25.92-11.63,25.92-25.92,25.92Zm0-43.85c-9.88,0-17.92,8.04-17.92,17.92s8.04,17.92,17.92,17.92,17.92-8.04,17.92-17.92-8.04-17.92-17.92-17.92Z"/>
  <path class="cls-1" d="m286.94,421.65h-92.32c-8.82,0-16-7.37-16-16.44v-203.53c0-25.68,15.74-48.58,39.47-57.87v-21.64c0-2.21,1.79-4,4-4s4,1.79,4,4v24.43c0,1.71-1.09,3.24-2.71,3.79-21.98,7.46-36.75,28.07-36.75,51.28v203.53c0,4.65,3.59,8.44,8,8.44h92.32c4.41,0,8-3.79,8-8.44v-203.53c0-24.15-16.23-45.59-39.46-52.13-1.72-.49-2.92-2.06-2.92-3.85v-23.66c0-2.21,1.79-4,4-4s4,1.79,4,4v20.71c25.1,8.42,42.38,32.23,42.38,58.93v203.53c0,9.06-7.18,16.44-16,16.44Z"/>
  <path class="cls-1" d="m186.33,131.28c-1.2,0-2.38-.54-3.17-1.56-1.35-1.75-1.02-4.26.73-5.61l22.03-16.97h-32.93c-2.21,0-4-1.79-4-4s1.79-4,4-4h44.68c1.71,0,3.23,1.09,3.79,2.71s.01,3.41-1.35,4.46l-31.34,24.14c-.73.56-1.59.83-2.44.83Z"/>
  <g>
    <path class="cls-2" d="m182.61,203.17v150.61h116.32v-150.61h-116.32Zm86.87,102c-5.09,7.57-14.05,11.41-26.65,11.41-16.04,0-23.74-6.83-27.38-12.57-7.72-12.17-4.24-29.71,1.09-41.03,7.71-16.39,22.98-30.08,23.63-30.66,1.55-1.38,3.9-1.34,5.41.08,16.27,15.41,16.45,28.94,14.06,37.21,2.06-1.29,3.03-2.77,3.1-2.88.78-1.3,2.21-2.02,3.72-1.9,1.51.12,2.81,1.1,3.38,2.5.39.95,9.37,23.36-.36,37.84Z"/>
    <path class="cls-1" d="m298.94,357.78h-116.32c-2.21,0-4-1.79-4-4v-150.61c0-2.21,1.79-4,4-4h116.32c2.21,0,4,1.79,4,4v150.61c0,2.21-1.79,4-4,4Zm-112.32-8h108.32v-142.61h-108.32v142.61Zm56.21-29.2c-17.86,0-26.58-7.84-30.76-14.42-8.59-13.54-4.91-32.63.85-44.88,8.06-17.12,23.92-31.35,24.59-31.94,3.07-2.74,7.83-2.67,10.82.17,12.39,11.74,16.22,22.64,16.43,31.43.65-.11,1.32-.14,2-.09,3.03.23,5.62,2.14,6.78,4.97.28.67,2.73,6.82,3.87,14.79,1.56,10.9,0,19.92-4.61,26.79-5.87,8.75-15.96,13.18-29.97,13.18Zm0-85.27c-.62.55-15.3,13.72-22.67,29.37-7.84,16.65-5.62,30.44-1.33,37.18,3.1,4.89,9.78,10.71,24,10.71,11.18,0,19.03-3.24,23.33-9.64l3.32,2.23-3.32-2.23c8.56-12.74.06-33.88-.02-34.1-.28.43-1.65,2.45-4.37,4.17-1.4.88-3.21.8-4.53-.19-1.33-1-1.9-2.71-1.44-4.31,2.16-7.49,1.67-19.33-12.97-33.19Z"/>
  </g>
  <path class="cls-1" d="m327.5,131.09c-.18,0-.37-.01-.56-.04l-66.1-9.28c-2.19-.31-3.71-2.33-3.4-4.52.31-2.19,2.32-3.71,4.52-3.4l61.55,8.64v-33.45l-64.17,10.38c-2.19.35-4.24-1.13-4.59-3.31-.35-2.18,1.13-4.23,3.31-4.59l68.8-11.13c1.16-.19,2.34.14,3.23.9s1.41,1.87,1.41,3.05v42.75c0,1.16-.5,2.26-1.38,3.02-.73.64-1.67.98-2.62.98Z"/>
</svg>