<?xml version="1.0" encoding="UTF-8"?>
<svg id="Calque_1" data-name="Calque 1" xmlns="http://www.w3.org/2000/svg" viewBox="0 0 500 500">
  <defs>
    <style>
      .cls-1 {
        fill: #000091;
      }

      .cls-2 {
        fill: #e4794a;
      }
    </style>
  </defs>
  <path class="cls-2" d="m236.8,190.32v46.33c-7.23,3.73-12.15,10.99-12.15,19.34,0,12.15,10.39,22,23.21,22s23.21-9.85,23.21-22c0-8.35-4.91-15.62-12.15-19.34v-46.52"/>
  <path class="cls-1" d="m168.44,409.37h-83.55c-2.21,0-4-1.79-4-4v-234.19c0-2.21,1.79-4,4-4h77.12c2.21,0,4,1.79,4,4s-1.79,4-4,4h-73.12v226.19h79.55c2.21,0,4,1.79,4,4s-1.79,4-4,4Z"/>
  <path class="cls-1" d="m331.22,409.37h-169.22c-2.21,0-4-1.79-4-4V95.14c0-2.21,1.79-4,4-4h169.22c2.21,0,4,1.79,4,4v310.23c0,2.21-1.79,4-4,4Zm-165.22-8h161.22V99.14h-161.22v302.23Z"/>
  <path class="cls-1" d="m126.66,409.37c-2.21,0-4-1.79-4-4v-64.11c0-2.21,1.79-4,4-4h34.7c2.21,0,4,1.79,4,4s-1.79,4-4,4h-30.7v60.11c0,2.21-1.79,4-4,4Z"/>
  <path class="cls-1" d="m286.43,345.25h-76.7c-2.21,0-4-1.79-4-4s1.79-4,4-4h76.7c2.21,0,4,1.79,4,4s-1.79,4-4,4Z"/>
  <path class="cls-1" d="m276.38,409.37h-56.6c-2.21,0-4-1.79-4-4v-64.11c0-2.21,1.79-4,4-4h56.6c2.21,0,4,1.79,4,4v64.11c0,2.21-1.79,4-4,4Zm-52.6-8h48.6v-56.11h-48.6v56.11Z"/>
  <path class="cls-1" d="m247.87,281.99c-15,0-27.21-12.21-27.21-27.21,0-9.17,4.6-17.64,12.15-22.66v-62.39c0-8.31,6.76-15.07,15.07-15.07s15.07,6.76,15.07,15.07v62.39c7.55,5.02,12.15,13.5,12.15,22.66,0,15-12.21,27.21-27.21,27.21Zm0-119.33c-3.9,0-7.07,3.17-7.07,7.07v64.64c0,1.47-.8,2.81-2.09,3.51-6.2,3.37-10.06,9.84-10.06,16.89,0,10.59,8.62,19.21,19.21,19.21s19.21-8.62,19.21-19.21c0-7.05-3.85-13.52-10.05-16.89-1.29-.7-2.09-2.05-2.09-3.51v-64.64c0-3.9-3.17-7.07-7.07-7.07Z"/>
  <path class="cls-1" d="m278.9,229.33c-.86,0-1.72-.27-2.45-.84-1.75-1.35-2.06-3.87-.71-5.61,4.18-5.39,2.83-9.95,2.05-11.66-.39-.85-.91-1.49-1.57-2.3-1.71-2.11-3.85-4.74-3.85-10.91,0-8.98,5.17-12.69,5.75-13.08l4.44,6.66.1-.07c-.09.07-2.29,1.82-2.29,6.49,0,3.33.73,4.23,2.06,5.87.81,1,1.83,2.25,2.64,4.03,2.87,6.32,1.75,13.75-3.01,19.88-.79,1.02-1.97,1.55-3.16,1.55Z"/>
  <path class="cls-1" d="m296.46,229.33c-.86,0-1.72-.27-2.45-.84-1.75-1.35-2.06-3.87-.71-5.61,4.18-5.39,2.82-9.95,2.05-11.67-.39-.85-.91-1.49-1.57-2.3-1.71-2.11-3.85-4.74-3.85-10.91,0-8.98,5.17-12.69,5.75-13.08l4.44,6.66.1-.07c-.09.07-2.29,1.82-2.29,6.49,0,3.33.73,4.23,2.06,5.87.81,1,1.83,2.25,2.64,4.03,2.87,6.32,1.75,13.75-3.01,19.88-.79,1.02-1.97,1.55-3.16,1.55Z"/>
  <path class="cls-1" d="m314.02,229.33c-.86,0-1.72-.27-2.45-.84-1.75-1.35-2.06-3.87-.71-5.61,4.18-5.39,2.83-9.95,2.05-11.66-.39-.85-.91-1.49-1.57-2.3-1.71-2.11-3.85-4.74-3.85-10.91,0-8.98,5.17-12.69,5.75-13.08l4.44,6.66.1-.07c-.09.07-2.29,1.82-2.29,6.49,0,3.33.73,4.23,2.06,5.87.81,1,1.83,2.25,2.64,4.03,2.87,6.32,1.75,13.75-3.01,19.88-.79,1.02-1.97,1.55-3.16,1.55Z"/>
  <path class="cls-1" d="m105.4,269.39c-.86,0-1.72-.27-2.45-.84-1.75-1.35-2.06-3.87-.71-5.61,4.18-5.39,2.82-9.95,2.05-11.67-.39-.85-.91-1.49-1.57-2.3-1.71-2.11-3.85-4.74-3.85-10.91,0-8.98,5.17-12.69,5.75-13.08l4.44,6.66.1-.07c-.09.07-2.29,1.82-2.29,6.49,0,3.33.73,4.23,2.06,5.87.81,1,1.83,2.25,2.64,4.03,2.87,6.32,1.75,13.75-3.01,19.88-.79,1.02-1.97,1.55-3.16,1.55Z"/>
  <path class="cls-1" d="m122.96,269.39c-.86,0-1.72-.27-2.45-.84-1.75-1.35-2.06-3.87-.71-5.61,4.18-5.39,2.82-9.95,2.05-11.67-.39-.85-.91-1.49-1.57-2.3-1.71-2.11-3.85-4.74-3.85-10.91,0-8.98,5.17-12.69,5.75-13.08l4.44,6.66.1-.07c-.09.07-2.29,1.82-2.29,6.49,0,3.33.73,4.23,2.06,5.87.81,1,1.83,2.25,2.64,4.03,2.87,6.32,1.75,13.75-3.01,19.88-.79,1.02-1.97,1.55-3.16,1.55Z"/>
  <path class="cls-1" d="m413.2,409.37h-83.55c-2.21,0-4-1.79-4-4s1.79-4,4-4h79.55v-226.19h-75.12c-2.21,0-4-1.79-4-4s1.79-4,4-4h79.12c2.21,0,4,1.79,4,4v234.19c0,2.21-1.79,4-4,4Z"/>
  <path class="cls-1" d="m371.42,409.37c-2.21,0-4-1.79-4-4v-60.11h-36.2c-2.21,0-4-1.79-4-4s1.79-4,4-4h40.2c2.21,0,4,1.79,4,4v64.11c0,2.21-1.79,4-4,4Z"/>
  <path class="cls-1" d="m140.52,269.39c-.86,0-1.72-.27-2.45-.84-1.75-1.35-2.06-3.87-.71-5.61,4.18-5.39,2.82-9.95,2.05-11.67-.39-.85-.91-1.49-1.57-2.3-1.71-2.11-3.85-4.74-3.85-10.91,0-8.98,5.17-12.69,5.75-13.08l4.44,6.66.1-.07c-.09.07-2.29,1.82-2.29,6.49,0,3.33.73,4.23,2.06,5.87.81,1,1.83,2.25,2.64,4.03,2.87,6.32,1.75,13.75-3.01,19.88-.79,1.02-1.97,1.55-3.16,1.55Z"/>
  <path class="cls-1" d="m353.26,269.39c-.86,0-1.72-.27-2.45-.84-1.75-1.35-2.06-3.87-.71-5.61,4.18-5.39,2.82-9.95,2.05-11.66-.39-.85-.91-1.49-1.57-2.3-1.71-2.11-3.85-4.74-3.85-10.91,0-8.98,5.17-12.69,5.75-13.08l4.44,6.66.1-.07c-.09.07-2.29,1.82-2.29,6.49,0,3.33.73,4.23,2.06,5.87.81,1,1.83,2.25,2.64,4.03,2.87,6.32,1.75,13.75-3.01,19.88-.79,1.02-1.97,1.55-3.16,1.55Z"/>
  <path class="cls-1" d="m370.82,269.39c-.86,0-1.72-.27-2.45-.84-1.75-1.35-2.06-3.87-.71-5.61,4.18-5.39,2.82-9.95,2.05-11.67-.39-.85-.91-1.49-1.57-2.3-1.71-2.11-3.85-4.74-3.85-10.91,0-8.98,5.17-12.69,5.75-13.08l4.44,6.66.1-.07c-.09.07-2.29,1.82-2.29,6.49,0,3.33.73,4.23,2.06,5.87.81,1,1.83,2.25,2.64,4.03,2.87,6.32,1.75,13.75-3.01,19.88-.79,1.02-1.97,1.55-3.16,1.55Z"/>
  <path class="cls-1" d="m388.38,269.39c-.86,0-1.72-.27-2.45-.84-1.75-1.35-2.06-3.87-.71-5.61,4.18-5.39,2.82-9.95,2.05-11.66-.39-.85-.91-1.49-1.57-2.3-1.71-2.11-3.85-4.74-3.85-10.91,0-8.98,5.17-12.69,5.75-13.08l4.44,6.66.1-.07c-.09.07-2.29,1.82-2.29,6.49,0,3.33.73,4.23,2.06,5.87.81,1,1.83,2.25,2.64,4.03,2.87,6.32,1.75,13.75-3.01,19.88-.79,1.02-1.97,1.55-3.16,1.55Z"/>
  <path class="cls-1" d="m178.11,228.65c-.59-.39-5.75-4.1-5.75-13.08,0-6.17,2.13-8.8,3.85-10.91.66-.81,1.18-1.45,1.57-2.3.78-1.71,2.13-6.27-2.05-11.66-1.35-1.75-1.04-4.26.71-5.61,1.75-1.35,4.26-1.04,5.61.71,4.75,6.13,5.88,13.56,3.01,19.88-.81,1.78-1.82,3.03-2.64,4.03-1.33,1.64-2.06,2.54-2.06,5.87,0,4.67,2.2,6.42,2.29,6.49l-.1-.07-4.44,6.66Z"/>
  <path class="cls-1" d="m195.67,228.65c-.59-.39-5.75-4.1-5.75-13.08,0-6.17,2.13-8.8,3.85-10.91.66-.81,1.18-1.45,1.57-2.3.78-1.71,2.13-6.27-2.05-11.66-1.35-1.75-1.04-4.26.71-5.61,1.75-1.35,4.26-1.04,5.61.71,4.75,6.13,5.88,13.56,3.01,19.88-.81,1.78-1.82,3.03-2.64,4.03-1.33,1.64-2.06,2.54-2.06,5.87,0,4.67,2.2,6.42,2.29,6.49l-.1-.07-4.44,6.66Z"/>
  <path class="cls-1" d="m213.23,228.65c-.59-.39-5.75-4.1-5.75-13.08,0-6.17,2.13-8.8,3.85-10.91.66-.81,1.18-1.45,1.57-2.3.78-1.71,2.13-6.27-2.05-11.66-1.35-1.75-1.04-4.26.71-5.61,1.75-1.35,4.26-1.04,5.61.71,4.75,6.13,5.88,13.56,3.01,19.88-.81,1.78-1.82,3.03-2.64,4.03-1.33,1.64-2.06,2.54-2.06,5.87,0,4.67,2.2,6.42,2.29,6.49l-.1-.07-4.44,6.66Z"/>
</svg>