<?xml version="1.0" encoding="UTF-8"?>
<svg id="Calque_1" data-name="Calque 1" xmlns="http://www.w3.org/2000/svg" viewBox="0 0 500 500">
  <defs>
    <style>
      .cls-1 {
        fill: #000091;
      }

      .cls-2 {
        fill: #e4794a;
      }
    </style>
  </defs>
  <path class="cls-1" d="m230.23,150.45c-15.19,0-27.54-12.35-27.54-27.54s12.35-27.54,27.54-27.54,27.54,12.35,27.54,27.54-12.35,27.54-27.54,27.54Zm0-47.08c-10.77,0-19.54,8.77-19.54,19.54s8.77,19.54,19.54,19.54,19.54-8.77,19.54-19.54-8.77-19.54-19.54-19.54Z"/>
  <path class="cls-1" d="m350.25,333.56c-1.86,0-3.49-1.29-3.9-3.13l-9.42-42.06-84.42-85.72-42.11,10.14c-.99.24-2.03.09-2.92-.41l-46.09-26.24c-6.18-3.52-7.98-12.07-4-19.05,3.98-6.98,12.24-9.8,18.43-6.28l34.2,19.47,28.05-7.46,37.49-35.29,17.06-31.86-16.73-35.21c-1.51-3.18-1.48-6.96.08-10.39,1.48-3.24,4.16-5.91,7.55-7.52,3.39-1.61,7.16-2,10.6-1.1,3.64.95,6.59,3.32,8.1,6.5l19.92,41.93c.44.92.51,1.97.2,2.94l-17.31,54.12,32.25,40.57,30.23-17.98c1.05-.66,9.27-5.46,18.33-1.47.04.02.08.04.12.06l51.26,24.68c7.01,3.38,9.97,11.83,6.6,18.85-3.34,6.94-11.65,9.91-18.62,6.7l-42.49-14.83-39.36,30.46,29.26,28.04c.58.56.98,1.28,1.15,2.07l11.02,53.07c.24,1.14-.04,2.33-.75,3.26-.71.92-1.79,1.49-2.96,1.55l-30.58,1.57c-.07,0-.14,0-.21,0Zm-96.48-139.32c1.06,0,2.09.42,2.85,1.19l86.81,88.15c.52.53.89,1.2,1.05,1.93l8.93,39.88,22.55-1.16-9.82-47.29-31.71-30.4c-.84-.81-1.29-1.94-1.23-3.1.06-1.16.63-2.24,1.55-2.95l44.75-34.63c1.07-.83,2.49-1.06,3.77-.61l44.74,15.61c.14.05.28.11.42.17,3.04,1.46,6.7.18,8.17-2.86,1.46-3.04.18-6.7-2.86-8.17l-51.19-24.65c-5.46-2.37-10.72.9-10.77.93-.05.03-.1.06-.15.09l-33.28,19.79c-1.72,1.02-3.93.62-5.18-.95l-35.75-44.97c-.83-1.04-1.09-2.44-.68-3.71l17.48-54.65-19.24-40.5c-.68-1.42-2.11-1.99-2.91-2.2-1.6-.42-3.47-.21-5.14.59-1.67.79-3.01,2.11-3.7,3.61-.34.75-.81,2.22-.13,3.64l17.59,37.03c.55,1.15.51,2.49-.09,3.61l-18.33,34.21c-.2.38-.47.73-.78,1.02l-38.7,36.43c-.48.45-1.07.78-1.71.95l-30.61,8.14c-1.01.27-2.1.13-3.01-.39l-35.63-20.29c-2.31-1.31-5.75.19-7.52,3.29-1.76,3.1-1.3,6.82,1.01,8.14l44.72,25.46,42.77-10.29c.31-.08.62-.11.94-.11Z"/>
  <path class="cls-1" d="m56.8,316.23c-1.63,0-3.17-1.01-3.76-2.63-.76-2.08.31-4.37,2.39-5.13l350.47-127.55c2.08-.75,4.37.32,5.13,2.39.76,2.08-.31,4.37-2.39,5.13L58.16,315.99c-.45.16-.91.24-1.37.24Z"/>
  <path class="cls-1" d="m89.91,408.46c-2.21,0-4-1.79-4-4v-103.07c0-2.21,1.79-4,4-4s4,1.79,4,4v103.07c0,2.21-1.79,4-4,4Z"/>
  <path class="cls-1" d="m131.16,395.75c-2.21,0-4-1.79-4-4v-103.07c0-2.21,1.79-4,4-4s4,1.79,4,4v103.07c0,2.21-1.79,4-4,4Z"/>
  <path class="cls-1" d="m172.42,383.04c-2.21,0-4-1.79-4-4v-108.89c0-2.21,1.79-4,4-4s4,1.79,4,4v108.89c0,2.21-1.79,4-4,4Z"/>
  <path class="cls-1" d="m213.67,370.33c-2.21,0-4-1.79-4-4v-109.37c0-2.21,1.79-4,4-4s4,1.79,4,4v109.37c0,2.21-1.79,4-4,4Z"/>
  <path class="cls-1" d="m254.92,356.53c-2.21,0-4-1.79-4-4v-111.92c0-2.21,1.79-4,4-4s4,1.79,4,4v111.92c0,2.21-1.79,4-4,4Z"/>
  <path class="cls-1" d="m296.18,342.73c-2.21,0-4-1.79-4-4v-111.92c0-2.21,1.79-4,4-4s4,1.79,4,4v111.92c0,2.21-1.79,4-4,4Z"/>
  <path class="cls-1" d="m337.43,328.93c-2.21,0-4-1.79-4-4v-111.92c0-2.21,1.79-4,4-4s4,1.79,4,4v111.92c0,2.21-1.79,4-4,4Z"/>
  <path class="cls-1" d="m378.69,315.13c-2.21,0-4-1.79-4-4v-111.92c0-2.21,1.79-4,4-4s4,1.79,4,4v111.92c0,2.21-1.79,4-4,4Z"/>
  <polygon class="cls-2" points="56.79 405.39 56.79 446.43 416.14 446.43 416.14 276.74 56.79 405.39"/>
  <path class="cls-1" d="m326.11,446.43h-8v-3.8l-10.41-14.64c-.37-.52-.61-1.13-.7-1.76l-2.79-19.87c-.06-.45-.05-.9.04-1.34l4.2-21.03c-5.73-8.84-9.94-21.21-11.45-26l-15.63-5.6c-1.13-.41-2.02-1.3-2.42-2.43l-7.57-21.41,7.54-2.67,6.94,19.62,15.73,5.63c1.21.43,2.14,1.42,2.49,2.65.05.17,5.05,17.27,11.89,27.05.63.89.86,2.01.65,3.08l-4.4,21.99,2.56,18.23,10.59,14.89c.48.68.74,1.49.74,2.32v5.08Z"/>
  <path class="cls-1" d="m337.43,380.87c-.98,0-1.95-.35-2.72-1.07l-3.86-3.59-23.03-1.97c-2.2-.19-3.83-2.13-3.64-4.33.19-2.2,2.13-3.83,4.33-3.64l24.4,2.09c.89.08,1.73.45,2.38,1.06l4.87,4.53c1.62,1.5,1.71,4.04.2,5.65-.79.85-1.86,1.27-2.93,1.27Z"/>
  <path class="cls-1" d="m383.81,422.46h-22.31c-1.84,0-3.44-1.25-3.88-3.04l-2.04-8.23h-11.16c-1.6,0-3.04-.95-3.67-2.41l-4.33-10.01-9.1,1.56c-.9.16-1.82,0-2.62-.44l-14.94-8.29c-1.93-1.07-2.63-3.51-1.56-5.44,1.07-1.93,3.51-2.63,5.44-1.56l13.71,7.6,10.81-1.85c1.82-.31,3.61.66,4.35,2.35l4.53,10.49h11.66c1.84,0,3.44,1.25,3.88,3.04l2.04,8.23h19.18c2.21,0,4,1.79,4,4s-1.79,4-4,4Z"/>
  <path class="cls-1" d="m264.24,374.24h-16.73c-2.21,0-4-1.79-4-4s1.79-4,4-4h15.63l12.29-7.3,3.45-11.46c.64-2.11,2.87-3.32,4.98-2.68,2.12.64,3.31,2.87,2.68,4.98l-3.9,12.96c-.29.96-.93,1.77-1.79,2.29l-14.57,8.66c-.62.37-1.32.56-2.04.56Z"/>
</svg>