<?xml version="1.0" encoding="UTF-8"?>
<svg id="Calque_1" data-name="Calque 1" xmlns="http://www.w3.org/2000/svg" viewBox="0 0 500 500">
  <defs>
    <style>
      .cls-1 {
        fill: #000091;
      }

      .cls-2 {
        fill: #e4794a;
      }
    </style>
  </defs>
  <rect class="cls-2" x="336.3" y="201.89" width="34.7" height="39.62" transform="translate(707.29 443.41) rotate(-180)"/>
  <rect class="cls-2" x="336.3" y="268.75" width="34.7" height="39.62" transform="translate(707.29 577.12) rotate(-180)"/>
  <path class="cls-1" d="m170.86,409.65h-83.55c-2.21,0-4-1.79-4-4v-234.19c0-2.21,1.79-4,4-4h77.12c2.21,0,4,1.79,4,4s-1.79,4-4,4h-73.12v226.19h79.55c2.21,0,4,1.79,4,4s-1.79,4-4,4Z"/>
  <rect class="cls-2" x="129.08" y="201.89" width="34.7" height="39.62"/>
  <rect class="cls-2" x="129.08" y="268.75" width="34.7" height="39.62"/>
  <path class="cls-1" d="m333.64,409.65h-169.21c-2.21,0-4-1.79-4-4V95.43c0-2.21,1.79-4,4-4h169.21c2.21,0,4,1.79,4,4v310.23c0,2.21-1.79,4-4,4Zm-165.21-8h161.21V99.43h-161.21v302.23Z"/>
  <path class="cls-1" d="m129.08,409.65c-2.21,0-4-1.79-4-4v-64.11c0-2.21,1.79-4,4-4h34.7c2.21,0,4,1.79,4,4s-1.79,4-4,4h-30.7v60.11c0,2.21-1.79,4-4,4Z"/>
  <path class="cls-1" d="m412.77,409.65h-83.55c-2.21,0-4-1.79-4-4s1.79-4,4-4h79.55v-226.19h-73.12c-2.21,0-4-1.79-4-4s1.79-4,4-4h77.12c2.21,0,4,1.79,4,4v234.19c0,2.21-1.79,4-4,4Z"/>
  <path class="cls-1" d="m371,409.65c-2.21,0-4-1.79-4-4v-60.11h-30.7c-2.21,0-4-1.79-4-4s1.79-4,4-4h34.7c2.21,0,4,1.79,4,4v64.11c0,2.21-1.79,4-4,4Z"/>
  <path class="cls-1" d="m288.85,345.54h-76.7c-2.21,0-4-1.79-4-4s1.79-4,4-4h76.7c2.21,0,4,1.79,4,4s-1.79,4-4,4Z"/>
  <path class="cls-1" d="m278.8,409.65h-56.6c-2.21,0-4-1.79-4-4v-64.11c0-2.21,1.79-4,4-4h56.6c2.21,0,4,1.79,4,4v64.11c0,2.21-1.79,4-4,4Zm-52.6-8h48.6v-56.11h-48.6v56.11Z"/>
  <rect class="cls-2" x="197.34" y="138.99" width="38.24" height="38.24"/>
  <rect class="cls-2" x="265.1" y="138.99" width="38.24" height="38.24"/>
  <rect class="cls-2" x="197.63" y="202.59" width="38.24" height="38.24"/>
  <rect class="cls-2" x="265.39" y="202.59" width="38.24" height="38.24"/>
  <rect class="cls-2" x="197.63" y="269.44" width="38.24" height="38.24"/>
  <rect class="cls-2" x="265.39" y="269.44" width="38.24" height="38.24"/>
</svg>