<?xml version="1.0" encoding="UTF-8"?>
<svg id="Calque_1" data-name="Calque 1" xmlns="http://www.w3.org/2000/svg" viewBox="0 0 500 500">
  <defs>
    <style>
      .cls-1 {
        fill: #000091;
      }

      .cls-2 {
        fill: #e4794a;
      }
    </style>
  </defs>
  <g>
    <polyline class="cls-2" points="269.67 153.51 258.43 163.08 250.67 153.97 262.52 143.88"/>
    <path class="cls-2" d="m258.93,165.58c-.88.18-1.82-.12-2.45-.85l-7.76-9.11c-.44-.51-.65-1.18-.6-1.86.05-.67.37-1.3.89-1.74l11.85-10.09c1.07-.91,2.68-.78,3.6.29s.78,2.68-.29,3.6l-9.91,8.43,4.45,5.23,9.3-7.92c1.07-.92,2.68-.78,3.6.29s.78,2.68-.29,3.6l-11.24,9.57c-.34.29-.74.48-1.15.56Z"/>
  </g>
  <path class="cls-1" d="m333.94,219.12c-.78.16-1.63-.05-2.25-.64-1.03-.97-1.08-2.58-.11-3.61.64-.68,15.92-16.74,30.88-18.31,13.19-1.38,31.42-17.89,31.6-18.06,1.04-.95,2.65-.88,3.6.16.95,1.04.88,2.65-.16,3.6-.75.69-17.78,16.11-32.22,19.01-.77.16-1.54.27-2.3.35-13.1,1.37-27.55,16.58-27.7,16.73-.38.4-.85.65-1.35.75Z"/>
  <path class="cls-1" d="m378.72,267.11c-1.21.24-2.45.32-3.72.22-3.55-.28-6.76-1.92-9.06-4.62l-32.95-38.69c-.25-.29-.43-.64-.53-1.01l-13.07-50.05c-.25-.95.07-1.95.81-2.59l20.8-17.71c.74-.63,1.78-.79,2.67-.4.35.15,35.07,15.22,41.44,17.93,6.81,2.89,13.26,9.1,13.53,9.37.06.06.11.12.17.18l27.14,31.87c2.29,2.69,3.4,6.13,3.12,9.68-.28,3.55-1.92,6.76-4.62,9.06l-39.78,33.87c-1.74,1.48-3.78,2.46-5.96,2.9Zm-41.46-45.95l32.57,38.24c1.41,1.66,3.39,2.66,5.58,2.84,2.19.18,4.31-.51,5.96-1.92l39.78-33.87c1.66-1.41,2.67-3.39,2.84-5.58.18-2.19-.5-4.31-1.92-5.96l-27.05-31.77c-.74-.7-6.34-5.9-11.89-8.26-5.63-2.39-33.31-14.4-40.01-17.31l-18.37,15.64,12.51,47.94Z"/>
  <path class="cls-1" d="m338.23,180.58c-.47.1-.97.12-1.46.08-1.4-.11-2.66-.76-3.57-1.82l-7.99-9.38c-.91-1.07-.78-2.68.29-3.6,1.07-.92,2.68-.78,3.6.29l7.99,9.38s.14.06.19.02l6.26-5.33c.05-.04.06-.14.02-.19l-7.99-9.38c-.91-1.07-.78-2.68.29-3.6,1.07-.91,2.68-.78,3.6.29l7.99,9.38c1.87,2.2,1.61,5.51-.59,7.38l-6.26,5.33c-.69.58-1.49.97-2.35,1.15Z"/>
  <path class="cls-1" d="m385.95,228.27c-.88.18-1.82-.12-2.45-.85l-43.38-50.94c-.91-1.07-.78-2.68.29-3.6,1.07-.91,2.68-.78,3.6.29l43.38,50.94c.91,1.07.78,2.68-.29,3.6-.34.29-.74.48-1.15.56Z"/>
  <path class="cls-1" d="m322.38,174.81c-.88.18-1.82-.12-2.45-.85l-26.73-31.38-18.27,15.56c-.52.44-1.18.65-1.86.6-.67-.05-1.3-.37-1.74-.89l-13.32-15.64c-.91-1.07-.78-2.68.29-3.6l41.31-35.18c9.26-7.89,18.61-11.11,27.78-9.59,15.26,2.54,24.19,17.3,24.56,17.93.63,1.07.41,2.44-.54,3.24l-5.77,4.92c-.52.44-1.18.65-1.86.6-.67-.05-1.3-.37-1.74-.89-3.5-4.11-7.53-6.31-12-6.56-6.6-.36-12.77,3.55-15.75,5.81l29.55,34.7c.91,1.07.78,2.68-.29,3.6-1.07.91-2.68.78-3.6-.29l-31.23-36.67c-.88-1.03-.8-2.57.19-3.5.4-.38,9.98-9.35,21.37-8.74,5.17.27,9.84,2.45,13.9,6.47l2.17-1.85c-2.7-3.71-9.8-12.09-19.84-13.75-7.61-1.25-15.55,1.59-23.6,8.44l-39.37,33.53,10.01,11.76,18.27-15.56c1.07-.92,2.68-.78,3.6.29l28.38,33.33c.91,1.07.78,2.68-.29,3.6-.34.29-.74.48-1.15.56Z"/>
  <circle class="cls-1" cx="358.4" cy="227.02" r="5.69"/>
  <circle class="cls-1" cx="394.01" cy="203.39" r="5.69"/>
  <circle class="cls-1" cx="379.79" cy="242.83" r="5.51"/>
  <circle class="cls-1" cx="402.23" cy="227.2" r="5.69"/>
  <path class="cls-1" d="m297.43,186.49c-.38.08-.79.07-1.19-.05-1.17-.33-1.95-1.44-1.85-2.66,1.95-24.84-12.25-33.89-12.39-33.98-1.2-.74-1.57-2.31-.84-3.51.74-1.2,2.31-1.57,3.51-.84.57.35,11.76,7.47,14.44,25.61,1.82-6.38,3.08-14.25,1.04-20.64-.43-1.34.31-2.78,1.66-3.21,1.34-.43,2.78.31,3.21,1.66,4.79,15.04-5.36,35.4-5.8,36.25-.36.72-1.03,1.2-1.78,1.35Z"/>
  <path class="cls-1" d="m312.74,163.49c-.88.18-1.82-.12-2.45-.85-.91-1.07-.78-2.68.29-3.6l20.02-17.05c1.07-.91,2.68-.78,3.6.29.91,1.07.78,2.68-.29,3.6l-20.02,17.05c-.34.29-.74.48-1.15.56Z"/>
  <path class="cls-1" d="m176.54,245.99c-1.53,0-2.78-1.24-2.78-2.78v-15.86c0-3.06-2.49-5.55-5.55-5.55h-47.25c-3.06,0-5.55,2.49-5.55,5.55v15.86c0,1.53-1.24,2.78-2.78,2.78s-2.78-1.24-2.78-2.78v-15.86c0-6.12,4.98-11.11,11.11-11.11h47.25c6.12,0,11.11,4.98,11.11,11.11v15.86c0,1.53-1.24,2.78-2.78,2.78Z"/>
  <path class="cls-1" d="m181.7,407.3h-73.45c-9.81,0-17.79-6.42-17.87-14.34l-10.6-126.13c-.13-1.53,1.01-2.87,2.53-3,1.53-.13,2.87,1.01,3,2.53l10.61,126.24c0,.08,0,.15,0,.23,0,4.83,5.64,8.91,12.32,8.91h73.45c6.68,0,12.32-4.08,12.32-8.91,0-.06,0-.12,0-.18l8.1-123.9c.1-1.53,1.43-2.68,2.95-2.59,1.53.1,2.69,1.42,2.59,2.95l-8.09,123.82c-.06,7.93-8.06,14.37-17.87,14.37Z"/>
  <g>
    <path class="cls-2" d="m214.64,266.6v-15.05c0-4.58-3.75-8.33-8.33-8.33h-125.41c-4.58,0-8.33,3.75-8.33,8.33v15.05h142.07Z"/>
    <path class="cls-2" d="m214.64,269.37H72.57c-1.53,0-2.78-1.24-2.78-2.78v-15.05c0-6.12,4.98-11.11,11.11-11.11h125.41c6.12,0,11.11,4.98,11.11,11.11v15.05c0,1.53-1.24,2.78-2.78,2.78Zm-139.29-5.55h136.52v-12.27c0-3.06-2.49-5.55-5.55-5.55h-125.41c-3.06,0-5.55,2.49-5.55,5.55v12.27Z"/>
  </g>
  <path class="cls-1" d="m113.85,368.47c-1.53,0-2.78-1.24-2.78-2.78v-78.89c0-1.53,1.24-2.78,2.78-2.78s2.78,1.24,2.78,2.78v78.89c0,1.53-1.24,2.78-2.78,2.78Z"/>
  <path class="cls-1" d="m144.44,368.47c-1.53,0-2.78-1.24-2.78-2.78v-78.89c0-1.53,1.24-2.78,2.78-2.78s2.78,1.24,2.78,2.78v78.89c0,1.53-1.24,2.78-2.78,2.78Z"/>
  <path class="cls-1" d="m175.02,368.47c-1.53,0-2.78-1.24-2.78-2.78v-78.89c0-1.53,1.24-2.78,2.78-2.78s2.78,1.24,2.78,2.78v78.89c0,1.53-1.24,2.78-2.78,2.78Z"/>
  <path class="cls-1" d="m361.25,406.92h-179.55c-1.34,0-2.43-1.09-2.43-2.43s1.09-2.43,2.43-2.43h179.55c1.34,0,2.43,1.09,2.43,2.43s-1.09,2.43-2.43,2.43Z"/>
  <path class="cls-1" d="m206.81,406.92c-.37,0-.74-.08-1.09-.26-1.2-.6-1.68-2.06-1.08-3.26l6.55-13.02c.23-.45.59-.82,1.04-1.06l6.26-3.28,1.96-9.79c.23-1.14,1.22-1.95,2.38-1.95h8.49l7.31-6.97c.51-.49,1.22-.73,1.93-.66.71.07,1.35.45,1.75,1.04l8.63,12.5,17.76,10.84c1.15.7,1.51,2.19.81,3.34-.7,1.15-2.2,1.51-3.34.81l-18.21-11.11c-.29-.18-.54-.41-.73-.69l-7.3-10.58-5.95,5.68c-.45.43-1.05.67-1.68.67h-7.47l-1.79,8.97c-.14.72-.6,1.33-1.25,1.67l-6.59,3.46-6.2,12.33c-.43.85-1.28,1.34-2.17,1.34Z"/>
  <path class="cls-1" d="m348.27,406.92c-.74,0-1.46-.33-1.94-.96l-19.17-25.36-48.2,6.72-24.75,19.09c-1.06.82-2.59.62-3.41-.44-.82-1.06-.62-2.59.44-3.41l25.26-19.49c.33-.26.73-.42,1.15-.48l50.25-7.01c.87-.12,1.74.24,2.27.94l20.03,26.5c.81,1.07.6,2.59-.47,3.4-.44.33-.95.49-1.46.49Z"/>
  <path class="cls-1" d="m278.6,386.4c-.44,0-.89-.12-1.3-.38-9.44-5.96-20.58-12.33-22.9-12.66-.99-.14-3.44,1.8-5.29,5.68-.58,1.21-2.03,1.73-3.24,1.15-1.21-.57-1.73-2.02-1.16-3.23.73-1.55,4.68-9.23,10.37-8.41,4.5.64,21.45,11.24,24.81,13.36,1.13.72,1.47,2.22.76,3.35-.46.73-1.25,1.13-2.06,1.13Z"/>
  <path class="cls-1" d="m342.54,399.35c-.52,0-1.04-.17-1.49-.51-1.06-.82-1.25-2.35-.43-3.41,6.83-8.81.94-17.55-.35-19.26-9.13-5.75-19.73-11.81-22.36-12.4-2.01.74-8.56,8.34-15.38,18.82-.73,1.12-2.24,1.44-3.36.71-1.12-.73-1.44-2.24-.71-3.36.14-.21,3.43-5.27,7.31-10.34,7.56-9.89,10.54-10.97,12.64-10.67,4.5.64,21.45,11.24,24.81,13.36.22.14.41.31.58.51,3.66,4.43,8.5,15.49.66,25.61-.48.62-1.2.94-1.92.94Zm-24.52-35.61"/>
  <path class="cls-1" d="m257.04,372.3c-.35,0-.71-.08-1.06-.24-1.21-.58-1.71-2.04-1.13-3.24l6.99-14.46c.44-.91,1.4-1.46,2.41-1.36l8.85.8,5.87-6.51c.69-.76,1.78-1.01,2.72-.62l7.11,2.89c.4.16.75.43,1.01.77l3,3.93c2-1.73,5.13-3.69,8.37-2.74,3.8,1.11,5.99,6.51,6.99,9.78h3.57c1.34,0,2.43,1.09,2.43,2.43s-1.09,2.43-2.43,2.43h-5.42c-1.12,0-2.1-.77-2.36-1.86-.85-3.51-2.8-7.72-4.13-8.11-1.51-.44-4.27,1.97-5.35,3.3-.47.58-1.19.93-1.92.9-.74-.01-1.44-.36-1.89-.95l-4.3-5.62-4.92-2-5.54,6.14c-.51.57-1.25.86-2.02.79l-8.39-.75-6.26,12.94c-.42.87-1.29,1.37-2.19,1.37Z"/>
  <path class="cls-2" d="m214.02,376.51c-.35-.28-3.46-2.92-3.46-8.33,0-3.21.89-5.28,1.61-6.93.37-.86.69-1.6.86-2.42l.06-.3c.58-2.79.71-3.83-.61-5.28-1.03-1.13-.95-2.89.19-3.92,1.14-1.03,2.89-.95,3.92.19,3.29,3.62,2.54,7.24,1.93,10.15l-.06.29c-.29,1.38-.77,2.51-1.21,3.51-.62,1.43-1.15,2.66-1.15,4.72,0,2.74,1.37,3.99,1.43,4.04l-1.79,2.12-1.73,2.17Z"/>
  <path class="cls-2" d="m228.87,362.56c-.35-.28-3.46-2.92-3.46-8.33,0-3.22.89-5.28,1.61-6.93.37-.86.69-1.6.86-2.42l.06-.3c.58-2.79.71-3.83-.61-5.28-1.03-1.13-.95-2.89.19-3.92,1.13-1.03,2.89-.95,3.92.19,3.29,3.62,2.54,7.23,1.93,10.14l-.06.29c-.29,1.38-.77,2.51-1.21,3.51-.62,1.43-1.15,2.66-1.15,4.72,0,2.74,1.37,3.99,1.43,4.04l-1.79,2.12-1.73,2.17Z"/>
  <path class="cls-2" d="m247.86,356.21c-.61,0-1.22-.2-1.73-.61-.35-.28-3.46-2.92-3.46-8.33,0-3.21.89-5.28,1.61-6.93.37-.86.69-1.6.86-2.42l.06-.3c.58-2.79.71-3.83-.61-5.28-1.03-1.13-.95-2.89.19-3.92,1.13-1.03,2.89-.95,3.92.19,3.29,3.62,2.54,7.23,1.93,10.14l-.06.29c-.29,1.38-.77,2.51-1.21,3.51-.62,1.43-1.15,2.66-1.15,4.72,0,2.73,1.36,3.98,1.38,4,1.2.96,1.39,2.71.43,3.9-.55.69-1.36,1.04-2.17,1.04Z"/>
  <path class="cls-2" d="m302.77,345.13l-3.47-4.34-.05.04c.06-.05,1.43-1.3,1.43-4.04,0-2.06-.53-3.3-1.15-4.72-.43-1-.92-2.12-1.21-3.51l-.06-.29c-.6-2.91-1.35-6.53,1.93-10.14,1.03-1.13,2.79-1.22,3.92-.19,1.13,1.03,1.22,2.79.19,3.92-1.32,1.45-1.18,2.49-.61,5.28l.06.3c.17.82.49,1.56.86,2.42.72,1.66,1.61,3.72,1.61,6.93,0,5.41-3.11,8.05-3.46,8.33Z"/>
  <path class="cls-2" d="m319.36,339.06l-3.47-4.34-.05.04c.06-.05,1.43-1.3,1.43-4.04,0-2.06-.53-3.3-1.15-4.72-.43-1-.92-2.12-1.21-3.51l-.06-.29c-.6-2.91-1.35-6.53,1.93-10.14,1.03-1.14,2.79-1.22,3.92-.19,1.13,1.03,1.22,2.79.19,3.92-1.32,1.45-1.18,2.49-.61,5.28l.06.3c.17.82.49,1.56.86,2.42.72,1.66,1.61,3.72,1.61,6.93,0,5.41-3.11,8.05-3.46,8.33Z"/>
  <path class="cls-2" d="m338.17,345.13l-3.47-4.34-.05.04c.06-.05,1.43-1.3,1.43-4.04,0-2.06-.53-3.3-1.15-4.72-.43-1-.92-2.12-1.21-3.51l-.06-.29c-.6-2.91-1.35-6.53,1.93-10.14,1.03-1.13,2.79-1.22,3.92-.19,1.13,1.03,1.22,2.79.19,3.92-1.32,1.45-1.18,2.49-.61,5.28l.06.3c.17.82.49,1.56.86,2.42.72,1.66,1.61,3.72,1.61,6.93,0,5.41-3.11,8.05-3.46,8.33Z"/>
  <path class="cls-1" d="m226.16,399.35c-.38,0-.77-.09-1.14-.28-1.18-.63-1.64-2.1-1.01-3.29l4.98-9.37c.56-1.05,1.8-1.54,2.93-1.16l6.76,2.3c1.27.43,1.95,1.81,1.52,3.08-.43,1.27-1.81,1.95-3.08,1.52l-4.81-1.63-4.01,7.55c-.44.82-1.28,1.29-2.15,1.29Z"/>
  <path class="cls-1" d="m267.44,372.3c-.74,0-1.47-.34-1.95-.98-.8-1.08-.58-2.6.5-3.4l7.16-5.33c.82-.61,1.93-.64,2.79-.08l6.9,4.54c1.12.74,1.43,2.24.7,3.36-.74,1.12-2.24,1.43-3.36.69l-5.48-3.6-5.8,4.32c-.44.32-.94.48-1.45.48Z"/>
  <path class="cls-1" d="m297.1,374.46c-.59,0-1.18-.21-1.65-.65l-8.1-7.5c-.98-.91-1.04-2.45-.13-3.43.91-.98,2.45-1.04,3.43-.13l8.1,7.5c.98.91,1.04,2.45.13,3.43-.48.52-1.13.78-1.78.78Z"/>
  <path class="cls-1" d="m278.6,400.99c-.63,0-1.25-.24-1.73-.72-.94-.95-.93-2.49.02-3.44l6.41-6.33c.73-.72,1.83-.91,2.75-.47l6.66,3.17c1.21.58,1.73,2.03,1.15,3.24-.58,1.21-2.03,1.73-3.24,1.15l-5.12-2.43-5.19,5.13c-.47.47-1.09.7-1.71.7Z"/>
  <path class="cls-1" d="m329.93,399.35c-.75,0-1.48-.34-1.96-.99l-5.53-7.5-16.87,5.18c-1.28.39-2.64-.33-3.04-1.61-.39-1.28.33-2.64,1.61-3.04l18.51-5.69c.98-.3,2.06.05,2.67.88l6.55,8.89c.8,1.08.57,2.6-.51,3.4-.43.32-.94.47-1.44.47Z"/>
</svg>