<?xml version="1.0" encoding="UTF-8"?>
<svg id="Calque_1" data-name="Calque 1" xmlns="http://www.w3.org/2000/svg" viewBox="0 0 500 500">
  <defs>
    <style>
      .cls-1 {
        fill: #000091;
      }

      .cls-2 {
        fill: #e5794a;
      }
    </style>
  </defs>
  <path class="cls-1" d="m148.33,378.21c-4.1,0-8.19-1.56-11.31-4.68l-10.39-10.39c-3.01-3.01-4.67-7.03-4.67-11.31s1.66-8.3,4.67-11.31l91.45-91.45c1.56-1.56,4.09-1.56,5.66,0,1.56,1.56,1.56,4.09,0,5.66l-91.45,91.45c-1.5,1.5-2.33,3.51-2.33,5.66s.83,4.16,2.33,5.66l10.39,10.39c3.12,3.12,8.19,3.12,11.31,0l91.63-91.63c1.56-1.56,4.1-1.56,5.66,0,1.56,1.56,1.56,4.09,0,5.66l-91.63,91.63c-3.12,3.12-7.22,4.68-11.31,4.68Z"/>
  <path class="cls-1" d="m329.44,376.18c-7.48,0-17.69-2.39-27.7-12.4-16.72-16.72-15.04-32.49-13.41-38.8l-114.39-114.39c-6.27,1.43-22.54,2.52-40.73-17.29-14.99-16.32-5.93-38.74-5.54-39.69.51-1.23,1.61-2.13,2.92-2.39,1.31-.26,2.66.15,3.61,1.09l20,20c2.16,2.16,5.06,3.35,8.14,3.35s5.98-1.19,8.14-3.35l2.61-2.61c4.49-4.49,4.49-11.8,0-16.29l-20.08-20.08c-.87-.87-1.29-2.1-1.14-3.33.15-1.23.87-2.31,1.93-2.94.24-.14,5.89-3.44,14.16-4.02,7.6-.53,18.99,1.18,30.12,12.31,16.86,16.86,15.01,32.75,13.37,38.96l114.27,114.27c6.16-1.45,22.55-2.72,40.89,17.26,14.99,16.32,5.93,38.74,5.54,39.69-.51,1.23-1.61,2.13-2.92,2.39-1.31.26-2.66-.15-3.61-1.09l-20-20c-2.16-2.16-5.06-3.35-8.14-3.35s-5.98,1.19-8.14,3.35l-2.61,2.61c-4.49,4.49-4.49,11.8,0,16.29l20.08,20.08c.87.87,1.29,2.1,1.14,3.33-.15,1.23-.87,2.31-1.93,2.94-.24.14-5.89,3.44-14.16,4.02-.77.05-1.58.08-2.42.08Zm-32.83-50.85c-.06.14-1.63,4.02-1.14,9.87.68,7.97,4.69,15.69,11.93,22.93,11.49,11.49,23.05,10.78,29.46,9.04l-15.78-15.78c-7.61-7.61-7.61-19.99,0-27.6l2.61-2.61c3.67-3.67,8.57-5.7,13.8-5.7s10.13,2.02,13.8,5.7l15.18,15.19c.29-1.52.54-3.24.66-5.1.5-8.1-1.65-14.82-6.4-20-7.84-8.54-16.31-13.75-24.49-15.06-6.06-.97-9.93.54-9.97.56-1.27.51-2.75.35-3.86-.45l-.7-.5c-.18-.13-.34-.27-.5-.42l-117.14-117.14c-1.17-1.17-1.5-2.94-.83-4.45,0,0,1.63-3.92,1.12-9.84-.68-7.97-4.69-15.69-11.93-22.93-11.49-11.49-23.05-10.78-29.46-9.04l15.78,15.78c7.61,7.61,7.61,19.99,0,27.6l-2.61,2.61c-7.61,7.61-19.99,7.61-27.6,0l-15.18-15.19c-.29,1.52-.54,3.24-.66,5.1-.5,8.1,1.65,14.83,6.4,20,10.13,11.04,19.19,14.32,25.01,15.14,5.73.8,9.37-.6,9.41-.62,1.5-.64,3.24-.3,4.4.85l116.58,116.58.98.81c1.38,1.14,1.84,3.05,1.12,4.68Z"/>
  <g>
    <polygon class="cls-2" points="223.85 254.84 322.73 158.55 327.02 143.7 359.33 121.65 378.62 140.79 356.88 172.64 345.24 176.16 245.82 276.81 223.85 254.84"/>
    <path class="cls-2" d="m245.82,280.81c-1.06,0-2.08-.42-2.83-1.17l-21.97-21.97c-.76-.76-1.18-1.79-1.17-2.85,0-1.07.44-2.09,1.21-2.84l98.12-95.55,3.99-13.84c.26-.89.82-1.67,1.59-2.19l32.31-22.05c1.58-1.08,3.71-.89,5.07.46l19.29,19.14c1.37,1.36,1.57,3.5.49,5.1l-21.74,31.85c-.51.75-1.27,1.31-2.15,1.57l-10.66,3.23-98.71,99.92c-.75.76-1.77,1.19-2.83,1.19h-.01Zm-16.27-25.93l16.26,16.26,96.59-97.78c.47-.47,1.05-.82,1.69-1.02l10.29-3.11,19.07-27.94-14.59-14.47-28.39,19.38-3.89,13.47c-.19.67-.55,1.27-1.05,1.76l-95.98,93.46Z"/>
  </g>
  <path class="cls-1" d="m260.12,295.11c-1.02,0-2.05-.39-2.83-1.17l-46.86-46.86c-1.56-1.56-1.56-4.09,0-5.66,1.56-1.56,4.1-1.56,5.66,0l46.86,46.86c1.56,1.56,1.56,4.09,0,5.66-.78.78-1.8,1.17-2.83,1.17Z"/>
  <path class="cls-1" d="m164.11,364.8c-1.02,0-2.05-.39-2.83-1.17l-26.06-26.06c-1.56-1.56-1.56-4.09,0-5.66,1.56-1.56,4.09-1.56,5.66,0l26.06,26.06c1.56,1.56,1.56,4.09,0,5.66-.78.78-1.8,1.17-2.83,1.17Z"/>
  <path class="cls-1" d="m229.91,299.01c-1.02,0-2.05-.39-2.83-1.17l-26.06-26.06c-1.56-1.56-1.56-4.09,0-5.66,1.56-1.56,4.09-1.56,5.66,0l26.06,26.06c1.56,1.56,1.56,4.09,0,5.66-.78.78-1.8,1.17-2.83,1.17Z"/>
  <path class="cls-1" d="m151.08,351.77c-1.02,0-2.05-.39-2.83-1.17-1.56-1.56-1.56-4.09,0-5.66l65.8-65.8c1.56-1.56,4.09-1.56,5.66,0,1.56,1.56,1.56,4.09,0,5.66l-65.8,65.8c-.78.78-1.8,1.17-2.83,1.17Z"/>
</svg>