<?xml version="1.0" encoding="UTF-8"?>
<svg id="Calque_1" data-name="Calque 1" xmlns="http://www.w3.org/2000/svg" viewBox="0 0 500 500">
  <defs>
    <style>
      .cls-1 {
        fill: #000091;
      }

      .cls-2 {
        fill: #e4794a;
      }
    </style>
  </defs>
  <path class="cls-1" d="m411.03,281.69h-25.79c-2.21,0-4-1.79-4-4v-29.45c0-2.21,1.79-4,4-4h25.79c2.21,0,4,1.79,4,4v29.45c0,2.21-1.79,4-4,4Zm-21.79-8h17.79v-21.45h-17.79v21.45Z"/>
  <path class="cls-1" d="m411.03,331.38h-25.79c-2.21,0-4-1.79-4-4v-29.45c0-2.21,1.79-4,4-4h25.79c2.21,0,4,1.79,4,4v29.45c0,2.21-1.79,4-4,4Zm-21.79-8h17.79v-21.45h-17.79v21.45Z"/>
  <path class="cls-1" d="m262.27,403.69h-62.1c-2.21,0-4-1.79-4-4v-174.07c0-2.21,1.79-4,4-4h57.32c2.21,0,4,1.79,4,4s-1.79,4-4,4h-53.32v166.07h58.1c2.21,0,4,1.79,4,4s-1.79,4-4,4Z"/>
  <path class="cls-1" d="m257.01,281.69h-25.79c-2.21,0-4-1.79-4-4v-29.45c0-2.21,1.79-4,4-4h25.79c2.21,0,4,1.79,4,4v29.45c0,2.21-1.79,4-4,4Zm-21.79-8h17.79v-21.45h-17.79v21.45Z"/>
  <path class="cls-1" d="m257.01,331.38h-25.79c-2.21,0-4-1.79-4-4v-29.45c0-2.21,1.79-4,4-4h25.79c2.21,0,4,1.79,4,4v29.45c0,2.21-1.79,4-4,4Zm-21.79-8h17.79v-21.45h-17.79v21.45Z"/>
  <path class="cls-1" d="m383.27,403.69h-125.78c-2.21,0-4-1.79-4-4v-230.59c0-2.21,1.79-4,4-4h125.78c2.21,0,4,1.79,4,4v230.59c0,2.21-1.79,4-4,4Zm-121.78-8h117.78v-222.59h-117.78v222.59Z"/>
  <path class="cls-1" d="m231.22,403.69c-2.21,0-4-1.79-4-4v-47.65c0-2.21,1.79-4,4-4h25.79c2.21,0,4,1.79,4,4s-1.79,4-4,4h-21.79v43.65c0,2.21-1.79,4-4,4Z"/>
  <path class="cls-1" d="m442.08,403.69h-62.1c-2.21,0-4-1.79-4-4s1.79-4,4-4h58.1v-166.07h-53.32c-2.21,0-4-1.79-4-4s1.79-4,4-4h57.32c2.21,0,4,1.79,4,4v174.07c0,2.21-1.79,4-4,4Z"/>
  <path class="cls-1" d="m411.03,403.69c-2.21,0-4-1.79-4-4v-43.65h-21.79c-2.21,0-4-1.79-4-4s1.79-4,4-4h25.79c2.21,0,4,1.79,4,4v47.65c0,2.21-1.79,4-4,4Z"/>
  <path class="cls-1" d="m349.97,356.03h-57.01c-2.21,0-4-1.79-4-4s1.79-4,4-4h57.01c2.21,0,4,1.79,4,4s-1.79,4-4,4Z"/>
  <path class="cls-1" d="m342.5,403.69h-42.07c-2.21,0-4-1.79-4-4v-47.65c0-2.21,1.79-4,4-4h42.07c2.21,0,4,1.79,4,4v47.65c0,2.21-1.79,4-4,4Zm-38.07-8h34.07v-39.65h-34.07v39.65Z"/>
  <path class="cls-1" d="m310.38,233.9h-28.42c-2.21,0-4-1.79-4-4v-28.42c0-2.21,1.79-4,4-4h28.42c2.21,0,4,1.79,4,4v28.42c0,2.21-1.79,4-4,4Zm-24.42-8h20.42v-20.42h-20.42v20.42Z"/>
  <path class="cls-1" d="m360.75,233.9h-28.42c-2.21,0-4-1.79-4-4v-28.42c0-2.21,1.79-4,4-4h28.42c2.21,0,4,1.79,4,4v28.42c0,2.21-1.79,4-4,4Zm-24.42-8h20.42v-20.42h-20.42v20.42Z"/>
  <path class="cls-1" d="m310.59,281.17h-28.42c-2.21,0-4-1.79-4-4v-28.42c0-2.21,1.79-4,4-4h28.42c2.21,0,4,1.79,4,4v28.42c0,2.21-1.79,4-4,4Zm-24.42-8h20.42v-20.42h-20.42v20.42Z"/>
  <path class="cls-1" d="m360.96,281.17h-28.42c-2.21,0-4-1.79-4-4v-28.42c0-2.21,1.79-4,4-4h28.42c2.21,0,4,1.79,4,4v28.42c0,2.21-1.79,4-4,4Zm-24.42-8h20.42v-20.42h-20.42v20.42Z"/>
  <path class="cls-1" d="m310.59,330.86h-28.42c-2.21,0-4-1.79-4-4v-28.42c0-2.21,1.79-4,4-4h28.42c2.21,0,4,1.79,4,4v28.42c0,2.21-1.79,4-4,4Zm-24.42-8h20.42v-20.42h-20.42v20.42Z"/>
  <path class="cls-1" d="m360.96,330.86h-28.42c-2.21,0-4-1.79-4-4v-28.42c0-2.21,1.79-4,4-4h28.42c2.21,0,4,1.79,4,4v28.42c0,2.21-1.79,4-4,4Zm-24.42-8h20.42v-20.42h-20.42v20.42Z"/>
  <path class="cls-1" d="m105,382.19c-2.21,0-4-1.79-4-4v-112.79c0-4.41-3.59-8-8-8h-7.07c-4.41,0-8,3.59-8,8v112.79c0,2.21-1.79,4-4,4s-4-1.79-4-4v-112.79c0-8.82,7.18-16,16-16h7.07c8.82,0,16,7.18,16,16v112.79c0,2.21-1.79,4-4,4Z"/>
  <path class="cls-1" d="m121.45,402.04c-2.21,0-4-1.79-4-4,0-6.62-3.74-12.43-8-12.43h-38.75c-4.26,0-8,5.81-8,12.43,0,2.21-1.79,4-4,4s-4-1.79-4-4c0-11.26,7.18-20.43,16-20.43h38.75c8.82,0,16,9.16,16,20.43,0,2.21-1.79,4-4,4Z"/>
  <path class="cls-1" d="m89.87,257.39c-2.21,0-4-1.79-4-4v-127.05c-.12-1.78-.61-14.29,7.48-23.09,5.14-5.6,12.49-8.44,21.83-8.44h38.01c2.21,0,4,1.79,4,4s-1.79,4-4,4h-38.01c-7.01,0-12.37,1.97-15.94,5.85-6.1,6.64-5.39,17.1-5.38,17.2,0,.11.01.23.01.34v127.19c0,2.21-1.79,4-4,4Z"/>
  <path class="cls-2" d="m179.73,187.42c-2.21,0-4-1.79-4-4v-30.57c0-2.21,1.79-4,4-4s4,1.79,4,4v30.57c0,2.21-1.79,4-4,4Z"/>
  <path class="cls-2" d="m145.82,183.65c-.65,0-1.31-.16-1.92-.5-1.94-1.06-2.64-3.5-1.58-5.43l14.72-26.79c1.06-1.93,3.49-2.64,5.43-1.58,1.94,1.06,2.64,3.5,1.58,5.43l-14.72,26.79c-.73,1.33-2.1,2.08-3.51,2.08Z"/>
  <path class="cls-2" d="m123.56,167.33c-1.07,0-2.13-.42-2.92-1.26-1.51-1.61-1.44-4.14.17-5.65l22.27-20.94c1.61-1.52,4.14-1.43,5.65.17,1.51,1.61,1.44,4.14-.17,5.65l-22.27,20.94c-.77.73-1.76,1.09-2.74,1.09Z"/>
  <path class="cls-2" d="m213.91,182.61c-1.41,0-2.78-.75-3.51-2.08l-14.72-26.79c-1.06-1.94-.36-4.37,1.58-5.43,1.94-1.06,4.37-.35,5.43,1.58l14.72,26.79c1.06,1.94.36,4.37-1.58,5.43-.61.34-1.27.5-1.92.5Z"/>
  <path class="cls-2" d="m236.17,166.29c-.98,0-1.97-.36-2.74-1.09l-22.27-20.94c-1.61-1.51-1.69-4.04-.17-5.65,1.51-1.61,4.04-1.69,5.65-.17l22.27,20.94c1.61,1.51,1.69,4.04.17,5.65-.79.84-1.85,1.26-2.92,1.26Z"/>
  <path class="cls-1" d="m194.28,136.19h-29.09c-8.82,0-16-7.18-16-16v-23.83c0-2.21,1.79-4,4-4h53.09c2.21,0,4,1.79,4,4v23.83c0,8.82-7.18,16-16,16Zm-37.09-35.83v19.83c0,4.41,3.59,8,8,8h29.09c4.41,0,8-3.59,8-8v-19.83h-45.09Z"/>
  <path class="cls-2" d="m463.73,403.49H35.44c-2.21,0-4-1.79-4-4s1.79-4,4-4h428.29c2.21,0,4,1.79,4,4s-1.79,4-4,4Z"/>
</svg>