<?xml version="1.0" encoding="UTF-8"?>
<svg id="Calque_1" data-name="Calque 1" xmlns="http://www.w3.org/2000/svg" viewBox="0 0 500 500">
  <defs>
    <style>
      .cls-1 {
        fill: #000091;
      }

      .cls-2 {
        fill: #e4794a;
      }
    </style>
  </defs>
  <path class="cls-2" d="m279.61,414.48c-3.02,0-5.48-2.44-5.5-5.46-.01-2.35.09-57.94,37.12-94.17,21.14-20.69,49.93-30.69,85.54-29.68,3.04.08,5.43,2.61,5.35,5.65-.08,3.04-2.61,5.41-5.65,5.35-32.48-.92-58.56,8.01-77.49,26.49-33.7,32.91-33.87,85.77-33.87,86.3.01,3.04-2.44,5.51-5.47,5.52h-.03Z"/>
  <path class="cls-2" d="m326.01,414.48c-2.78,0-5.16-2.09-5.46-4.92-.15-1.39-3.38-34.34,17.69-57.76,13.24-14.72,32.88-22.19,58.38-22.19,3.04,0,5.5,2.46,5.5,5.5s-2.46,5.5-5.5,5.5c-22.21,0-39.08,6.22-50.15,18.48-17.79,19.71-15.01,49.02-14.98,49.32.31,3.02-1.88,5.72-4.9,6.04-.19.02-.39.03-.58.03Z"/>
  <path class="cls-2" d="m368.51,413.82h-.02c-3.03-.01-5.48-2.46-5.48-5.49,0-11.62,7.02-33.61,33.61-33.61,3.04,0,5.5,2.46,5.5,5.5s-2.46,5.5-5.5,5.5c-21.78,0-22.59,20.32-22.61,22.63-.03,3.02-2.48,5.46-5.5,5.46Z"/>
  <path class="cls-1" d="m139.6,411.74c-6.2,0-11.85-1.46-16.95-4.37-13.9-7.96-22.66-26.22-26.06-54.28-2.44-20.15-1.14-37.88-1.08-38.62.21-2.75,2.61-4.82,5.36-4.61,2.75.21,4.82,2.61,4.61,5.36-1.42,18.88-.21,70.67,22.15,83.47,11.5,6.58,28.02,2.5,49.12-12.12,37.45-25.97,65.62-60.57,83.72-102.86,14.94-34.88,18.53-65.08,19.39-76.44,3.83-51.1-10.21-77.83-22.67-91.26-13.76-14.83-33.7-22.34-59.28-22.34-36.08,0-62.55,15.92-78.67,47.33-12.29,23.94-13.73,48.36-13.74,48.6-.15,2.76-2.5,4.83-5.26,4.73-2.76-.15-4.87-2.49-4.73-5.25.06-1.07,1.51-26.53,14.67-52.35,12.34-24.21,37.57-53.06,87.72-53.06,28.48,0,50.89,8.59,66.61,25.54,13.81,14.89,29.42,44.11,25.31,98.81-.89,11.86-4.64,43.37-20.16,79.63-18.86,44.04-48.2,80.09-87.22,107.14-16.28,11.29-30.62,16.95-42.84,16.95Z"/>
  <path class="cls-1" d="m161.23,325.38c-8.11,0-14.61-3.12-18.35-7.49-4.59-5.36-6.63-14.75,1.4-25.07,8.41-10.82,10.14-21.24,11.67-30.44.82-4.96,1.6-9.65,3.31-14,1.15-2.95-.96-5.92-6.43-12.5-5.42-6.53-12.18-14.66-15.33-26.83-6.69-25.85,3.68-52.05,25.82-65.19,12.63-7.5,27.01-9.53,40.49-5.7,16.31,4.62,30.5,17.68,41.01,37.75,22.74,43.41-16.34,98.98-18.01,101.32-1.61,2.25-4.73,2.77-6.98,1.16-2.25-1.6-2.77-4.73-1.16-6.97h0c.37-.52,37.17-52.92,17.29-90.87-9.21-17.58-21.27-28.92-34.88-32.77-10.81-3.06-22.41-1.4-32.66,4.68-18.27,10.85-26.81,32.59-21.25,54.09,2.59,10.01,8.3,16.88,13.34,22.94,5.9,7.1,11.47,13.8,8.05,22.54-1.32,3.38-1.99,7.38-2.75,12-1.64,9.86-3.68,22.12-13.64,34.94-2.19,2.82-5.33,8.18-1.69,12.43,3.89,4.54,14.11,6,25.39-.26,15.47-8.58,16.27-9.76,17.71-11.89l.2-.29c1.56-2.28,4.67-2.87,6.95-1.31,2.28,1.56,2.87,4.67,1.31,6.95l-.18.27c-2.66,3.92-4.43,5.74-21.13,15.01-7.03,3.9-13.67,5.51-19.48,5.51Z"/>
  <path class="cls-1" d="m203.78,206.11h-.03c-2.76-.02-4.98-2.26-4.97-5.01,0-.21-.17-13.69-9.92-20.32-8.58-5.84-22.87-5.09-41.32,2.15-2.57,1.01-5.47-.26-6.48-2.83-1.01-2.57.26-5.47,2.83-6.48,22.04-8.65,39.1-9,50.7-1.04,14.14,9.7,14.2,27.79,14.2,28.56-.02,2.75-2.25,4.97-5,4.97Z"/>
</svg>